<?xml version="1.0" encoding="utf-8" standalone="no"?>
<!DOCTYPE svg PUBLIC "-//W3C//DTD SVG 1.1//EN"
  "http://www.w3.org/Graphics/SVG/1.1/DTD/svg11.dtd">
<!-- Created with matplotlib (http://matplotlib.org/) -->
<svg height="252pt" version="1.1" viewBox="0 0 576 252" width="576pt" xmlns="http://www.w3.org/2000/svg" xmlns:xlink="http://www.w3.org/1999/xlink">
 <defs>
  <style type="text/css">
*{stroke-linecap:butt;stroke-linejoin:round;}
  </style>
 </defs>
 <g id="figure_1">
  <g id="patch_1">
   <path d="
M0 252
L576 252
L576 0
L0 0
z
" style="fill:#ffffff;"/>
  </g>
  <g id="axes_1">
   <g id="patch_2">
    <path d="
M72 214.2
L274.909 214.2
L274.909 25.2
L72 25.2
z
" style="fill:#ffffff;"/>
   </g>
   <g id="matplotlib.axis_1">
    <g id="xtick_1">
     <g id="line2d_1">
      <path clip-path="url(#p61377a7746)" d="
M72 214.2
L72 25.2" style="fill:none;stroke:#cccccc;stroke-linecap:round;"/>
     </g>
     <g id="line2d_2">
      <defs>
       <path d="
M0 0
L0 0" id="m219da94a98" style="stroke:#262626;"/>
      </defs>
      <g>
       <use style="fill:#262626;stroke:#262626;" x="72.0" xlink:href="#m219da94a98" y="214.2"/>
      </g>
     </g>
     <g id="line2d_3">
      <g>
       <use style="fill:#262626;stroke:#262626;" x="72.0" xlink:href="#m219da94a98" y="25.2"/>
      </g>
     </g>
     <g id="text_1">
      <!-- 0.0 -->
      <defs>
       <path d="
M4.15625 35.2969
Q4.15625 48 6.76562 55.7344
Q9.375 63.4844 14.5156 67.6719
Q19.6719 71.875 27.4844 71.875
Q33.25 71.875 37.5938 69.5469
Q41.9375 67.2344 44.7656 62.8594
Q47.6094 58.5 49.2188 52.2188
Q50.8281 45.9531 50.8281 35.2969
Q50.8281 22.7031 48.2344 14.9688
Q45.6562 7.23438 40.5 3
Q35.3594 -1.21875 27.4844 -1.21875
Q17.1406 -1.21875 11.2344 6.20312
Q4.15625 15.1406 4.15625 35.2969
M13.1875 35.2969
Q13.1875 17.6719 17.3125 11.8281
Q21.4375 6 27.4844 6
Q33.5469 6 37.6719 11.8594
Q41.7969 17.7188 41.7969 35.2969
Q41.7969 52.9844 37.6719 58.7812
Q33.5469 64.5938 27.3906 64.5938
Q21.3438 64.5938 17.7188 59.4688
Q13.1875 52.9375 13.1875 35.2969" id="ArialMT-30"/>
       <path d="
M9.07812 0
L9.07812 10.0156
L19.0938 10.0156
L19.0938 0
z
" id="ArialMT-2e"/>
      </defs>
      <g style="fill:#262626;" transform="translate(65.496875 228.3578125)scale(0.1 -0.1)">
       <use xlink:href="#ArialMT-30"/>
       <use x="55.615234375" xlink:href="#ArialMT-2e"/>
       <use x="83.3984375" xlink:href="#ArialMT-30"/>
      </g>
     </g>
    </g>
    <g id="xtick_2">
     <g id="line2d_4">
      <path clip-path="url(#p61377a7746)" d="
M112.582 214.2
L112.582 25.2" style="fill:none;stroke:#cccccc;stroke-linecap:round;"/>
     </g>
     <g id="line2d_5">
      <g>
       <use style="fill:#262626;stroke:#262626;" x="112.581818182" xlink:href="#m219da94a98" y="214.2"/>
      </g>
     </g>
     <g id="line2d_6">
      <g>
       <use style="fill:#262626;stroke:#262626;" x="112.581818182" xlink:href="#m219da94a98" y="25.2"/>
      </g>
     </g>
     <g id="text_2">
      <!-- 0.2 -->
      <defs>
       <path d="
M50.3438 8.45312
L50.3438 0
L3.03125 0
Q2.9375 3.17188 4.04688 6.10938
Q5.85938 10.9375 9.82812 15.625
Q13.8125 20.3125 21.3438 26.4688
Q33.0156 36.0312 37.1094 41.625
Q41.2188 47.2188 41.2188 52.2031
Q41.2188 57.4219 37.4688 61
Q33.7344 64.5938 27.7344 64.5938
Q21.3906 64.5938 17.5781 60.7812
Q13.7656 56.9844 13.7188 50.25
L4.6875 51.1719
Q5.60938 61.2812 11.6562 66.5781
Q17.7188 71.875 27.9375 71.875
Q38.2344 71.875 44.2344 66.1562
Q50.25 60.4531 50.25 52
Q50.25 47.7031 48.4844 43.5469
Q46.7344 39.4062 42.6562 34.8125
Q38.5781 30.2188 29.1094 22.2188
Q21.1875 15.5781 18.9375 13.2031
Q16.7031 10.8438 15.2344 8.45312
z
" id="ArialMT-32"/>
      </defs>
      <g style="fill:#262626;" transform="translate(106.102911932 228.3578125)scale(0.1 -0.1)">
       <use xlink:href="#ArialMT-30"/>
       <use x="55.615234375" xlink:href="#ArialMT-2e"/>
       <use x="83.3984375" xlink:href="#ArialMT-32"/>
      </g>
     </g>
    </g>
    <g id="xtick_3">
     <g id="line2d_7">
      <path clip-path="url(#p61377a7746)" d="
M153.164 214.2
L153.164 25.2" style="fill:none;stroke:#cccccc;stroke-linecap:round;"/>
     </g>
     <g id="line2d_8">
      <g>
       <use style="fill:#262626;stroke:#262626;" x="153.163636364" xlink:href="#m219da94a98" y="214.2"/>
      </g>
     </g>
     <g id="line2d_9">
      <g>
       <use style="fill:#262626;stroke:#262626;" x="153.163636364" xlink:href="#m219da94a98" y="25.2"/>
      </g>
     </g>
     <g id="text_3">
      <!-- 0.4 -->
      <defs>
       <path d="
M32.3281 0
L32.3281 17.1406
L1.26562 17.1406
L1.26562 25.2031
L33.9375 71.5781
L41.1094 71.5781
L41.1094 25.2031
L50.7812 25.2031
L50.7812 17.1406
L41.1094 17.1406
L41.1094 0
z

M32.3281 25.2031
L32.3281 57.4688
L9.90625 25.2031
z
" id="ArialMT-34"/>
      </defs>
      <g style="fill:#262626;" transform="translate(146.662855114 228.3578125)scale(0.1 -0.1)">
       <use xlink:href="#ArialMT-30"/>
       <use x="55.615234375" xlink:href="#ArialMT-2e"/>
       <use x="83.3984375" xlink:href="#ArialMT-34"/>
      </g>
     </g>
    </g>
    <g id="xtick_4">
     <g id="line2d_10">
      <path clip-path="url(#p61377a7746)" d="
M193.745 214.2
L193.745 25.2" style="fill:none;stroke:#cccccc;stroke-linecap:round;"/>
     </g>
     <g id="line2d_11">
      <g>
       <use style="fill:#262626;stroke:#262626;" x="193.745454545" xlink:href="#m219da94a98" y="214.2"/>
      </g>
     </g>
     <g id="line2d_12">
      <g>
       <use style="fill:#262626;stroke:#262626;" x="193.745454545" xlink:href="#m219da94a98" y="25.2"/>
      </g>
     </g>
     <g id="text_4">
      <!-- 0.6 -->
      <defs>
       <path d="
M49.75 54.0469
L41.0156 53.375
Q39.8438 58.5469 37.7031 60.8906
Q34.125 64.6562 28.9062 64.6562
Q24.7031 64.6562 21.5312 62.3125
Q17.3906 59.2812 14.9844 53.4688
Q12.5938 47.6562 12.5 36.9219
Q15.6719 41.75 20.2656 44.0938
Q24.8594 46.4375 29.8906 46.4375
Q38.6719 46.4375 44.8438 39.9688
Q51.0312 33.5 51.0312 23.25
Q51.0312 16.5 48.125 10.7188
Q45.2188 4.9375 40.1406 1.85938
Q35.0625 -1.21875 28.6094 -1.21875
Q17.625 -1.21875 10.6875 6.85938
Q3.76562 14.9375 3.76562 33.5
Q3.76562 54.25 11.4219 63.6719
Q18.1094 71.875 29.4375 71.875
Q37.8906 71.875 43.2812 67.1406
Q48.6875 62.4062 49.75 54.0469
M13.875 23.1875
Q13.875 18.6562 15.7969 14.5
Q17.7188 10.3594 21.1875 8.17188
Q24.6562 6 28.4688 6
Q34.0312 6 38.0312 10.4844
Q42.0469 14.9844 42.0469 22.7031
Q42.0469 30.125 38.0781 34.3906
Q34.125 38.6719 28.125 38.6719
Q22.1719 38.6719 18.0156 34.3906
Q13.875 30.125 13.875 23.1875" id="ArialMT-36"/>
      </defs>
      <g style="fill:#262626;" transform="translate(187.232173295 228.3578125)scale(0.1 -0.1)">
       <use xlink:href="#ArialMT-30"/>
       <use x="55.615234375" xlink:href="#ArialMT-2e"/>
       <use x="83.3984375" xlink:href="#ArialMT-36"/>
      </g>
     </g>
    </g>
    <g id="xtick_5">
     <g id="line2d_13">
      <path clip-path="url(#p61377a7746)" d="
M234.327 214.2
L234.327 25.2" style="fill:none;stroke:#cccccc;stroke-linecap:round;"/>
     </g>
     <g id="line2d_14">
      <g>
       <use style="fill:#262626;stroke:#262626;" x="234.327272727" xlink:href="#m219da94a98" y="214.2"/>
      </g>
     </g>
     <g id="line2d_15">
      <g>
       <use style="fill:#262626;stroke:#262626;" x="234.327272727" xlink:href="#m219da94a98" y="25.2"/>
      </g>
     </g>
     <g id="text_5">
      <!-- 0.8 -->
      <defs>
       <path d="
M17.6719 38.8125
Q12.2031 40.8281 9.5625 44.5312
Q6.9375 48.25 6.9375 53.4219
Q6.9375 61.2344 12.5469 66.5469
Q18.1719 71.875 27.4844 71.875
Q36.8594 71.875 42.5781 66.4219
Q48.2969 60.9844 48.2969 53.1719
Q48.2969 48.1875 45.6719 44.5
Q43.0625 40.8281 37.75 38.8125
Q44.3438 36.6719 47.7812 31.875
Q51.2188 27.0938 51.2188 20.4531
Q51.2188 11.2812 44.7188 5.03125
Q38.2344 -1.21875 27.6406 -1.21875
Q17.0469 -1.21875 10.5469 5.04688
Q4.04688 11.3281 4.04688 20.7031
Q4.04688 27.6875 7.59375 32.3906
Q11.1406 37.1094 17.6719 38.8125
M15.9219 53.7188
Q15.9219 48.6406 19.1875 45.4062
Q22.4688 42.1875 27.6875 42.1875
Q32.7656 42.1875 36.0156 45.375
Q39.2656 48.5781 39.2656 53.2188
Q39.2656 58.0625 35.9062 61.3594
Q32.5625 64.6562 27.5938 64.6562
Q22.5625 64.6562 19.2344 61.4219
Q15.9219 58.2031 15.9219 53.7188
M13.0938 20.6562
Q13.0938 16.8906 14.875 13.375
Q16.6562 9.85938 20.1719 7.92188
Q23.6875 6 27.7344 6
Q34.0312 6 38.125 10.0469
Q42.2344 14.1094 42.2344 20.3594
Q42.2344 26.7031 38.0156 30.8594
Q33.7969 35.0156 27.4375 35.0156
Q21.2344 35.0156 17.1562 30.9062
Q13.0938 26.8125 13.0938 20.6562" id="ArialMT-38"/>
      </defs>
      <g style="fill:#262626;" transform="translate(227.804616477 228.3578125)scale(0.1 -0.1)">
       <use xlink:href="#ArialMT-30"/>
       <use x="55.615234375" xlink:href="#ArialMT-2e"/>
       <use x="83.3984375" xlink:href="#ArialMT-38"/>
      </g>
     </g>
    </g>
    <g id="xtick_6">
     <g id="line2d_16">
      <path clip-path="url(#p61377a7746)" d="
M274.909 214.2
L274.909 25.2" style="fill:none;stroke:#cccccc;stroke-linecap:round;"/>
     </g>
     <g id="line2d_17">
      <g>
       <use style="fill:#262626;stroke:#262626;" x="274.909090909" xlink:href="#m219da94a98" y="214.2"/>
      </g>
     </g>
     <g id="line2d_18">
      <g>
       <use style="fill:#262626;stroke:#262626;" x="274.909090909" xlink:href="#m219da94a98" y="25.2"/>
      </g>
     </g>
     <g id="text_6">
      <!-- 1.0 -->
      <defs>
       <path d="
M37.25 0
L28.4688 0
L28.4688 56
Q25.2969 52.9844 20.1406 49.9531
Q14.9844 46.9219 10.8906 45.4062
L10.8906 53.9062
Q18.2656 57.375 23.7812 62.2969
Q29.2969 67.2344 31.5938 71.875
L37.25 71.875
z
" id="ArialMT-31"/>
      </defs>
      <g style="fill:#262626;" transform="translate(268.742684659 228.3578125)scale(0.1 -0.1)">
       <use xlink:href="#ArialMT-31"/>
       <use x="55.615234375" xlink:href="#ArialMT-2e"/>
       <use x="83.3984375" xlink:href="#ArialMT-30"/>
      </g>
     </g>
    </g>
   </g>
   <g id="matplotlib.axis_2">
    <g id="ytick_1">
     <g id="line2d_19">
      <path clip-path="url(#p61377a7746)" d="
M72 214.2
L274.909 214.2" style="fill:none;stroke:#cccccc;stroke-linecap:round;"/>
     </g>
     <g id="line2d_20">
      <g>
       <use style="fill:#262626;stroke:#262626;" x="72.0" xlink:href="#m219da94a98" y="214.2"/>
      </g>
     </g>
     <g id="line2d_21">
      <g>
       <use style="fill:#262626;stroke:#262626;" x="274.909090909" xlink:href="#m219da94a98" y="214.2"/>
      </g>
     </g>
     <g id="text_7">
      <!-- 0.0 -->
      <g style="fill:#262626;" transform="translate(51.99375 216.78515625)scale(0.1 -0.1)">
       <use xlink:href="#ArialMT-30"/>
       <use x="55.615234375" xlink:href="#ArialMT-2e"/>
       <use x="83.3984375" xlink:href="#ArialMT-30"/>
      </g>
     </g>
    </g>
    <g id="ytick_2">
     <g id="line2d_22">
      <path clip-path="url(#p61377a7746)" d="
M72 176.4
L274.909 176.4" style="fill:none;stroke:#cccccc;stroke-linecap:round;"/>
     </g>
     <g id="line2d_23">
      <g>
       <use style="fill:#262626;stroke:#262626;" x="72.0" xlink:href="#m219da94a98" y="176.4"/>
      </g>
     </g>
     <g id="line2d_24">
      <g>
       <use style="fill:#262626;stroke:#262626;" x="274.909090909" xlink:href="#m219da94a98" y="176.4"/>
      </g>
     </g>
     <g id="text_8">
      <!-- 0.2 -->
      <g style="fill:#262626;" transform="translate(52.0421875 178.98515625)scale(0.1 -0.1)">
       <use xlink:href="#ArialMT-30"/>
       <use x="55.615234375" xlink:href="#ArialMT-2e"/>
       <use x="83.3984375" xlink:href="#ArialMT-32"/>
      </g>
     </g>
    </g>
    <g id="ytick_3">
     <g id="line2d_25">
      <path clip-path="url(#p61377a7746)" d="
M72 138.6
L274.909 138.6" style="fill:none;stroke:#cccccc;stroke-linecap:round;"/>
     </g>
     <g id="line2d_26">
      <g>
       <use style="fill:#262626;stroke:#262626;" x="72.0" xlink:href="#m219da94a98" y="138.6"/>
      </g>
     </g>
     <g id="line2d_27">
      <g>
       <use style="fill:#262626;stroke:#262626;" x="274.909090909" xlink:href="#m219da94a98" y="138.6"/>
      </g>
     </g>
     <g id="text_9">
      <!-- 0.4 -->
      <g style="fill:#262626;" transform="translate(51.9984375 141.18515625)scale(0.1 -0.1)">
       <use xlink:href="#ArialMT-30"/>
       <use x="55.615234375" xlink:href="#ArialMT-2e"/>
       <use x="83.3984375" xlink:href="#ArialMT-34"/>
      </g>
     </g>
    </g>
    <g id="ytick_4">
     <g id="line2d_28">
      <path clip-path="url(#p61377a7746)" d="
M72 100.8
L274.909 100.8" style="fill:none;stroke:#cccccc;stroke-linecap:round;"/>
     </g>
     <g id="line2d_29">
      <g>
       <use style="fill:#262626;stroke:#262626;" x="72.0" xlink:href="#m219da94a98" y="100.8"/>
      </g>
     </g>
     <g id="line2d_30">
      <g>
       <use style="fill:#262626;stroke:#262626;" x="274.909090909" xlink:href="#m219da94a98" y="100.8"/>
      </g>
     </g>
     <g id="text_10">
      <!-- 0.6 -->
      <g style="fill:#262626;" transform="translate(51.9734375 103.38515625)scale(0.1 -0.1)">
       <use xlink:href="#ArialMT-30"/>
       <use x="55.615234375" xlink:href="#ArialMT-2e"/>
       <use x="83.3984375" xlink:href="#ArialMT-36"/>
      </g>
     </g>
    </g>
    <g id="ytick_5">
     <g id="line2d_31">
      <path clip-path="url(#p61377a7746)" d="
M72 63
L274.909 63" style="fill:none;stroke:#cccccc;stroke-linecap:round;"/>
     </g>
     <g id="line2d_32">
      <g>
       <use style="fill:#262626;stroke:#262626;" x="72.0" xlink:href="#m219da94a98" y="63.0"/>
      </g>
     </g>
     <g id="line2d_33">
      <g>
       <use style="fill:#262626;stroke:#262626;" x="274.909090909" xlink:href="#m219da94a98" y="63.0"/>
      </g>
     </g>
     <g id="text_11">
      <!-- 0.8 -->
      <g style="fill:#262626;" transform="translate(51.9546875 65.58515625)scale(0.1 -0.1)">
       <use xlink:href="#ArialMT-30"/>
       <use x="55.615234375" xlink:href="#ArialMT-2e"/>
       <use x="83.3984375" xlink:href="#ArialMT-38"/>
      </g>
     </g>
    </g>
    <g id="ytick_6">
     <g id="line2d_34">
      <path clip-path="url(#p61377a7746)" d="
M72 25.2
L274.909 25.2" style="fill:none;stroke:#cccccc;stroke-linecap:round;"/>
     </g>
     <g id="line2d_35">
      <g>
       <use style="fill:#262626;stroke:#262626;" x="72.0" xlink:href="#m219da94a98" y="25.2"/>
      </g>
     </g>
     <g id="line2d_36">
      <g>
       <use style="fill:#262626;stroke:#262626;" x="274.909090909" xlink:href="#m219da94a98" y="25.2"/>
      </g>
     </g>
     <g id="text_12">
      <!-- 1.0 -->
      <g style="fill:#262626;" transform="translate(52.6671875 27.78515625)scale(0.1 -0.1)">
       <use xlink:href="#ArialMT-31"/>
       <use x="55.615234375" xlink:href="#ArialMT-2e"/>
       <use x="83.3984375" xlink:href="#ArialMT-30"/>
      </g>
     </g>
    </g>
   </g>
   <g id="line2d_37">
    <path clip-path="url(#p61377a7746)" d="
M72.0094 214.191
L274.909 25.2
L274.909 25.2" style="fill:none;stroke:#4878cf;stroke-linecap:round;stroke-width:1.75;"/>
   </g>
   <g id="line2d_38">
    <path clip-path="url(#p61377a7746)" d="
M72.0094 214.2
L79.2669 213.876
L79.5204 213.859
L86.5713 213.542
L88.6932 213.467
L95.5469 213.159
L95.7253 213.137
L102.701 212.622
L102.917 212.594
L119.488 211.552
L119.61 211.497
L127.262 210.487
L128.436 210.342
L129.487 210.209
L138.162 209.334
L141.993 208.66
L142.66 208.531
L142.951 208.485
L144.612 208.205
L144.734 208.151
L146.349 207.932
L149.936 207.406
L150.171 207.284
L152.048 206.927
L152.17 206.86
L152.903 206.707
L153.419 206.625
L153.785 206.504
L154.574 206.344
L155.776 206.088
L155.888 205.912
L156.517 205.785
L157.306 205.581
L158.104 205.447
L158.602 205.339
L158.724 205.285
L163.869 203.971
L163.991 203.885
L164.854 203.686
L164.977 203.581
L165.756 203.368
L165.878 203.303
L166.16 203.185
L173.455 200.939
L173.595 200.901
L173.877 200.844
L174.121 200.71
L174.628 200.322
L175.633 200.069
L175.933 199.918
L176.45 199.795
L176.919 199.673
L177.304 199.552
L177.792 199.427
L179.219 199.03
L179.379 198.967
L180.383 198.701
L181.228 198.506
L181.379 198.44
L181.764 198.318
L181.895 198.237
L182.308 198.094
L182.599 197.944
L183.294 197.757
L183.444 197.694
L183.942 197.565
L184.242 197.208
L185.5 196.821
L185.632 196.718
L186.862 196.283
L187.012 196.251
L187.247 196.161
L187.369 196.08
L187.594 195.833
L187.791 195.684
L188.458 195.521
L188.599 195.377
L188.937 195.235
L189.152 195.128
L189.34 195.081
L190.073 194.858
L190.242 194.75
L190.307 194.733
L190.429 194.565
L191.34 194.283
L191.772 194.134
L192.054 193.772
L192.448 193.687
L192.561 193.28
L192.899 193.17
L193.077 193.077
L193.499 192.917
L193.913 192.687
L194.044 192.588
L194.936 192.255
L195.096 192.117
L195.236 192.071
L195.358 191.932
L195.631 191.813
L195.922 191.615
L196.063 191.493
L196.203 191.398
L196.532 191.279
L197.067 191.029
L197.415 190.774
L197.687 190.666
L197.809 190.602
L198.429 190.367
L198.616 190.322
L198.795 190.236
L198.917 189.915
L199.377 189.782
L199.565 189.489
L199.658 189.377
L199.874 189.243
L199.987 188.921
L200.344 188.673
L200.748 188.513
L200.87 188.345
L201.029 188.18
L201.161 188.082
L202.006 187.762
L202.231 187.661
L202.372 187.592
L203.226 187.281
L203.395 187.21
L204.494 186.838
L204.616 186.643
L205.348 186.389
L205.47 186.265
L205.677 186.129
L205.827 185.964
L206.043 185.794
L206.231 185.372
L206.362 185.251
L206.597 185.145
L206.813 185.058
L206.944 184.938
L206.982 184.903
L207.132 184.341
L207.404 184.25
L207.545 184.059
L207.733 183.917
L208.005 183.784
L208.127 183.715
L208.324 183.55
L208.578 183.411
L208.859 183.344
L208.991 183.183
L209.357 182.97
L209.479 182.735
L210.005 182.551
L210.127 182.419
L210.418 182.3
L210.718 182.115
L210.925 182.007
L211.404 181.84
L211.714 181.734
L211.864 181.532
L212.005 181.438
L212.465 181.303
L212.577 181.058
L212.906 180.921
L213.028 180.773
L213.385 180.656
L213.526 180.557
L213.695 180.466
L213.817 180.306
L213.864 180.296
L213.976 179.665
L214.427 179.53
L214.558 179.45
L214.737 179.385
L214.868 179.201
L215.009 179.121
L215.15 178.868
L215.356 178.758
L215.525 178.596
L215.732 178.483
L215.863 178.091
L216.042 177.969
L216.126 177.923
L216.248 177.621
L216.596 177.517
L216.708 177.044
L216.877 176.959
L217.018 176.845
L217.347 176.675
L217.553 176.438
L217.882 176.117
L218.004 175.937
L218.464 175.673
L218.596 175.58
L218.83 175.43
L219.168 175.035
L219.45 174.852
L219.619 174.719
L219.994 174.597
L220.126 174.438
L220.314 174.376
L220.426 174.001
L220.699 173.89
L220.821 173.632
L221.046 173.553
L221.187 173.189
L221.206 173.172
L221.318 172.752
L221.365 172.737
L221.487 172.484
L221.788 172.346
L222.079 172.191
L223.074 171.76
L223.187 171.703
L223.309 171.564
L223.356 171.554
L223.478 171.362
L224.032 171.089
L224.154 170.903
L224.379 170.665
L224.501 170.574
L224.679 170.425
L225.29 170.104
L225.44 169.607
L225.581 169.521
L225.703 169.165
L226.022 168.999
L226.285 168.604
L226.351 168.567
L226.463 166.813
L227.956 165.785
L228.078 165.657
L228.388 165.535
L228.566 165.41
L228.632 165.395
L228.745 162.778
L230.162 161.989
L230.313 161.583
L230.538 161.455
L233.824 159.71
L233.984 159.587
L234.124 159.488
L234.322 159.247
L234.603 159.116
L234.754 159.038
L235.073 158.93
L235.195 158.818
L235.411 158.684
L235.523 157.971
L235.824 157.77
L236.612 157.355
L236.772 157.183
L236.969 157.071
L237.091 156.866
L237.27 156.729
L237.457 156.62
L237.805 156.431
L237.936 156.282
L238.246 156.146
L238.396 156.089
L239.025 155.854
L239.147 155.618
L239.429 155.368
L239.551 155.184
L239.701 155.047
L241.006 154.409
L241.232 154.303
L241.354 154.216
L241.551 154.089
L241.814 153.979
L243.222 153.345
L243.344 152.846
L244.217 152.414
L244.602 152.282
L244.753 152.201
L245.034 152.054
L245.156 151.752
L245.241 151.673
L245.363 151.446
L246.02 151.026
L246.151 150.77
L246.396 150.648
L246.405 150.643
L246.536 150.269
L246.593 150.248
L246.715 150.028
L246.912 149.911
L247.184 149.664
L247.306 149.29
L247.447 149.192
L247.569 149.094
L247.804 148.867
L247.935 148.765
L248.142 148.651
L248.921 148.306
L249.043 148.143
L249.24 148.01
L249.287 147.976
L249.409 147.586
L249.569 147.435
L249.822 147.288
L249.944 147.186
L250.855 146.582
L250.93 146.525
L251.052 146.25
L251.259 146.125
L251.484 146.002
L251.747 145.852
L252.508 145.309
L252.63 145.231
L252.789 145.149
L253.08 144.984
L253.324 144.816
L253.615 144.646
L253.775 144.525
L254.169 144.317
L254.385 144.178
L254.395 144.175
L254.536 143.731
L254.864 143.592
L255.033 143.148
L255.296 143.034
L255.54 142.817
L255.681 142.74
L255.803 142.482
L255.916 142.425
L256.038 142.22
L256.301 141.954
L256.441 141.771
L256.62 141.515
L256.695 141.392
L256.826 140.916
L256.855 140.891
L256.986 140.652
L257.305 140.332
L257.455 139.781
L257.916 139.141
L258.188 138.752
L258.385 137.966
L259.117 136.748
L259.258 136.224
L259.296 136.113
L259.352 136.002
L259.483 135.669
L260.328 134.444
L260.45 134.149
L260.657 133.94
L260.826 133.553
L261.098 133.326
L261.22 132.966
L261.286 132.946
L261.408 132.441
L261.68 132.247
L261.831 132.136
L262.413 131.588
L262.535 131.533
L262.657 131.3
L263.023 131.074
L263.051 130.923
L263.173 130.516
L263.333 130.348
L263.455 130.073
L263.793 129.873
L264.028 129.653
L264.112 129.596
L264.244 129.272
L265.257 128.171
L265.539 128.002
L265.68 127.628
L265.746 127.478
L266.478 125.599
L266.647 125.341
L266.685 125.082
L267.192 121.46
L268.252 116.3
L268.365 116.189
L268.506 115.864
L268.562 115.816
L268.694 115.443
L269.004 114.989
L269.276 114.403
L269.342 114.282
L269.539 113.929
L269.755 113.731
L269.764 113.71
L269.877 111.042
L270.14 108.573
L270.262 107.477
L270.412 107.044
L270.6 106.435
L270.656 106.3
L270.797 105.449
L271.041 104.84
L271.163 103.373
L271.201 103.328
L271.323 102.155
L271.454 101.57
L271.717 99.315
L271.773 99.046
L271.933 97.963
L272.055 96.9883
L272.233 94.8987
L272.252 94.8411
L272.44 93.6717
L272.656 93.0803
L272.778 91.0303
L272.891 89.0134
L273.022 86.6258
L273.041 86.4816
L273.163 83.5081
L273.172 83.5034
L273.501 78.0713
L273.707 69.305
L273.717 69.3048
L273.876 63.414
L274.008 59.5974
L274.036 59.3707
L274.233 48.1032
L274.43 45.1754
L274.477 44.6886
L274.665 37.9555
L274.684 37.9456
L274.834 30.6811
L274.909 25.2
L274.909 25.2" style="fill:none;stroke:#d65f5f;stroke-linecap:round;stroke-width:1.75;"/>
   </g>
   <g id="line2d_39">
    <path clip-path="url(#p61377a7746)" d="
M72.0094 214.2
L72.7699 214.125
L72.8919 214.085
L73.8214 213.99
L73.9435 213.958
L75.8682 213.872
L75.9902 213.754
L76.3188 213.647
L76.5817 213.388
L77.2107 213.336
L77.3234 212.081
L77.9525 211.997
L78.0745 211.934
L78.2435 211.928
L78.3562 211.821
L78.5533 211.818
L78.6754 211.68
L79.7175 211.663
L79.8302 211.309
L81.9051 211.208
L82.0272 211.179
L82.628 211.073
L82.7501 211.038
L83.2007 211.015
L85.2475 210.906
L85.3695 210.877
L85.7169 210.79
L85.8014 210.687
L85.9423 210.661
L86.7779 210.595
L87.0501 209.708
L87.2379 209.685
L87.3506 209.428
L87.6979 209.336
L87.8294 209.279
L88.0641 209.186
L88.2613 208.492
L88.618 208.449
L88.7401 207.764
L89.3316 207.055
L89.4536 206.975
L89.5757 206.909
L90.2423 206.799
L90.6178 206.603
L90.7399 206.531
L90.9277 206.508
L91.0403 206.252
L91.1154 206.235
L91.2281 206.019
L91.5192 205.915
L91.6882 205.904
L91.8572 205.817
L92.0449 205.466
L93.2936 205.356
L93.7255 205.123
L93.8382 204.271
L94.0729 204.21
L94.1856 202.926
L94.4109 202.84
L94.5329 202.788
L94.6644 202.713
L94.824 201.964
L95.3498 201.898
L95.4624 201.771
L97.5092 201.688
L97.6312 201.647
L97.7251 201.642
L97.8378 201.486
L98.9175 201.403
L99.1052 201.109
L99.2273 201.074
L99.5935 201.04
L99.7155 200.948
L99.8939 200.945
L100.007 200.236
L100.607 200.13
L100.729 200.018
L102.326 199.917
L102.457 199.874
L102.88 199.85
L102.992 199.715
L103.471 199.606
L103.593 199.571
L104.419 199.502
L104.541 199.444
L106.382 199.367
L106.504 199.326
L109.311 199.243
L109.423 199.168
L109.63 199.139
L109.752 198.678
L110.419 198.618
L110.531 198.509
L111.01 198.419
L111.123 198.31
L111.235 198.272
L111.348 198.169
L111.367 198.169
L111.498 197.803
L111.63 197.728
L111.761 197.319
L111.855 197.305
L111.977 197.072
L112.09 197.046
L112.24 195.969
L112.569 195.9
L112.71 195.024
L112.832 194.961
L112.972 194.376
L113.019 194.373
L113.132 192.239
L113.207 192.225
L113.329 191.327
L113.357 191.327
L113.489 190.805
L113.601 190.805
L113.723 190.411
L113.911 190.348
L114.127 189.498
L114.268 189.455
L114.418 189.089
L114.662 188.922
L114.794 188.381
L115.047 187.35
L115.667 187.243
L115.845 187.223
L116.474 187.114
L116.606 187.091
L117.376 187.053
L117.498 186.82
L117.789 186.71
L117.939 186.699
L119.751 186.59
L119.892 186.535
L120.446 186.313
L120.558 186.034
L120.718 185.936
L120.831 185.838
L120.953 185.826
L121.065 184.623
L121.188 184.605
L121.3 184.415
L121.638 184.309
L121.835 184.199
L122.079 184.182
L122.192 183.166
L122.643 183.068
L122.755 182.814
L122.887 182.814
L123.009 182.639
L123.366 182.552
L123.497 182.451
L123.91 182.394
L124.032 182.233
L124.718 182.155
L124.83 182.068
L125.844 182.005
L125.966 181.927
L126.248 181.916
L126.361 181.527
L126.877 181.42
L127.065 181.397
L127.431 181.291
L127.675 181.161
L128.145 181.078
L128.257 175.713
L128.473 175.681
L128.586 175.563
L129.187 175.494
L129.271 175.387
L129.412 175.252
L129.543 175.22
L129.666 174.624
L129.985 174.515
L130.435 174.403
L130.557 174.161
L130.708 174.112
L130.82 173.971
L131.496 173.864
L131.675 172.539
L131.816 172.522
L132.679 172.416
L132.792 165.375
L133.111 165.081
L133.186 165.081
L133.299 164.692
L133.468 164.652
L133.543 164.543
L133.89 164.491
L134.003 164.07
L134.566 164.039
L134.679 163.82
L134.707 163.82
L134.82 163.342
L135.092 163.324
L135.214 163.08
L135.289 163.031
L135.402 162.852
L135.984 162.835
L136.106 162.561
L136.172 162.561
L136.285 162.152
L137.58 162.049
L137.749 162.037
L138.444 161.942
L138.566 161.896
L139.768 161.787
L140.688 161.62
L140.979 161.576
L141.092 161.458
L141.683 161.366
L141.833 161.165
L142.951 161.061
L143.091 160.998
L143.655 160.923
L143.767 160.517
L143.833 160.407
L143.983 160.301
L144.321 160.263
L144.434 160.154
L144.612 160.068
L144.772 159.702
L145.119 159.653
L145.241 159.572
L145.251 159.572
L145.373 158.795
L145.41 158.786
L145.542 156.793
L145.655 156.635
L145.73 156.623
L145.842 148.583
L145.87 148.583
L145.983 147.935
L146.03 147.935
L146.152 147.466
L146.284 147.328
L146.312 147.328
L146.434 147.071
L146.471 147.071
L146.584 146.936
L146.772 146.913
L147.279 146.815
L147.41 146.784
L148.725 146.732
L148.837 146.634
L149.044 146.573
L149.166 146.415
L149.438 146.412
L149.56 146.208
L150.462 146.101
L150.574 145.804
L151.738 145.695
L153.466 145.28
L154.442 145.22
L154.555 144.987
L155.109 144.964
L155.222 144.822
L155.409 144.799
L155.625 144.779
L155.738 144.653
L155.776 144.581
L155.888 143.829
L156.001 143.774
L156.114 143.671
L156.17 143.659
L156.283 143.296
L156.677 143.21
L156.799 143.144
L157.071 143.08
L157.231 142.51
L157.437 142.343
L157.559 141.974
L157.897 141.891
L158.019 141.643
L158.142 141.6
L158.235 141.597
L158.348 141.352
L158.658 141.257
L158.78 141.231
L159.005 141.139
L159.156 140.946
L159.663 140.843
L159.785 140.82
L160.442 140.742
L160.554 140.607
L161.043 140.514
L161.362 139.622
L161.399 139.622
L161.512 139.374
L161.737 139.314
L161.859 139.149
L162.77 139.075
L162.892 139.003
L163.869 138.954
L163.981 138.568
L164.61 138.55
L164.732 138.277
L164.854 138.228
L164.967 136.935
L165.286 136.929
L165.399 136.823
L165.737 136.739
L165.859 136.661
L166.066 136.641
L166.188 136.022
L166.432 135.918
L166.573 135.878
L166.976 135.769
L167.286 135.613
L167.408 135.432
L168.009 135.354
L168.15 135.164
L168.272 135.138
L168.563 135.132
L168.676 135.008
L169.155 134.899
L169.295 134.833
L169.784 134.801
L169.906 133.836
L169.962 133.836
L170.075 133.649
L171.098 133.595
L171.22 133.511
L171.361 133.402
L171.483 133.364
L171.633 133.324
L171.774 133.312
L171.887 132.817
L172.309 132.803
L173.173 132.699
L173.361 132.67
L173.708 132.564
L173.83 132.512
L174.365 132.408
L174.544 132.264
L174.985 132.158
L175.098 132.097
L175.135 132.063
L175.248 126.85
L176.543 126.741
L176.994 126.557
L177.107 126.355
L177.501 126.263
L177.642 126.156
L178.618 126.05
L178.75 126.03
L179.229 125.995
L179.341 125.897
L180.13 125.788
L180.252 125.696
L181.247 125.615
L181.379 125.554
L181.463 125.554
L181.576 125.341
L182.44 125.241
L182.562 125.209
L182.9 125.2
L183.012 125.062
L183.604 124.964
L183.726 124.938
L183.989 124.909
L184.017 124.495
L184.13 116.835
L184.167 116.823
L184.28 116.515
L185.341 116.167
L185.453 116.06
L185.838 116.051
L185.96 115.861
L186.073 115.815
L186.195 115.55
L186.364 115.519
L186.805 115.493
L186.918 113.811
L187.218 113.759
L187.331 113.327
L187.481 113.321
L187.594 113.126
L187.979 113.082
L188.101 112.973
L188.242 112.956
L188.458 112.941
L188.57 111.712
L188.739 111.703
L189.397 111.594
L189.697 111.539
L189.96 111.481
L190.073 110.877
L190.082 110.877
L190.204 110.744
L190.899 110.635
L191.021 110.597
L191.838 110.327
L191.95 110.114
L192.504 110.033
L192.636 109.946
L193.058 109.863
L193.18 109.797
L193.575 109.699
L193.706 109.63
L193.931 109.552
L194.053 109.474
L194.204 109.428
L194.316 108.869
L194.851 108.78
L194.973 108.596
L195.049 108.596
L195.161 108.412
L195.518 108.322
L195.64 108.245
L196.429 108.118
L196.842 108.026
L196.964 107.994
L197.03 107.994
L197.142 107.752
L197.17 107.744
L197.283 107.562
L197.433 107.533
L197.546 107.433
L198.795 107.332
L199.067 106.678
L199.593 106.586
L199.743 106.482
L200.128 106.413
L200.259 106.289
L200.748 106.206
L200.87 106.105
L200.935 105.996
L201.273 105.915
L201.771 105.805
L201.987 105.627
L202.372 105.598
L202.484 105.365
L203.264 105.29
L203.386 105.244
L203.846 105.166
L203.959 105.054
L204.362 104.973
L204.484 104.921
L205.01 104.847
L205.132 104.777
L205.179 104.777
L205.301 104.579
L205.686 104.498
L205.799 104.383
L206.005 104.279
L206.127 103.971
L206.353 103.931
L206.503 103.499
L206.813 103.453
L206.935 103.044
L207.066 103.027
L207.188 102.707
L207.404 102.646
L207.526 102.523
L208.277 102.462
L208.39 102.045
L208.916 101.987
L209.028 101.889
L209.517 101.855
L210.033 101.745
L210.512 101.578
L210.916 101.492
L211.038 101.428
L211.714 101.359
L211.883 101.063
L212.521 100.953
L212.69 100.858
L212.906 100.838
L213.019 100.081
L213.695 100.009
L213.817 99.7034
L213.864 99.7034
L213.986 99.1016
L214.577 99.0036
L214.709 98.9864
L215.328 98.7358
L215.629 98.6725
L215.732 98.612
L215.845 97.0224
L215.967 97.0138
L216.089 96.8439
L216.99 96.7402
L217.112 96.6999
L217.244 96.674
L217.356 96.2363
L217.854 96.1297
L217.976 95.5538
L218.802 95.4847
L218.962 95.0844
L219.61 94.9778
L219.825 94.9721
L219.994 94.9375
L220.107 94.831
L220.314 94.7878
L220.426 94.5689
L220.699 94.4681
L220.811 92.8325
L220.971 92.7374
L221.102 92.5301
L221.403 92.4351
L221.525 92.3487
L221.722 92.3487
L221.844 91.9657
L222.144 91.8793
L222.276 91.8188
L222.539 91.7238
L222.661 91.6835
L223.675 91.574
L223.787 91.4301
L224.201 91.3264
L224.417 91.2774
L225.308 91.2112
L225.421 90.8484
L225.834 90.785
L225.956 90.7332
L226.088 90.6237
L226.219 90.4279
L226.332 89.4488
L226.351 89.4488
L226.473 89.1263
L226.595 89.0572
L227.449 89.0284
L227.571 88.7923
L228.379 88.7174
L228.491 88.5072
L228.529 88.5072
L228.651 88.2538
L229.233 88.2192
L229.355 88.0205
L229.655 87.9312
L229.777 87.8967
L229.89 87.8823
L230.003 87.0212
L230.529 86.9291
L230.669 86.8657
L231.233 86.7966
L231.345 86.6757
L232.2 86.6094
L232.312 86.5173
L232.866 86.4194
L232.988 86.3877
L233.495 86.3676
L233.617 86.2293
L234.293 86.1314
L234.416 86.0997
L234.988 86.0594
L235.11 85.9644
L235.317 85.9529
L235.439 85.8147
L235.73 85.7254
L235.852 85.6592
L236.641 85.5497
L236.904 85.518
L237.429 85.423
L237.551 85.351
L237.88 85.2733
L238.002 85.2272
L238.415 85.2157
L238.885 85.1149
L239.007 85.0515
L239.429 84.9853
L239.542 84.7636
L239.964 84.7348
L240.077 84.3633
L240.565 84.2539
L241.692 84.0235
L242.574 83.9515
L242.687 83.3842
L243.41 83.2776
L243.541 83.2575
L244.461 83.1481
L244.734 83.1193
L244.846 82.5808
L245.241 82.5174
L245.353 82.3101
L245.879 82.2179
L246.011 82.1891
L246.508 82.0826
L246.677 82.0509
L246.856 82.025
L246.968 81.8839
L247.184 81.8349
L247.306 81.7025
L247.4 81.7025
L247.522 81.5441
L247.748 81.5326
L247.813 81.4231
L247.935 81.3972
L248.386 81.2503
L248.921 81.1582
L249.062 81.0804
L250.02 80.9768
L250.151 80.9278
L250.564 80.8184
L250.733 80.7867
L250.958 80.7176
L251.081 80.6542
L251.296 80.5535
L251.428 80.5275
L251.681 80.4325
L251.794 80.3576
L251.935 80.3058
L252.048 80.0178
L252.461 79.9286
L252.583 79.8738
L253.249 79.7846
L253.456 79.7615
L253.569 79.5225
L254.094 79.439
L254.207 79.1885
L254.498 79.1453
L254.611 79.0042
L254.958 78.8948
L255.23 78.8573
L255.681 78.7968
L255.794 78.6385
L256.019 78.5665
L256.141 78.29
L256.498 78.2036
L256.62 78.1144
L256.761 78.0568
L256.892 77.9214
L257.587 77.8149
L257.624 77.7803
L257.737 77.4981
L258.216 77.38
L258.338 77.0431
L258.554 77.0316
L258.676 76.6054
L258.948 76.5507
L259.061 76.4844
L259.192 76.4125
L259.343 76.231
L259.577 76.1677
L259.699 76.0755
L260.056 76.0122
L260.169 75.4276
L260.188 75.4017
L260.3 74.9755
L260.826 74.7826
L260.948 74.6443
L261.042 74.5522
L261.164 74.5003
L261.352 74.46
L261.464 74.2498
L261.981 74.1634
L262.103 74.1202
L262.563 74.0137
L262.694 73.7804
L263.032 73.6911
L263.051 73.6595
L263.164 72.4961
L263.596 72.4097
L263.727 72.2571
L263.793 72.2571
L263.915 72.0728
L264.075 71.8453
L264.244 71.8222
L264.375 71.4392
L264.497 71.373
L264.619 71.2693
L264.769 71.1829
L264.891 71.1023
L264.957 71.085
L265.07 70.6387
L265.511 70.5379
L265.68 70.4112
L265.783 70.3939
L265.915 69.8669
L266.046 69.8583
L266.159 69.6077
L266.253 69.5329
L266.375 69.4148
L266.572 69.3716
L266.694 69.2622
L266.807 69.2276
L266.929 68.8302
L267.06 68.7467
L267.182 67.7187
L267.192 67.7158
L267.314 67.1312
L267.483 67.0967
L267.595 66.7424
L267.614 66.7223
L267.736 66.3566
L267.745 66.3537
L267.896 64.9513
L268.046 64.8966
L268.168 64.7324
L268.544 64.6921
L268.722 63.9117
L268.872 63.8772
L268.985 63.7648
L269.173 63.7418
L269.285 63.0305
L269.745 62.9326
L269.867 62.7483
L270.055 62.5122
L270.168 61.7116
L270.346 61.6166
L270.487 61.5158
L270.618 61.4179
L270.806 60.9802
L270.872 60.9427
L270.985 60.1767
L270.994 60.1767
L271.144 59.5317
L271.332 59.4251
L271.351 59.4165
L271.595 56.1711
L271.764 56.0703
L271.895 55.9206
L271.999 55.8658
L272.13 54.9904
L272.215 54.9127
L272.346 54.6708
L272.393 54.6593
L272.515 54.3483
L272.656 54.3252
L272.778 53.7867
L273.06 53.398
L273.172 51.8746
L273.191 51.7968
L273.388 49.6803
L273.473 49.5536
L273.689 48.6695
L273.811 48.4564
L273.867 48.3873
L273.942 47.8229
L274.073 46.3485
L274.421 37.1392
L274.749 34.9017
L274.9 25.2
L274.909 25.2
L274.909 25.2" style="fill:none;stroke:#b47cc7;stroke-linecap:round;stroke-width:1.75;"/>
   </g>
   <g id="patch_3">
    <path d="
M72 25.2
L274.909 25.2" style="fill:none;stroke:#cccccc;"/>
   </g>
   <g id="patch_4">
    <path d="
M274.909 214.2
L274.909 25.2" style="fill:none;stroke:#cccccc;"/>
   </g>
   <g id="patch_5">
    <path d="
M72 214.2
L274.909 214.2" style="fill:none;stroke:#cccccc;"/>
   </g>
   <g id="patch_6">
    <path d="
M72 214.2
L72 25.2" style="fill:none;stroke:#cccccc;"/>
   </g>
   <g id="text_13">
    <!-- Age Cumulative Fraction -->
    <defs>
     <path d="
M40.4375 19
L49.0781 17.875
Q47.6562 8.9375 41.8125 3.875
Q35.9844 -1.17188 27.4844 -1.17188
Q16.8438 -1.17188 10.375 5.78125
Q3.90625 12.75 3.90625 25.7344
Q3.90625 34.125 6.6875 40.4219
Q9.46875 46.7344 15.1562 49.875
Q20.8438 53.0312 27.5469 53.0312
Q35.9844 53.0312 41.3594 48.75
Q46.7344 44.4844 48.25 36.625
L39.7031 35.2969
Q38.4844 40.5312 35.375 43.1562
Q32.2812 45.7969 27.875 45.7969
Q21.2344 45.7969 17.0781 41.0312
Q12.9375 36.2812 12.9375 25.9844
Q12.9375 15.5312 16.9375 10.7969
Q20.9531 6.0625 27.3906 6.0625
Q32.5625 6.0625 36.0312 9.23438
Q39.5 12.4062 40.4375 19" id="ArialMT-63"/>
     <path d="
M40.4375 6.39062
Q35.5469 2.25 31.0312 0.53125
Q26.5156 -1.17188 21.3438 -1.17188
Q12.7969 -1.17188 8.20312 3
Q3.60938 7.17188 3.60938 13.6719
Q3.60938 17.4844 5.34375 20.625
Q7.07812 23.7812 9.89062 25.6875
Q12.7031 27.5938 16.2188 28.5625
Q18.7969 29.25 24.0312 29.8906
Q34.6719 31.1562 39.7031 32.9062
Q39.75 34.7188 39.75 35.2031
Q39.75 40.5781 37.25 42.7812
Q33.8906 45.75 27.25 45.75
Q21.0469 45.75 18.0938 43.5781
Q15.1406 41.4062 13.7188 35.8906
L5.125 37.0625
Q6.29688 42.5781 8.98438 45.9688
Q11.6719 49.3594 16.75 51.1875
Q21.8281 53.0312 28.5156 53.0312
Q35.1562 53.0312 39.2969 51.4688
Q43.4531 49.9062 45.4062 47.5312
Q47.3594 45.1719 48.1406 41.5469
Q48.5781 39.3125 48.5781 33.4531
L48.5781 21.7344
Q48.5781 9.46875 49.1406 6.21875
Q49.7031 2.98438 51.375 0
L42.1875 0
Q40.8281 2.73438 40.4375 6.39062
M39.7031 26.0312
Q34.9062 24.0781 25.3438 22.7031
Q19.9219 21.9219 17.6719 20.9375
Q15.4375 19.9688 14.2031 18.0938
Q12.9844 16.2188 12.9844 13.9219
Q12.9844 10.4062 15.6406 8.0625
Q18.3125 5.71875 23.4375 5.71875
Q28.5156 5.71875 32.4688 7.9375
Q36.4219 10.1562 38.2812 14.0156
Q39.7031 17 39.7031 22.7969
z
" id="ArialMT-61"/>
     <path d="
M4.98438 -4.29688
L13.5312 -5.5625
Q14.0625 -9.51562 16.5 -11.3281
Q19.7812 -13.7656 25.4375 -13.7656
Q31.5469 -13.7656 34.8594 -11.3281
Q38.1875 -8.89062 39.3594 -4.5
Q40.0469 -1.8125 39.9844 6.78125
Q34.2344 0 25.6406 0
Q14.9375 0 9.07812 7.71875
Q3.21875 15.4375 3.21875 26.2188
Q3.21875 33.6406 5.90625 39.9062
Q8.59375 46.1875 13.6875 49.6094
Q18.7969 53.0312 25.6875 53.0312
Q34.8594 53.0312 40.8281 45.6094
L40.8281 51.8594
L48.9219 51.8594
L48.9219 7.03125
Q48.9219 -5.07812 46.4531 -10.125
Q44 -15.1875 38.6406 -18.1094
Q33.2969 -21.0469 25.4844 -21.0469
Q16.2188 -21.0469 10.5 -16.875
Q4.78125 -12.7031 4.98438 -4.29688
M12.25 26.8594
Q12.25 16.6562 16.2969 11.9688
Q20.3594 7.28125 26.4688 7.28125
Q32.5156 7.28125 36.6094 11.9375
Q40.7188 16.6094 40.7188 26.5625
Q40.7188 36.0781 36.5 40.9062
Q32.2812 45.75 26.3125 45.75
Q20.4531 45.75 16.3438 40.9844
Q12.25 36.2344 12.25 26.8594" id="ArialMT-67"/>
     <path d="
M21 0
L1.26562 51.8594
L10.5469 51.8594
L21.6875 20.7969
Q23.4844 15.7656 25 10.3594
Q26.1719 14.4531 28.2656 20.2188
L39.7969 51.8594
L48.8281 51.8594
L29.2031 0
z
" id="ArialMT-76"/>
     <path d="
M42.0938 16.7031
L51.1719 15.5781
Q49.0312 7.625 43.2188 3.21875
Q37.4062 -1.17188 28.375 -1.17188
Q17 -1.17188 10.3281 5.82812
Q3.65625 12.8438 3.65625 25.4844
Q3.65625 38.5781 10.3906 45.7969
Q17.1406 53.0312 27.875 53.0312
Q38.2812 53.0312 44.875 45.9531
Q51.4688 38.875 51.4688 26.0312
Q51.4688 25.25 51.4219 23.6875
L12.75 23.6875
Q13.2344 15.1406 17.5781 10.5938
Q21.9219 6.0625 28.4219 6.0625
Q33.25 6.0625 36.6719 8.59375
Q40.0938 11.1406 42.0938 16.7031
M13.2344 30.9062
L42.1875 30.9062
Q41.6094 37.4531 38.875 40.7188
Q34.6719 45.7969 27.9844 45.7969
Q21.9219 45.7969 17.7969 41.75
Q13.6719 37.7031 13.2344 30.9062" id="ArialMT-65"/>
     <path d="
M-0.140625 0
L27.3438 71.5781
L37.5469 71.5781
L66.8438 0
L56.0625 0
L47.7031 21.6875
L17.7812 21.6875
L9.90625 0
z

M20.5156 29.3906
L44.7812 29.3906
L37.3125 49.2188
Q33.8906 58.25 32.2344 64.0625
Q30.8594 57.1719 28.375 50.3906
z
" id="ArialMT-41"/>
     <path d="
M40.5781 0
L40.5781 7.625
Q34.5156 -1.17188 24.125 -1.17188
Q19.5312 -1.17188 15.5469 0.578125
Q11.5781 2.34375 9.64062 5
Q7.71875 7.67188 6.9375 11.5312
Q6.39062 14.1094 6.39062 19.7344
L6.39062 51.8594
L15.1875 51.8594
L15.1875 23.0938
Q15.1875 16.2188 15.7188 13.8125
Q16.5469 10.3594 19.2344 8.375
Q21.9219 6.39062 25.875 6.39062
Q29.8281 6.39062 33.2969 8.42188
Q36.7656 10.4531 38.2031 13.9375
Q39.6562 17.4375 39.6562 24.0781
L39.6562 51.8594
L48.4375 51.8594
L48.4375 0
z
" id="ArialMT-75"/>
     <path d="
M58.7969 25.0938
L68.2656 22.7031
Q65.2812 11.0312 57.5469 4.90625
Q49.8125 -1.21875 38.625 -1.21875
Q27.0469 -1.21875 19.7969 3.48438
Q12.5469 8.20312 8.76562 17.1406
Q4.98438 26.0781 4.98438 36.3281
Q4.98438 47.5156 9.25 55.8281
Q13.5312 64.1562 21.4062 68.4688
Q29.2969 72.7969 38.7656 72.7969
Q49.5156 72.7969 56.8281 67.3281
Q64.1562 61.8594 67.0469 51.9531
L57.7188 49.75
Q55.2188 57.5625 50.4844 61.125
Q45.75 64.7031 38.5781 64.7031
Q30.3281 64.7031 24.7812 60.7344
Q19.2344 56.7812 16.9844 50.1094
Q14.75 43.4531 14.75 36.375
Q14.75 27.25 17.4062 20.4375
Q20.0625 13.625 25.6719 10.25
Q31.2969 6.89062 37.8438 6.89062
Q45.7969 6.89062 51.3125 11.4688
Q56.8438 16.0625 58.7969 25.0938" id="ArialMT-43"/>
     <path d="
M6.5 0
L6.5 51.8594
L14.4062 51.8594
L14.4062 44
Q17.4375 49.5156 20 51.2656
Q22.5625 53.0312 25.6406 53.0312
Q30.0781 53.0312 34.6719 50.2031
L31.6406 42.0469
Q28.4219 43.9531 25.2031 43.9531
Q22.3125 43.9531 20.0156 42.2188
Q17.7188 40.4844 16.75 37.4062
Q15.2812 32.7188 15.2812 27.1562
L15.2812 0
z
" id="ArialMT-72"/>
     <path d="
M8.20312 0
L8.20312 71.5781
L56.5 71.5781
L56.5 63.1406
L17.6719 63.1406
L17.6719 40.9688
L51.2656 40.9688
L51.2656 32.5156
L17.6719 32.5156
L17.6719 0
z
" id="ArialMT-46"/>
     <path d="
M6.39062 0
L6.39062 71.5781
L15.1875 71.5781
L15.1875 0
z
" id="ArialMT-6c"/>
     <path d="
M25.7812 7.85938
L27.0469 0.09375
Q23.3438 -0.6875 20.4062 -0.6875
Q15.625 -0.6875 12.9844 0.828125
Q10.3594 2.34375 9.28125 4.8125
Q8.20312 7.28125 8.20312 15.1875
L8.20312 45.0156
L1.76562 45.0156
L1.76562 51.8594
L8.20312 51.8594
L8.20312 64.7031
L16.9375 69.9688
L16.9375 51.8594
L25.7812 51.8594
L25.7812 45.0156
L16.9375 45.0156
L16.9375 14.7031
Q16.9375 10.9375 17.4062 9.85938
Q17.875 8.79688 18.9219 8.15625
Q19.9688 7.51562 21.9219 7.51562
Q23.3906 7.51562 25.7812 7.85938" id="ArialMT-74"/>
     <path d="
M3.32812 25.9219
Q3.32812 40.3281 11.3281 47.2656
Q18.0156 53.0312 27.6406 53.0312
Q38.3281 53.0312 45.1094 46.0156
Q51.9062 39.0156 51.9062 26.6562
Q51.9062 16.6562 48.9062 10.9062
Q45.9062 5.17188 40.1562 2
Q34.4219 -1.17188 27.6406 -1.17188
Q16.75 -1.17188 10.0312 5.8125
Q3.32812 12.7969 3.32812 25.9219
M12.3594 25.9219
Q12.3594 15.9688 16.7031 11.0156
Q21.0469 6.0625 27.6406 6.0625
Q34.1875 6.0625 38.5312 11.0312
Q42.875 16.0156 42.875 26.2188
Q42.875 35.8438 38.5 40.7969
Q34.125 45.75 27.6406 45.75
Q21.0469 45.75 16.7031 40.8125
Q12.3594 35.8906 12.3594 25.9219" id="ArialMT-6f"/>
     <path d="
M6.59375 0
L6.59375 51.8594
L14.5 51.8594
L14.5 44.4844
Q20.2188 53.0312 31 53.0312
Q35.6875 53.0312 39.625 51.3438
Q43.5625 49.6562 45.5156 46.9219
Q47.4688 44.1875 48.25 40.4375
Q48.7344 37.9844 48.7344 31.8906
L48.7344 0
L39.9375 0
L39.9375 31.5469
Q39.9375 36.9219 38.9062 39.5781
Q37.8906 42.2344 35.2812 43.8125
Q32.6719 45.4062 29.1562 45.4062
Q23.5312 45.4062 19.4531 41.8438
Q15.375 38.2812 15.375 28.3281
L15.375 0
z
" id="ArialMT-6e"/>
     <path d="
M6.59375 0
L6.59375 51.8594
L14.4531 51.8594
L14.4531 44.5781
Q16.8906 48.3906 20.9375 50.7031
Q25 53.0312 30.1719 53.0312
Q35.9375 53.0312 39.625 50.6406
Q43.3125 48.25 44.8281 43.9531
Q50.9844 53.0312 60.8438 53.0312
Q68.5625 53.0312 72.7031 48.75
Q76.8594 44.4844 76.8594 35.5938
L76.8594 0
L68.1094 0
L68.1094 32.6719
Q68.1094 37.9375 67.25 40.25
Q66.4062 42.5781 64.1562 43.9844
Q61.9219 45.4062 58.8906 45.4062
Q53.4219 45.4062 49.7969 41.7656
Q46.1875 38.1406 46.1875 30.125
L46.1875 0
L37.4062 0
L37.4062 33.6875
Q37.4062 39.5469 35.25 42.4688
Q33.1094 45.4062 28.2188 45.4062
Q24.5156 45.4062 21.3594 43.4531
Q18.2188 41.5 16.7969 37.7344
Q15.375 33.9844 15.375 26.9062
L15.375 0
z
" id="ArialMT-6d"/>
     <path d="
M6.64062 61.4688
L6.64062 71.5781
L15.4375 71.5781
L15.4375 61.4688
z

M6.64062 0
L6.64062 51.8594
L15.4375 51.8594
L15.4375 0
z
" id="ArialMT-69"/>
     <path id="ArialMT-20"/>
    </defs>
    <g style="fill:#262626;" transform="translate(91.8451704545 20.2)scale(0.15 -0.15)">
     <use xlink:href="#ArialMT-41"/>
     <use x="66.69921875" xlink:href="#ArialMT-67"/>
     <use x="122.314453125" xlink:href="#ArialMT-65"/>
     <use x="177.9296875" xlink:href="#ArialMT-20"/>
     <use x="205.712890625" xlink:href="#ArialMT-43"/>
     <use x="277.9296875" xlink:href="#ArialMT-75"/>
     <use x="333.544921875" xlink:href="#ArialMT-6d"/>
     <use x="416.845703125" xlink:href="#ArialMT-75"/>
     <use x="472.4609375" xlink:href="#ArialMT-6c"/>
     <use x="494.677734375" xlink:href="#ArialMT-61"/>
     <use x="550.29296875" xlink:href="#ArialMT-74"/>
     <use x="578.076171875" xlink:href="#ArialMT-69"/>
     <use x="600.29296875" xlink:href="#ArialMT-76"/>
     <use x="650.29296875" xlink:href="#ArialMT-65"/>
     <use x="705.908203125" xlink:href="#ArialMT-20"/>
     <use x="733.69140625" xlink:href="#ArialMT-46"/>
     <use x="794.775390625" xlink:href="#ArialMT-72"/>
     <use x="828.076171875" xlink:href="#ArialMT-61"/>
     <use x="883.69140625" xlink:href="#ArialMT-63"/>
     <use x="933.69140625" xlink:href="#ArialMT-74"/>
     <use x="961.474609375" xlink:href="#ArialMT-69"/>
     <use x="983.69140625" xlink:href="#ArialMT-6f"/>
     <use x="1039.30664062" xlink:href="#ArialMT-6e"/>
    </g>
   </g>
   <g id="legend_1">
    <g id="line2d_40">
     <path d="
M81 37.8578
L101 37.8578" style="fill:none;stroke:#4878cf;stroke-linecap:round;stroke-width:1.75;"/>
    </g>
    <g id="line2d_41"/>
    <g id="text_14">
     <!-- Count -->
     <g style="fill:#262626;" transform="translate(109.0 41.3578125)scale(0.1 -0.1)">
      <use xlink:href="#ArialMT-43"/>
      <use x="72.216796875" xlink:href="#ArialMT-6f"/>
      <use x="127.83203125" xlink:href="#ArialMT-75"/>
      <use x="183.447265625" xlink:href="#ArialMT-6e"/>
      <use x="239.0625" xlink:href="#ArialMT-74"/>
     </g>
    </g>
    <g id="line2d_42">
     <path d="
M81 52.0031
L101 52.0031" style="fill:none;stroke:#d65f5f;stroke-linecap:round;stroke-width:1.75;"/>
    </g>
    <g id="line2d_43"/>
    <g id="text_15">
     <!-- Stock -->
     <defs>
      <path d="
M4.5 23
L13.4219 23.7812
Q14.0625 18.4062 16.375 14.9688
Q18.7031 11.5312 23.5781 9.40625
Q28.4688 7.28125 34.5781 7.28125
Q39.9844 7.28125 44.1406 8.89062
Q48.2969 10.5 50.3125 13.2969
Q52.3438 16.1094 52.3438 19.4375
Q52.3438 22.7969 50.3906 25.3125
Q48.4375 27.8281 43.9531 29.5469
Q41.0625 30.6719 31.2031 33.0312
Q21.3438 35.4062 17.3906 37.5
Q12.25 40.1875 9.73438 44.1562
Q7.23438 48.1406 7.23438 53.0781
Q7.23438 58.5 10.2969 63.2031
Q13.375 67.9219 19.2812 70.3594
Q25.2031 72.7969 32.4219 72.7969
Q40.375 72.7969 46.4531 70.2344
Q52.5469 67.6719 55.8125 62.6875
Q59.0781 57.7188 59.3281 51.4219
L50.25 50.7344
Q49.5156 57.5156 45.2812 60.9844
Q41.0625 64.4531 32.8125 64.4531
Q24.2188 64.4531 20.2812 61.2969
Q16.3594 58.1562 16.3594 53.7188
Q16.3594 49.8594 19.1406 47.3594
Q21.875 44.875 33.4219 42.2656
Q44.9688 39.6562 49.2656 37.7031
Q55.5156 34.8125 58.4844 30.3906
Q61.4688 25.9844 61.4688 20.2188
Q61.4688 14.5 58.2031 9.4375
Q54.9375 4.39062 48.7969 1.57812
Q42.6719 -1.21875 35.0156 -1.21875
Q25.2969 -1.21875 18.7188 1.60938
Q12.1562 4.4375 8.42188 10.125
Q4.6875 15.8281 4.5 23" id="ArialMT-53"/>
      <path d="
M6.64062 0
L6.64062 71.5781
L15.4375 71.5781
L15.4375 30.7656
L36.2344 51.8594
L47.6094 51.8594
L27.7812 32.625
L49.6094 0
L38.7656 0
L21.625 26.5156
L15.4375 20.5625
L15.4375 0
z
" id="ArialMT-6b"/>
     </defs>
     <g style="fill:#262626;" transform="translate(109.0 55.503125)scale(0.1 -0.1)">
      <use xlink:href="#ArialMT-53"/>
      <use x="66.69921875" xlink:href="#ArialMT-74"/>
      <use x="94.482421875" xlink:href="#ArialMT-6f"/>
      <use x="150.09765625" xlink:href="#ArialMT-63"/>
      <use x="200.09765625" xlink:href="#ArialMT-6b"/>
     </g>
    </g>
    <g id="line2d_44">
     <path d="
M81 66.1484
L101 66.1484" style="fill:none;stroke:#b47cc7;stroke-linecap:round;stroke-width:1.75;"/>
    </g>
    <g id="line2d_45"/>
    <g id="text_16">
     <!-- Transfers -->
     <defs>
      <path d="
M8.6875 0
L8.6875 45.0156
L0.921875 45.0156
L0.921875 51.8594
L8.6875 51.8594
L8.6875 57.375
Q8.6875 62.5938 9.625 65.1406
Q10.8906 68.5625 14.0781 70.6719
Q17.2812 72.7969 23.0469 72.7969
Q26.7656 72.7969 31.25 71.9219
L29.9375 64.2656
Q27.2031 64.75 24.75 64.75
Q20.75 64.75 19.0938 63.0312
Q17.4375 61.3281 17.4375 56.6406
L17.4375 51.8594
L27.5469 51.8594
L27.5469 45.0156
L17.4375 45.0156
L17.4375 0
z
" id="ArialMT-66"/>
      <path d="
M25.9219 0
L25.9219 63.1406
L2.34375 63.1406
L2.34375 71.5781
L59.0781 71.5781
L59.0781 63.1406
L35.4062 63.1406
L35.4062 0
z
" id="ArialMT-54"/>
      <path d="
M3.07812 15.4844
L11.7656 16.8438
Q12.5 11.625 15.8438 8.84375
Q19.1875 6.0625 25.2031 6.0625
Q31.25 6.0625 34.1719 8.51562
Q37.1094 10.9844 37.1094 14.3125
Q37.1094 17.2812 34.5156 19
Q32.7188 20.1719 25.5312 21.9688
Q15.875 24.4219 12.1406 26.2031
Q8.40625 27.9844 6.46875 31.125
Q4.54688 34.2812 4.54688 38.0938
Q4.54688 41.5469 6.125 44.5
Q7.71875 47.4688 10.4531 49.4219
Q12.5 50.9219 16.0312 51.9688
Q19.5781 53.0312 23.6406 53.0312
Q29.7344 53.0312 34.3438 51.2656
Q38.9688 49.5156 41.1562 46.5
Q43.3594 43.5 44.1875 38.4844
L35.5938 37.3125
Q35.0156 41.3125 32.2031 43.5469
Q29.3906 45.7969 24.2656 45.7969
Q18.2188 45.7969 15.625 43.7969
Q13.0312 41.7969 13.0312 39.1094
Q13.0312 37.4062 14.1094 36.0312
Q15.1875 34.625 17.4844 33.6875
Q18.7969 33.2031 25.25 31.4531
Q34.5781 28.9531 38.25 27.3594
Q41.9375 25.7812 44.0312 22.75
Q46.1406 19.7344 46.1406 15.2344
Q46.1406 10.8438 43.5781 6.95312
Q41.0156 3.07812 36.1719 0.953125
Q31.3438 -1.17188 25.25 -1.17188
Q15.1406 -1.17188 9.84375 3.03125
Q4.54688 7.23438 3.07812 15.4844" id="ArialMT-73"/>
     </defs>
     <g style="fill:#262626;" transform="translate(109.0 69.6484375)scale(0.1 -0.1)">
      <use xlink:href="#ArialMT-54"/>
      <use x="57.333984375" xlink:href="#ArialMT-72"/>
      <use x="90.634765625" xlink:href="#ArialMT-61"/>
      <use x="146.25" xlink:href="#ArialMT-6e"/>
      <use x="201.865234375" xlink:href="#ArialMT-73"/>
      <use x="251.865234375" xlink:href="#ArialMT-66"/>
      <use x="279.6484375" xlink:href="#ArialMT-65"/>
      <use x="335.263671875" xlink:href="#ArialMT-72"/>
      <use x="368.564453125" xlink:href="#ArialMT-73"/>
     </g>
    </g>
   </g>
  </g>
  <g id="axes_2">
   <g id="patch_7">
    <path d="
M315.491 214.2
L518.4 214.2
L518.4 25.2
L315.491 25.2
z
" style="fill:#ffffff;"/>
   </g>
   <g id="matplotlib.axis_3">
    <g id="xtick_7">
     <g id="line2d_46">
      <path clip-path="url(#p28d4a36a73)" d="
M315.491 214.2
L315.491 25.2" style="fill:none;stroke:#cccccc;stroke-linecap:round;"/>
     </g>
     <g id="line2d_47">
      <g>
       <use style="fill:#262626;stroke:#262626;" x="315.490909091" xlink:href="#m219da94a98" y="214.2"/>
      </g>
     </g>
     <g id="line2d_48">
      <g>
       <use style="fill:#262626;stroke:#262626;" x="315.490909091" xlink:href="#m219da94a98" y="25.2"/>
      </g>
     </g>
     <g id="text_17">
      <!-- 0.0 -->
      <g style="fill:#262626;" transform="translate(308.987784091 228.3578125)scale(0.1 -0.1)">
       <use xlink:href="#ArialMT-30"/>
       <use x="55.615234375" xlink:href="#ArialMT-2e"/>
       <use x="83.3984375" xlink:href="#ArialMT-30"/>
      </g>
     </g>
    </g>
    <g id="xtick_8">
     <g id="line2d_49">
      <path clip-path="url(#p28d4a36a73)" d="
M356.073 214.2
L356.073 25.2" style="fill:none;stroke:#cccccc;stroke-linecap:round;"/>
     </g>
     <g id="line2d_50">
      <g>
       <use style="fill:#262626;stroke:#262626;" x="356.072727273" xlink:href="#m219da94a98" y="214.2"/>
      </g>
     </g>
     <g id="line2d_51">
      <g>
       <use style="fill:#262626;stroke:#262626;" x="356.072727273" xlink:href="#m219da94a98" y="25.2"/>
      </g>
     </g>
     <g id="text_18">
      <!-- 0.2 -->
      <g style="fill:#262626;" transform="translate(349.593821023 228.3578125)scale(0.1 -0.1)">
       <use xlink:href="#ArialMT-30"/>
       <use x="55.615234375" xlink:href="#ArialMT-2e"/>
       <use x="83.3984375" xlink:href="#ArialMT-32"/>
      </g>
     </g>
    </g>
    <g id="xtick_9">
     <g id="line2d_52">
      <path clip-path="url(#p28d4a36a73)" d="
M396.655 214.2
L396.655 25.2" style="fill:none;stroke:#cccccc;stroke-linecap:round;"/>
     </g>
     <g id="line2d_53">
      <g>
       <use style="fill:#262626;stroke:#262626;" x="396.654545455" xlink:href="#m219da94a98" y="214.2"/>
      </g>
     </g>
     <g id="line2d_54">
      <g>
       <use style="fill:#262626;stroke:#262626;" x="396.654545455" xlink:href="#m219da94a98" y="25.2"/>
      </g>
     </g>
     <g id="text_19">
      <!-- 0.4 -->
      <g style="fill:#262626;" transform="translate(390.153764205 228.3578125)scale(0.1 -0.1)">
       <use xlink:href="#ArialMT-30"/>
       <use x="55.615234375" xlink:href="#ArialMT-2e"/>
       <use x="83.3984375" xlink:href="#ArialMT-34"/>
      </g>
     </g>
    </g>
    <g id="xtick_10">
     <g id="line2d_55">
      <path clip-path="url(#p28d4a36a73)" d="
M437.236 214.2
L437.236 25.2" style="fill:none;stroke:#cccccc;stroke-linecap:round;"/>
     </g>
     <g id="line2d_56">
      <g>
       <use style="fill:#262626;stroke:#262626;" x="437.236363636" xlink:href="#m219da94a98" y="214.2"/>
      </g>
     </g>
     <g id="line2d_57">
      <g>
       <use style="fill:#262626;stroke:#262626;" x="437.236363636" xlink:href="#m219da94a98" y="25.2"/>
      </g>
     </g>
     <g id="text_20">
      <!-- 0.6 -->
      <g style="fill:#262626;" transform="translate(430.723082386 228.3578125)scale(0.1 -0.1)">
       <use xlink:href="#ArialMT-30"/>
       <use x="55.615234375" xlink:href="#ArialMT-2e"/>
       <use x="83.3984375" xlink:href="#ArialMT-36"/>
      </g>
     </g>
    </g>
    <g id="xtick_11">
     <g id="line2d_58">
      <path clip-path="url(#p28d4a36a73)" d="
M477.818 214.2
L477.818 25.2" style="fill:none;stroke:#cccccc;stroke-linecap:round;"/>
     </g>
     <g id="line2d_59">
      <g>
       <use style="fill:#262626;stroke:#262626;" x="477.818181818" xlink:href="#m219da94a98" y="214.2"/>
      </g>
     </g>
     <g id="line2d_60">
      <g>
       <use style="fill:#262626;stroke:#262626;" x="477.818181818" xlink:href="#m219da94a98" y="25.2"/>
      </g>
     </g>
     <g id="text_21">
      <!-- 0.8 -->
      <g style="fill:#262626;" transform="translate(471.295525568 228.3578125)scale(0.1 -0.1)">
       <use xlink:href="#ArialMT-30"/>
       <use x="55.615234375" xlink:href="#ArialMT-2e"/>
       <use x="83.3984375" xlink:href="#ArialMT-38"/>
      </g>
     </g>
    </g>
    <g id="xtick_12">
     <g id="line2d_61">
      <path clip-path="url(#p28d4a36a73)" d="
M518.4 214.2
L518.4 25.2" style="fill:none;stroke:#cccccc;stroke-linecap:round;"/>
     </g>
     <g id="line2d_62">
      <g>
       <use style="fill:#262626;stroke:#262626;" x="518.4" xlink:href="#m219da94a98" y="214.2"/>
      </g>
     </g>
     <g id="line2d_63">
      <g>
       <use style="fill:#262626;stroke:#262626;" x="518.4" xlink:href="#m219da94a98" y="25.2"/>
      </g>
     </g>
     <g id="text_22">
      <!-- 1.0 -->
      <g style="fill:#262626;" transform="translate(512.23359375 228.3578125)scale(0.1 -0.1)">
       <use xlink:href="#ArialMT-31"/>
       <use x="55.615234375" xlink:href="#ArialMT-2e"/>
       <use x="83.3984375" xlink:href="#ArialMT-30"/>
      </g>
     </g>
    </g>
   </g>
   <g id="matplotlib.axis_4">
    <g id="ytick_7">
     <g id="line2d_64">
      <path clip-path="url(#p28d4a36a73)" d="
M315.491 214.2
L518.4 214.2" style="fill:none;stroke:#cccccc;stroke-linecap:round;"/>
     </g>
     <g id="line2d_65">
      <g>
       <use style="fill:#262626;stroke:#262626;" x="315.490909091" xlink:href="#m219da94a98" y="214.2"/>
      </g>
     </g>
     <g id="line2d_66">
      <g>
       <use style="fill:#262626;stroke:#262626;" x="518.4" xlink:href="#m219da94a98" y="214.2"/>
      </g>
     </g>
     <g id="text_23">
      <!-- 0.0 -->
      <g style="fill:#262626;" transform="translate(295.484659091 216.78515625)scale(0.1 -0.1)">
       <use xlink:href="#ArialMT-30"/>
       <use x="55.615234375" xlink:href="#ArialMT-2e"/>
       <use x="83.3984375" xlink:href="#ArialMT-30"/>
      </g>
     </g>
    </g>
    <g id="ytick_8">
     <g id="line2d_67">
      <path clip-path="url(#p28d4a36a73)" d="
M315.491 176.4
L518.4 176.4" style="fill:none;stroke:#cccccc;stroke-linecap:round;"/>
     </g>
     <g id="line2d_68">
      <g>
       <use style="fill:#262626;stroke:#262626;" x="315.490909091" xlink:href="#m219da94a98" y="176.4"/>
      </g>
     </g>
     <g id="line2d_69">
      <g>
       <use style="fill:#262626;stroke:#262626;" x="518.4" xlink:href="#m219da94a98" y="176.4"/>
      </g>
     </g>
     <g id="text_24">
      <!-- 0.2 -->
      <g style="fill:#262626;" transform="translate(295.533096591 178.98515625)scale(0.1 -0.1)">
       <use xlink:href="#ArialMT-30"/>
       <use x="55.615234375" xlink:href="#ArialMT-2e"/>
       <use x="83.3984375" xlink:href="#ArialMT-32"/>
      </g>
     </g>
    </g>
    <g id="ytick_9">
     <g id="line2d_70">
      <path clip-path="url(#p28d4a36a73)" d="
M315.491 138.6
L518.4 138.6" style="fill:none;stroke:#cccccc;stroke-linecap:round;"/>
     </g>
     <g id="line2d_71">
      <g>
       <use style="fill:#262626;stroke:#262626;" x="315.490909091" xlink:href="#m219da94a98" y="138.6"/>
      </g>
     </g>
     <g id="line2d_72">
      <g>
       <use style="fill:#262626;stroke:#262626;" x="518.4" xlink:href="#m219da94a98" y="138.6"/>
      </g>
     </g>
     <g id="text_25">
      <!-- 0.4 -->
      <g style="fill:#262626;" transform="translate(295.489346591 141.18515625)scale(0.1 -0.1)">
       <use xlink:href="#ArialMT-30"/>
       <use x="55.615234375" xlink:href="#ArialMT-2e"/>
       <use x="83.3984375" xlink:href="#ArialMT-34"/>
      </g>
     </g>
    </g>
    <g id="ytick_10">
     <g id="line2d_73">
      <path clip-path="url(#p28d4a36a73)" d="
M315.491 100.8
L518.4 100.8" style="fill:none;stroke:#cccccc;stroke-linecap:round;"/>
     </g>
     <g id="line2d_74">
      <g>
       <use style="fill:#262626;stroke:#262626;" x="315.490909091" xlink:href="#m219da94a98" y="100.8"/>
      </g>
     </g>
     <g id="line2d_75">
      <g>
       <use style="fill:#262626;stroke:#262626;" x="518.4" xlink:href="#m219da94a98" y="100.8"/>
      </g>
     </g>
     <g id="text_26">
      <!-- 0.6 -->
      <g style="fill:#262626;" transform="translate(295.464346591 103.38515625)scale(0.1 -0.1)">
       <use xlink:href="#ArialMT-30"/>
       <use x="55.615234375" xlink:href="#ArialMT-2e"/>
       <use x="83.3984375" xlink:href="#ArialMT-36"/>
      </g>
     </g>
    </g>
    <g id="ytick_11">
     <g id="line2d_76">
      <path clip-path="url(#p28d4a36a73)" d="
M315.491 63
L518.4 63" style="fill:none;stroke:#cccccc;stroke-linecap:round;"/>
     </g>
     <g id="line2d_77">
      <g>
       <use style="fill:#262626;stroke:#262626;" x="315.490909091" xlink:href="#m219da94a98" y="63.0"/>
      </g>
     </g>
     <g id="line2d_78">
      <g>
       <use style="fill:#262626;stroke:#262626;" x="518.4" xlink:href="#m219da94a98" y="63.0"/>
      </g>
     </g>
     <g id="text_27">
      <!-- 0.8 -->
      <g style="fill:#262626;" transform="translate(295.445596591 65.58515625)scale(0.1 -0.1)">
       <use xlink:href="#ArialMT-30"/>
       <use x="55.615234375" xlink:href="#ArialMT-2e"/>
       <use x="83.3984375" xlink:href="#ArialMT-38"/>
      </g>
     </g>
    </g>
    <g id="ytick_12">
     <g id="line2d_79">
      <path clip-path="url(#p28d4a36a73)" d="
M315.491 25.2
L518.4 25.2" style="fill:none;stroke:#cccccc;stroke-linecap:round;"/>
     </g>
     <g id="line2d_80">
      <g>
       <use style="fill:#262626;stroke:#262626;" x="315.490909091" xlink:href="#m219da94a98" y="25.2"/>
      </g>
     </g>
     <g id="line2d_81">
      <g>
       <use style="fill:#262626;stroke:#262626;" x="518.4" xlink:href="#m219da94a98" y="25.2"/>
      </g>
     </g>
     <g id="text_28">
      <!-- 1.0 -->
      <g style="fill:#262626;" transform="translate(296.158096591 27.78515625)scale(0.1 -0.1)">
       <use xlink:href="#ArialMT-31"/>
       <use x="55.615234375" xlink:href="#ArialMT-2e"/>
       <use x="83.3984375" xlink:href="#ArialMT-30"/>
      </g>
     </g>
    </g>
   </g>
   <g id="line2d_82">
    <path clip-path="url(#p28d4a36a73)" d="
M315.5 214.191
L518.4 25.2
L518.4 25.2" style="fill:none;stroke:#4878cf;stroke-linecap:round;stroke-width:1.75;"/>
   </g>
   <g id="line2d_83">
    <path clip-path="url(#p28d4a36a73)" d="
M315.5 214.2
L366.641 212.589
L394.591 210.838
L413.828 209.034
L427.94 207.267
L438.84 205.557
L447.853 203.858
L455.392 202.197
L461.148 200.733
L465.889 199.366
L469.851 198.089
L475.775 195.886
L480.883 193.669
L484.948 191.639
L488.065 189.869
L491.698 187.501
L494.355 185.495
L497.285 182.947
L499.632 180.593
L501.679 178.209
L503.669 175.521
L505.387 172.806
L506.936 169.952
L508.495 166.598
L509.828 163.146
L511.049 159.381
L512.288 154.816
L513.321 150.14
L514.26 144.835
L515.067 138.993
L515.827 131.659
L516.513 122.736
L517.104 112.05
L517.611 98.8216
L517.978 83.8875
L518.184 67.0271
L518.381 31.6385
L518.4 25.2
L518.4 25.2" style="fill:none;stroke:#d65f5f;stroke-linecap:round;stroke-width:1.75;"/>
   </g>
   <g id="line2d_84">
    <path clip-path="url(#p28d4a36a73)" d="
M315.5 214.2
L319.35 214.114
L319.472 214.073
L320.176 213.987
L320.298 213.958
L322.824 213.86
L322.946 213.837
L326.156 213.748
L326.279 213.722
L329.358 213.653
L329.471 213.071
L331.292 213.005
L331.414 212.944
L332.222 212.887
L332.334 212.8
L333.17 212.703
L333.311 212.688
L334.635 212.636
L334.747 212.538
L336.747 212.441
L336.86 212.337
L339.16 212.236
L339.282 212.201
L339.733 212.095
L339.883 212.078
L340.784 212.029
L340.897 211.931
L341.366 211.873
L341.479 211.721
L342.286 211.66
L342.408 211.536
L342.953 211.447
L343.084 211.148
L343.732 211.064
L344.286 211.041
L344.455 210.261
L345.469 210.151
L345.638 210.14
L347.131 210.05
L347.253 209.961
L348.107 209.892
L348.229 209.797
L348.38 209.771
L348.492 209.402
L348.577 209.397
L348.689 209.057
L348.746 209.057
L348.868 208.691
L348.896 208.691
L349.018 208.409
L349.027 208.4
L349.14 207.623
L349.375 207.516
L349.497 207.217
L349.713 207.116
L349.844 206.972
L349.938 206.932
L350.07 206.474
L350.182 206.373
L350.464 206.192
L350.605 205.27
L350.962 205.207
L351.084 204.513
L351.14 204.495
L351.281 203.591
L351.393 203.395
L351.6 201.863
L352.041 201.763
L352.182 201.737
L352.201 201.737
L352.313 201.555
L352.98 201.449
L353.252 201.408
L353.722 201.38
L353.834 201.215
L354.266 201.109
L354.388 200.971
L354.989 200.864
L355.186 200.789
L355.881 200.735
L355.994 200.556
L358.012 200.447
L358.407 200.441
L359.055 200.337
L359.195 200.323
L361.195 200.242
L361.308 200.144
L363.364 200.064
L363.477 200.006
L363.796 199.934
L363.909 199.473
L364.66 199.41
L364.782 199.338
L365.589 199.254
L365.711 199.2
L366.556 199.093
L366.678 199.053
L367.223 198.958
L367.335 197.944
L368.087 197.904
L368.199 197.789
L369.063 197.682
L369.176 196.392
L369.27 196.366
L369.382 195.966
L369.41 195.963
L369.532 195.816
L370.227 195.735
L370.34 194.906
L370.715 194.869
L370.828 194.607
L370.997 194.607
L371.11 194.244
L371.269 194.224
L371.711 194.131
L371.833 193.53
L372.302 193.423
L372.518 193.417
L373.842 193.311
L373.926 193.285
L374.039 193.095
L375.137 193
L375.269 192.945
L375.382 192.836
L375.56 192.821
L375.936 192.712
L376.048 192.654
L376.827 192.568
L376.94 192.306
L377.428 192.228
L377.541 191.845
L378.367 191.736
L378.489 191.704
L378.696 191.594
L379.381 191.416
L379.494 190.944
L380.339 190.851
L380.451 190.371
L381.334 190.27
L381.475 190.255
L381.879 190.215
L382.001 190.013
L382.799 189.913
L382.921 189.884
L384.066 189.774
L384.46 189.769
L384.733 189.757
L384.845 189.651
L386.019 189.541
L386.432 189.53
L388.62 189.426
L388.789 189.417
L389.812 189.311
L389.953 189.296
L392.187 189.187
L392.319 189.17
L393.783 189.075
L393.896 188.988
L394.619 188.879
L394.741 188.847
L396.506 188.738
L396.656 188.674
L397.483 188.591
L397.605 188.542
L400.262 188.433
L400.618 188.34
L402.261 188.231
L402.534 188.191
L403.172 188.084
L403.285 188.026
L403.82 187.943
L403.933 187.862
L405.05 187.756
L405.2 187.675
L405.735 187.569
L405.857 187.367
L406.393 187.266
L406.515 187.22
L406.533 187.22
L406.646 186.973
L407.05 186.941
L407.162 186.759
L407.275 186.739
L407.388 186.598
L407.735 186.543
L407.848 186.397
L408.205 186.394
L408.336 185.956
L408.758 185.881
L408.927 185.489
L408.937 185.489
L409.059 185.155
L409.172 179.131
L409.294 179.088
L409.406 177.884
L409.547 177.864
L409.66 175.929
L409.913 175.845
L410.064 175.612
L410.411 175.578
L410.524 175.189
L410.683 175.056
L411.594 174.624
L412.026 174.552
L412.148 174.431
L412.73 174.368
L412.796 174.365
L412.918 174.149
L413.415 174.04
L413.659 173.913
L414.467 173.815
L414.598 173.798
L414.814 173.758
L414.927 173.628
L415.312 173.521
L415.434 173.216
L415.659 173.115
L415.791 173.092
L416.57 173.009
L416.692 172.954
L417.096 172.888
L417.265 172.537
L417.434 172.537
L417.546 172.381
L418.128 172.344
L418.241 172.252
L418.955 172.159
L419.077 172.136
L420.109 172.05
L420.232 172.004
L420.645 171.975
L420.757 171.727
L420.983 171.716
L421.48 171.658
L421.593 171.437
L422.044 171.414
L422.194 170.642
L422.56 170.596
L422.682 170.472
L423.283 170.388
L423.396 170.276
L424.165 170.195
L424.287 170
L425.17 169.91
L425.32 169.818
L425.921 169.798
L426.034 169.571
L426.212 169.504
L426.344 169.329
L426.55 169.26
L426.663 169.19
L427.339 169.104
L427.48 168.897
L428.221 168.81
L428.343 168.784
L429.508 168.678
L429.648 168.571
L430.043 168.468
L430.174 168.433
L430.756 168.324
L430.869 168.208
L431.104 168.194
L431.226 168.041
L431.573 167.872
L432.324 167.768
L432.484 167.742
L433.573 167.681
L433.714 167.313
L434.268 167.238
L434.39 167.186
L434.897 167.082
L435.038 167.068
L435.488 166.97
L435.629 166.956
L436.652 166.846
L436.943 166.797
L437.807 166.708
L437.929 166.662
L438.981 166.573
L439.112 166.524
L439.647 166.429
L439.769 166.38
L440.173 166.342
L440.286 165.657
L441.431 165.565
L441.572 165.481
L441.891 165.432
L442.004 165.277
L442.276 165.205
L442.398 165.003
L442.811 164.934
L442.962 164.632
L443.375 164.531
L443.525 164.494
L443.825 164.393
L443.966 164.37
L444.37 164.321
L444.483 164.209
L445.008 164.139
L445.13 163.699
L445.966 163.607
L446.079 163.264
L446.839 163.163
L446.952 163.048
L447.956 162.939
L448.097 162.875
L448.492 162.818
L448.604 162.677
L449.271 162.573
L449.402 162.553
L450.304 162.446
L450.548 162.138
L451.102 162.052
L451.214 161.977
L452.256 161.876
L452.378 161.79
L452.463 161.692
L452.594 161.66
L452.707 161.571
L452.829 161.473
L452.979 161.435
L453.101 161.386
L453.214 160.894
L453.505 160.713
L453.834 160.603
L454.754 160.243
L454.998 158.648
L455.514 158.561
L455.627 158.403
L455.693 158.328
L455.824 157.6
L456.528 157.525
L456.641 157.415
L457.57 157.343
L457.683 157.208
L458.134 157.133
L458.246 155.918
L458.256 155.918
L458.378 155.457
L459.054 155.348
L459.636 155.284
L460.227 155.175
L460.368 155.158
L460.669 155.103
L460.781 154.973
L461.195 154.864
L461.401 154.818
L461.73 154.711
L461.852 154.68
L461.955 154.68
L462.068 154.395
L462.19 154.351
L462.396 154.259
L462.518 154.225
L462.95 154.124
L463.072 154.092
L463.401 154.02
L463.514 153.312
L463.711 153.28
L463.776 153.263
L463.889 153.162
L464.377 153.073
L464.593 152.825
L464.931 152.744
L465.279 152.649
L465.419 152.592
L466.058 152.517
L466.18 152.465
L467.091 152.364
L467.213 152.31
L467.692 152.174
L467.804 150.988
L468.274 150.927
L468.386 150.351
L468.574 150.268
L468.696 150.061
L469.222 149.957
L469.344 149.899
L469.663 149.848
L469.776 149.787
L469.795 149.787
L469.907 149.632
L469.935 149.629
L470.048 149.404
L470.555 149.335
L470.677 149.205
L471.428 149.105
L471.55 149.082
L471.625 149.021
L471.747 148.9
L471.888 148.799
L472.038 148.681
L472.574 148.606
L472.696 148.549
L473.081 148.445
L473.221 148.422
L473.297 148.373
L473.419 148.117
L474.113 148.007
L474.517 147.889
L474.968 147.78
L475.306 147.702
L476.076 147.388
L476.198 147.29
L476.526 147.184
L476.648 147.092
L477.024 146.982
L477.578 146.927
L478.545 146.827
L478.78 146.622
L478.902 146.616
L479.014 146.498
L479.728 146.412
L479.85 146.375
L481.08 145.966
L481.202 145.793
L481.85 145.695
L481.962 145.56
L482.366 145.473
L482.479 137.43
L482.882 137.358
L483.042 137.065
L483.558 136.995
L483.681 136.215
L483.784 136.143
L483.906 136.008
L484.253 135.95
L484.375 135.849
L484.648 135.74
L484.882 135.455
L484.901 135.455
L485.023 135.161
L485.23 135.138
L485.342 134.222
L485.417 134.159
L485.53 133.741
L485.765 133.641
L485.934 133.548
L486.018 133.546
L486.131 133.246
L486.6 133.137
L486.722 132.872
L486.92 132.803
L487.032 132.682
L487.239 132.624
L487.351 132.264
L489.558 131.57
L489.68 131.366
L489.858 131.311
L489.971 131.158
L490.337 131.13
L490.459 130.916
L490.853 130.821
L490.985 130.698
L491.116 130.677
L491.238 130.559
L491.511 130.484
L491.642 130.343
L491.727 130.234
L492.374 129.949
L492.515 129.773
L492.769 129.669
L492.9 129.566
L493.079 129.505
L493.201 129.246
L493.548 129.071
L493.689 129.062
L493.802 128.826
L494.083 128.731
L494.28 128.264
L494.618 127.726
L494.74 127.599
L495.407 127.518
L495.52 126.957
L495.689 126.856
L495.82 126.254
L495.905 126.159
L496.074 126.007
L496.543 125.721
L497.228 125.445
L497.35 125.243
L497.397 125.217
L497.51 125.007
L497.679 124.898
L498.477 124.446
L498.599 123.881
L498.684 123.789
L498.815 123.72
L498.928 123.611
L499.031 123.602
L499.144 116.524
L499.36 116.475
L499.472 114.735
L499.942 114.695
L500.064 114.545
L500.327 114.496
L500.439 114.255
L500.824 114.154
L500.946 114.108
L500.965 114.108
L501.097 113.422
L501.397 113.319
L501.622 112.368
L501.773 112.348
L501.895 112.161
L502.195 112.077
L502.317 111.994
L502.589 111.89
L502.711 111.807
L502.974 111.792
L503.096 111.631
L503.556 111.406
L503.669 110.865
L503.941 110.796
L504.073 110.548
L504.12 110.476
L504.279 110.119
L504.308 110.119
L504.467 109.065
L504.599 108.95
L504.937 108.844
L505.068 108.734
L505.115 108.731
L505.246 108.138
L505.293 108.029
L505.706 107.945
L505.828 107.398
L505.969 107.297
L506.016 107.188
L506.12 106.989
L506.242 106.888
L506.298 106.779
L506.627 106.678
L506.739 100.76
L506.965 100.703
L507.077 100.124
L507.199 100.06
L507.443 100.009
L507.669 99.2398
L507.716 99.1995
L507.838 98.8654
L507.847 98.8654
L508.016 98.0706
L508.251 97.9871
L508.382 97.8259
L508.655 97.7193
L508.777 97.6473
L508.805 97.6473
L508.927 97.391
L509.002 97.2931
L509.152 96.3658
L509.396 90.4826
L509.772 89.1609
L509.988 89.0773
L510.11 88.9046
L510.185 88.8383
L510.307 88.4956
L510.382 88.3862
L510.654 87.9744
L510.767 87.577
L511.002 87.4676
L511.18 87.3351
L511.405 87.2948
L511.527 87.0875
L511.584 86.9953
L511.64 86.9205
L511.753 86.3388
L512.053 86.1631
L512.175 86.0796
L512.372 86.0076
L512.494 85.7571
L512.523 85.7571
L512.645 83.5973
L512.823 83.3727
L512.889 83.3525
L513.274 80.4987
L513.386 80.4987
L513.527 79.1165
L513.631 79.0503
L513.809 78.4023
L513.818 78.4023
L513.978 76.3059
L514.053 76.2022
L514.194 76.1072
L514.363 76.0208
L514.522 75.5831
L514.616 75.5773
L514.767 74.9553
L514.823 74.9525
L514.954 74.0453
L515.011 73.9561
L515.133 73.8207
L515.236 73.7199
L515.33 73.5472
L515.452 71.8798
L515.471 71.8366
L515.63 70.8345
L515.715 70.6934
L515.865 69.602
L516.006 69.291
L516.194 67.1974
L516.316 67.1514
L516.485 56.3554
L516.55 56.3208
L516.691 55.5664
L516.926 53.827
L517.048 51.9063
L517.086 51.8746
L517.226 51.3994
L517.292 51.2756
L517.414 43.6502
L517.461 43.607
L517.64 41.0124
L517.658 40.9318
L518.212 29.4331
L518.381 25.6492
L518.4 25.2
L518.4 25.2" style="fill:none;stroke:#b47cc7;stroke-linecap:round;stroke-width:1.75;"/>
   </g>
   <g id="patch_8">
    <path d="
M315.491 25.2
L518.4 25.2" style="fill:none;stroke:#cccccc;"/>
   </g>
   <g id="patch_9">
    <path d="
M518.4 214.2
L518.4 25.2" style="fill:none;stroke:#cccccc;"/>
   </g>
   <g id="patch_10">
    <path d="
M315.491 214.2
L518.4 214.2" style="fill:none;stroke:#cccccc;"/>
   </g>
   <g id="patch_11">
    <path d="
M315.491 214.2
L315.491 25.2" style="fill:none;stroke:#cccccc;"/>
   </g>
   <g id="text_29">
    <!-- Size Cumulative Fraction -->
    <defs>
     <path d="
M1.95312 0
L1.95312 7.125
L34.9688 45.0156
Q29.3438 44.7344 25.0469 44.7344
L3.90625 44.7344
L3.90625 51.8594
L46.2969 51.8594
L46.2969 46.0469
L18.2188 13.1406
L12.7969 7.125
Q18.7031 7.5625 23.875 7.5625
L47.8594 7.5625
L47.8594 0
z
" id="ArialMT-7a"/>
    </defs>
    <g style="fill:#262626;" transform="translate(334.100923295 20.2)scale(0.15 -0.15)">
     <use xlink:href="#ArialMT-53"/>
     <use x="66.69921875" xlink:href="#ArialMT-69"/>
     <use x="88.916015625" xlink:href="#ArialMT-7a"/>
     <use x="138.916015625" xlink:href="#ArialMT-65"/>
     <use x="194.53125" xlink:href="#ArialMT-20"/>
     <use x="222.314453125" xlink:href="#ArialMT-43"/>
     <use x="294.53125" xlink:href="#ArialMT-75"/>
     <use x="350.146484375" xlink:href="#ArialMT-6d"/>
     <use x="433.447265625" xlink:href="#ArialMT-75"/>
     <use x="489.0625" xlink:href="#ArialMT-6c"/>
     <use x="511.279296875" xlink:href="#ArialMT-61"/>
     <use x="566.89453125" xlink:href="#ArialMT-74"/>
     <use x="594.677734375" xlink:href="#ArialMT-69"/>
     <use x="616.89453125" xlink:href="#ArialMT-76"/>
     <use x="666.89453125" xlink:href="#ArialMT-65"/>
     <use x="722.509765625" xlink:href="#ArialMT-20"/>
     <use x="750.29296875" xlink:href="#ArialMT-46"/>
     <use x="811.376953125" xlink:href="#ArialMT-72"/>
     <use x="844.677734375" xlink:href="#ArialMT-61"/>
     <use x="900.29296875" xlink:href="#ArialMT-63"/>
     <use x="950.29296875" xlink:href="#ArialMT-74"/>
     <use x="978.076171875" xlink:href="#ArialMT-69"/>
     <use x="1000.29296875" xlink:href="#ArialMT-6f"/>
     <use x="1055.90820312" xlink:href="#ArialMT-6e"/>
    </g>
   </g>
  </g>
 </g>
 <defs>
  <clipPath id="p61377a7746">
   <rect height="189.0" width="202.909090909" x="72.0" y="25.2"/>
  </clipPath>
  <clipPath id="p28d4a36a73">
   <rect height="189.0" width="202.909090909" x="315.490909091" y="25.2"/>
  </clipPath>
 </defs>
</svg>
