<?xml version="1.0" encoding="utf-8" standalone="no"?>
<!DOCTYPE svg PUBLIC "-//W3C//DTD SVG 1.1//EN"
  "http://www.w3.org/Graphics/SVG/1.1/DTD/svg11.dtd">
<!-- Created with matplotlib (http://matplotlib.org/) -->
<svg height="288pt" version="1.1" viewBox="0 0 648 288" width="648pt" xmlns="http://www.w3.org/2000/svg" xmlns:xlink="http://www.w3.org/1999/xlink">
 <defs>
  <style type="text/css">
*{stroke-linecap:butt;stroke-linejoin:round;}
  </style>
 </defs>
 <g id="figure_1">
  <g id="patch_1">
   <path d="
M0 288
L648 288
L648 0
L0 0
z
" style="fill:#ffffff;"/>
  </g>
  <g id="axes_1">
   <g id="patch_2">
    <path d="
M81 252
L309.273 252
L309.273 28.8
L81 28.8
z
" style="fill:#eeeeee;"/>
   </g>
   <g id="matplotlib.axis_1">
    <g id="xtick_1">
     <g id="line2d_1">
      <path clip-path="url(#p05134d0f3e)" d="
M81 252
L81 28.8" style="fill:none;stroke:#000000;stroke-dasharray:1.000000,3.000000;stroke-dashoffset:0.0;stroke-width:0.5;"/>
     </g>
     <g id="line2d_2">
      <defs>
       <path d="
M0 0
L0 -4" id="m91191bb255" style="stroke:#555555;stroke-width:0.5;"/>
      </defs>
      <g>
       <use style="fill:#555555;stroke:#555555;stroke-width:0.5;" x="81.0" xlink:href="#m91191bb255" y="252.0"/>
      </g>
     </g>
     <g id="line2d_3">
      <defs>
       <path d="
M0 0
L0 4" id="m64c3aef5f4" style="stroke:#555555;stroke-width:0.5;"/>
      </defs>
      <g>
       <use style="fill:#555555;stroke:#555555;stroke-width:0.5;" x="81.0" xlink:href="#m64c3aef5f4" y="28.8"/>
      </g>
     </g>
     <g id="text_1">
      <!-- 0.0 -->
      <defs>
       <path d="
M4.15625 35.2969
Q4.15625 48 6.76562 55.7344
Q9.375 63.4844 14.5156 67.6719
Q19.6719 71.875 27.4844 71.875
Q33.25 71.875 37.5938 69.5469
Q41.9375 67.2344 44.7656 62.8594
Q47.6094 58.5 49.2188 52.2188
Q50.8281 45.9531 50.8281 35.2969
Q50.8281 22.7031 48.2344 14.9688
Q45.6562 7.23438 40.5 3
Q35.3594 -1.21875 27.4844 -1.21875
Q17.1406 -1.21875 11.2344 6.20312
Q4.15625 15.1406 4.15625 35.2969
M13.1875 35.2969
Q13.1875 17.6719 17.3125 11.8281
Q21.4375 6 27.4844 6
Q33.5469 6 37.6719 11.8594
Q41.7969 17.7188 41.7969 35.2969
Q41.7969 52.9844 37.6719 58.7812
Q33.5469 64.5938 27.3906 64.5938
Q21.3438 64.5938 17.7188 59.4688
Q13.1875 52.9375 13.1875 35.2969" id="ArialMT-30"/>
       <path d="
M9.07812 0
L9.07812 10.0156
L19.0938 10.0156
L19.0938 0
z
" id="ArialMT-2e"/>
      </defs>
      <g style="fill:#555555;" transform="translate(74.496875 265.1578125)scale(0.1 -0.1)">
       <use xlink:href="#ArialMT-30"/>
       <use x="55.615234375" xlink:href="#ArialMT-2e"/>
       <use x="83.3984375" xlink:href="#ArialMT-30"/>
      </g>
     </g>
    </g>
    <g id="xtick_2">
     <g id="line2d_4">
      <path clip-path="url(#p05134d0f3e)" d="
M126.655 252
L126.655 28.8" style="fill:none;stroke:#000000;stroke-dasharray:1.000000,3.000000;stroke-dashoffset:0.0;stroke-width:0.5;"/>
     </g>
     <g id="line2d_5">
      <g>
       <use style="fill:#555555;stroke:#555555;stroke-width:0.5;" x="126.654545455" xlink:href="#m91191bb255" y="252.0"/>
      </g>
     </g>
     <g id="line2d_6">
      <g>
       <use style="fill:#555555;stroke:#555555;stroke-width:0.5;" x="126.654545455" xlink:href="#m64c3aef5f4" y="28.8"/>
      </g>
     </g>
     <g id="text_2">
      <!-- 0.2 -->
      <defs>
       <path d="
M50.3438 8.45312
L50.3438 0
L3.03125 0
Q2.9375 3.17188 4.04688 6.10938
Q5.85938 10.9375 9.82812 15.625
Q13.8125 20.3125 21.3438 26.4688
Q33.0156 36.0312 37.1094 41.625
Q41.2188 47.2188 41.2188 52.2031
Q41.2188 57.4219 37.4688 61
Q33.7344 64.5938 27.7344 64.5938
Q21.3906 64.5938 17.5781 60.7812
Q13.7656 56.9844 13.7188 50.25
L4.6875 51.1719
Q5.60938 61.2812 11.6562 66.5781
Q17.7188 71.875 27.9375 71.875
Q38.2344 71.875 44.2344 66.1562
Q50.25 60.4531 50.25 52
Q50.25 47.7031 48.4844 43.5469
Q46.7344 39.4062 42.6562 34.8125
Q38.5781 30.2188 29.1094 22.2188
Q21.1875 15.5781 18.9375 13.2031
Q16.7031 10.8438 15.2344 8.45312
z
" id="ArialMT-32"/>
      </defs>
      <g style="fill:#555555;" transform="translate(120.175639205 265.1578125)scale(0.1 -0.1)">
       <use xlink:href="#ArialMT-30"/>
       <use x="55.615234375" xlink:href="#ArialMT-2e"/>
       <use x="83.3984375" xlink:href="#ArialMT-32"/>
      </g>
     </g>
    </g>
    <g id="xtick_3">
     <g id="line2d_7">
      <path clip-path="url(#p05134d0f3e)" d="
M172.309 252
L172.309 28.8" style="fill:none;stroke:#000000;stroke-dasharray:1.000000,3.000000;stroke-dashoffset:0.0;stroke-width:0.5;"/>
     </g>
     <g id="line2d_8">
      <g>
       <use style="fill:#555555;stroke:#555555;stroke-width:0.5;" x="172.309090909" xlink:href="#m91191bb255" y="252.0"/>
      </g>
     </g>
     <g id="line2d_9">
      <g>
       <use style="fill:#555555;stroke:#555555;stroke-width:0.5;" x="172.309090909" xlink:href="#m64c3aef5f4" y="28.8"/>
      </g>
     </g>
     <g id="text_3">
      <!-- 0.4 -->
      <defs>
       <path d="
M32.3281 0
L32.3281 17.1406
L1.26562 17.1406
L1.26562 25.2031
L33.9375 71.5781
L41.1094 71.5781
L41.1094 25.2031
L50.7812 25.2031
L50.7812 17.1406
L41.1094 17.1406
L41.1094 0
z

M32.3281 25.2031
L32.3281 57.4688
L9.90625 25.2031
z
" id="ArialMT-34"/>
      </defs>
      <g style="fill:#555555;" transform="translate(165.808309659 265.1578125)scale(0.1 -0.1)">
       <use xlink:href="#ArialMT-30"/>
       <use x="55.615234375" xlink:href="#ArialMT-2e"/>
       <use x="83.3984375" xlink:href="#ArialMT-34"/>
      </g>
     </g>
    </g>
    <g id="xtick_4">
     <g id="line2d_10">
      <path clip-path="url(#p05134d0f3e)" d="
M217.964 252
L217.964 28.8" style="fill:none;stroke:#000000;stroke-dasharray:1.000000,3.000000;stroke-dashoffset:0.0;stroke-width:0.5;"/>
     </g>
     <g id="line2d_11">
      <g>
       <use style="fill:#555555;stroke:#555555;stroke-width:0.5;" x="217.963636364" xlink:href="#m91191bb255" y="252.0"/>
      </g>
     </g>
     <g id="line2d_12">
      <g>
       <use style="fill:#555555;stroke:#555555;stroke-width:0.5;" x="217.963636364" xlink:href="#m64c3aef5f4" y="28.8"/>
      </g>
     </g>
     <g id="text_4">
      <!-- 0.6 -->
      <defs>
       <path d="
M49.75 54.0469
L41.0156 53.375
Q39.8438 58.5469 37.7031 60.8906
Q34.125 64.6562 28.9062 64.6562
Q24.7031 64.6562 21.5312 62.3125
Q17.3906 59.2812 14.9844 53.4688
Q12.5938 47.6562 12.5 36.9219
Q15.6719 41.75 20.2656 44.0938
Q24.8594 46.4375 29.8906 46.4375
Q38.6719 46.4375 44.8438 39.9688
Q51.0312 33.5 51.0312 23.25
Q51.0312 16.5 48.125 10.7188
Q45.2188 4.9375 40.1406 1.85938
Q35.0625 -1.21875 28.6094 -1.21875
Q17.625 -1.21875 10.6875 6.85938
Q3.76562 14.9375 3.76562 33.5
Q3.76562 54.25 11.4219 63.6719
Q18.1094 71.875 29.4375 71.875
Q37.8906 71.875 43.2812 67.1406
Q48.6875 62.4062 49.75 54.0469
M13.875 23.1875
Q13.875 18.6562 15.7969 14.5
Q17.7188 10.3594 21.1875 8.17188
Q24.6562 6 28.4688 6
Q34.0312 6 38.0312 10.4844
Q42.0469 14.9844 42.0469 22.7031
Q42.0469 30.125 38.0781 34.3906
Q34.125 38.6719 28.125 38.6719
Q22.1719 38.6719 18.0156 34.3906
Q13.875 30.125 13.875 23.1875" id="ArialMT-36"/>
      </defs>
      <g style="fill:#555555;" transform="translate(211.450355114 265.1578125)scale(0.1 -0.1)">
       <use xlink:href="#ArialMT-30"/>
       <use x="55.615234375" xlink:href="#ArialMT-2e"/>
       <use x="83.3984375" xlink:href="#ArialMT-36"/>
      </g>
     </g>
    </g>
    <g id="xtick_5">
     <g id="line2d_13">
      <path clip-path="url(#p05134d0f3e)" d="
M263.618 252
L263.618 28.8" style="fill:none;stroke:#000000;stroke-dasharray:1.000000,3.000000;stroke-dashoffset:0.0;stroke-width:0.5;"/>
     </g>
     <g id="line2d_14">
      <g>
       <use style="fill:#555555;stroke:#555555;stroke-width:0.5;" x="263.618181818" xlink:href="#m91191bb255" y="252.0"/>
      </g>
     </g>
     <g id="line2d_15">
      <g>
       <use style="fill:#555555;stroke:#555555;stroke-width:0.5;" x="263.618181818" xlink:href="#m64c3aef5f4" y="28.8"/>
      </g>
     </g>
     <g id="text_5">
      <!-- 0.8 -->
      <defs>
       <path d="
M17.6719 38.8125
Q12.2031 40.8281 9.5625 44.5312
Q6.9375 48.25 6.9375 53.4219
Q6.9375 61.2344 12.5469 66.5469
Q18.1719 71.875 27.4844 71.875
Q36.8594 71.875 42.5781 66.4219
Q48.2969 60.9844 48.2969 53.1719
Q48.2969 48.1875 45.6719 44.5
Q43.0625 40.8281 37.75 38.8125
Q44.3438 36.6719 47.7812 31.875
Q51.2188 27.0938 51.2188 20.4531
Q51.2188 11.2812 44.7188 5.03125
Q38.2344 -1.21875 27.6406 -1.21875
Q17.0469 -1.21875 10.5469 5.04688
Q4.04688 11.3281 4.04688 20.7031
Q4.04688 27.6875 7.59375 32.3906
Q11.1406 37.1094 17.6719 38.8125
M15.9219 53.7188
Q15.9219 48.6406 19.1875 45.4062
Q22.4688 42.1875 27.6875 42.1875
Q32.7656 42.1875 36.0156 45.375
Q39.2656 48.5781 39.2656 53.2188
Q39.2656 58.0625 35.9062 61.3594
Q32.5625 64.6562 27.5938 64.6562
Q22.5625 64.6562 19.2344 61.4219
Q15.9219 58.2031 15.9219 53.7188
M13.0938 20.6562
Q13.0938 16.8906 14.875 13.375
Q16.6562 9.85938 20.1719 7.92188
Q23.6875 6 27.7344 6
Q34.0312 6 38.125 10.0469
Q42.2344 14.1094 42.2344 20.3594
Q42.2344 26.7031 38.0156 30.8594
Q33.7969 35.0156 27.4375 35.0156
Q21.2344 35.0156 17.1562 30.9062
Q13.0938 26.8125 13.0938 20.6562" id="ArialMT-38"/>
      </defs>
      <g style="fill:#555555;" transform="translate(257.095525568 265.1578125)scale(0.1 -0.1)">
       <use xlink:href="#ArialMT-30"/>
       <use x="55.615234375" xlink:href="#ArialMT-2e"/>
       <use x="83.3984375" xlink:href="#ArialMT-38"/>
      </g>
     </g>
    </g>
    <g id="xtick_6">
     <g id="line2d_16">
      <path clip-path="url(#p05134d0f3e)" d="
M309.273 252
L309.273 28.8" style="fill:none;stroke:#000000;stroke-dasharray:1.000000,3.000000;stroke-dashoffset:0.0;stroke-width:0.5;"/>
     </g>
     <g id="line2d_17">
      <g>
       <use style="fill:#555555;stroke:#555555;stroke-width:0.5;" x="309.272727273" xlink:href="#m91191bb255" y="252.0"/>
      </g>
     </g>
     <g id="line2d_18">
      <g>
       <use style="fill:#555555;stroke:#555555;stroke-width:0.5;" x="309.272727273" xlink:href="#m64c3aef5f4" y="28.8"/>
      </g>
     </g>
     <g id="text_6">
      <!-- 1.0 -->
      <defs>
       <path d="
M37.25 0
L28.4688 0
L28.4688 56
Q25.2969 52.9844 20.1406 49.9531
Q14.9844 46.9219 10.8906 45.4062
L10.8906 53.9062
Q18.2656 57.375 23.7812 62.2969
Q29.2969 67.2344 31.5938 71.875
L37.25 71.875
z
" id="ArialMT-31"/>
      </defs>
      <g style="fill:#555555;" transform="translate(303.106321023 265.1578125)scale(0.1 -0.1)">
       <use xlink:href="#ArialMT-31"/>
       <use x="55.615234375" xlink:href="#ArialMT-2e"/>
       <use x="83.3984375" xlink:href="#ArialMT-30"/>
      </g>
     </g>
    </g>
   </g>
   <g id="matplotlib.axis_2">
    <g id="ytick_1">
     <g id="line2d_19">
      <path clip-path="url(#p05134d0f3e)" d="
M81 252
L309.273 252" style="fill:none;stroke:#000000;stroke-dasharray:1.000000,3.000000;stroke-dashoffset:0.0;stroke-width:0.5;"/>
     </g>
     <g id="line2d_20">
      <defs>
       <path d="
M0 0
L0 0" id="m8bc147ca23" style="stroke:#555555;stroke-width:0.5;"/>
      </defs>
      <g>
       <use style="fill:#555555;stroke:#555555;stroke-width:0.5;" x="81.0" xlink:href="#m8bc147ca23" y="252.0"/>
      </g>
     </g>
     <g id="line2d_21">
      <g>
       <use style="fill:#555555;stroke:#555555;stroke-width:0.5;" x="309.272727273" xlink:href="#m8bc147ca23" y="252.0"/>
      </g>
     </g>
     <g id="text_7">
      <!-- 0.0 -->
      <g style="fill:#555555;" transform="translate(61.99375 254.58515625)scale(0.1 -0.1)">
       <use xlink:href="#ArialMT-30"/>
       <use x="55.615234375" xlink:href="#ArialMT-2e"/>
       <use x="83.3984375" xlink:href="#ArialMT-30"/>
      </g>
     </g>
    </g>
    <g id="ytick_2">
     <g id="line2d_22">
      <path clip-path="url(#p05134d0f3e)" d="
M81 207.36
L309.273 207.36" style="fill:none;stroke:#000000;stroke-dasharray:1.000000,3.000000;stroke-dashoffset:0.0;stroke-width:0.5;"/>
     </g>
     <g id="line2d_23">
      <g>
       <use style="fill:#555555;stroke:#555555;stroke-width:0.5;" x="81.0" xlink:href="#m8bc147ca23" y="207.36"/>
      </g>
     </g>
     <g id="line2d_24">
      <g>
       <use style="fill:#555555;stroke:#555555;stroke-width:0.5;" x="309.272727273" xlink:href="#m8bc147ca23" y="207.36"/>
      </g>
     </g>
     <g id="text_8">
      <!-- 0.2 -->
      <g style="fill:#555555;" transform="translate(62.0421875 209.94515625)scale(0.1 -0.1)">
       <use xlink:href="#ArialMT-30"/>
       <use x="55.615234375" xlink:href="#ArialMT-2e"/>
       <use x="83.3984375" xlink:href="#ArialMT-32"/>
      </g>
     </g>
    </g>
    <g id="ytick_3">
     <g id="line2d_25">
      <path clip-path="url(#p05134d0f3e)" d="
M81 162.72
L309.273 162.72" style="fill:none;stroke:#000000;stroke-dasharray:1.000000,3.000000;stroke-dashoffset:0.0;stroke-width:0.5;"/>
     </g>
     <g id="line2d_26">
      <g>
       <use style="fill:#555555;stroke:#555555;stroke-width:0.5;" x="81.0" xlink:href="#m8bc147ca23" y="162.72"/>
      </g>
     </g>
     <g id="line2d_27">
      <g>
       <use style="fill:#555555;stroke:#555555;stroke-width:0.5;" x="309.272727273" xlink:href="#m8bc147ca23" y="162.72"/>
      </g>
     </g>
     <g id="text_9">
      <!-- 0.4 -->
      <g style="fill:#555555;" transform="translate(61.9984375 165.30515625)scale(0.1 -0.1)">
       <use xlink:href="#ArialMT-30"/>
       <use x="55.615234375" xlink:href="#ArialMT-2e"/>
       <use x="83.3984375" xlink:href="#ArialMT-34"/>
      </g>
     </g>
    </g>
    <g id="ytick_4">
     <g id="line2d_28">
      <path clip-path="url(#p05134d0f3e)" d="
M81 118.08
L309.273 118.08" style="fill:none;stroke:#000000;stroke-dasharray:1.000000,3.000000;stroke-dashoffset:0.0;stroke-width:0.5;"/>
     </g>
     <g id="line2d_29">
      <g>
       <use style="fill:#555555;stroke:#555555;stroke-width:0.5;" x="81.0" xlink:href="#m8bc147ca23" y="118.08"/>
      </g>
     </g>
     <g id="line2d_30">
      <g>
       <use style="fill:#555555;stroke:#555555;stroke-width:0.5;" x="309.272727273" xlink:href="#m8bc147ca23" y="118.08"/>
      </g>
     </g>
     <g id="text_10">
      <!-- 0.6 -->
      <g style="fill:#555555;" transform="translate(61.9734375 120.66515625)scale(0.1 -0.1)">
       <use xlink:href="#ArialMT-30"/>
       <use x="55.615234375" xlink:href="#ArialMT-2e"/>
       <use x="83.3984375" xlink:href="#ArialMT-36"/>
      </g>
     </g>
    </g>
    <g id="ytick_5">
     <g id="line2d_31">
      <path clip-path="url(#p05134d0f3e)" d="
M81 73.44
L309.273 73.44" style="fill:none;stroke:#000000;stroke-dasharray:1.000000,3.000000;stroke-dashoffset:0.0;stroke-width:0.5;"/>
     </g>
     <g id="line2d_32">
      <g>
       <use style="fill:#555555;stroke:#555555;stroke-width:0.5;" x="81.0" xlink:href="#m8bc147ca23" y="73.44"/>
      </g>
     </g>
     <g id="line2d_33">
      <g>
       <use style="fill:#555555;stroke:#555555;stroke-width:0.5;" x="309.272727273" xlink:href="#m8bc147ca23" y="73.44"/>
      </g>
     </g>
     <g id="text_11">
      <!-- 0.8 -->
      <g style="fill:#555555;" transform="translate(61.9546875 76.02515625)scale(0.1 -0.1)">
       <use xlink:href="#ArialMT-30"/>
       <use x="55.615234375" xlink:href="#ArialMT-2e"/>
       <use x="83.3984375" xlink:href="#ArialMT-38"/>
      </g>
     </g>
    </g>
    <g id="ytick_6">
     <g id="line2d_34">
      <path clip-path="url(#p05134d0f3e)" d="
M81 28.8
L309.273 28.8" style="fill:none;stroke:#000000;stroke-dasharray:1.000000,3.000000;stroke-dashoffset:0.0;stroke-width:0.5;"/>
     </g>
     <g id="line2d_35">
      <g>
       <use style="fill:#555555;stroke:#555555;stroke-width:0.5;" x="81.0" xlink:href="#m8bc147ca23" y="28.8"/>
      </g>
     </g>
     <g id="line2d_36">
      <g>
       <use style="fill:#555555;stroke:#555555;stroke-width:0.5;" x="309.272727273" xlink:href="#m8bc147ca23" y="28.8"/>
      </g>
     </g>
     <g id="text_12">
      <!-- 1.0 -->
      <g style="fill:#555555;" transform="translate(62.6671875 31.38515625)scale(0.1 -0.1)">
       <use xlink:href="#ArialMT-31"/>
       <use x="55.615234375" xlink:href="#ArialMT-2e"/>
       <use x="83.3984375" xlink:href="#ArialMT-30"/>
      </g>
     </g>
    </g>
   </g>
   <g id="line2d_37">
    <path clip-path="url(#p05134d0f3e)" d="
M81 251.99
L309.273 28.8
L309.273 28.8" style="fill:none;stroke:#348abd;stroke-linecap:square;"/>
   </g>
   <g id="line2d_38">
    <path clip-path="url(#p05134d0f3e)" d="
M81 252
L87.8024 251.684
L88.0454 251.669
L94.4676 251.361
L95.545 251.307
L106.541 250.857
L112.963 250.353
L113.333 250.313
L117.484 249.948
L118.297 249.884
L120.473 249.707
L121.255 249.651
L125.11 249.421
L129.071 249.166
L133.561 248.917
L135.652 248.677
L136.022 248.629
L138.367 248.302
L138.831 248.247
L139.676 248.118
L139.824 248.078
L151.2 246.788
L153.028 246.622
L153.683 246.516
L154.94 246.327
L157.749 245.784
L158.33 245.687
L159.207 245.553
L159.524 245.494
L160.348 245.335
L160.717 245.265
L161.89 245.082
L162.122 245.028
L168.798 243.947
L168.925 243.834
L170.034 243.586
L170.615 243.49
L172.516 243.078
L172.791 242.969
L172.918 242.919
L173.572 242.788
L175.009 242.502
L175.241 242.42
L175.358 242.213
L176.086 242.057
L177.09 241.805
L178.6 241.463
L179.287 241.288
L180.185 241.122
L181.579 240.726
L182.097 240.608
L182.234 240.555
L183.776 240.23
L183.913 240.077
L184.346 239.92
L184.463 239.822
L185.339 239.603
L186.47 239.208
L186.586 239.135
L186.882 239.015
L187.051 238.963
L188.191 238.652
L188.371 238.568
L190.505 237.958
L190.642 237.843
L191.107 237.717
L193.166 237.181
L193.283 236.996
L193.684 236.88
L194.054 236.695
L195.004 236.409
L195.173 236.313
L196.029 236.02
L196.145 235.846
L196.314 235.746
L196.441 235.612
L197.254 235.426
L205.261 232.903
L205.388 232.813
L205.873 232.661
L206.571 232.441
L206.983 232.329
L207.12 231.98
L207.416 231.897
L207.859 231.776
L208.092 231.673
L208.683 231.477
L208.81 231.36
L209.306 231.203
L209.486 231.105
L210.014 230.945
L210.912 230.565
L211.049 230.288
L213.458 229.296
L213.7 229.204
L213.838 229.133
L214.091 229.011
L214.208 228.816
L215.813 228.255
L215.961 228.035
L216.183 227.853
L216.5 227.775
L216.616 227.296
L217.081 227.127
L217.207 227.055
L217.619 226.919
L217.757 226.815
L218.169 226.546
L218.306 226.475
L218.496 226.364
L218.623 226.318
L219.637 225.867
L219.764 225.704
L220.08 225.562
L220.387 225.334
L220.63 225.135
L220.788 225.043
L221.686 224.675
L221.855 224.438
L222.182 224.289
L222.457 224.144
L222.911 223.981
L223.196 223.878
L223.64 223.7
L223.756 223.343
L223.957 223.263
L224.401 223.07
L224.517 222.817
L224.855 222.527
L224.971 222.149
L225.151 222.061
L225.277 221.898
L226.006 221.447
L226.133 221.28
L227.105 220.809
L227.506 220.658
L227.643 220.582
L229.788 219.841
L229.967 219.719
L230.052 219.687
L230.168 219.469
L230.612 219.326
L230.939 219.184
L231.087 219.041
L231.541 218.658
L231.668 218.516
L231.858 218.367
L231.974 217.965
L232.228 217.771
L232.354 217.727
L232.851 217.402
L233.009 216.741
L233.442 216.517
L233.569 216.373
L233.654 216.284
L233.791 216.224
L233.96 216.14
L234.013 216.025
L234.456 215.757
L234.594 215.653
L235.523 215.119
L235.639 214.843
L236.03 214.71
L236.21 214.642
L236.252 214.624
L236.368 214.476
L237.847 213.782
L238.175 213.66
L238.322 213.422
L238.502 213.31
L239.02 213.151
L239.136 212.863
L239.516 212.699
L239.643 212.53
L240.414 212.028
L240.593 211.961
L240.71 211.217
L241.217 211.059
L241.576 210.886
L241.702 210.673
L241.882 210.574
L242.009 210.425
L242.019 210.421
L242.136 210.239
L242.315 210.088
L242.452 209.955
L242.695 209.82
L242.833 209.36
L243.065 209.203
L243.34 208.793
L243.667 208.679
L243.783 208.121
L243.984 208.021
L244.132 207.888
L244.544 207.652
L244.713 207.41
L244.977 207.337
L245.104 207.03
L245.114 207.026
L245.23 206.837
L245.41 206.713
L245.769 206.502
L245.906 206.392
L246.107 206.265
L246.276 206.165
L246.392 205.856
L246.635 205.721
L246.762 205.572
L247.322 205.312
L247.491 205.23
L247.628 205.046
L247.85 204.97
L247.966 204.529
L248.283 204.395
L248.399 204.098
L248.674 203.998
L248.822 203.573
L248.853 203.548
L248.97 203.061
L249.033 203.034
L249.16 202.736
L249.456 202.601
L249.656 202.464
L249.994 202.332
L250.195 202.179
L250.955 201.881
L251.082 201.813
L251.198 201.653
L251.272 201.637
L251.399 201.428
L251.6 201.304
L251.927 201.183
L252.149 200.872
L252.392 200.761
L252.519 200.489
L252.709 200.434
L252.846 200.246
L253.469 199.787
L253.586 199.362
L253.776 199.237
L253.892 198.821
L254.441 198.505
L254.568 198.154
L254.642 198.109
L254.758 196.039
L254.885 195.929
L255.043 195.85
L255.286 195.727
L255.667 195.546
L255.909 195.375
L256.036 195.158
L256.174 195.101
L256.3 194.905
L256.448 194.824
L256.564 194.678
L256.923 194.552
L257.082 194.455
L257.209 194.363
L257.325 191.276
L257.779 191.048
L257.916 190.93
L258.149 190.806
L258.328 190.685
L258.455 190.577
L258.93 190.342
L259.057 190.094
L259.068 190.093
L259.184 189.85
L259.311 189.717
L259.564 189.605
L259.701 189.505
L260.156 189.325
L260.272 189.161
L260.631 189.051
L260.758 188.917
L261.022 188.794
L261.244 188.701
L262.194 188.276
L262.342 188.147
L262.638 188.029
L263.261 187.502
L263.388 187.388
L263.599 187.104
L263.863 186.978
L264.074 186.859
L264.455 186.728
L264.571 186.607
L264.835 186.439
L264.951 185.599
L265.205 185.474
L265.321 185.349
L265.511 185.23
L265.923 185.04
L266.166 184.951
L266.303 184.735
L266.557 184.625
L266.705 184.3
L267.317 183.923
L267.433 183.802
L268.902 183.096
L269.018 182.82
L269.145 182.786
L269.271 182.598
L269.356 182.522
L269.472 182.307
L269.62 182.178
L270.317 181.777
L270.687 181.583
L273.623 180.133
L273.739 179.568
L274.088 179.371
L274.299 179.26
L274.563 179.117
L275.662 178.609
L275.778 178.256
L275.894 178.159
L276.01 177.907
L276.433 177.571
L276.771 177.395
L276.898 177.151
L277.035 177.013
L277.183 176.954
L277.204 176.942
L277.331 176.509
L277.436 176.325
L277.574 176.214
L277.922 175.978
L278.229 175.341
L278.377 175.228
L278.503 175.115
L278.63 174.978
L279.19 174.579
L280.035 174.182
L280.151 174.006
L280.352 173.884
L280.637 173.263
L280.848 173.109
L281.155 172.867
L281.397 172.714
L281.545 172.614
L281.767 172.517
L281.926 172.332
L282.2 172.191
L282.412 171.77
L282.739 171.576
L283.51 171.156
L284.049 170.648
L284.397 170.451
L284.545 170.37
L284.767 170.229
L284.904 170.087
L285.285 169.889
L285.496 169.717
L285.887 169.523
L286.035 169.372
L286.193 169.304
L286.33 168.793
L286.763 168.515
L286.88 168.162
L286.996 168.048
L287.133 167.976
L287.387 167.774
L287.524 167.69
L287.64 167.609
L287.767 167.305
L287.904 167.238
L288.031 167.017
L288.295 166.736
L288.496 166.465
L288.675 166.179
L288.781 166.017
L288.908 165.46
L288.96 165.426
L289.087 165.161
L289.32 164.989
L289.383 164.901
L289.647 164.094
L289.689 164.05
L289.816 163.871
L290.006 163.565
L290.228 163.267
L290.302 163.15
L290.492 162.775
L290.619 162.062
L290.83 161.815
L290.989 161.378
L291.094 161.278
L291.242 161.046
L291.496 160.566
L292.098 159.025
L292.869 157.813
L292.995 157.464
L293.122 157.373
L293.302 157.089
L293.365 157.043
L293.492 156.724
L293.671 156.585
L293.735 156.492
L293.851 156.068
L293.946 156.043
L294.073 155.448
L294.263 155.321
L295.351 154.374
L295.478 154.107
L295.932 153.654
L296.048 153.188
L296.259 152.783
L296.407 152.641
L297.126 152.087
L297.263 151.707
L297.453 151.544
L297.59 151.355
L297.622 151.339
L297.749 151.14
L297.875 151.011
L298.118 150.663
L298.256 150.561
L298.393 150.425
L298.615 150.289
L298.731 150.204
L298.858 149.954
L298.879 149.91
L299.016 149.444
L299.08 149.314
L299.354 148.206
L299.544 147.893
L300.062 146.601
L300.189 144.34
L300.263 144.155
L300.389 143.399
L300.442 143.3
L301.837 136.296
L301.91 136.254
L302.048 135.989
L302.248 135.389
L302.344 135.268
L302.544 134.921
L302.682 134.608
L303.22 133.595
L303.484 133.326
L303.601 130.33
L303.748 129.75
L303.759 129.722
L303.896 127.283
L303.907 127.26
L304.034 125.995
L304.488 124.576
L304.625 123.73
L304.921 122.851
L305.037 121.144
L305.1 121.065
L305.227 119.695
L305.269 119.614
L305.407 118.737
L305.46 118.62
L305.65 116.384
L306.009 114.385
L306.167 111.594
L306.241 111.391
L306.379 110.764
L306.484 109.927
L306.621 109.18
L306.738 108.963
L306.854 106.621
L306.875 106.542
L307.002 104.161
L307.139 101.359
L307.171 101.171
L307.287 97.7257
L307.319 97.6535
L307.688 91.2385
L307.878 82.9986
L307.889 82.9807
L308.016 79.9095
L308.111 73.9289
L308.248 69.4802
L308.29 69.154
L308.502 55.9104
L308.586 55.1153
L308.713 52.6235
L308.966 45.8758
L309.157 35.3724
L309.188 35.2729
L309.273 28.8
L309.273 28.8" style="fill:none;stroke:#a60628;stroke-linecap:square;"/>
   </g>
   <g id="line2d_39">
    <path clip-path="url(#p05134d0f3e)" d="
M81 252
L81.8556 251.912
L81.9718 251.864
L82.9752 251.84
L83.102 251.714
L85.3413 251.612
L85.4681 251.473
L85.7533 251.364
L85.9223 251.32
L86.0385 251.051
L86.8518 250.98
L86.968 249.497
L87.6863 249.398
L87.8024 249.324
L88.0137 249.317
L88.1299 249.191
L88.3623 249.188
L88.4785 249.024
L89.6721 249.004
L89.7883 248.586
L91.9219 248.48
L92.0698 248.467
L92.8726 248.392
L92.9993 248.266
L95.5239 248.164
L95.714 248.127
L96.2738 248.024
L96.5062 247.851
L97.6153 247.742
L97.9005 246.698
L98.1329 246.668
L98.2491 246.382
L98.3864 246.355
L98.6504 246.256
L98.7772 246.188
L99.0624 246.079
L99.2736 245.263
L99.6856 245.209
L99.8124 244.399
L99.8652 244.362
L99.9814 244.246
L100.034 244.246
L100.193 243.719
L100.309 243.675
L100.425 243.569
L100.626 243.467
L100.752 243.389
L101.196 243.314
L101.323 243.267
L101.766 243.178
L101.893 243.029
L102.242 242.92
L102.284 242.917
L102.4 242.614
L102.495 242.593
L102.611 242.338
L102.907 242.264
L103.034 242.202
L103.33 242.1
L103.53 241.685
L104.523 241.577
L104.735 241.57
L105.009 241.519
L105.125 241.4
L105.4 241.298
L105.432 241.281
L105.548 240.274
L105.823 240.203
L105.939 238.686
L106.203 238.584
L106.319 238.523
L106.488 238.434
L106.646 237.56
L107.893 237.275
L109.932 237.169
L110.048 236.986
L111.273 236.887
L111.463 236.54
L112.034 236.458
L112.15 236.35
L112.372 236.346
L112.488 235.51
L113.153 235.401
L113.692 235.18
L115.688 235.074
L115.921 234.86
L116.396 234.765
L116.512 234.724
L117.463 234.642
L117.579 234.574
L119.67 234.483
L119.787 234.435
L122.966 234.336
L123.082 234.248
L123.325 234.214
L123.441 233.67
L124.212 233.598
L124.329 233.469
L124.878 233.364
L124.994 233.234
L125.131 233.19
L125.248 233.071
L125.279 233.068
L125.406 232.636
L125.575 232.548
L125.691 232.33
L125.712 232.33
L125.839 231.844
L125.966 231.772
L126.093 231.742
L126.251 230.47
L126.631 230.388
L126.769 229.647
L126.779 229.647
L126.895 229.279
L126.927 229.279
L127.075 228.589
L127.138 228.586
L127.255 226.066
L127.35 226.049
L127.466 224.991
L127.519 224.988
L127.656 224.396
L127.783 224.372
L127.793 224.372
L127.909 223.906
L128.142 223.831
L128.374 222.832
L128.564 222.675
L128.68 222.417
L128.754 222.335
L128.871 222.148
L128.987 222.148
L129.114 221.509
L129.188 221.43
L129.304 220.526
L129.346 220.499
L129.462 220.291
L129.948 220.244
L130.064 220.165
L130.804 220.063
L130.93 220.012
L132.039 219.941
L132.166 219.665
L132.441 219.642
L132.557 219.523
L134.659 219.431
L134.796 219.342
L134.913 219.325
L135.029 219.22
L135.314 219.128
L135.43 219.067
L135.493 219.067
L135.61 218.737
L135.758 218.693
L135.895 218.506
L136.064 218.492
L136.18 217.071
L136.328 217.05
L136.444 216.826
L136.729 216.727
L136.877 216.639
L137.331 216.55
L137.448 215.35
L137.743 215.244
L137.912 215.234
L137.965 215.234
L138.081 214.935
L138.24 214.935
L138.356 214.751
L139.455 214.302
L139.581 214.248
L140.3 214.156
L140.416 214.057
L140.912 214.013
L141.62 213.904
L141.863 213.874
L142.021 213.874
L142.138 213.415
L142.412 213.306
L142.909 213.262
L143.099 213.221
L143.215 213.146
L143.437 213.122
L143.553 213.013
L144.018 212.911
L144.144 212.884
L144.155 212.884
L144.271 206.549
L144.525 206.511
L144.641 206.372
L145.38 206.29
L145.507 206.004
L145.729 205.967
L145.845 205.406
L145.856 205.406
L145.972 205.26
L146.099 205.181
L146.215 205.134
L146.616 205.103
L146.753 204.804
L146.965 204.709
L147.123 204.491
L147.683 204.382
L147.905 204.365
L147.926 204.365
L148.105 202.801
L149.003 202.695
L149.12 202.655
L149.257 202.655
L149.373 194.34
L149.394 194.323
L149.51 194.064
L149.827 193.993
L149.943 193.534
L150.155 193.486
L150.271 193.354
L150.619 193.296
L150.736 192.799
L151.38 192.762
L151.496 192.503
L151.538 192.503
L151.655 191.939
L151.971 191.918
L152.088 191.633
L152.193 191.572
L152.309 191.361
L152.975 191.34
L153.091 191.017
L153.186 191.017
L153.302 190.534
L154.401 190.449
L154.528 190.415
L155.69 190.31
L156.028 190.218
L157.147 190.126
L157.274 190.096
L157.654 189.994
L157.802 189.946
L158.594 189.854
L158.711 189.722
L158.975 189.677
L159.387 189.606
L159.534 189.368
L160.464 189.283
L160.591 189.249
L161.52 189.14
L161.869 188.443
L162.154 188.334
L162.281 188.303
L162.355 188.303
L162.471 188.174
L162.682 188.072
L162.841 187.64
L163.253 187.582
L163.369 187.487
L163.4 187.487
L163.517 186.569
L163.58 186.559
L163.707 184.205
L163.728 184.205
L163.844 184.018
L163.939 184.005
L164.055 174.51
L164.098 174.51
L164.214 173.745
L164.277 173.745
L164.393 173.201
L164.679 172.843
L164.805 172.565
L165.471 172.469
L165.597 172.446
L167.045 172.354
L167.182 172.323
L167.309 172.323
L167.425 172.207
L167.668 172.136
L167.795 171.949
L168.111 171.946
L168.238 171.704
L168.83 171.609
L168.967 171.592
L169.263 171.578
L169.379 171.228
L170.499 171.119
L170.625 171.099
L171.016 170.993
L171.259 170.963
L171.47 170.932
L171.587 170.766
L172.125 170.664
L172.326 170.623
L173.741 170.538
L173.858 170.262
L174.491 170.235
L174.608 170.068
L175.072 170.017
L175.189 169.868
L175.241 169.783
L175.358 168.895
L175.495 168.831
L175.611 168.708
L175.685 168.694
L175.801 168.266
L176.255 168.164
L176.382 168.086
L176.699 168.011
L176.868 167.338
L176.889 167.324
L177.005 167.157
L177.111 167.14
L177.227 166.705
L177.629 166.606
L177.745 166.314
L178.009 166.26
L178.125 165.97
L178.431 165.896
L178.558 165.828
L178.875 165.719
L179.033 165.491
L179.234 165.423
L179.35 165.369
L180.385 165.263
L180.66 165.09
L181.167 164.981
L181.505 163.927
L181.568 163.927
L181.685 163.634
L181.949 163.563
L182.075 163.369
L183.111 163.28
L183.227 163.199
L184.346 163.138
L184.463 162.682
L185.181 162.662
L185.308 162.338
L185.456 162.281
L185.572 160.754
L185.941 160.747
L186.058 160.621
L186.448 160.522
L186.565 160.431
L186.818 160.407
L186.934 159.676
L187.177 159.574
L187.336 159.506
L187.695 159.4
L188.012 159.244
L188.191 159.193
L188.318 158.978
L189.005 158.887
L189.142 158.662
L189.628 158.625
L189.744 158.479
L190.145 158.373
L190.272 158.349
L190.779 158.261
L190.906 158.234
L191.001 158.234
L191.117 157.169
L191.202 157.094
L191.318 156.873
L192.48 156.809
L192.596 156.71
L192.702 156.71
L192.818 156.54
L193.24 156.475
L193.357 155.891
L194.318 155.785
L194.476 155.761
L195.279 155.7
L195.395 155.598
L195.701 155.527
L196.135 155.496
L196.261 155.34
L196.399 155.238
L196.515 155.122
L196.99 155.04
L197.022 155
L197.138 148.844
L198.363 148.763
L198.49 148.732
L198.913 148.705
L199.039 148.497
L199.113 148.497
L199.229 148.259
L199.684 148.15
L199.832 148.025
L200.655 147.919
L200.824 147.906
L201.627 147.834
L201.743 147.718
L202.514 147.62
L202.705 147.484
L203.898 147.385
L204.014 147.344
L204.141 147.314
L204.257 147.062
L204.754 146.953
L205.145 146.943
L205.757 146.895
L205.873 146.732
L206.528 146.695
L206.655 146.586
L206.983 146.552
L207.014 146.062
L207.13 137.016
L207.183 137.003
L207.299 136.639
L207.754 136.557
L207.88 136.438
L208.113 136.37
L208.229 136.302
L208.504 136.227
L208.62 136.101
L209.063 136.091
L209.18 135.867
L209.327 135.812
L209.444 135.499
L210.151 135.431
L210.268 133.445
L210.616 133.384
L210.732 132.874
L210.912 132.867
L211.028 132.636
L211.472 132.585
L211.598 132.456
L212.01 132.418
L212.127 130.966
L212.581 130.864
L212.708 130.83
L213.605 130.755
L213.869 129.827
L214.535 129.718
L214.715 129.694
L214.989 129.647
L215.105 129.5
L215.327 129.487
L215.739 129.402
L215.929 129.079
L216.563 128.984
L216.7 128.882
L217.186 128.783
L217.313 128.705
L217.693 128.596
L218.042 128.497
L218.169 128.416
L218.295 128.327
L218.475 128.269
L218.591 127.61
L219.204 127.504
L219.33 127.287
L219.426 127.287
L219.542 127.069
L219.954 126.964
L220.07 126.872
L220.556 126.821
L220.672 126.736
L221.19 126.719
L221.306 126.613
L221.654 126.576
L221.77 126.29
L221.813 126.28
L221.929 126.073
L222.383 125.909
L223.049 125.811
L223.693 125.749
L223.809 125.022
L224.538 124.913
L224.675 124.818
L225.14 124.709
L225.267 124.6
L225.816 124.491
L225.985 124.345
L226.534 124.117
L226.946 124.056
L227.094 123.791
L227.665 123.746
L227.781 123.471
L228.668 123.382
L228.784 123.328
L229.323 123.236
L229.439 123.104
L229.904 123.008
L230.02 122.947
L230.633 122.859
L230.759 122.777
L230.823 122.777
L230.939 122.57
L231.066 122.536
L231.393 122.447
L231.509 122.311
L231.647 122.206
L232.185 121.665
L232.302 121.267
L232.661 121.213
L232.777 120.805
L232.946 120.709
L233.073 120.332
L233.326 120.261
L233.442 120.142
L234.066 120.057
L234.309 120.043
L234.425 119.55
L235.027 119.482
L235.143 119.366
L236.199 119.305
L236.315 119.189
L236.4 119.162
L236.516 119.002
L237.277 118.897
L237.393 118.842
L238.175 118.74
L238.301 118.672
L238.312 118.672
L238.428 118.326
L239.093 118.241
L239.21 118.162
L239.516 118.125
L239.632 117.23
L240.403 117.145
L240.519 116.785
L240.593 116.785
L240.71 116.074
L241.333 115.986
L241.47 115.938
L241.671 115.914
L241.787 115.727
L242.495 115.619
L242.632 115.503
L242.695 115.496
L242.812 113.619
L242.959 113.609
L243.076 113.408
L244.047 113.326
L244.185 113.238
L244.396 113.207
L244.512 112.711
L244.692 112.599
L245.083 112.565
L245.209 111.884
L246.149 111.803
L246.318 111.33
L246.931 111.221
L247.163 111.198
L247.491 111.157
L247.607 111.031
L247.85 110.98
L247.966 110.721
L248.188 110.653
L248.283 110.602
L248.399 108.671
L248.579 108.599
L248.758 108.314
L248.917 108.205
L249.434 108.099
L249.561 107.647
L249.91 107.545
L250.047 107.474
L250.301 107.375
L250.48 107.314
L251.146 107.205
L251.357 107.198
L251.632 107.185
L251.748 107.015
L252.181 107.001
L252.308 106.834
L253.469 106.756
L253.586 106.331
L254.441 106.039
L254.663 104.393
L254.779 104.294
L254.906 104.212
L255.878 104.178
L255.994 103.899
L256.923 103.811
L257.04 103.563
L257.092 103.563
L257.209 103.304
L257.325 103.26
L257.885 103.223
L258.011 102.988
L258.36 102.883
L258.476 102.842
L258.624 102.825
L258.74 101.808
L259.342 101.699
L259.48 101.624
L260.135 101.543
L260.251 101.4
L261.223 101.322
L261.339 101.216
L261.761 101.196
L261.972 101.097
L262.089 101.06
L262.68 101.036
L262.796 100.876
L263.515 100.761
L264.36 100.672
L264.476 100.56
L264.729 100.546
L264.846 100.383
L265.194 100.278
L265.31 100.206
L265.532 100.193
L266.303 100.06
L266.588 100.029
L266.705 99.9341
L267.264 99.8355
L267.402 99.7709
L268.236 99.6757
L268.363 99.6382
L268.743 99.5566
L268.87 99.4818
L269.356 99.4036
L269.472 99.1417
L269.958 99.1077
L270.074 98.669
L270.549 98.6146
L270.666 98.5364
L270.877 98.4582
L271.004 98.3664
L272.271 98.2575
L272.419 98.2133
L272.894 98.1827
L273.011 97.5162
L273.433 97.4958
L273.835 97.3869
L273.961 97.3631
L274.743 97.2577
L274.891 97.2407
L275.324 97.1999
L275.44 96.5639
L275.894 96.4891
L276.01 96.2443
L276.613 96.1354
L276.739 96.1014
L277.299 95.9926
L277.458 95.9382
L277.711 95.9076
L277.827 95.741
L278.081 95.6831
L278.197 95.5335
L278.324 95.5267
L278.44 95.3431
L280.648 94.7479
L281.345 94.6425
L281.545 94.6017
L281.788 94.4929
L283.278 93.9385
L283.394 93.8773
L283.426 93.8773
L283.542 93.5373
L284.017 93.4318
L284.133 93.3672
L285.105 93.2618
L285.137 93.2346
L285.253 92.9523
L285.855 92.8537
L285.971 92.5578
L286.309 92.5068
L286.425 92.3402
L286.763 92.2416
L286.901 92.1769
L287.64 92.0953
L287.756 91.9083
L288.02 91.8233
L288.147 91.4968
L288.559 91.3948
L288.675 91.2893
L288.855 91.2213
L288.982 91.0615
L289.573 90.9561
L289.827 90.8948
L289.943 90.5684
L290.26 90.4936
L290.492 90.4221
L290.608 90.0242
L290.872 90.0106
L290.999 89.5107
L291.601 89.2319
L291.749 89.0652
L292.024 88.9904
L292.15 88.8918
L292.372 88.8272
L292.562 88.8068
L292.679 88.1164
L292.71 88.0858
L292.826 87.5825
L293.154 87.5383
L293.27 87.4056
L293.429 87.3546
L293.545 87.1914
L293.671 87.0826
L293.788 87.0214
L294.02 86.9737
L294.136 86.7255
L294.728 86.6235
L294.844 86.5725
L295.351 86.467
L295.795 86.0759
L295.932 86.0283
L296.048 84.6544
L296.545 84.5524
L296.682 84.3721
L296.766 84.3721
L296.893 84.1545
L296.967 84.1001
L297.094 83.8858
L297.273 83.8586
L297.4 83.4063
L297.559 83.3281
L297.685 83.2057
L297.865 83.1037
L297.992 83.0084
L298.076 82.988
L298.192 82.4609
L298.636 82.3861
L298.763 82.3045
L298.868 82.1956
L299.006 82.1718
L299.143 81.5801
L299.27 81.5393
L299.301 81.5393
L299.418 81.2434
L299.534 81.155
L299.65 81.0156
L299.893 80.9646
L300.009 80.8353
L300.157 80.7945
L300.273 80.3252
L300.442 80.2266
L300.558 79.0125
L300.59 79.0091
L300.717 78.3188
L300.918 78.2779
L301.034 77.8597
L301.065 77.8358
L301.182 77.4039
L301.213 77.4005
L301.361 75.7546
L301.805 75.4757
L302.111 75.4383
L302.301 74.5167
L302.481 74.4759
L302.597 74.3432
L302.819 74.316
L302.935 73.476
L303.442 73.374
L303.463 73.3604
L303.579 73.1428
L303.632 73.1258
L303.759 72.8775
L303.812 72.8639
L303.928 71.9185
L304.108 71.8131
L304.53 71.456
L304.71 71.0105
L304.731 71.0105
L304.847 70.1059
L304.868 70.1059
L305.016 69.3441
L305.153 69.2387
L305.269 69.2081
L305.512 65.7563
L305.523 65.7495
L305.639 65.27
L305.914 65.0727
L305.998 65.0149
L306.125 64.345
L306.252 63.7702
L306.442 63.59
L306.558 63.2295
L306.738 63.1955
L306.864 62.6174
L307.055 62.1617
L307.192 62.1004
L307.308 60.3014
L307.34 60.2096
L307.54 57.71
L307.625 57.6012
L307.699 57.5264
L307.878 56.5912
L307.9 56.5164
L308.016 56.2647
L308.1 56.1831
L308.185 55.5165
L308.322 53.7923
L308.333 53.7753
L308.692 43.505
L308.702 43.505
L308.819 42.784
L308.861 42.5936
L309.009 40.6211
L309.072 40.6041
L309.093 40.2572
L309.241 28.8
L309.273 28.8
L309.273 28.8" style="fill:none;stroke:#7a68a6;stroke-linecap:square;"/>
   </g>
   <g id="patch_3">
    <path d="
M81 28.8
L309.273 28.8" style="fill:none;stroke:#bcbcbc;"/>
   </g>
   <g id="patch_4">
    <path d="
M309.273 252
L309.273 28.8" style="fill:none;stroke:#bcbcbc;"/>
   </g>
   <g id="patch_5">
    <path d="
M81 252
L309.273 252" style="fill:none;stroke:#bcbcbc;"/>
   </g>
   <g id="patch_6">
    <path d="
M81 252
L81 28.8" style="fill:none;stroke:#bcbcbc;"/>
   </g>
   <g id="text_13">
    <!-- Age Cumulative Fraction -->
    <defs>
     <path d="
M40.4375 19
L49.0781 17.875
Q47.6562 8.9375 41.8125 3.875
Q35.9844 -1.17188 27.4844 -1.17188
Q16.8438 -1.17188 10.375 5.78125
Q3.90625 12.75 3.90625 25.7344
Q3.90625 34.125 6.6875 40.4219
Q9.46875 46.7344 15.1562 49.875
Q20.8438 53.0312 27.5469 53.0312
Q35.9844 53.0312 41.3594 48.75
Q46.7344 44.4844 48.25 36.625
L39.7031 35.2969
Q38.4844 40.5312 35.375 43.1562
Q32.2812 45.7969 27.875 45.7969
Q21.2344 45.7969 17.0781 41.0312
Q12.9375 36.2812 12.9375 25.9844
Q12.9375 15.5312 16.9375 10.7969
Q20.9531 6.0625 27.3906 6.0625
Q32.5625 6.0625 36.0312 9.23438
Q39.5 12.4062 40.4375 19" id="ArialMT-63"/>
     <path d="
M40.4375 6.39062
Q35.5469 2.25 31.0312 0.53125
Q26.5156 -1.17188 21.3438 -1.17188
Q12.7969 -1.17188 8.20312 3
Q3.60938 7.17188 3.60938 13.6719
Q3.60938 17.4844 5.34375 20.625
Q7.07812 23.7812 9.89062 25.6875
Q12.7031 27.5938 16.2188 28.5625
Q18.7969 29.25 24.0312 29.8906
Q34.6719 31.1562 39.7031 32.9062
Q39.75 34.7188 39.75 35.2031
Q39.75 40.5781 37.25 42.7812
Q33.8906 45.75 27.25 45.75
Q21.0469 45.75 18.0938 43.5781
Q15.1406 41.4062 13.7188 35.8906
L5.125 37.0625
Q6.29688 42.5781 8.98438 45.9688
Q11.6719 49.3594 16.75 51.1875
Q21.8281 53.0312 28.5156 53.0312
Q35.1562 53.0312 39.2969 51.4688
Q43.4531 49.9062 45.4062 47.5312
Q47.3594 45.1719 48.1406 41.5469
Q48.5781 39.3125 48.5781 33.4531
L48.5781 21.7344
Q48.5781 9.46875 49.1406 6.21875
Q49.7031 2.98438 51.375 0
L42.1875 0
Q40.8281 2.73438 40.4375 6.39062
M39.7031 26.0312
Q34.9062 24.0781 25.3438 22.7031
Q19.9219 21.9219 17.6719 20.9375
Q15.4375 19.9688 14.2031 18.0938
Q12.9844 16.2188 12.9844 13.9219
Q12.9844 10.4062 15.6406 8.0625
Q18.3125 5.71875 23.4375 5.71875
Q28.5156 5.71875 32.4688 7.9375
Q36.4219 10.1562 38.2812 14.0156
Q39.7031 17 39.7031 22.7969
z
" id="ArialMT-61"/>
     <path d="
M4.98438 -4.29688
L13.5312 -5.5625
Q14.0625 -9.51562 16.5 -11.3281
Q19.7812 -13.7656 25.4375 -13.7656
Q31.5469 -13.7656 34.8594 -11.3281
Q38.1875 -8.89062 39.3594 -4.5
Q40.0469 -1.8125 39.9844 6.78125
Q34.2344 0 25.6406 0
Q14.9375 0 9.07812 7.71875
Q3.21875 15.4375 3.21875 26.2188
Q3.21875 33.6406 5.90625 39.9062
Q8.59375 46.1875 13.6875 49.6094
Q18.7969 53.0312 25.6875 53.0312
Q34.8594 53.0312 40.8281 45.6094
L40.8281 51.8594
L48.9219 51.8594
L48.9219 7.03125
Q48.9219 -5.07812 46.4531 -10.125
Q44 -15.1875 38.6406 -18.1094
Q33.2969 -21.0469 25.4844 -21.0469
Q16.2188 -21.0469 10.5 -16.875
Q4.78125 -12.7031 4.98438 -4.29688
M12.25 26.8594
Q12.25 16.6562 16.2969 11.9688
Q20.3594 7.28125 26.4688 7.28125
Q32.5156 7.28125 36.6094 11.9375
Q40.7188 16.6094 40.7188 26.5625
Q40.7188 36.0781 36.5 40.9062
Q32.2812 45.75 26.3125 45.75
Q20.4531 45.75 16.3438 40.9844
Q12.25 36.2344 12.25 26.8594" id="ArialMT-67"/>
     <path d="
M21 0
L1.26562 51.8594
L10.5469 51.8594
L21.6875 20.7969
Q23.4844 15.7656 25 10.3594
Q26.1719 14.4531 28.2656 20.2188
L39.7969 51.8594
L48.8281 51.8594
L29.2031 0
z
" id="ArialMT-76"/>
     <path d="
M42.0938 16.7031
L51.1719 15.5781
Q49.0312 7.625 43.2188 3.21875
Q37.4062 -1.17188 28.375 -1.17188
Q17 -1.17188 10.3281 5.82812
Q3.65625 12.8438 3.65625 25.4844
Q3.65625 38.5781 10.3906 45.7969
Q17.1406 53.0312 27.875 53.0312
Q38.2812 53.0312 44.875 45.9531
Q51.4688 38.875 51.4688 26.0312
Q51.4688 25.25 51.4219 23.6875
L12.75 23.6875
Q13.2344 15.1406 17.5781 10.5938
Q21.9219 6.0625 28.4219 6.0625
Q33.25 6.0625 36.6719 8.59375
Q40.0938 11.1406 42.0938 16.7031
M13.2344 30.9062
L42.1875 30.9062
Q41.6094 37.4531 38.875 40.7188
Q34.6719 45.7969 27.9844 45.7969
Q21.9219 45.7969 17.7969 41.75
Q13.6719 37.7031 13.2344 30.9062" id="ArialMT-65"/>
     <path d="
M-0.140625 0
L27.3438 71.5781
L37.5469 71.5781
L66.8438 0
L56.0625 0
L47.7031 21.6875
L17.7812 21.6875
L9.90625 0
z

M20.5156 29.3906
L44.7812 29.3906
L37.3125 49.2188
Q33.8906 58.25 32.2344 64.0625
Q30.8594 57.1719 28.375 50.3906
z
" id="ArialMT-41"/>
     <path d="
M40.5781 0
L40.5781 7.625
Q34.5156 -1.17188 24.125 -1.17188
Q19.5312 -1.17188 15.5469 0.578125
Q11.5781 2.34375 9.64062 5
Q7.71875 7.67188 6.9375 11.5312
Q6.39062 14.1094 6.39062 19.7344
L6.39062 51.8594
L15.1875 51.8594
L15.1875 23.0938
Q15.1875 16.2188 15.7188 13.8125
Q16.5469 10.3594 19.2344 8.375
Q21.9219 6.39062 25.875 6.39062
Q29.8281 6.39062 33.2969 8.42188
Q36.7656 10.4531 38.2031 13.9375
Q39.6562 17.4375 39.6562 24.0781
L39.6562 51.8594
L48.4375 51.8594
L48.4375 0
z
" id="ArialMT-75"/>
     <path d="
M58.7969 25.0938
L68.2656 22.7031
Q65.2812 11.0312 57.5469 4.90625
Q49.8125 -1.21875 38.625 -1.21875
Q27.0469 -1.21875 19.7969 3.48438
Q12.5469 8.20312 8.76562 17.1406
Q4.98438 26.0781 4.98438 36.3281
Q4.98438 47.5156 9.25 55.8281
Q13.5312 64.1562 21.4062 68.4688
Q29.2969 72.7969 38.7656 72.7969
Q49.5156 72.7969 56.8281 67.3281
Q64.1562 61.8594 67.0469 51.9531
L57.7188 49.75
Q55.2188 57.5625 50.4844 61.125
Q45.75 64.7031 38.5781 64.7031
Q30.3281 64.7031 24.7812 60.7344
Q19.2344 56.7812 16.9844 50.1094
Q14.75 43.4531 14.75 36.375
Q14.75 27.25 17.4062 20.4375
Q20.0625 13.625 25.6719 10.25
Q31.2969 6.89062 37.8438 6.89062
Q45.7969 6.89062 51.3125 11.4688
Q56.8438 16.0625 58.7969 25.0938" id="ArialMT-43"/>
     <path d="
M6.5 0
L6.5 51.8594
L14.4062 51.8594
L14.4062 44
Q17.4375 49.5156 20 51.2656
Q22.5625 53.0312 25.6406 53.0312
Q30.0781 53.0312 34.6719 50.2031
L31.6406 42.0469
Q28.4219 43.9531 25.2031 43.9531
Q22.3125 43.9531 20.0156 42.2188
Q17.7188 40.4844 16.75 37.4062
Q15.2812 32.7188 15.2812 27.1562
L15.2812 0
z
" id="ArialMT-72"/>
     <path d="
M8.20312 0
L8.20312 71.5781
L56.5 71.5781
L56.5 63.1406
L17.6719 63.1406
L17.6719 40.9688
L51.2656 40.9688
L51.2656 32.5156
L17.6719 32.5156
L17.6719 0
z
" id="ArialMT-46"/>
     <path d="
M6.39062 0
L6.39062 71.5781
L15.1875 71.5781
L15.1875 0
z
" id="ArialMT-6c"/>
     <path d="
M25.7812 7.85938
L27.0469 0.09375
Q23.3438 -0.6875 20.4062 -0.6875
Q15.625 -0.6875 12.9844 0.828125
Q10.3594 2.34375 9.28125 4.8125
Q8.20312 7.28125 8.20312 15.1875
L8.20312 45.0156
L1.76562 45.0156
L1.76562 51.8594
L8.20312 51.8594
L8.20312 64.7031
L16.9375 69.9688
L16.9375 51.8594
L25.7812 51.8594
L25.7812 45.0156
L16.9375 45.0156
L16.9375 14.7031
Q16.9375 10.9375 17.4062 9.85938
Q17.875 8.79688 18.9219 8.15625
Q19.9688 7.51562 21.9219 7.51562
Q23.3906 7.51562 25.7812 7.85938" id="ArialMT-74"/>
     <path d="
M3.32812 25.9219
Q3.32812 40.3281 11.3281 47.2656
Q18.0156 53.0312 27.6406 53.0312
Q38.3281 53.0312 45.1094 46.0156
Q51.9062 39.0156 51.9062 26.6562
Q51.9062 16.6562 48.9062 10.9062
Q45.9062 5.17188 40.1562 2
Q34.4219 -1.17188 27.6406 -1.17188
Q16.75 -1.17188 10.0312 5.8125
Q3.32812 12.7969 3.32812 25.9219
M12.3594 25.9219
Q12.3594 15.9688 16.7031 11.0156
Q21.0469 6.0625 27.6406 6.0625
Q34.1875 6.0625 38.5312 11.0312
Q42.875 16.0156 42.875 26.2188
Q42.875 35.8438 38.5 40.7969
Q34.125 45.75 27.6406 45.75
Q21.0469 45.75 16.7031 40.8125
Q12.3594 35.8906 12.3594 25.9219" id="ArialMT-6f"/>
     <path d="
M6.59375 0
L6.59375 51.8594
L14.5 51.8594
L14.5 44.4844
Q20.2188 53.0312 31 53.0312
Q35.6875 53.0312 39.625 51.3438
Q43.5625 49.6562 45.5156 46.9219
Q47.4688 44.1875 48.25 40.4375
Q48.7344 37.9844 48.7344 31.8906
L48.7344 0
L39.9375 0
L39.9375 31.5469
Q39.9375 36.9219 38.9062 39.5781
Q37.8906 42.2344 35.2812 43.8125
Q32.6719 45.4062 29.1562 45.4062
Q23.5312 45.4062 19.4531 41.8438
Q15.375 38.2812 15.375 28.3281
L15.375 0
z
" id="ArialMT-6e"/>
     <path d="
M6.59375 0
L6.59375 51.8594
L14.4531 51.8594
L14.4531 44.5781
Q16.8906 48.3906 20.9375 50.7031
Q25 53.0312 30.1719 53.0312
Q35.9375 53.0312 39.625 50.6406
Q43.3125 48.25 44.8281 43.9531
Q50.9844 53.0312 60.8438 53.0312
Q68.5625 53.0312 72.7031 48.75
Q76.8594 44.4844 76.8594 35.5938
L76.8594 0
L68.1094 0
L68.1094 32.6719
Q68.1094 37.9375 67.25 40.25
Q66.4062 42.5781 64.1562 43.9844
Q61.9219 45.4062 58.8906 45.4062
Q53.4219 45.4062 49.7969 41.7656
Q46.1875 38.1406 46.1875 30.125
L46.1875 0
L37.4062 0
L37.4062 33.6875
Q37.4062 39.5469 35.25 42.4688
Q33.1094 45.4062 28.2188 45.4062
Q24.5156 45.4062 21.3594 43.4531
Q18.2188 41.5 16.7969 37.7344
Q15.375 33.9844 15.375 26.9062
L15.375 0
z
" id="ArialMT-6d"/>
     <path d="
M6.64062 61.4688
L6.64062 71.5781
L15.4375 71.5781
L15.4375 61.4688
z

M6.64062 0
L6.64062 51.8594
L15.4375 51.8594
L15.4375 0
z
" id="ArialMT-69"/>
     <path id="ArialMT-20"/>
    </defs>
    <g transform="translate(116.791363636 23.8)scale(0.144 -0.144)">
     <use xlink:href="#ArialMT-41"/>
     <use x="66.69921875" xlink:href="#ArialMT-67"/>
     <use x="122.314453125" xlink:href="#ArialMT-65"/>
     <use x="177.9296875" xlink:href="#ArialMT-20"/>
     <use x="205.712890625" xlink:href="#ArialMT-43"/>
     <use x="277.9296875" xlink:href="#ArialMT-75"/>
     <use x="333.544921875" xlink:href="#ArialMT-6d"/>
     <use x="416.845703125" xlink:href="#ArialMT-75"/>
     <use x="472.4609375" xlink:href="#ArialMT-6c"/>
     <use x="494.677734375" xlink:href="#ArialMT-61"/>
     <use x="550.29296875" xlink:href="#ArialMT-74"/>
     <use x="578.076171875" xlink:href="#ArialMT-69"/>
     <use x="600.29296875" xlink:href="#ArialMT-76"/>
     <use x="650.29296875" xlink:href="#ArialMT-65"/>
     <use x="705.908203125" xlink:href="#ArialMT-20"/>
     <use x="733.69140625" xlink:href="#ArialMT-46"/>
     <use x="794.775390625" xlink:href="#ArialMT-72"/>
     <use x="828.076171875" xlink:href="#ArialMT-61"/>
     <use x="883.69140625" xlink:href="#ArialMT-63"/>
     <use x="933.69140625" xlink:href="#ArialMT-74"/>
     <use x="961.474609375" xlink:href="#ArialMT-69"/>
     <use x="983.69140625" xlink:href="#ArialMT-6f"/>
     <use x="1039.30664062" xlink:href="#ArialMT-6e"/>
    </g>
   </g>
   <g id="legend_1">
    <g id="patch_7">
     <path d="
M89.4 89.3231
L177.279 89.3231
Q179.679 89.3231 179.679 86.9231
L179.679 37.2
Q179.679 34.8 177.279 34.8
L89.4 34.8
Q87 34.8 87 37.2
L87 86.9231
Q87 89.3231 89.4 89.3231
z
" style="fill:#eeeeee;stroke:#bcbcbc;stroke-width:0.5;"/>
    </g>
    <g id="line2d_40">
     <path d="
M95.4 43.9894
L112.2 43.9894" style="fill:none;stroke:#348abd;stroke-linecap:square;"/>
    </g>
    <g id="line2d_41"/>
    <g id="text_14">
     <!-- Count -->
     <g transform="translate(125.4 48.189375)scale(0.12 -0.12)">
      <use xlink:href="#ArialMT-43"/>
      <use x="72.216796875" xlink:href="#ArialMT-6f"/>
      <use x="127.83203125" xlink:href="#ArialMT-75"/>
      <use x="183.447265625" xlink:href="#ArialMT-6e"/>
      <use x="239.0625" xlink:href="#ArialMT-74"/>
     </g>
    </g>
    <g id="line2d_42">
     <path d="
M95.4 60.9637
L112.2 60.9637" style="fill:none;stroke:#a60628;stroke-linecap:square;"/>
    </g>
    <g id="line2d_43"/>
    <g id="text_15">
     <!-- Stock -->
     <defs>
      <path d="
M4.5 23
L13.4219 23.7812
Q14.0625 18.4062 16.375 14.9688
Q18.7031 11.5312 23.5781 9.40625
Q28.4688 7.28125 34.5781 7.28125
Q39.9844 7.28125 44.1406 8.89062
Q48.2969 10.5 50.3125 13.2969
Q52.3438 16.1094 52.3438 19.4375
Q52.3438 22.7969 50.3906 25.3125
Q48.4375 27.8281 43.9531 29.5469
Q41.0625 30.6719 31.2031 33.0312
Q21.3438 35.4062 17.3906 37.5
Q12.25 40.1875 9.73438 44.1562
Q7.23438 48.1406 7.23438 53.0781
Q7.23438 58.5 10.2969 63.2031
Q13.375 67.9219 19.2812 70.3594
Q25.2031 72.7969 32.4219 72.7969
Q40.375 72.7969 46.4531 70.2344
Q52.5469 67.6719 55.8125 62.6875
Q59.0781 57.7188 59.3281 51.4219
L50.25 50.7344
Q49.5156 57.5156 45.2812 60.9844
Q41.0625 64.4531 32.8125 64.4531
Q24.2188 64.4531 20.2812 61.2969
Q16.3594 58.1562 16.3594 53.7188
Q16.3594 49.8594 19.1406 47.3594
Q21.875 44.875 33.4219 42.2656
Q44.9688 39.6562 49.2656 37.7031
Q55.5156 34.8125 58.4844 30.3906
Q61.4688 25.9844 61.4688 20.2188
Q61.4688 14.5 58.2031 9.4375
Q54.9375 4.39062 48.7969 1.57812
Q42.6719 -1.21875 35.0156 -1.21875
Q25.2969 -1.21875 18.7188 1.60938
Q12.1562 4.4375 8.42188 10.125
Q4.6875 15.8281 4.5 23" id="ArialMT-53"/>
      <path d="
M6.64062 0
L6.64062 71.5781
L15.4375 71.5781
L15.4375 30.7656
L36.2344 51.8594
L47.6094 51.8594
L27.7812 32.625
L49.6094 0
L38.7656 0
L21.625 26.5156
L15.4375 20.5625
L15.4375 0
z
" id="ArialMT-6b"/>
     </defs>
     <g transform="translate(125.4 65.16375)scale(0.12 -0.12)">
      <use xlink:href="#ArialMT-53"/>
      <use x="66.69921875" xlink:href="#ArialMT-74"/>
      <use x="94.482421875" xlink:href="#ArialMT-6f"/>
      <use x="150.09765625" xlink:href="#ArialMT-63"/>
      <use x="200.09765625" xlink:href="#ArialMT-6b"/>
     </g>
    </g>
    <g id="line2d_44">
     <path d="
M95.4 77.9381
L112.2 77.9381" style="fill:none;stroke:#7a68a6;stroke-linecap:square;"/>
    </g>
    <g id="line2d_45"/>
    <g id="text_16">
     <!-- Transfers -->
     <defs>
      <path d="
M8.6875 0
L8.6875 45.0156
L0.921875 45.0156
L0.921875 51.8594
L8.6875 51.8594
L8.6875 57.375
Q8.6875 62.5938 9.625 65.1406
Q10.8906 68.5625 14.0781 70.6719
Q17.2812 72.7969 23.0469 72.7969
Q26.7656 72.7969 31.25 71.9219
L29.9375 64.2656
Q27.2031 64.75 24.75 64.75
Q20.75 64.75 19.0938 63.0312
Q17.4375 61.3281 17.4375 56.6406
L17.4375 51.8594
L27.5469 51.8594
L27.5469 45.0156
L17.4375 45.0156
L17.4375 0
z
" id="ArialMT-66"/>
      <path d="
M25.9219 0
L25.9219 63.1406
L2.34375 63.1406
L2.34375 71.5781
L59.0781 71.5781
L59.0781 63.1406
L35.4062 63.1406
L35.4062 0
z
" id="ArialMT-54"/>
      <path d="
M3.07812 15.4844
L11.7656 16.8438
Q12.5 11.625 15.8438 8.84375
Q19.1875 6.0625 25.2031 6.0625
Q31.25 6.0625 34.1719 8.51562
Q37.1094 10.9844 37.1094 14.3125
Q37.1094 17.2812 34.5156 19
Q32.7188 20.1719 25.5312 21.9688
Q15.875 24.4219 12.1406 26.2031
Q8.40625 27.9844 6.46875 31.125
Q4.54688 34.2812 4.54688 38.0938
Q4.54688 41.5469 6.125 44.5
Q7.71875 47.4688 10.4531 49.4219
Q12.5 50.9219 16.0312 51.9688
Q19.5781 53.0312 23.6406 53.0312
Q29.7344 53.0312 34.3438 51.2656
Q38.9688 49.5156 41.1562 46.5
Q43.3594 43.5 44.1875 38.4844
L35.5938 37.3125
Q35.0156 41.3125 32.2031 43.5469
Q29.3906 45.7969 24.2656 45.7969
Q18.2188 45.7969 15.625 43.7969
Q13.0312 41.7969 13.0312 39.1094
Q13.0312 37.4062 14.1094 36.0312
Q15.1875 34.625 17.4844 33.6875
Q18.7969 33.2031 25.25 31.4531
Q34.5781 28.9531 38.25 27.3594
Q41.9375 25.7812 44.0312 22.75
Q46.1406 19.7344 46.1406 15.2344
Q46.1406 10.8438 43.5781 6.95312
Q41.0156 3.07812 36.1719 0.953125
Q31.3438 -1.17188 25.25 -1.17188
Q15.1406 -1.17188 9.84375 3.03125
Q4.54688 7.23438 3.07812 15.4844" id="ArialMT-73"/>
     </defs>
     <g transform="translate(125.4 82.138125)scale(0.12 -0.12)">
      <use xlink:href="#ArialMT-54"/>
      <use x="57.333984375" xlink:href="#ArialMT-72"/>
      <use x="90.634765625" xlink:href="#ArialMT-61"/>
      <use x="146.25" xlink:href="#ArialMT-6e"/>
      <use x="201.865234375" xlink:href="#ArialMT-73"/>
      <use x="251.865234375" xlink:href="#ArialMT-66"/>
      <use x="279.6484375" xlink:href="#ArialMT-65"/>
      <use x="335.263671875" xlink:href="#ArialMT-72"/>
      <use x="368.564453125" xlink:href="#ArialMT-73"/>
     </g>
    </g>
   </g>
  </g>
  <g id="axes_2">
   <g id="patch_8">
    <path d="
M354.927 252
L583.2 252
L583.2 28.8
L354.927 28.8
z
" style="fill:#eeeeee;"/>
   </g>
   <g id="matplotlib.axis_3">
    <g id="xtick_7">
     <g id="line2d_46">
      <path clip-path="url(#p38be0faa39)" d="
M354.927 252
L354.927 28.8" style="fill:none;stroke:#000000;stroke-dasharray:1.000000,3.000000;stroke-dashoffset:0.0;stroke-width:0.5;"/>
     </g>
     <g id="line2d_47">
      <g>
       <use style="fill:#555555;stroke:#555555;stroke-width:0.5;" x="354.927272727" xlink:href="#m91191bb255" y="252.0"/>
      </g>
     </g>
     <g id="line2d_48">
      <g>
       <use style="fill:#555555;stroke:#555555;stroke-width:0.5;" x="354.927272727" xlink:href="#m64c3aef5f4" y="28.8"/>
      </g>
     </g>
     <g id="text_17">
      <!-- 0.0 -->
      <g style="fill:#555555;" transform="translate(348.424147727 265.1578125)scale(0.1 -0.1)">
       <use xlink:href="#ArialMT-30"/>
       <use x="55.615234375" xlink:href="#ArialMT-2e"/>
       <use x="83.3984375" xlink:href="#ArialMT-30"/>
      </g>
     </g>
    </g>
    <g id="xtick_8">
     <g id="line2d_49">
      <path clip-path="url(#p38be0faa39)" d="
M400.582 252
L400.582 28.8" style="fill:none;stroke:#000000;stroke-dasharray:1.000000,3.000000;stroke-dashoffset:0.0;stroke-width:0.5;"/>
     </g>
     <g id="line2d_50">
      <g>
       <use style="fill:#555555;stroke:#555555;stroke-width:0.5;" x="400.581818182" xlink:href="#m91191bb255" y="252.0"/>
      </g>
     </g>
     <g id="line2d_51">
      <g>
       <use style="fill:#555555;stroke:#555555;stroke-width:0.5;" x="400.581818182" xlink:href="#m64c3aef5f4" y="28.8"/>
      </g>
     </g>
     <g id="text_18">
      <!-- 0.2 -->
      <g style="fill:#555555;" transform="translate(394.102911932 265.1578125)scale(0.1 -0.1)">
       <use xlink:href="#ArialMT-30"/>
       <use x="55.615234375" xlink:href="#ArialMT-2e"/>
       <use x="83.3984375" xlink:href="#ArialMT-32"/>
      </g>
     </g>
    </g>
    <g id="xtick_9">
     <g id="line2d_52">
      <path clip-path="url(#p38be0faa39)" d="
M446.236 252
L446.236 28.8" style="fill:none;stroke:#000000;stroke-dasharray:1.000000,3.000000;stroke-dashoffset:0.0;stroke-width:0.5;"/>
     </g>
     <g id="line2d_53">
      <g>
       <use style="fill:#555555;stroke:#555555;stroke-width:0.5;" x="446.236363636" xlink:href="#m91191bb255" y="252.0"/>
      </g>
     </g>
     <g id="line2d_54">
      <g>
       <use style="fill:#555555;stroke:#555555;stroke-width:0.5;" x="446.236363636" xlink:href="#m64c3aef5f4" y="28.8"/>
      </g>
     </g>
     <g id="text_19">
      <!-- 0.4 -->
      <g style="fill:#555555;" transform="translate(439.735582386 265.1578125)scale(0.1 -0.1)">
       <use xlink:href="#ArialMT-30"/>
       <use x="55.615234375" xlink:href="#ArialMT-2e"/>
       <use x="83.3984375" xlink:href="#ArialMT-34"/>
      </g>
     </g>
    </g>
    <g id="xtick_10">
     <g id="line2d_55">
      <path clip-path="url(#p38be0faa39)" d="
M491.891 252
L491.891 28.8" style="fill:none;stroke:#000000;stroke-dasharray:1.000000,3.000000;stroke-dashoffset:0.0;stroke-width:0.5;"/>
     </g>
     <g id="line2d_56">
      <g>
       <use style="fill:#555555;stroke:#555555;stroke-width:0.5;" x="491.890909091" xlink:href="#m91191bb255" y="252.0"/>
      </g>
     </g>
     <g id="line2d_57">
      <g>
       <use style="fill:#555555;stroke:#555555;stroke-width:0.5;" x="491.890909091" xlink:href="#m64c3aef5f4" y="28.8"/>
      </g>
     </g>
     <g id="text_20">
      <!-- 0.6 -->
      <g style="fill:#555555;" transform="translate(485.377627841 265.1578125)scale(0.1 -0.1)">
       <use xlink:href="#ArialMT-30"/>
       <use x="55.615234375" xlink:href="#ArialMT-2e"/>
       <use x="83.3984375" xlink:href="#ArialMT-36"/>
      </g>
     </g>
    </g>
    <g id="xtick_11">
     <g id="line2d_58">
      <path clip-path="url(#p38be0faa39)" d="
M537.545 252
L537.545 28.8" style="fill:none;stroke:#000000;stroke-dasharray:1.000000,3.000000;stroke-dashoffset:0.0;stroke-width:0.5;"/>
     </g>
     <g id="line2d_59">
      <g>
       <use style="fill:#555555;stroke:#555555;stroke-width:0.5;" x="537.545454545" xlink:href="#m91191bb255" y="252.0"/>
      </g>
     </g>
     <g id="line2d_60">
      <g>
       <use style="fill:#555555;stroke:#555555;stroke-width:0.5;" x="537.545454545" xlink:href="#m64c3aef5f4" y="28.8"/>
      </g>
     </g>
     <g id="text_21">
      <!-- 0.8 -->
      <g style="fill:#555555;" transform="translate(531.022798295 265.1578125)scale(0.1 -0.1)">
       <use xlink:href="#ArialMT-30"/>
       <use x="55.615234375" xlink:href="#ArialMT-2e"/>
       <use x="83.3984375" xlink:href="#ArialMT-38"/>
      </g>
     </g>
    </g>
    <g id="xtick_12">
     <g id="line2d_61">
      <path clip-path="url(#p38be0faa39)" d="
M583.2 252
L583.2 28.8" style="fill:none;stroke:#000000;stroke-dasharray:1.000000,3.000000;stroke-dashoffset:0.0;stroke-width:0.5;"/>
     </g>
     <g id="line2d_62">
      <g>
       <use style="fill:#555555;stroke:#555555;stroke-width:0.5;" x="583.2" xlink:href="#m91191bb255" y="252.0"/>
      </g>
     </g>
     <g id="line2d_63">
      <g>
       <use style="fill:#555555;stroke:#555555;stroke-width:0.5;" x="583.2" xlink:href="#m64c3aef5f4" y="28.8"/>
      </g>
     </g>
     <g id="text_22">
      <!-- 1.0 -->
      <g style="fill:#555555;" transform="translate(577.03359375 265.1578125)scale(0.1 -0.1)">
       <use xlink:href="#ArialMT-31"/>
       <use x="55.615234375" xlink:href="#ArialMT-2e"/>
       <use x="83.3984375" xlink:href="#ArialMT-30"/>
      </g>
     </g>
    </g>
   </g>
   <g id="matplotlib.axis_4">
    <g id="ytick_7">
     <g id="line2d_64">
      <path clip-path="url(#p38be0faa39)" d="
M354.927 252
L583.2 252" style="fill:none;stroke:#000000;stroke-dasharray:1.000000,3.000000;stroke-dashoffset:0.0;stroke-width:0.5;"/>
     </g>
     <g id="line2d_65">
      <g>
       <use style="fill:#555555;stroke:#555555;stroke-width:0.5;" x="354.927272727" xlink:href="#m8bc147ca23" y="252.0"/>
      </g>
     </g>
     <g id="line2d_66">
      <g>
       <use style="fill:#555555;stroke:#555555;stroke-width:0.5;" x="583.2" xlink:href="#m8bc147ca23" y="252.0"/>
      </g>
     </g>
     <g id="text_23">
      <!-- 0.0 -->
      <g style="fill:#555555;" transform="translate(335.921022727 254.58515625)scale(0.1 -0.1)">
       <use xlink:href="#ArialMT-30"/>
       <use x="55.615234375" xlink:href="#ArialMT-2e"/>
       <use x="83.3984375" xlink:href="#ArialMT-30"/>
      </g>
     </g>
    </g>
    <g id="ytick_8">
     <g id="line2d_67">
      <path clip-path="url(#p38be0faa39)" d="
M354.927 207.36
L583.2 207.36" style="fill:none;stroke:#000000;stroke-dasharray:1.000000,3.000000;stroke-dashoffset:0.0;stroke-width:0.5;"/>
     </g>
     <g id="line2d_68">
      <g>
       <use style="fill:#555555;stroke:#555555;stroke-width:0.5;" x="354.927272727" xlink:href="#m8bc147ca23" y="207.36"/>
      </g>
     </g>
     <g id="line2d_69">
      <g>
       <use style="fill:#555555;stroke:#555555;stroke-width:0.5;" x="583.2" xlink:href="#m8bc147ca23" y="207.36"/>
      </g>
     </g>
     <g id="text_24">
      <!-- 0.2 -->
      <g style="fill:#555555;" transform="translate(335.969460227 209.94515625)scale(0.1 -0.1)">
       <use xlink:href="#ArialMT-30"/>
       <use x="55.615234375" xlink:href="#ArialMT-2e"/>
       <use x="83.3984375" xlink:href="#ArialMT-32"/>
      </g>
     </g>
    </g>
    <g id="ytick_9">
     <g id="line2d_70">
      <path clip-path="url(#p38be0faa39)" d="
M354.927 162.72
L583.2 162.72" style="fill:none;stroke:#000000;stroke-dasharray:1.000000,3.000000;stroke-dashoffset:0.0;stroke-width:0.5;"/>
     </g>
     <g id="line2d_71">
      <g>
       <use style="fill:#555555;stroke:#555555;stroke-width:0.5;" x="354.927272727" xlink:href="#m8bc147ca23" y="162.72"/>
      </g>
     </g>
     <g id="line2d_72">
      <g>
       <use style="fill:#555555;stroke:#555555;stroke-width:0.5;" x="583.2" xlink:href="#m8bc147ca23" y="162.72"/>
      </g>
     </g>
     <g id="text_25">
      <!-- 0.4 -->
      <g style="fill:#555555;" transform="translate(335.925710227 165.30515625)scale(0.1 -0.1)">
       <use xlink:href="#ArialMT-30"/>
       <use x="55.615234375" xlink:href="#ArialMT-2e"/>
       <use x="83.3984375" xlink:href="#ArialMT-34"/>
      </g>
     </g>
    </g>
    <g id="ytick_10">
     <g id="line2d_73">
      <path clip-path="url(#p38be0faa39)" d="
M354.927 118.08
L583.2 118.08" style="fill:none;stroke:#000000;stroke-dasharray:1.000000,3.000000;stroke-dashoffset:0.0;stroke-width:0.5;"/>
     </g>
     <g id="line2d_74">
      <g>
       <use style="fill:#555555;stroke:#555555;stroke-width:0.5;" x="354.927272727" xlink:href="#m8bc147ca23" y="118.08"/>
      </g>
     </g>
     <g id="line2d_75">
      <g>
       <use style="fill:#555555;stroke:#555555;stroke-width:0.5;" x="583.2" xlink:href="#m8bc147ca23" y="118.08"/>
      </g>
     </g>
     <g id="text_26">
      <!-- 0.6 -->
      <g style="fill:#555555;" transform="translate(335.900710227 120.66515625)scale(0.1 -0.1)">
       <use xlink:href="#ArialMT-30"/>
       <use x="55.615234375" xlink:href="#ArialMT-2e"/>
       <use x="83.3984375" xlink:href="#ArialMT-36"/>
      </g>
     </g>
    </g>
    <g id="ytick_11">
     <g id="line2d_76">
      <path clip-path="url(#p38be0faa39)" d="
M354.927 73.44
L583.2 73.44" style="fill:none;stroke:#000000;stroke-dasharray:1.000000,3.000000;stroke-dashoffset:0.0;stroke-width:0.5;"/>
     </g>
     <g id="line2d_77">
      <g>
       <use style="fill:#555555;stroke:#555555;stroke-width:0.5;" x="354.927272727" xlink:href="#m8bc147ca23" y="73.44"/>
      </g>
     </g>
     <g id="line2d_78">
      <g>
       <use style="fill:#555555;stroke:#555555;stroke-width:0.5;" x="583.2" xlink:href="#m8bc147ca23" y="73.44"/>
      </g>
     </g>
     <g id="text_27">
      <!-- 0.8 -->
      <g style="fill:#555555;" transform="translate(335.881960227 76.02515625)scale(0.1 -0.1)">
       <use xlink:href="#ArialMT-30"/>
       <use x="55.615234375" xlink:href="#ArialMT-2e"/>
       <use x="83.3984375" xlink:href="#ArialMT-38"/>
      </g>
     </g>
    </g>
    <g id="ytick_12">
     <g id="line2d_79">
      <path clip-path="url(#p38be0faa39)" d="
M354.927 28.8
L583.2 28.8" style="fill:none;stroke:#000000;stroke-dasharray:1.000000,3.000000;stroke-dashoffset:0.0;stroke-width:0.5;"/>
     </g>
     <g id="line2d_80">
      <g>
       <use style="fill:#555555;stroke:#555555;stroke-width:0.5;" x="354.927272727" xlink:href="#m8bc147ca23" y="28.8"/>
      </g>
     </g>
     <g id="line2d_81">
      <g>
       <use style="fill:#555555;stroke:#555555;stroke-width:0.5;" x="583.2" xlink:href="#m8bc147ca23" y="28.8"/>
      </g>
     </g>
     <g id="text_28">
      <!-- 1.0 -->
      <g style="fill:#555555;" transform="translate(336.594460227 31.38515625)scale(0.1 -0.1)">
       <use xlink:href="#ArialMT-31"/>
       <use x="55.615234375" xlink:href="#ArialMT-2e"/>
       <use x="83.3984375" xlink:href="#ArialMT-30"/>
      </g>
     </g>
    </g>
   </g>
   <g id="line2d_82">
    <path clip-path="url(#p38be0faa39)" d="
M354.927 251.99
L583.2 28.8
L583.2 28.8" style="fill:none;stroke:#348abd;stroke-linecap:square;"/>
   </g>
   <g id="line2d_83">
    <path clip-path="url(#p38be0faa39)" d="
M354.927 252
L411.808 250.138
L443.253 248.09
L464.897 245.98
L480.773 243.913
L493.036 241.913
L503.176 239.928
L511.658 237.986
L518.123 236.28
L523.457 234.687
L528.242 233.098
L534.907 230.518
L540.653 227.921
L545.216 225.55
L548.786 223.445
L551.691 221.526
L554.966 219.072
L557.68 216.757
L560.775 213.748
L562.867 211.399
L565.064 208.589
L567.113 205.562
L568.919 202.462
L570.588 199.147
L572.098 195.679
L573.472 191.958
L574.855 187.522
L576.186 182.449
L577.264 177.499
L578.257 171.919
L579.176 165.483
L579.968 158.305
L580.718 149.263
L581.425 137.907
L582.017 124.595
L582.513 108.439
L582.82 91.6183
L583.063 63.497
L583.2 28.8
L583.2 28.8" style="fill:none;stroke:#a60628;stroke-linecap:square;"/>
   </g>
   <g id="line2d_84">
    <path clip-path="url(#p38be0faa39)" d="
M354.927 252
L359.258 251.898
L359.385 251.85
L360.188 251.748
L360.314 251.714
L363.113 251.606
L363.367 251.572
L366.916 251.466
L367.043 251.435
L370.518 251.354
L370.634 250.667
L372.694 250.589
L372.81 250.517
L373.74 250.449
L373.856 250.347
L374.669 250.32
L374.785 250.232
L376.454 250.153
L376.57 250.038
L378.694 249.929
L379.686 249.725
L381.915 249.623
L382.042 249.599
L382.634 249.49
L382.845 249.48
L383.373 249.436
L383.489 249.32
L384.028 249.252
L384.144 249.072
L385.063 249.001
L385.179 248.864
L385.464 248.817
L385.581 248.749
L385.813 248.749
L385.94 248.395
L386.869 248.29
L387.091 248.273
L387.313 248.269
L387.492 247.348
L388.517 247.239
L389.087 247.171
L390.513 247.099
L390.63 246.994
L391.612 246.912
L391.728 246.8
L391.918 246.77
L392.034 246.334
L392.14 246.327
L392.256 245.926
L392.33 245.926
L392.457 245.494
L392.499 245.494
L392.615 245.283
L392.626 245.283
L392.827 244.229
L393.038 244.107
L393.154 243.801
L393.418 243.634
L393.545 243.484
L393.672 243.416
L393.798 242.876
L393.82 242.876
L393.936 242.76
L394.189 242.638
L394.453 241.454
L394.823 241.379
L394.939 240.584
L395.076 240.257
L395.193 239.461
L395.224 239.455
L395.351 239.07
L395.372 239.07
L395.541 237.431
L396.027 237.332
L396.175 237.281
L396.217 237.281
L396.333 237.067
L397.009 236.975
L397.147 236.935
L397.928 236.86
L398.045 236.666
L398.52 236.557
L398.763 236.367
L399.228 236.285
L399.354 236.251
L399.555 236.163
L400.358 236.098
L400.474 235.887
L402.058 235.853
L402.175 235.765
L403.601 235.714
L403.717 235.629
L406.115 235.52
L406.949 235.367
L408.776 235.306
L408.893 235.238
L409.262 235.153
L409.379 234.632
L409.526 234.571
L409.769 234.544
L410.456 234.449
L410.572 234.398
L411.28 234.35
L411.396 234.285
L412.23 234.18
L412.357 234.16
L412.833 234.061
L412.959 234.013
L413.118 234
L413.234 232.803
L414.09 232.755
L414.206 232.619
L414.818 232.544
L414.935 232.5
L415.188 232.493
L415.304 230.97
L415.42 230.939
L415.537 230.466
L415.579 230.463
L415.695 230.289
L416.498 230.194
L416.614 229.215
L417.047 229.171
L417.163 228.861
L417.364 228.861
L417.48 228.433
L418.114 228.334
L418.167 228.3
L418.294 227.589
L418.779 227.508
L418.906 227.457
L420.227 227.348
L420.66 227.3
L420.776 227.076
L422.001 226.967
L423.923 226.453
L424.04 226.144
L424.6 226.052
L424.716 225.6
L425.497 225.491
L425.624 225.471
L426.015 225.43
L426.131 225.297
L426.3 225.297
L426.416 225.117
L426.797 225.093
L426.913 224.535
L427.874 224.426
L427.99 223.859
L428.846 223.753
L429.004 223.723
L429.606 223.675
L429.733 223.491
L429.849 223.43
L430.568 223.335
L430.726 223.284
L431.856 223.175
L432.099 223.148
L432.817 223.134
L432.934 223.008
L434.159 222.903
L434.286 222.876
L436.958 222.77
L437.095 222.746
L437.898 222.644
L438.046 222.627
L439.947 222.519
L440.159 222.512
L442.313 222.43
L442.44 222.396
L443 222.328
L443.116 222.226
L443.718 222.131
L443.845 222.097
L445.725 222.009
L445.852 221.934
L446.581 221.849
L446.697 221.767
L448.324 221.658
L448.493 221.648
L450.542 221.553
L450.658 221.461
L452.485 221.407
L452.612 221.284
L453.351 221.175
L454.281 220.992
L454.577 220.886
L454.725 220.866
L455.675 220.771
L455.802 220.73
L455.876 220.675
L456.003 220.567
L456.446 220.55
L456.563 220.339
L456.689 220.312
L456.985 220.213
L457.112 220.193
L457.344 220.138
L457.46 219.846
L457.925 219.808
L458.041 219.594
L458.179 219.57
L458.295 219.404
L458.696 219.339
L458.812 219.165
L459.224 219.162
L459.351 218.649
L459.89 218.485
L460.006 218.101
L460.048 218.094
L460.175 217.7
L460.186 217.7
L460.302 210.585
L460.45 210.534
L460.566 209.113
L460.735 209.089
L460.851 206.804
L461.147 206.705
L461.284 206.552
L461.295 206.552
L461.411 206.402
L461.707 206.389
L461.823 205.93
L461.918 205.899
L462.034 205.766
L462.214 205.756
L462.33 205.532
L462.425 205.525
L462.541 205.379
L462.974 205.294
L463.111 205.243
L463.523 205.178
L463.64 205.035
L464.39 204.957
L464.516 204.702
L464.918 204.607
L465.055 204.573
L465.266 204.464
L465.393 204.42
L465.995 204.311
L466.428 204.287
L466.661 204.239
L466.777 204.086
L467.146 204.039
L467.315 203.641
L467.601 203.539
L467.727 203.454
L468.636 203.355
L468.752 203.291
L469.227 203.212
L469.407 202.798
L469.608 202.798
L469.724 202.614
L470.389 202.57
L470.505 202.461
L471.319 202.352
L471.446 202.325
L472.618 202.223
L472.734 202.168
L473.22 202.134
L473.336 201.842
L474.16 201.76
L474.276 201.498
L474.794 201.471
L474.942 200.56
L475.375 200.505
L475.491 200.359
L476.188 200.261
L476.304 200.135
L476.579 200.084
L477.181 200.033
L477.297 199.815
L478.174 199.706
L478.554 199.587
L479.156 199.563
L479.273 199.295
L479.484 199.216
L479.611 199.012
L481.977 198.366
L482.843 198.257
L484.153 197.951
L484.353 197.934
L484.469 197.822
L484.596 197.822
L484.712 197.686
L484.987 197.669
L485.103 197.537
L485.219 197.479
L485.251 197.479
L485.367 197.332
L485.705 197.227
L485.885 197.207
L487.226 197.098
L487.459 197.074
L487.765 197.064
L487.881 196.918
L487.892 196.918
L488.008 196.625
L488.547 196.54
L488.673 196.479
L489.233 196.38
L489.371 196.339
L489.867 196.244
L490.004 196.207
L490.533 196.101
L490.702 196.091
L491.705 195.982
L492.128 195.962
L492.74 195.86
L492.93 195.789
L494.177 195.697
L494.303 195.601
L495.011 195.489
L495.191 195.482
L495.307 194.673
L496.606 194.564
L496.754 194.466
L497.124 194.408
L497.24 194.241
L497.419 194.149
L497.557 194.139
L497.673 193.901
L498.159 193.819
L498.317 193.462
L498.74 193.371
L498.898 193.306
L499.247 193.221
L499.374 193.156
L499.912 193.095
L500.028 192.962
L500.631 192.881
L500.757 192.361
L501.708 192.252
L501.824 191.85
L502.289 191.816
L502.69 191.728
L502.807 191.592
L503.588 191.483
L503.715 191.463
L504.423 191.381
L504.539 191.32
L504.549 191.32
L504.666 191.153
L505.384 191.051
L505.532 191.007
L506.451 190.898
L506.704 190.718
L506.863 190.517
L507.486 190.415
L507.602 190.327
L508.722 190.228
L508.922 190.106
L508.965 190.106
L509.081 189.953
L509.292 189.847
L509.419 189.732
L509.736 189.63
L509.852 189.048
L509.873 189.035
L509.989 188.892
L510.369 188.824
L510.486 188.732
L510.792 188.66
L510.908 188.531
L511.204 188.467
L511.331 188.402
L511.584 188.402
L511.859 186.396
L512.45 186.294
L512.567 186.106
L512.651 186.018
L512.788 185.158
L513.591 185.069
L513.707 184.94
L514.764 184.855
L514.88 184.695
L515.397 184.607
L515.514 183.172
L515.535 183.172
L515.651 182.889
L515.661 182.889
L515.778 182.627
L516.232 182.549
L516.348 182.498
L517.341 182.42
L517.457 182.383
L517.954 182.274
L518.577 182.049
L518.693 181.927
L519.168 181.859
L519.306 181.747
L519.696 181.709
L519.813 181.376
L521.323 180.93
L521.439 180.094
L521.746 180.036
L521.862 179.917
L522.422 179.812
L522.654 179.519
L523.161 179.424
L523.341 179.315
L523.848 179.21
L524.027 179.189
L524.64 179.094
L524.788 179.06
L525.4 178.978
L525.833 178.87
L526.15 178.751
L526.266 177.349
L526.805 177.278
L526.921 176.598
L527.143 176.499
L527.259 176.282
L527.724 176.176
L528.104 176.061
L528.516 175.931
L528.633 175.748
L528.675 175.744
L528.791 175.479
L529.372 175.397
L529.488 175.244
L530.196 175.142
L530.397 175.098
L530.576 175.027
L530.692 174.884
L530.787 174.884
L530.914 174.639
L531.643 174.537
L531.759 174.469
L531.96 174.384
L532.087 174.35
L532.456 174.262
L532.572 173.979
L532.71 173.942
L533.291 173.86
L533.418 173.823
L533.618 173.724
L533.756 173.697
L534.294 173.622
L534.432 173.534
L534.939 173.466
L535.065 173.289
L535.361 173.218
L535.488 173.146
L535.583 173.099
L535.699 173.01
L536.058 172.915
L536.196 172.748
L536.386 172.639
L536.523 172.622
L537.526 172.52
L537.664 172.497
L538.498 172.405
L538.625 172.194
L538.762 172.187
L538.878 172.061
L539.037 172.034
L539.692 171.946
L539.808 171.901
L540.22 171.827
L540.347 171.745
L540.516 171.721
L540.632 171.595
L541.097 171.517
L541.234 171.303
L541.445 171.204
L541.593 171.187
L542.079 171.099
L542.195 170.939
L542.66 170.837
L542.776 161.339
L543.241 161.254
L543.357 161.189
L543.378 161.189
L543.494 160.893
L544.001 160.825
L544.128 159.903
L544.255 159.818
L544.382 159.659
L544.783 159.591
L544.899 159.519
L545.206 159.455
L545.343 159.142
L545.385 159.142
L545.501 159.006
L545.512 159.006
L545.639 158.659
L545.882 158.632
L545.998 157.55
L546.093 157.475
L546.209 156.992
L546.61 156.758
L546.769 156.751
L546.885 156.397
L547.297 156.312
L547.413 156.268
L547.424 156.268
L547.54 155.955
L547.783 155.874
L547.899 155.734
L548.142 155.663
L548.258 155.238
L548.839 155.139
L548.955 155.074
L549.167 154.969
L549.293 154.942
L549.79 154.87
L549.917 154.707
L550.751 154.418
L550.867 154.197
L551.005 154.17
L551.089 154.112
L551.205 153.932
L551.628 153.898
L551.755 153.646
L552.166 153.551
L552.388 153.388
L552.504 153.364
L552.621 153.224
L552.948 153.136
L553.085 152.969
L553.17 152.867
L553.318 152.796
L553.592 152.752
L553.709 152.636
L553.867 152.575
L554.015 152.303
L554.237 152.242
L554.374 152.122
L554.691 152.037
L554.871 151.663
L555.092 151.589
L555.209 151.466
L555.399 151.456
L555.515 151.177
L555.694 151.068
L555.853 151.007
L555.969 150.711
L556.001 150.647
L556.128 150.449
L556.297 150.412
L556.413 149.926
L556.444 149.878
L556.571 149.732
L557.184 149.65
L557.332 149.633
L557.448 148.97
L557.627 148.895
L557.955 147.984
L558.029 147.923
L558.145 147.838
L558.303 147.729
L558.43 147.531
L559.381 147.185
L559.497 146.947
L559.571 146.916
L559.687 146.668
L559.856 146.647
L559.972 146.504
L560.173 146.413
L560.31 146.375
L560.427 146.321
L560.564 146.137
L560.617 146.137
L560.733 146.011
L560.786 146.004
L560.912 145.338
L561.018 145.229
L561.155 145.151
L561.409 145.008
L561.525 136.649
L561.779 136.591
L561.895 134.537
L562.434 134.489
L562.55 134.33
L562.867 134.255
L562.983 133.973
L563.585 133.796
L563.712 132.986
L563.87 132.918
L563.986 132.874
L564.134 132.772
L564.187 132.653
L564.303 131.742
L564.493 131.718
L564.609 131.504
L565.127 131.3
L565.37 131.197
L565.645 131.078
L565.845 131.061
L565.962 130.871
L566.257 130.783
L566.373 130.64
L566.5 130.606
L566.616 129.966
L566.933 129.885
L567.071 129.592
L567.134 129.507
L567.292 129.086
L567.345 129.086
L567.514 127.848
L568 127.664
L568.053 127.579
L568.19 127.457
L568.254 127.446
L568.391 126.749
L568.919 126.518
L569.035 125.882
L569.141 125.783
L569.31 125.61
L569.32 125.61
L569.447 125.314
L569.542 125.229
L569.669 125.107
L569.954 125.022
L570.07 118.033
L570.335 117.965
L570.451 117.281
L570.768 117.179
L570.958 116.935
L570.989 116.935
L571.106 116.241
L571.18 116.19
L571.306 115.795
L571.327 115.795
L571.496 114.857
L571.782 114.758
L571.919 114.571
L572.405 114.357
L572.521 114.078
L572.764 113.435
L573.007 105.923
L573.165 105.712
L573.377 104.637
L573.387 104.637
L573.514 104.318
L573.736 104.236
L573.852 104.032
L573.958 103.954
L574.074 103.549
L574.105 103.549
L574.232 103.352
L574.317 103.345
L574.454 102.957
L574.486 102.934
L574.602 102.464
L574.697 102.355
L575.331 102.131
L575.457 101.89
L575.563 101.75
L575.595 101.689
L575.711 101.009
L576.419 100.611
L576.535 100.315
L576.588 100.315
L576.704 98.7813
L576.714 98.7813
L576.831 97.5876
L576.968 97.4788
L577.021 97.3597
L577.126 97.2611
L577.243 94.3092
L577.359 94.1052
L577.559 94.1052
L577.707 92.4728
L577.834 92.3946
L578.014 91.694
L578.045 91.6294
L578.214 89.2727
L578.341 88.9972
L578.658 88.817
L578.827 88.3
L578.943 88.2932
L579.102 87.5587
L579.176 87.5553
L579.302 86.6949
L579.313 86.6949
L579.44 86.2664
L579.588 86.1882
L579.714 86.0589
L579.735 86.0589
L580.063 82.6922
L580.168 82.6412
L580.433 80.9374
L580.602 80.5021
L580.728 78.397
L580.855 78.3426
L581.035 65.6338
L581.362 64.0797
L581.489 62.682
L581.542 62.6072
L581.658 60.3422
L581.721 60.3014
L581.859 59.8185
L581.954 59.5941
L582.07 50.7894
L582.144 50.5378
L582.292 48.9802
L582.376 47.1812
L582.503 43.7566
L582.545 43.6342
L582.693 42.1991
L582.704 42.1889
L582.83 39.0193
L582.894 38.8935
L583.2 28.8
L583.2 28.8" style="fill:none;stroke:#7a68a6;stroke-linecap:square;"/>
   </g>
   <g id="patch_9">
    <path d="
M354.927 28.8
L583.2 28.8" style="fill:none;stroke:#bcbcbc;"/>
   </g>
   <g id="patch_10">
    <path d="
M583.2 252
L583.2 28.8" style="fill:none;stroke:#bcbcbc;"/>
   </g>
   <g id="patch_11">
    <path d="
M354.927 252
L583.2 252" style="fill:none;stroke:#bcbcbc;"/>
   </g>
   <g id="patch_12">
    <path d="
M354.927 252
L354.927 28.8" style="fill:none;stroke:#bcbcbc;"/>
   </g>
   <g id="text_29">
    <!-- Size Cumulative Fraction -->
    <defs>
     <path d="
M1.95312 0
L1.95312 7.125
L34.9688 45.0156
Q29.3438 44.7344 25.0469 44.7344
L3.90625 44.7344
L3.90625 51.8594
L46.2969 51.8594
L46.2969 46.0469
L18.2188 13.1406
L12.7969 7.125
Q18.7031 7.5625 23.875 7.5625
L47.8594 7.5625
L47.8594 0
z
" id="ArialMT-7a"/>
    </defs>
    <g transform="translate(389.532886364 23.8)scale(0.144 -0.144)">
     <use xlink:href="#ArialMT-53"/>
     <use x="66.69921875" xlink:href="#ArialMT-69"/>
     <use x="88.916015625" xlink:href="#ArialMT-7a"/>
     <use x="138.916015625" xlink:href="#ArialMT-65"/>
     <use x="194.53125" xlink:href="#ArialMT-20"/>
     <use x="222.314453125" xlink:href="#ArialMT-43"/>
     <use x="294.53125" xlink:href="#ArialMT-75"/>
     <use x="350.146484375" xlink:href="#ArialMT-6d"/>
     <use x="433.447265625" xlink:href="#ArialMT-75"/>
     <use x="489.0625" xlink:href="#ArialMT-6c"/>
     <use x="511.279296875" xlink:href="#ArialMT-61"/>
     <use x="566.89453125" xlink:href="#ArialMT-74"/>
     <use x="594.677734375" xlink:href="#ArialMT-69"/>
     <use x="616.89453125" xlink:href="#ArialMT-76"/>
     <use x="666.89453125" xlink:href="#ArialMT-65"/>
     <use x="722.509765625" xlink:href="#ArialMT-20"/>
     <use x="750.29296875" xlink:href="#ArialMT-46"/>
     <use x="811.376953125" xlink:href="#ArialMT-72"/>
     <use x="844.677734375" xlink:href="#ArialMT-61"/>
     <use x="900.29296875" xlink:href="#ArialMT-63"/>
     <use x="950.29296875" xlink:href="#ArialMT-74"/>
     <use x="978.076171875" xlink:href="#ArialMT-69"/>
     <use x="1000.29296875" xlink:href="#ArialMT-6f"/>
     <use x="1055.90820312" xlink:href="#ArialMT-6e"/>
    </g>
   </g>
  </g>
 </g>
 <defs>
  <clipPath id="p05134d0f3e">
   <rect height="223.2" width="228.272727273" x="81.0" y="28.8"/>
  </clipPath>
  <clipPath id="p38be0faa39">
   <rect height="223.2" width="228.272727273" x="354.927272727" y="28.8"/>
  </clipPath>
 </defs>
</svg>
