<?xml version="1.0" encoding="utf-8" standalone="no"?>
<!DOCTYPE svg PUBLIC "-//W3C//DTD SVG 1.1//EN"
  "http://www.w3.org/Graphics/SVG/1.1/DTD/svg11.dtd">
<!-- Created with matplotlib (http://matplotlib.org/) -->
<svg height="252pt" version="1.1" viewBox="0 0 576 252" width="576pt" xmlns="http://www.w3.org/2000/svg" xmlns:xlink="http://www.w3.org/1999/xlink">
 <defs>
  <style type="text/css">
*{stroke-linecap:butt;stroke-linejoin:round;}
  </style>
 </defs>
 <g id="figure_1">
  <g id="patch_1">
   <path d="
M0 252
L576 252
L576 0
L0 0
z
" style="fill:#ffffff;"/>
  </g>
  <g id="axes_1">
   <g id="patch_2">
    <path d="
M72 214.2
L274.909 214.2
L274.909 25.2
L72 25.2
z
" style="fill:#ffffff;"/>
   </g>
   <g id="matplotlib.axis_1">
    <g id="xtick_1">
     <g id="line2d_1">
      <path clip-path="url(#p61377a7746)" d="
M72 214.2
L72 25.2" style="fill:none;stroke:#cccccc;stroke-linecap:round;"/>
     </g>
     <g id="line2d_2">
      <defs>
       <path d="
M0 0
L0 0" id="m219da94a98" style="stroke:#262626;"/>
      </defs>
      <g>
       <use style="fill:#262626;stroke:#262626;" x="72.0" xlink:href="#m219da94a98" y="214.2"/>
      </g>
     </g>
     <g id="line2d_3">
      <g>
       <use style="fill:#262626;stroke:#262626;" x="72.0" xlink:href="#m219da94a98" y="25.2"/>
      </g>
     </g>
     <g id="text_1">
      <!-- 0.0 -->
      <defs>
       <path d="
M4.15625 35.2969
Q4.15625 48 6.76562 55.7344
Q9.375 63.4844 14.5156 67.6719
Q19.6719 71.875 27.4844 71.875
Q33.25 71.875 37.5938 69.5469
Q41.9375 67.2344 44.7656 62.8594
Q47.6094 58.5 49.2188 52.2188
Q50.8281 45.9531 50.8281 35.2969
Q50.8281 22.7031 48.2344 14.9688
Q45.6562 7.23438 40.5 3
Q35.3594 -1.21875 27.4844 -1.21875
Q17.1406 -1.21875 11.2344 6.20312
Q4.15625 15.1406 4.15625 35.2969
M13.1875 35.2969
Q13.1875 17.6719 17.3125 11.8281
Q21.4375 6 27.4844 6
Q33.5469 6 37.6719 11.8594
Q41.7969 17.7188 41.7969 35.2969
Q41.7969 52.9844 37.6719 58.7812
Q33.5469 64.5938 27.3906 64.5938
Q21.3438 64.5938 17.7188 59.4688
Q13.1875 52.9375 13.1875 35.2969" id="ArialMT-30"/>
       <path d="
M9.07812 0
L9.07812 10.0156
L19.0938 10.0156
L19.0938 0
z
" id="ArialMT-2e"/>
      </defs>
      <g style="fill:#262626;" transform="translate(65.496875 228.3578125)scale(0.1 -0.1)">
       <use xlink:href="#ArialMT-30"/>
       <use x="55.615234375" xlink:href="#ArialMT-2e"/>
       <use x="83.3984375" xlink:href="#ArialMT-30"/>
      </g>
     </g>
    </g>
    <g id="xtick_2">
     <g id="line2d_4">
      <path clip-path="url(#p61377a7746)" d="
M112.582 214.2
L112.582 25.2" style="fill:none;stroke:#cccccc;stroke-linecap:round;"/>
     </g>
     <g id="line2d_5">
      <g>
       <use style="fill:#262626;stroke:#262626;" x="112.581818182" xlink:href="#m219da94a98" y="214.2"/>
      </g>
     </g>
     <g id="line2d_6">
      <g>
       <use style="fill:#262626;stroke:#262626;" x="112.581818182" xlink:href="#m219da94a98" y="25.2"/>
      </g>
     </g>
     <g id="text_2">
      <!-- 0.2 -->
      <defs>
       <path d="
M50.3438 8.45312
L50.3438 0
L3.03125 0
Q2.9375 3.17188 4.04688 6.10938
Q5.85938 10.9375 9.82812 15.625
Q13.8125 20.3125 21.3438 26.4688
Q33.0156 36.0312 37.1094 41.625
Q41.2188 47.2188 41.2188 52.2031
Q41.2188 57.4219 37.4688 61
Q33.7344 64.5938 27.7344 64.5938
Q21.3906 64.5938 17.5781 60.7812
Q13.7656 56.9844 13.7188 50.25
L4.6875 51.1719
Q5.60938 61.2812 11.6562 66.5781
Q17.7188 71.875 27.9375 71.875
Q38.2344 71.875 44.2344 66.1562
Q50.25 60.4531 50.25 52
Q50.25 47.7031 48.4844 43.5469
Q46.7344 39.4062 42.6562 34.8125
Q38.5781 30.2188 29.1094 22.2188
Q21.1875 15.5781 18.9375 13.2031
Q16.7031 10.8438 15.2344 8.45312
z
" id="ArialMT-32"/>
      </defs>
      <g style="fill:#262626;" transform="translate(106.102911932 228.3578125)scale(0.1 -0.1)">
       <use xlink:href="#ArialMT-30"/>
       <use x="55.615234375" xlink:href="#ArialMT-2e"/>
       <use x="83.3984375" xlink:href="#ArialMT-32"/>
      </g>
     </g>
    </g>
    <g id="xtick_3">
     <g id="line2d_7">
      <path clip-path="url(#p61377a7746)" d="
M153.164 214.2
L153.164 25.2" style="fill:none;stroke:#cccccc;stroke-linecap:round;"/>
     </g>
     <g id="line2d_8">
      <g>
       <use style="fill:#262626;stroke:#262626;" x="153.163636364" xlink:href="#m219da94a98" y="214.2"/>
      </g>
     </g>
     <g id="line2d_9">
      <g>
       <use style="fill:#262626;stroke:#262626;" x="153.163636364" xlink:href="#m219da94a98" y="25.2"/>
      </g>
     </g>
     <g id="text_3">
      <!-- 0.4 -->
      <defs>
       <path d="
M32.3281 0
L32.3281 17.1406
L1.26562 17.1406
L1.26562 25.2031
L33.9375 71.5781
L41.1094 71.5781
L41.1094 25.2031
L50.7812 25.2031
L50.7812 17.1406
L41.1094 17.1406
L41.1094 0
z

M32.3281 25.2031
L32.3281 57.4688
L9.90625 25.2031
z
" id="ArialMT-34"/>
      </defs>
      <g style="fill:#262626;" transform="translate(146.662855114 228.3578125)scale(0.1 -0.1)">
       <use xlink:href="#ArialMT-30"/>
       <use x="55.615234375" xlink:href="#ArialMT-2e"/>
       <use x="83.3984375" xlink:href="#ArialMT-34"/>
      </g>
     </g>
    </g>
    <g id="xtick_4">
     <g id="line2d_10">
      <path clip-path="url(#p61377a7746)" d="
M193.745 214.2
L193.745 25.2" style="fill:none;stroke:#cccccc;stroke-linecap:round;"/>
     </g>
     <g id="line2d_11">
      <g>
       <use style="fill:#262626;stroke:#262626;" x="193.745454545" xlink:href="#m219da94a98" y="214.2"/>
      </g>
     </g>
     <g id="line2d_12">
      <g>
       <use style="fill:#262626;stroke:#262626;" x="193.745454545" xlink:href="#m219da94a98" y="25.2"/>
      </g>
     </g>
     <g id="text_4">
      <!-- 0.6 -->
      <defs>
       <path d="
M49.75 54.0469
L41.0156 53.375
Q39.8438 58.5469 37.7031 60.8906
Q34.125 64.6562 28.9062 64.6562
Q24.7031 64.6562 21.5312 62.3125
Q17.3906 59.2812 14.9844 53.4688
Q12.5938 47.6562 12.5 36.9219
Q15.6719 41.75 20.2656 44.0938
Q24.8594 46.4375 29.8906 46.4375
Q38.6719 46.4375 44.8438 39.9688
Q51.0312 33.5 51.0312 23.25
Q51.0312 16.5 48.125 10.7188
Q45.2188 4.9375 40.1406 1.85938
Q35.0625 -1.21875 28.6094 -1.21875
Q17.625 -1.21875 10.6875 6.85938
Q3.76562 14.9375 3.76562 33.5
Q3.76562 54.25 11.4219 63.6719
Q18.1094 71.875 29.4375 71.875
Q37.8906 71.875 43.2812 67.1406
Q48.6875 62.4062 49.75 54.0469
M13.875 23.1875
Q13.875 18.6562 15.7969 14.5
Q17.7188 10.3594 21.1875 8.17188
Q24.6562 6 28.4688 6
Q34.0312 6 38.0312 10.4844
Q42.0469 14.9844 42.0469 22.7031
Q42.0469 30.125 38.0781 34.3906
Q34.125 38.6719 28.125 38.6719
Q22.1719 38.6719 18.0156 34.3906
Q13.875 30.125 13.875 23.1875" id="ArialMT-36"/>
      </defs>
      <g style="fill:#262626;" transform="translate(187.232173295 228.3578125)scale(0.1 -0.1)">
       <use xlink:href="#ArialMT-30"/>
       <use x="55.615234375" xlink:href="#ArialMT-2e"/>
       <use x="83.3984375" xlink:href="#ArialMT-36"/>
      </g>
     </g>
    </g>
    <g id="xtick_5">
     <g id="line2d_13">
      <path clip-path="url(#p61377a7746)" d="
M234.327 214.2
L234.327 25.2" style="fill:none;stroke:#cccccc;stroke-linecap:round;"/>
     </g>
     <g id="line2d_14">
      <g>
       <use style="fill:#262626;stroke:#262626;" x="234.327272727" xlink:href="#m219da94a98" y="214.2"/>
      </g>
     </g>
     <g id="line2d_15">
      <g>
       <use style="fill:#262626;stroke:#262626;" x="234.327272727" xlink:href="#m219da94a98" y="25.2"/>
      </g>
     </g>
     <g id="text_5">
      <!-- 0.8 -->
      <defs>
       <path d="
M17.6719 38.8125
Q12.2031 40.8281 9.5625 44.5312
Q6.9375 48.25 6.9375 53.4219
Q6.9375 61.2344 12.5469 66.5469
Q18.1719 71.875 27.4844 71.875
Q36.8594 71.875 42.5781 66.4219
Q48.2969 60.9844 48.2969 53.1719
Q48.2969 48.1875 45.6719 44.5
Q43.0625 40.8281 37.75 38.8125
Q44.3438 36.6719 47.7812 31.875
Q51.2188 27.0938 51.2188 20.4531
Q51.2188 11.2812 44.7188 5.03125
Q38.2344 -1.21875 27.6406 -1.21875
Q17.0469 -1.21875 10.5469 5.04688
Q4.04688 11.3281 4.04688 20.7031
Q4.04688 27.6875 7.59375 32.3906
Q11.1406 37.1094 17.6719 38.8125
M15.9219 53.7188
Q15.9219 48.6406 19.1875 45.4062
Q22.4688 42.1875 27.6875 42.1875
Q32.7656 42.1875 36.0156 45.375
Q39.2656 48.5781 39.2656 53.2188
Q39.2656 58.0625 35.9062 61.3594
Q32.5625 64.6562 27.5938 64.6562
Q22.5625 64.6562 19.2344 61.4219
Q15.9219 58.2031 15.9219 53.7188
M13.0938 20.6562
Q13.0938 16.8906 14.875 13.375
Q16.6562 9.85938 20.1719 7.92188
Q23.6875 6 27.7344 6
Q34.0312 6 38.125 10.0469
Q42.2344 14.1094 42.2344 20.3594
Q42.2344 26.7031 38.0156 30.8594
Q33.7969 35.0156 27.4375 35.0156
Q21.2344 35.0156 17.1562 30.9062
Q13.0938 26.8125 13.0938 20.6562" id="ArialMT-38"/>
      </defs>
      <g style="fill:#262626;" transform="translate(227.804616477 228.3578125)scale(0.1 -0.1)">
       <use xlink:href="#ArialMT-30"/>
       <use x="55.615234375" xlink:href="#ArialMT-2e"/>
       <use x="83.3984375" xlink:href="#ArialMT-38"/>
      </g>
     </g>
    </g>
    <g id="xtick_6">
     <g id="line2d_16">
      <path clip-path="url(#p61377a7746)" d="
M274.909 214.2
L274.909 25.2" style="fill:none;stroke:#cccccc;stroke-linecap:round;"/>
     </g>
     <g id="line2d_17">
      <g>
       <use style="fill:#262626;stroke:#262626;" x="274.909090909" xlink:href="#m219da94a98" y="214.2"/>
      </g>
     </g>
     <g id="line2d_18">
      <g>
       <use style="fill:#262626;stroke:#262626;" x="274.909090909" xlink:href="#m219da94a98" y="25.2"/>
      </g>
     </g>
     <g id="text_6">
      <!-- 1.0 -->
      <defs>
       <path d="
M37.25 0
L28.4688 0
L28.4688 56
Q25.2969 52.9844 20.1406 49.9531
Q14.9844 46.9219 10.8906 45.4062
L10.8906 53.9062
Q18.2656 57.375 23.7812 62.2969
Q29.2969 67.2344 31.5938 71.875
L37.25 71.875
z
" id="ArialMT-31"/>
      </defs>
      <g style="fill:#262626;" transform="translate(268.742684659 228.3578125)scale(0.1 -0.1)">
       <use xlink:href="#ArialMT-31"/>
       <use x="55.615234375" xlink:href="#ArialMT-2e"/>
       <use x="83.3984375" xlink:href="#ArialMT-30"/>
      </g>
     </g>
    </g>
    <g id="text_7">
     <!-- Industry Sequentiality -->
     <defs>
      <path d="
M9.32812 0
L9.32812 71.5781
L18.7969 71.5781
L18.7969 0
z
" id="ArialMT-49"/>
      <path d="
M40.4375 6.39062
Q35.5469 2.25 31.0312 0.53125
Q26.5156 -1.17188 21.3438 -1.17188
Q12.7969 -1.17188 8.20312 3
Q3.60938 7.17188 3.60938 13.6719
Q3.60938 17.4844 5.34375 20.625
Q7.07812 23.7812 9.89062 25.6875
Q12.7031 27.5938 16.2188 28.5625
Q18.7969 29.25 24.0312 29.8906
Q34.6719 31.1562 39.7031 32.9062
Q39.75 34.7188 39.75 35.2031
Q39.75 40.5781 37.25 42.7812
Q33.8906 45.75 27.25 45.75
Q21.0469 45.75 18.0938 43.5781
Q15.1406 41.4062 13.7188 35.8906
L5.125 37.0625
Q6.29688 42.5781 8.98438 45.9688
Q11.6719 49.3594 16.75 51.1875
Q21.8281 53.0312 28.5156 53.0312
Q35.1562 53.0312 39.2969 51.4688
Q43.4531 49.9062 45.4062 47.5312
Q47.3594 45.1719 48.1406 41.5469
Q48.5781 39.3125 48.5781 33.4531
L48.5781 21.7344
Q48.5781 9.46875 49.1406 6.21875
Q49.7031 2.98438 51.375 0
L42.1875 0
Q40.8281 2.73438 40.4375 6.39062
M39.7031 26.0312
Q34.9062 24.0781 25.3438 22.7031
Q19.9219 21.9219 17.6719 20.9375
Q15.4375 19.9688 14.2031 18.0938
Q12.9844 16.2188 12.9844 13.9219
Q12.9844 10.4062 15.6406 8.0625
Q18.3125 5.71875 23.4375 5.71875
Q28.5156 5.71875 32.4688 7.9375
Q36.4219 10.1562 38.2812 14.0156
Q39.7031 17 39.7031 22.7969
z
" id="ArialMT-61"/>
      <path d="
M6.20312 -19.9688
L5.21875 -11.7188
Q8.10938 -12.5 10.25 -12.5
Q13.1875 -12.5 14.9375 -11.5156
Q16.7031 -10.5469 17.8281 -8.79688
Q18.6562 -7.46875 20.5156 -2.25
Q20.75 -1.51562 21.2969 -0.09375
L1.60938 51.8594
L11.0781 51.8594
L21.875 21.8281
Q23.9688 16.1094 25.6406 9.8125
Q27.1562 15.875 29.25 21.625
L40.3281 51.8594
L49.125 51.8594
L29.3906 -0.875
Q26.2188 -9.42188 24.4688 -12.6406
Q22.125 -17 19.0938 -19.0156
Q16.0625 -21.0469 11.8594 -21.0469
Q9.32812 -21.0469 6.20312 -19.9688" id="ArialMT-79"/>
      <path d="
M42.0938 16.7031
L51.1719 15.5781
Q49.0312 7.625 43.2188 3.21875
Q37.4062 -1.17188 28.375 -1.17188
Q17 -1.17188 10.3281 5.82812
Q3.65625 12.8438 3.65625 25.4844
Q3.65625 38.5781 10.3906 45.7969
Q17.1406 53.0312 27.875 53.0312
Q38.2812 53.0312 44.875 45.9531
Q51.4688 38.875 51.4688 26.0312
Q51.4688 25.25 51.4219 23.6875
L12.75 23.6875
Q13.2344 15.1406 17.5781 10.5938
Q21.9219 6.0625 28.4219 6.0625
Q33.25 6.0625 36.6719 8.59375
Q40.0938 11.1406 42.0938 16.7031
M13.2344 30.9062
L42.1875 30.9062
Q41.6094 37.4531 38.875 40.7188
Q34.6719 45.7969 27.9844 45.7969
Q21.9219 45.7969 17.7969 41.75
Q13.6719 37.7031 13.2344 30.9062" id="ArialMT-65"/>
      <path d="
M40.2344 0
L40.2344 6.54688
Q35.2969 -1.17188 25.7344 -1.17188
Q19.5312 -1.17188 14.3281 2.25
Q9.125 5.67188 6.26562 11.7969
Q3.42188 17.9219 3.42188 25.875
Q3.42188 33.6406 6 39.9688
Q8.59375 46.2969 13.7656 49.6562
Q18.9531 53.0312 25.3438 53.0312
Q30.0312 53.0312 33.6875 51.0469
Q37.3594 49.0781 39.6562 45.9062
L39.6562 71.5781
L48.3906 71.5781
L48.3906 0
z

M12.4531 25.875
Q12.4531 15.9219 16.6406 10.9844
Q20.8438 6.0625 26.5625 6.0625
Q32.3281 6.0625 36.3438 10.7656
Q40.375 15.4844 40.375 25.1406
Q40.375 35.7969 36.2656 40.7656
Q32.1719 45.75 26.1719 45.75
Q20.3125 45.75 16.375 40.9688
Q12.4531 36.1875 12.4531 25.875" id="ArialMT-64"/>
      <path d="
M25.7812 7.85938
L27.0469 0.09375
Q23.3438 -0.6875 20.4062 -0.6875
Q15.625 -0.6875 12.9844 0.828125
Q10.3594 2.34375 9.28125 4.8125
Q8.20312 7.28125 8.20312 15.1875
L8.20312 45.0156
L1.76562 45.0156
L1.76562 51.8594
L8.20312 51.8594
L8.20312 64.7031
L16.9375 69.9688
L16.9375 51.8594
L25.7812 51.8594
L25.7812 45.0156
L16.9375 45.0156
L16.9375 14.7031
Q16.9375 10.9375 17.4062 9.85938
Q17.875 8.79688 18.9219 8.15625
Q19.9688 7.51562 21.9219 7.51562
Q23.3906 7.51562 25.7812 7.85938" id="ArialMT-74"/>
      <path d="
M40.5781 0
L40.5781 7.625
Q34.5156 -1.17188 24.125 -1.17188
Q19.5312 -1.17188 15.5469 0.578125
Q11.5781 2.34375 9.64062 5
Q7.71875 7.67188 6.9375 11.5312
Q6.39062 14.1094 6.39062 19.7344
L6.39062 51.8594
L15.1875 51.8594
L15.1875 23.0938
Q15.1875 16.2188 15.7188 13.8125
Q16.5469 10.3594 19.2344 8.375
Q21.9219 6.39062 25.875 6.39062
Q29.8281 6.39062 33.2969 8.42188
Q36.7656 10.4531 38.2031 13.9375
Q39.6562 17.4375 39.6562 24.0781
L39.6562 51.8594
L48.4375 51.8594
L48.4375 0
z
" id="ArialMT-75"/>
      <path d="
M6.64062 61.4688
L6.64062 71.5781
L15.4375 71.5781
L15.4375 61.4688
z

M6.64062 0
L6.64062 51.8594
L15.4375 51.8594
L15.4375 0
z
" id="ArialMT-69"/>
      <path d="
M39.6562 -19.875
L39.6562 5.51562
Q37.5938 2.64062 33.9062 0.734375
Q30.2188 -1.17188 26.0781 -1.17188
Q16.8438 -1.17188 10.1719 6.20312
Q3.51562 13.5781 3.51562 26.4219
Q3.51562 34.2344 6.21875 40.4219
Q8.9375 46.625 14.0781 49.8281
Q19.2344 53.0312 25.3906 53.0312
Q35.0156 53.0312 40.5312 44.9219
L40.5312 51.8594
L48.4375 51.8594
L48.4375 -19.875
z

M12.5469 26.0781
Q12.5469 16.0625 16.75 11.0625
Q20.9531 6.0625 26.8125 6.0625
Q32.4219 6.0625 36.4688 10.8125
Q40.5312 15.5781 40.5312 25.2969
Q40.5312 35.6406 36.25 40.8594
Q31.9844 46.0938 26.2188 46.0938
Q20.5156 46.0938 16.5312 41.2344
Q12.5469 36.375 12.5469 26.0781" id="ArialMT-71"/>
      <path d="
M6.5 0
L6.5 51.8594
L14.4062 51.8594
L14.4062 44
Q17.4375 49.5156 20 51.2656
Q22.5625 53.0312 25.6406 53.0312
Q30.0781 53.0312 34.6719 50.2031
L31.6406 42.0469
Q28.4219 43.9531 25.2031 43.9531
Q22.3125 43.9531 20.0156 42.2188
Q17.7188 40.4844 16.75 37.4062
Q15.2812 32.7188 15.2812 27.1562
L15.2812 0
z
" id="ArialMT-72"/>
      <path d="
M3.07812 15.4844
L11.7656 16.8438
Q12.5 11.625 15.8438 8.84375
Q19.1875 6.0625 25.2031 6.0625
Q31.25 6.0625 34.1719 8.51562
Q37.1094 10.9844 37.1094 14.3125
Q37.1094 17.2812 34.5156 19
Q32.7188 20.1719 25.5312 21.9688
Q15.875 24.4219 12.1406 26.2031
Q8.40625 27.9844 6.46875 31.125
Q4.54688 34.2812 4.54688 38.0938
Q4.54688 41.5469 6.125 44.5
Q7.71875 47.4688 10.4531 49.4219
Q12.5 50.9219 16.0312 51.9688
Q19.5781 53.0312 23.6406 53.0312
Q29.7344 53.0312 34.3438 51.2656
Q38.9688 49.5156 41.1562 46.5
Q43.3594 43.5 44.1875 38.4844
L35.5938 37.3125
Q35.0156 41.3125 32.2031 43.5469
Q29.3906 45.7969 24.2656 45.7969
Q18.2188 45.7969 15.625 43.7969
Q13.0312 41.7969 13.0312 39.1094
Q13.0312 37.4062 14.1094 36.0312
Q15.1875 34.625 17.4844 33.6875
Q18.7969 33.2031 25.25 31.4531
Q34.5781 28.9531 38.25 27.3594
Q41.9375 25.7812 44.0312 22.75
Q46.1406 19.7344 46.1406 15.2344
Q46.1406 10.8438 43.5781 6.95312
Q41.0156 3.07812 36.1719 0.953125
Q31.3438 -1.17188 25.25 -1.17188
Q15.1406 -1.17188 9.84375 3.03125
Q4.54688 7.23438 3.07812 15.4844" id="ArialMT-73"/>
      <path d="
M6.39062 0
L6.39062 71.5781
L15.1875 71.5781
L15.1875 0
z
" id="ArialMT-6c"/>
      <path d="
M6.59375 0
L6.59375 51.8594
L14.5 51.8594
L14.5 44.4844
Q20.2188 53.0312 31 53.0312
Q35.6875 53.0312 39.625 51.3438
Q43.5625 49.6562 45.5156 46.9219
Q47.4688 44.1875 48.25 40.4375
Q48.7344 37.9844 48.7344 31.8906
L48.7344 0
L39.9375 0
L39.9375 31.5469
Q39.9375 36.9219 38.9062 39.5781
Q37.8906 42.2344 35.2812 43.8125
Q32.6719 45.4062 29.1562 45.4062
Q23.5312 45.4062 19.4531 41.8438
Q15.375 38.2812 15.375 28.3281
L15.375 0
z
" id="ArialMT-6e"/>
      <path d="
M4.5 23
L13.4219 23.7812
Q14.0625 18.4062 16.375 14.9688
Q18.7031 11.5312 23.5781 9.40625
Q28.4688 7.28125 34.5781 7.28125
Q39.9844 7.28125 44.1406 8.89062
Q48.2969 10.5 50.3125 13.2969
Q52.3438 16.1094 52.3438 19.4375
Q52.3438 22.7969 50.3906 25.3125
Q48.4375 27.8281 43.9531 29.5469
Q41.0625 30.6719 31.2031 33.0312
Q21.3438 35.4062 17.3906 37.5
Q12.25 40.1875 9.73438 44.1562
Q7.23438 48.1406 7.23438 53.0781
Q7.23438 58.5 10.2969 63.2031
Q13.375 67.9219 19.2812 70.3594
Q25.2031 72.7969 32.4219 72.7969
Q40.375 72.7969 46.4531 70.2344
Q52.5469 67.6719 55.8125 62.6875
Q59.0781 57.7188 59.3281 51.4219
L50.25 50.7344
Q49.5156 57.5156 45.2812 60.9844
Q41.0625 64.4531 32.8125 64.4531
Q24.2188 64.4531 20.2812 61.2969
Q16.3594 58.1562 16.3594 53.7188
Q16.3594 49.8594 19.1406 47.3594
Q21.875 44.875 33.4219 42.2656
Q44.9688 39.6562 49.2656 37.7031
Q55.5156 34.8125 58.4844 30.3906
Q61.4688 25.9844 61.4688 20.2188
Q61.4688 14.5 58.2031 9.4375
Q54.9375 4.39062 48.7969 1.57812
Q42.6719 -1.21875 35.0156 -1.21875
Q25.2969 -1.21875 18.7188 1.60938
Q12.1562 4.4375 8.42188 10.125
Q4.6875 15.8281 4.5 23" id="ArialMT-53"/>
      <path id="ArialMT-20"/>
     </defs>
     <g style="fill:#262626;" transform="translate(101.81665483 246.26484375)scale(0.15 -0.15)">
      <use xlink:href="#ArialMT-49"/>
      <use x="27.783203125" xlink:href="#ArialMT-6e"/>
      <use x="83.3984375" xlink:href="#ArialMT-64"/>
      <use x="139.013671875" xlink:href="#ArialMT-75"/>
      <use x="194.62890625" xlink:href="#ArialMT-73"/>
      <use x="244.62890625" xlink:href="#ArialMT-74"/>
      <use x="272.412109375" xlink:href="#ArialMT-72"/>
      <use x="305.712890625" xlink:href="#ArialMT-79"/>
      <use x="355.712890625" xlink:href="#ArialMT-20"/>
      <use x="383.49609375" xlink:href="#ArialMT-53"/>
      <use x="450.1953125" xlink:href="#ArialMT-65"/>
      <use x="505.810546875" xlink:href="#ArialMT-71"/>
      <use x="561.42578125" xlink:href="#ArialMT-75"/>
      <use x="617.041015625" xlink:href="#ArialMT-65"/>
      <use x="672.65625" xlink:href="#ArialMT-6e"/>
      <use x="728.271484375" xlink:href="#ArialMT-74"/>
      <use x="756.0546875" xlink:href="#ArialMT-69"/>
      <use x="778.271484375" xlink:href="#ArialMT-61"/>
      <use x="833.88671875" xlink:href="#ArialMT-6c"/>
      <use x="856.103515625" xlink:href="#ArialMT-69"/>
      <use x="878.3203125" xlink:href="#ArialMT-74"/>
      <use x="906.103515625" xlink:href="#ArialMT-79"/>
     </g>
    </g>
   </g>
   <g id="matplotlib.axis_2">
    <g id="ytick_1">
     <g id="line2d_19">
      <path clip-path="url(#p61377a7746)" d="
M72 214.2
L274.909 214.2" style="fill:none;stroke:#cccccc;stroke-linecap:round;"/>
     </g>
     <g id="line2d_20">
      <g>
       <use style="fill:#262626;stroke:#262626;" x="72.0" xlink:href="#m219da94a98" y="214.2"/>
      </g>
     </g>
     <g id="line2d_21">
      <g>
       <use style="fill:#262626;stroke:#262626;" x="274.909090909" xlink:href="#m219da94a98" y="214.2"/>
      </g>
     </g>
     <g id="text_8">
      <!-- 0.03 -->
      <defs>
       <path d="
M4.20312 18.8906
L12.9844 20.0625
Q14.5 12.5938 18.1406 9.29688
Q21.7812 6 27 6
Q33.2031 6 37.4688 10.2969
Q41.75 14.5938 41.75 20.9531
Q41.75 27 37.7969 30.9219
Q33.8438 34.8594 27.7344 34.8594
Q25.25 34.8594 21.5312 33.8906
L22.5156 41.6094
Q23.3906 41.5 23.9219 41.5
Q29.5469 41.5 34.0312 44.4219
Q38.5312 47.3594 38.5312 53.4688
Q38.5312 58.2969 35.25 61.4688
Q31.9844 64.6562 26.8125 64.6562
Q21.6875 64.6562 18.2656 61.4219
Q14.8438 58.2031 13.875 51.7656
L5.07812 53.3281
Q6.6875 62.1562 12.3906 67.0156
Q18.1094 71.875 26.6094 71.875
Q32.4688 71.875 37.3906 69.3594
Q42.3281 66.8438 44.9375 62.5
Q47.5625 58.1562 47.5625 53.2656
Q47.5625 48.6406 45.0625 44.8281
Q42.5781 41.0156 37.7031 38.7656
Q44.0469 37.3125 47.5625 32.6875
Q51.0781 28.0781 51.0781 21.1406
Q51.0781 11.7656 44.2344 5.25
Q37.4062 -1.26562 26.9531 -1.26562
Q17.5312 -1.26562 11.2969 4.34375
Q5.07812 9.96875 4.20312 18.8906" id="ArialMT-33"/>
      </defs>
      <g style="fill:#262626;" transform="translate(46.4078125 216.78515625)scale(0.1 -0.1)">
       <use xlink:href="#ArialMT-30"/>
       <use x="55.615234375" xlink:href="#ArialMT-2e"/>
       <use x="83.3984375" xlink:href="#ArialMT-30"/>
       <use x="139.013671875" xlink:href="#ArialMT-33"/>
      </g>
     </g>
    </g>
    <g id="ytick_2">
     <g id="line2d_22">
      <path clip-path="url(#p61377a7746)" d="
M72 182.7
L274.909 182.7" style="fill:none;stroke:#cccccc;stroke-linecap:round;"/>
     </g>
     <g id="line2d_23">
      <g>
       <use style="fill:#262626;stroke:#262626;" x="72.0" xlink:href="#m219da94a98" y="182.7"/>
      </g>
     </g>
     <g id="line2d_24">
      <g>
       <use style="fill:#262626;stroke:#262626;" x="274.909090909" xlink:href="#m219da94a98" y="182.7"/>
      </g>
     </g>
     <g id="text_9">
      <!-- 0.04 -->
      <g style="fill:#262626;" transform="translate(46.4375 185.28515625)scale(0.1 -0.1)">
       <use xlink:href="#ArialMT-30"/>
       <use x="55.615234375" xlink:href="#ArialMT-2e"/>
       <use x="83.3984375" xlink:href="#ArialMT-30"/>
       <use x="139.013671875" xlink:href="#ArialMT-34"/>
      </g>
     </g>
    </g>
    <g id="ytick_3">
     <g id="line2d_25">
      <path clip-path="url(#p61377a7746)" d="
M72 151.2
L274.909 151.2" style="fill:none;stroke:#cccccc;stroke-linecap:round;"/>
     </g>
     <g id="line2d_26">
      <g>
       <use style="fill:#262626;stroke:#262626;" x="72.0" xlink:href="#m219da94a98" y="151.2"/>
      </g>
     </g>
     <g id="line2d_27">
      <g>
       <use style="fill:#262626;stroke:#262626;" x="274.909090909" xlink:href="#m219da94a98" y="151.2"/>
      </g>
     </g>
     <g id="text_10">
      <!-- 0.05 -->
      <defs>
       <path d="
M4.15625 18.75
L13.375 19.5312
Q14.4062 12.7969 18.1406 9.39062
Q21.875 6 27.1562 6
Q33.5 6 37.8906 10.7812
Q42.2812 15.5781 42.2812 23.4844
Q42.2812 31 38.0625 35.3438
Q33.8438 39.7031 27 39.7031
Q22.75 39.7031 19.3281 37.7656
Q15.9219 35.8438 13.9688 32.7656
L5.71875 33.8438
L12.6406 70.6094
L48.25 70.6094
L48.25 62.2031
L19.6719 62.2031
L15.8281 42.9688
Q22.2656 47.4688 29.3438 47.4688
Q38.7188 47.4688 45.1562 40.9688
Q51.6094 34.4688 51.6094 24.2656
Q51.6094 14.5469 45.9531 7.46875
Q39.0625 -1.21875 27.1562 -1.21875
Q17.3906 -1.21875 11.2031 4.25
Q5.03125 9.71875 4.15625 18.75" id="ArialMT-35"/>
      </defs>
      <g style="fill:#262626;" transform="translate(46.3546875 153.78515625)scale(0.1 -0.1)">
       <use xlink:href="#ArialMT-30"/>
       <use x="55.615234375" xlink:href="#ArialMT-2e"/>
       <use x="83.3984375" xlink:href="#ArialMT-30"/>
       <use x="139.013671875" xlink:href="#ArialMT-35"/>
      </g>
     </g>
    </g>
    <g id="ytick_4">
     <g id="line2d_28">
      <path clip-path="url(#p61377a7746)" d="
M72 119.7
L274.909 119.7" style="fill:none;stroke:#cccccc;stroke-linecap:round;"/>
     </g>
     <g id="line2d_29">
      <g>
       <use style="fill:#262626;stroke:#262626;" x="72.0" xlink:href="#m219da94a98" y="119.7"/>
      </g>
     </g>
     <g id="line2d_30">
      <g>
       <use style="fill:#262626;stroke:#262626;" x="274.909090909" xlink:href="#m219da94a98" y="119.7"/>
      </g>
     </g>
     <g id="text_11">
      <!-- 0.06 -->
      <g style="fill:#262626;" transform="translate(46.4125 122.28515625)scale(0.1 -0.1)">
       <use xlink:href="#ArialMT-30"/>
       <use x="55.615234375" xlink:href="#ArialMT-2e"/>
       <use x="83.3984375" xlink:href="#ArialMT-30"/>
       <use x="139.013671875" xlink:href="#ArialMT-36"/>
      </g>
     </g>
    </g>
    <g id="ytick_5">
     <g id="line2d_31">
      <path clip-path="url(#p61377a7746)" d="
M72 88.2
L274.909 88.2" style="fill:none;stroke:#cccccc;stroke-linecap:round;"/>
     </g>
     <g id="line2d_32">
      <g>
       <use style="fill:#262626;stroke:#262626;" x="72.0" xlink:href="#m219da94a98" y="88.2"/>
      </g>
     </g>
     <g id="line2d_33">
      <g>
       <use style="fill:#262626;stroke:#262626;" x="274.909090909" xlink:href="#m219da94a98" y="88.2"/>
      </g>
     </g>
     <g id="text_12">
      <!-- 0.07 -->
      <defs>
       <path d="
M4.73438 62.2031
L4.73438 70.6562
L51.0781 70.6562
L51.0781 63.8125
Q44.2344 56.5469 37.5156 44.4844
Q30.8125 32.4219 27.1562 19.6719
Q24.5156 10.6875 23.7812 0
L14.75 0
Q14.8906 8.45312 18.0625 20.4062
Q21.2344 32.375 27.1719 43.4844
Q33.1094 54.5938 39.7969 62.2031
z
" id="ArialMT-37"/>
      </defs>
      <g style="fill:#262626;" transform="translate(46.4078125 90.78515625)scale(0.1 -0.1)">
       <use xlink:href="#ArialMT-30"/>
       <use x="55.615234375" xlink:href="#ArialMT-2e"/>
       <use x="83.3984375" xlink:href="#ArialMT-30"/>
       <use x="139.013671875" xlink:href="#ArialMT-37"/>
      </g>
     </g>
    </g>
    <g id="ytick_6">
     <g id="line2d_34">
      <path clip-path="url(#p61377a7746)" d="
M72 56.7
L274.909 56.7" style="fill:none;stroke:#cccccc;stroke-linecap:round;"/>
     </g>
     <g id="line2d_35">
      <g>
       <use style="fill:#262626;stroke:#262626;" x="72.0" xlink:href="#m219da94a98" y="56.7"/>
      </g>
     </g>
     <g id="line2d_36">
      <g>
       <use style="fill:#262626;stroke:#262626;" x="274.909090909" xlink:href="#m219da94a98" y="56.7"/>
      </g>
     </g>
     <g id="text_13">
      <!-- 0.08 -->
      <g style="fill:#262626;" transform="translate(46.39375 59.28515625)scale(0.1 -0.1)">
       <use xlink:href="#ArialMT-30"/>
       <use x="55.615234375" xlink:href="#ArialMT-2e"/>
       <use x="83.3984375" xlink:href="#ArialMT-30"/>
       <use x="139.013671875" xlink:href="#ArialMT-38"/>
      </g>
     </g>
    </g>
    <g id="ytick_7">
     <g id="line2d_37">
      <path clip-path="url(#p61377a7746)" d="
M72 25.2
L274.909 25.2" style="fill:none;stroke:#cccccc;stroke-linecap:round;"/>
     </g>
     <g id="line2d_38">
      <g>
       <use style="fill:#262626;stroke:#262626;" x="72.0" xlink:href="#m219da94a98" y="25.2"/>
      </g>
     </g>
     <g id="line2d_39">
      <g>
       <use style="fill:#262626;stroke:#262626;" x="274.909090909" xlink:href="#m219da94a98" y="25.2"/>
      </g>
     </g>
     <g id="text_14">
      <!-- 0.09 -->
      <defs>
       <path d="
M5.46875 16.5469
L13.9219 17.3281
Q14.9844 11.375 18.0156 8.6875
Q21.0469 6 25.7812 6
Q29.8281 6 32.875 7.85938
Q35.9375 9.71875 37.8906 12.8125
Q39.8438 15.9219 41.1562 21.1875
Q42.4844 26.4688 42.4844 31.9375
Q42.4844 32.5156 42.4375 33.6875
Q39.7969 29.5 35.2344 26.875
Q30.6719 24.2656 25.3438 24.2656
Q16.4531 24.2656 10.2969 30.7031
Q4.15625 37.1562 4.15625 47.7031
Q4.15625 58.5938 10.5781 65.2344
Q17 71.875 26.6562 71.875
Q33.6406 71.875 39.4219 68.1094
Q45.2188 64.3594 48.2188 57.3906
Q51.2188 50.4375 51.2188 37.25
Q51.2188 23.5312 48.2344 15.4062
Q45.2656 7.28125 39.375 3.03125
Q33.5 -1.21875 25.5938 -1.21875
Q17.1875 -1.21875 11.8594 3.4375
Q6.54688 8.10938 5.46875 16.5469
M41.4531 48.1406
Q41.4531 55.7188 37.4219 60.1562
Q33.4062 64.5938 27.7344 64.5938
Q21.875 64.5938 17.5312 59.8125
Q13.1875 55.0312 13.1875 47.4062
Q13.1875 40.5781 17.3125 36.2969
Q21.4375 32.0312 27.4844 32.0312
Q33.5938 32.0312 37.5156 36.2969
Q41.4531 40.5781 41.4531 48.1406" id="ArialMT-39"/>
      </defs>
      <g style="fill:#262626;" transform="translate(46.39375 27.78515625)scale(0.1 -0.1)">
       <use xlink:href="#ArialMT-30"/>
       <use x="55.615234375" xlink:href="#ArialMT-2e"/>
       <use x="83.3984375" xlink:href="#ArialMT-30"/>
       <use x="139.013671875" xlink:href="#ArialMT-39"/>
      </g>
     </g>
    </g>
   </g>
   <g id="line2d_40">
    <path clip-path="url(#p61377a7746)" d="
M73.6894 65.295
L76.6376 65.2941
L79.0418 65.3048
L81.2693 65.3242
L83.3921 65.3513
L85.444 65.3859
L87.4446 65.4277
L89.4067 65.4767
L91.3395 65.5329
L93.2496 65.5964
L95.1423 65.6673
L97.0218 65.7458
L98.8915 65.832
L100.754 65.9263
L102.613 66.0288
L104.47 66.1398
L106.326 66.2597
L108.184 66.3888
L110.046 66.5275
L111.913 66.6762
L113.786 66.8353
L115.667 67.0053
L117.558 67.1868
L119.459 67.3802
L121.372 67.5861
L123.299 67.8053
L125.241 68.0384
L127.199 68.2862
L129.174 68.5495
L131.169 68.8292
L133.184 69.1262
L135.221 69.4416
L137.283 69.7765
L139.37 70.1323
L141.484 70.5102
L143.629 70.9118
L145.805 71.3387
L148.015 71.7928
L150.262 72.276
L152.549 72.7906
L154.878 73.3391
L157.253 73.9243
L159.677 74.5493
L162.156 75.2176
L164.693 75.9333
L167.293 76.701
L169.964 77.5257
L172.711 78.4137
L175.542 79.3719
L178.467 80.4086
L181.497 81.5335
L184.645 82.7585
L187.927 84.0978
L191.361 85.5689
L194.974 87.1939
L198.795 89.001
L202.866 91.0275
L207.245 93.3241
L212.01 95.9627
L217.285 99.052
L223.27 102.77
L230.345 107.449
L239.438 113.89
L259.783 129.796" style="fill:none;stroke:#4878cf;stroke-linecap:round;stroke-width:3;"/>
   </g>
   <g id="line2d_41">
    <path clip-path="url(#p61377a7746)" d="
M73.6894 68.3778
L76.6376 67.8964
L79.0418 67.5069
L81.2693 67.1487
L83.3921 66.81
L85.444 66.4851
L87.4446 66.1709
L89.4067 65.8654
L91.3395 65.5671
L93.2496 65.2751
L95.1423 64.9886
L97.0218 64.707
L98.8915 64.43
L100.754 64.1572
L102.613 63.8884
L104.47 63.6233
L106.326 63.362
L108.184 63.1042
L110.046 62.8499
L111.913 62.5992
L113.786 62.3521
L115.667 62.1086
L117.558 61.8689
L119.459 61.633
L121.372 61.4011
L123.299 61.1734
L125.241 60.9502
L127.199 60.7316
L129.174 60.518
L131.169 60.3098
L133.184 60.1072
L135.221 59.9108
L137.283 59.7211
L139.37 59.5385
L141.484 59.3638
L143.629 59.1976
L145.805 59.0408
L148.015 58.8941
L150.262 58.7588
L152.549 58.6358
L154.878 58.5265
L157.253 58.4325
L159.677 58.3555
L162.156 58.2974
L164.693 58.2605
L167.293 58.2475
L169.964 58.2616
L172.711 58.3063
L175.542 58.3862
L178.467 58.5063
L181.497 58.6731
L184.645 58.8942
L187.927 59.1792
L191.361 59.5401
L194.974 59.9924
L198.795 60.5562
L202.866 61.2586
L207.245 62.1373
L212.01 63.2469
L217.285 64.6713
L223.27 66.5509
L230.345 69.1532
L239.438 73.1319
L259.783 84.7" style="fill:none;stroke:#d65f5f;stroke-linecap:round;stroke-width:3;"/>
   </g>
   <g id="line2d_42">
    <path clip-path="url(#p61377a7746)" d="
M73.6894 62.5995
L76.6376 63.0841
L79.0418 63.4973
L81.2693 63.895
L83.3921 64.2875
L85.444 64.6798
L87.4446 65.0747
L89.4067 65.4742
L91.3395 65.8798
L93.2496 66.2925
L95.1423 66.7134
L97.0218 67.1432
L98.8915 67.583
L100.754 68.0332
L102.613 68.4948
L104.47 68.9683
L106.326 69.4546
L108.184 69.9542
L110.046 70.468
L111.913 70.9967
L113.786 71.5411
L115.667 72.102
L117.558 72.6802
L119.459 73.2766
L121.372 73.8922
L123.299 74.528
L125.241 75.185
L127.199 75.8644
L129.174 76.5674
L131.169 77.2952
L133.184 78.0493
L135.221 78.8311
L137.283 79.6423
L139.37 80.4846
L141.484 81.3598
L143.629 82.2701
L145.805 83.2177
L148.015 84.205
L150.262 85.2347
L152.549 86.3097
L154.878 87.4333
L157.253 88.6092
L159.677 89.8413
L162.156 91.1341
L164.693 92.4928
L167.293 93.923
L169.964 95.4313
L172.711 97.0251
L175.542 98.713
L178.467 100.505
L181.497 102.413
L184.645 104.451
L187.927 106.636
L191.361 108.988
L194.974 111.533
L198.795 114.304
L202.866 117.343
L207.245 120.708
L212.01 124.481
L217.285 128.781
L223.27 133.809
L230.345 139.932
L239.438 148.037
L259.783 166.752" style="fill:none;stroke:#b47cc7;stroke-linecap:round;stroke-width:3;"/>
   </g>
   <g id="patch_3">
    <path d="
M72 25.2
L274.909 25.2" style="fill:none;stroke:#cccccc;"/>
   </g>
   <g id="patch_4">
    <path d="
M274.909 214.2
L274.909 25.2" style="fill:none;stroke:#cccccc;"/>
   </g>
   <g id="patch_5">
    <path d="
M72 214.2
L274.909 214.2" style="fill:none;stroke:#cccccc;"/>
   </g>
   <g id="patch_6">
    <path d="
M72 214.2
L72 25.2" style="fill:none;stroke:#cccccc;"/>
   </g>
   <g id="text_15">
    <!-- External Innovation Rates -->
    <defs>
     <path d="
M7.85938 0
L7.85938 71.5781
L39.5938 71.5781
Q49.1719 71.5781 54.1406 69.6406
Q59.125 67.7188 62.1094 62.8281
Q65.0938 57.9531 65.0938 52.0469
Q65.0938 44.4375 60.1562 39.2031
Q55.2188 33.9844 44.9219 32.5625
Q48.6875 30.7656 50.6406 29
Q54.7812 25.2031 58.5 19.4844
L70.9531 0
L59.0312 0
L49.5625 14.8906
Q45.4062 21.3438 42.7188 24.75
Q40.0469 28.1719 37.9219 29.5312
Q35.7969 30.9062 33.5938 31.4531
Q31.9844 31.7812 28.3281 31.7812
L17.3281 31.7812
L17.3281 0
z

M17.3281 39.9844
L37.7031 39.9844
Q44.1875 39.9844 47.8438 41.3281
Q51.5156 42.6719 53.4219 45.625
Q55.3281 48.5781 55.3281 52.0469
Q55.3281 57.125 51.6406 60.3906
Q47.9531 63.6719 39.9844 63.6719
L17.3281 63.6719
z
" id="ArialMT-52"/>
     <path d="
M0.734375 0
L19.6719 26.9531
L2.15625 51.8594
L13.1406 51.8594
L21.0938 39.7031
Q23.3438 36.2344 24.7031 33.8906
Q26.8594 37.1094 28.6562 39.5938
L37.4062 51.8594
L47.9062 51.8594
L29.9844 27.4375
L49.2656 0
L38.4844 0
L27.8281 16.1094
L25 20.4531
L11.375 0
z
" id="ArialMT-78"/>
     <path d="
M21 0
L1.26562 51.8594
L10.5469 51.8594
L21.6875 20.7969
Q23.4844 15.7656 25 10.3594
Q26.1719 14.4531 28.2656 20.2188
L39.7969 51.8594
L48.8281 51.8594
L29.2031 0
z
" id="ArialMT-76"/>
     <path d="
M7.90625 0
L7.90625 71.5781
L59.6719 71.5781
L59.6719 63.1406
L17.3906 63.1406
L17.3906 41.2188
L56.9844 41.2188
L56.9844 32.8125
L17.3906 32.8125
L17.3906 8.45312
L61.3281 8.45312
L61.3281 0
z
" id="ArialMT-45"/>
     <path d="
M3.32812 25.9219
Q3.32812 40.3281 11.3281 47.2656
Q18.0156 53.0312 27.6406 53.0312
Q38.3281 53.0312 45.1094 46.0156
Q51.9062 39.0156 51.9062 26.6562
Q51.9062 16.6562 48.9062 10.9062
Q45.9062 5.17188 40.1562 2
Q34.4219 -1.17188 27.6406 -1.17188
Q16.75 -1.17188 10.0312 5.8125
Q3.32812 12.7969 3.32812 25.9219
M12.3594 25.9219
Q12.3594 15.9688 16.7031 11.0156
Q21.0469 6.0625 27.6406 6.0625
Q34.1875 6.0625 38.5312 11.0312
Q42.875 16.0156 42.875 26.2188
Q42.875 35.8438 38.5 40.7969
Q34.125 45.75 27.6406 45.75
Q21.0469 45.75 16.7031 40.8125
Q12.3594 35.8906 12.3594 25.9219" id="ArialMT-6f"/>
    </defs>
    <g style="fill:#262626;" transform="translate(87.8654829545 20.2)scale(0.15 -0.15)">
     <use xlink:href="#ArialMT-45"/>
     <use x="66.69921875" xlink:href="#ArialMT-78"/>
     <use x="116.69921875" xlink:href="#ArialMT-74"/>
     <use x="144.482421875" xlink:href="#ArialMT-65"/>
     <use x="200.09765625" xlink:href="#ArialMT-72"/>
     <use x="233.3984375" xlink:href="#ArialMT-6e"/>
     <use x="289.013671875" xlink:href="#ArialMT-61"/>
     <use x="344.62890625" xlink:href="#ArialMT-6c"/>
     <use x="366.845703125" xlink:href="#ArialMT-20"/>
     <use x="394.62890625" xlink:href="#ArialMT-49"/>
     <use x="422.412109375" xlink:href="#ArialMT-6e"/>
     <use x="478.02734375" xlink:href="#ArialMT-6e"/>
     <use x="533.642578125" xlink:href="#ArialMT-6f"/>
     <use x="589.2578125" xlink:href="#ArialMT-76"/>
     <use x="639.2578125" xlink:href="#ArialMT-61"/>
     <use x="694.873046875" xlink:href="#ArialMT-74"/>
     <use x="722.65625" xlink:href="#ArialMT-69"/>
     <use x="744.873046875" xlink:href="#ArialMT-6f"/>
     <use x="800.48828125" xlink:href="#ArialMT-6e"/>
     <use x="856.103515625" xlink:href="#ArialMT-20"/>
     <use x="883.88671875" xlink:href="#ArialMT-52"/>
     <use x="956.103515625" xlink:href="#ArialMT-61"/>
     <use x="1011.71875" xlink:href="#ArialMT-74"/>
     <use x="1039.50195312" xlink:href="#ArialMT-65"/>
     <use x="1095.1171875" xlink:href="#ArialMT-73"/>
    </g>
   </g>
   <g id="legend_1">
    <g id="line2d_43">
     <path d="
M81 171.422
L101 171.422" style="fill:none;stroke:#4878cf;stroke-linecap:round;stroke-width:3;"/>
    </g>
    <g id="line2d_44"/>
    <g id="text_16">
     <!-- Even Split -->
     <defs>
      <path d="
M6.59375 -19.875
L6.59375 51.8594
L14.5938 51.8594
L14.5938 45.125
Q17.4375 49.0781 21 51.0469
Q24.5625 53.0312 29.6406 53.0312
Q36.2812 53.0312 41.3594 49.6094
Q46.4375 46.1875 49.0156 39.9531
Q51.6094 33.7344 51.6094 26.3125
Q51.6094 18.3594 48.75 11.9844
Q45.9062 5.60938 40.4531 2.21875
Q35.0156 -1.17188 29 -1.17188
Q24.6094 -1.17188 21.1094 0.6875
Q17.625 2.54688 15.375 5.375
L15.375 -19.875
z

M14.5469 25.6406
Q14.5469 15.625 18.5938 10.8438
Q22.6562 6.0625 28.4219 6.0625
Q34.2812 6.0625 38.4531 11.0156
Q42.625 15.9688 42.625 26.375
Q42.625 36.2812 38.5469 41.2031
Q34.4688 46.1406 28.8125 46.1406
Q23.1875 46.1406 18.8594 40.8906
Q14.5469 35.6406 14.5469 25.6406" id="ArialMT-70"/>
     </defs>
     <g style="fill:#262626;" transform="translate(109.0 174.921875)scale(0.1 -0.1)">
      <use xlink:href="#ArialMT-45"/>
      <use x="66.69921875" xlink:href="#ArialMT-76"/>
      <use x="116.69921875" xlink:href="#ArialMT-65"/>
      <use x="172.314453125" xlink:href="#ArialMT-6e"/>
      <use x="227.9296875" xlink:href="#ArialMT-20"/>
      <use x="255.712890625" xlink:href="#ArialMT-53"/>
      <use x="322.412109375" xlink:href="#ArialMT-70"/>
      <use x="378.02734375" xlink:href="#ArialMT-6c"/>
      <use x="400.244140625" xlink:href="#ArialMT-69"/>
      <use x="422.4609375" xlink:href="#ArialMT-74"/>
     </g>
    </g>
    <g id="line2d_45">
     <path d="
M81 185.567
L101 185.567" style="fill:none;stroke:#d65f5f;stroke-linecap:round;stroke-width:3;"/>
    </g>
    <g id="line2d_46"/>
    <g id="text_17">
     <!-- All Innovator -->
     <defs>
      <path d="
M-0.140625 0
L27.3438 71.5781
L37.5469 71.5781
L66.8438 0
L56.0625 0
L47.7031 21.6875
L17.7812 21.6875
L9.90625 0
z

M20.5156 29.3906
L44.7812 29.3906
L37.3125 49.2188
Q33.8906 58.25 32.2344 64.0625
Q30.8594 57.1719 28.375 50.3906
z
" id="ArialMT-41"/>
     </defs>
     <g style="fill:#262626;" transform="translate(109.0 189.0671875)scale(0.1 -0.1)">
      <use xlink:href="#ArialMT-41"/>
      <use x="66.69921875" xlink:href="#ArialMT-6c"/>
      <use x="88.916015625" xlink:href="#ArialMT-6c"/>
      <use x="111.1328125" xlink:href="#ArialMT-20"/>
      <use x="138.916015625" xlink:href="#ArialMT-49"/>
      <use x="166.69921875" xlink:href="#ArialMT-6e"/>
      <use x="222.314453125" xlink:href="#ArialMT-6e"/>
      <use x="277.9296875" xlink:href="#ArialMT-6f"/>
      <use x="333.544921875" xlink:href="#ArialMT-76"/>
      <use x="383.544921875" xlink:href="#ArialMT-61"/>
      <use x="439.16015625" xlink:href="#ArialMT-74"/>
      <use x="466.943359375" xlink:href="#ArialMT-6f"/>
      <use x="522.55859375" xlink:href="#ArialMT-72"/>
     </g>
    </g>
    <g id="line2d_47">
     <path d="
M81 199.713
L101 199.713" style="fill:none;stroke:#b47cc7;stroke-linecap:round;stroke-width:3;"/>
    </g>
    <g id="line2d_48"/>
    <g id="text_18">
     <!-- All Incumbent -->
     <defs>
      <path d="
M40.4375 19
L49.0781 17.875
Q47.6562 8.9375 41.8125 3.875
Q35.9844 -1.17188 27.4844 -1.17188
Q16.8438 -1.17188 10.375 5.78125
Q3.90625 12.75 3.90625 25.7344
Q3.90625 34.125 6.6875 40.4219
Q9.46875 46.7344 15.1562 49.875
Q20.8438 53.0312 27.5469 53.0312
Q35.9844 53.0312 41.3594 48.75
Q46.7344 44.4844 48.25 36.625
L39.7031 35.2969
Q38.4844 40.5312 35.375 43.1562
Q32.2812 45.7969 27.875 45.7969
Q21.2344 45.7969 17.0781 41.0312
Q12.9375 36.2812 12.9375 25.9844
Q12.9375 15.5312 16.9375 10.7969
Q20.9531 6.0625 27.3906 6.0625
Q32.5625 6.0625 36.0312 9.23438
Q39.5 12.4062 40.4375 19" id="ArialMT-63"/>
      <path d="
M14.7031 0
L6.54688 0
L6.54688 71.5781
L15.3281 71.5781
L15.3281 46.0469
Q20.9062 53.0312 29.5469 53.0312
Q34.3281 53.0312 38.5938 51.0938
Q42.875 49.1719 45.625 45.6719
Q48.3906 42.1875 49.9531 37.25
Q51.5156 32.3281 51.5156 26.7031
Q51.5156 13.375 44.9219 6.09375
Q38.3281 -1.17188 29.1094 -1.17188
Q19.9219 -1.17188 14.7031 6.5
z

M14.5938 26.3125
Q14.5938 17 17.1406 12.8438
Q21.2969 6.0625 28.375 6.0625
Q34.125 6.0625 38.3281 11.0625
Q42.5312 16.0625 42.5312 25.9844
Q42.5312 36.1406 38.5 40.9688
Q34.4688 45.7969 28.7656 45.7969
Q23 45.7969 18.7969 40.7969
Q14.5938 35.7969 14.5938 26.3125" id="ArialMT-62"/>
      <path d="
M6.59375 0
L6.59375 51.8594
L14.4531 51.8594
L14.4531 44.5781
Q16.8906 48.3906 20.9375 50.7031
Q25 53.0312 30.1719 53.0312
Q35.9375 53.0312 39.625 50.6406
Q43.3125 48.25 44.8281 43.9531
Q50.9844 53.0312 60.8438 53.0312
Q68.5625 53.0312 72.7031 48.75
Q76.8594 44.4844 76.8594 35.5938
L76.8594 0
L68.1094 0
L68.1094 32.6719
Q68.1094 37.9375 67.25 40.25
Q66.4062 42.5781 64.1562 43.9844
Q61.9219 45.4062 58.8906 45.4062
Q53.4219 45.4062 49.7969 41.7656
Q46.1875 38.1406 46.1875 30.125
L46.1875 0
L37.4062 0
L37.4062 33.6875
Q37.4062 39.5469 35.25 42.4688
Q33.1094 45.4062 28.2188 45.4062
Q24.5156 45.4062 21.3594 43.4531
Q18.2188 41.5 16.7969 37.7344
Q15.375 33.9844 15.375 26.9062
L15.375 0
z
" id="ArialMT-6d"/>
     </defs>
     <g style="fill:#262626;" transform="translate(109.0 203.2125)scale(0.1 -0.1)">
      <use xlink:href="#ArialMT-41"/>
      <use x="66.69921875" xlink:href="#ArialMT-6c"/>
      <use x="88.916015625" xlink:href="#ArialMT-6c"/>
      <use x="111.1328125" xlink:href="#ArialMT-20"/>
      <use x="138.916015625" xlink:href="#ArialMT-49"/>
      <use x="166.69921875" xlink:href="#ArialMT-6e"/>
      <use x="222.314453125" xlink:href="#ArialMT-63"/>
      <use x="272.314453125" xlink:href="#ArialMT-75"/>
      <use x="327.9296875" xlink:href="#ArialMT-6d"/>
      <use x="411.23046875" xlink:href="#ArialMT-62"/>
      <use x="466.845703125" xlink:href="#ArialMT-65"/>
      <use x="522.4609375" xlink:href="#ArialMT-6e"/>
      <use x="578.076171875" xlink:href="#ArialMT-74"/>
     </g>
    </g>
   </g>
  </g>
  <g id="axes_2">
   <g id="patch_7">
    <path d="
M315.491 214.2
L518.4 214.2
L518.4 25.2
L315.491 25.2
z
" style="fill:#ffffff;"/>
   </g>
   <g id="matplotlib.axis_3">
    <g id="xtick_7">
     <g id="line2d_49">
      <path clip-path="url(#p28d4a36a73)" d="
M315.491 214.2
L315.491 25.2" style="fill:none;stroke:#cccccc;stroke-linecap:round;"/>
     </g>
     <g id="line2d_50">
      <g>
       <use style="fill:#262626;stroke:#262626;" x="315.490909091" xlink:href="#m219da94a98" y="214.2"/>
      </g>
     </g>
     <g id="line2d_51">
      <g>
       <use style="fill:#262626;stroke:#262626;" x="315.490909091" xlink:href="#m219da94a98" y="25.2"/>
      </g>
     </g>
     <g id="text_19">
      <!-- 0.0 -->
      <g style="fill:#262626;" transform="translate(308.987784091 228.3578125)scale(0.1 -0.1)">
       <use xlink:href="#ArialMT-30"/>
       <use x="55.615234375" xlink:href="#ArialMT-2e"/>
       <use x="83.3984375" xlink:href="#ArialMT-30"/>
      </g>
     </g>
    </g>
    <g id="xtick_8">
     <g id="line2d_52">
      <path clip-path="url(#p28d4a36a73)" d="
M356.073 214.2
L356.073 25.2" style="fill:none;stroke:#cccccc;stroke-linecap:round;"/>
     </g>
     <g id="line2d_53">
      <g>
       <use style="fill:#262626;stroke:#262626;" x="356.072727273" xlink:href="#m219da94a98" y="214.2"/>
      </g>
     </g>
     <g id="line2d_54">
      <g>
       <use style="fill:#262626;stroke:#262626;" x="356.072727273" xlink:href="#m219da94a98" y="25.2"/>
      </g>
     </g>
     <g id="text_20">
      <!-- 0.2 -->
      <g style="fill:#262626;" transform="translate(349.593821023 228.3578125)scale(0.1 -0.1)">
       <use xlink:href="#ArialMT-30"/>
       <use x="55.615234375" xlink:href="#ArialMT-2e"/>
       <use x="83.3984375" xlink:href="#ArialMT-32"/>
      </g>
     </g>
    </g>
    <g id="xtick_9">
     <g id="line2d_55">
      <path clip-path="url(#p28d4a36a73)" d="
M396.655 214.2
L396.655 25.2" style="fill:none;stroke:#cccccc;stroke-linecap:round;"/>
     </g>
     <g id="line2d_56">
      <g>
       <use style="fill:#262626;stroke:#262626;" x="396.654545455" xlink:href="#m219da94a98" y="214.2"/>
      </g>
     </g>
     <g id="line2d_57">
      <g>
       <use style="fill:#262626;stroke:#262626;" x="396.654545455" xlink:href="#m219da94a98" y="25.2"/>
      </g>
     </g>
     <g id="text_21">
      <!-- 0.4 -->
      <g style="fill:#262626;" transform="translate(390.153764205 228.3578125)scale(0.1 -0.1)">
       <use xlink:href="#ArialMT-30"/>
       <use x="55.615234375" xlink:href="#ArialMT-2e"/>
       <use x="83.3984375" xlink:href="#ArialMT-34"/>
      </g>
     </g>
    </g>
    <g id="xtick_10">
     <g id="line2d_58">
      <path clip-path="url(#p28d4a36a73)" d="
M437.236 214.2
L437.236 25.2" style="fill:none;stroke:#cccccc;stroke-linecap:round;"/>
     </g>
     <g id="line2d_59">
      <g>
       <use style="fill:#262626;stroke:#262626;" x="437.236363636" xlink:href="#m219da94a98" y="214.2"/>
      </g>
     </g>
     <g id="line2d_60">
      <g>
       <use style="fill:#262626;stroke:#262626;" x="437.236363636" xlink:href="#m219da94a98" y="25.2"/>
      </g>
     </g>
     <g id="text_22">
      <!-- 0.6 -->
      <g style="fill:#262626;" transform="translate(430.723082386 228.3578125)scale(0.1 -0.1)">
       <use xlink:href="#ArialMT-30"/>
       <use x="55.615234375" xlink:href="#ArialMT-2e"/>
       <use x="83.3984375" xlink:href="#ArialMT-36"/>
      </g>
     </g>
    </g>
    <g id="xtick_11">
     <g id="line2d_61">
      <path clip-path="url(#p28d4a36a73)" d="
M477.818 214.2
L477.818 25.2" style="fill:none;stroke:#cccccc;stroke-linecap:round;"/>
     </g>
     <g id="line2d_62">
      <g>
       <use style="fill:#262626;stroke:#262626;" x="477.818181818" xlink:href="#m219da94a98" y="214.2"/>
      </g>
     </g>
     <g id="line2d_63">
      <g>
       <use style="fill:#262626;stroke:#262626;" x="477.818181818" xlink:href="#m219da94a98" y="25.2"/>
      </g>
     </g>
     <g id="text_23">
      <!-- 0.8 -->
      <g style="fill:#262626;" transform="translate(471.295525568 228.3578125)scale(0.1 -0.1)">
       <use xlink:href="#ArialMT-30"/>
       <use x="55.615234375" xlink:href="#ArialMT-2e"/>
       <use x="83.3984375" xlink:href="#ArialMT-38"/>
      </g>
     </g>
    </g>
    <g id="xtick_12">
     <g id="line2d_64">
      <path clip-path="url(#p28d4a36a73)" d="
M518.4 214.2
L518.4 25.2" style="fill:none;stroke:#cccccc;stroke-linecap:round;"/>
     </g>
     <g id="line2d_65">
      <g>
       <use style="fill:#262626;stroke:#262626;" x="518.4" xlink:href="#m219da94a98" y="214.2"/>
      </g>
     </g>
     <g id="line2d_66">
      <g>
       <use style="fill:#262626;stroke:#262626;" x="518.4" xlink:href="#m219da94a98" y="25.2"/>
      </g>
     </g>
     <g id="text_24">
      <!-- 1.0 -->
      <g style="fill:#262626;" transform="translate(512.23359375 228.3578125)scale(0.1 -0.1)">
       <use xlink:href="#ArialMT-31"/>
       <use x="55.615234375" xlink:href="#ArialMT-2e"/>
       <use x="83.3984375" xlink:href="#ArialMT-30"/>
      </g>
     </g>
    </g>
    <g id="text_25">
     <!-- Industry Sequentiality -->
     <g style="fill:#262626;" transform="translate(345.30756392 246.26484375)scale(0.15 -0.15)">
      <use xlink:href="#ArialMT-49"/>
      <use x="27.783203125" xlink:href="#ArialMT-6e"/>
      <use x="83.3984375" xlink:href="#ArialMT-64"/>
      <use x="139.013671875" xlink:href="#ArialMT-75"/>
      <use x="194.62890625" xlink:href="#ArialMT-73"/>
      <use x="244.62890625" xlink:href="#ArialMT-74"/>
      <use x="272.412109375" xlink:href="#ArialMT-72"/>
      <use x="305.712890625" xlink:href="#ArialMT-79"/>
      <use x="355.712890625" xlink:href="#ArialMT-20"/>
      <use x="383.49609375" xlink:href="#ArialMT-53"/>
      <use x="450.1953125" xlink:href="#ArialMT-65"/>
      <use x="505.810546875" xlink:href="#ArialMT-71"/>
      <use x="561.42578125" xlink:href="#ArialMT-75"/>
      <use x="617.041015625" xlink:href="#ArialMT-65"/>
      <use x="672.65625" xlink:href="#ArialMT-6e"/>
      <use x="728.271484375" xlink:href="#ArialMT-74"/>
      <use x="756.0546875" xlink:href="#ArialMT-69"/>
      <use x="778.271484375" xlink:href="#ArialMT-61"/>
      <use x="833.88671875" xlink:href="#ArialMT-6c"/>
      <use x="856.103515625" xlink:href="#ArialMT-69"/>
      <use x="878.3203125" xlink:href="#ArialMT-74"/>
      <use x="906.103515625" xlink:href="#ArialMT-79"/>
     </g>
    </g>
   </g>
   <g id="matplotlib.axis_4">
    <g id="ytick_8">
     <g id="line2d_67">
      <path clip-path="url(#p28d4a36a73)" d="
M315.491 214.2
L518.4 214.2" style="fill:none;stroke:#cccccc;stroke-linecap:round;"/>
     </g>
     <g id="line2d_68">
      <g>
       <use style="fill:#262626;stroke:#262626;" x="315.490909091" xlink:href="#m219da94a98" y="214.2"/>
      </g>
     </g>
     <g id="line2d_69">
      <g>
       <use style="fill:#262626;stroke:#262626;" x="518.4" xlink:href="#m219da94a98" y="214.2"/>
      </g>
     </g>
     <g id="text_26">
      <!-- 0.020 -->
      <g style="fill:#262626;" transform="translate(284.362784091 216.78515625)scale(0.1 -0.1)">
       <use xlink:href="#ArialMT-30"/>
       <use x="55.615234375" xlink:href="#ArialMT-2e"/>
       <use x="83.3984375" xlink:href="#ArialMT-30"/>
       <use x="139.013671875" xlink:href="#ArialMT-32"/>
       <use x="194.62890625" xlink:href="#ArialMT-30"/>
      </g>
     </g>
    </g>
    <g id="ytick_9">
     <g id="line2d_70">
      <path clip-path="url(#p28d4a36a73)" d="
M315.491 166.95
L518.4 166.95" style="fill:none;stroke:#cccccc;stroke-linecap:round;"/>
     </g>
     <g id="line2d_71">
      <g>
       <use style="fill:#262626;stroke:#262626;" x="315.490909091" xlink:href="#m219da94a98" y="166.95"/>
      </g>
     </g>
     <g id="line2d_72">
      <g>
       <use style="fill:#262626;stroke:#262626;" x="518.4" xlink:href="#m219da94a98" y="166.95"/>
      </g>
     </g>
     <g id="text_27">
      <!-- 0.025 -->
      <g style="fill:#262626;" transform="translate(284.284659091 169.53515625)scale(0.1 -0.1)">
       <use xlink:href="#ArialMT-30"/>
       <use x="55.615234375" xlink:href="#ArialMT-2e"/>
       <use x="83.3984375" xlink:href="#ArialMT-30"/>
       <use x="139.013671875" xlink:href="#ArialMT-32"/>
       <use x="194.62890625" xlink:href="#ArialMT-35"/>
      </g>
     </g>
    </g>
    <g id="ytick_10">
     <g id="line2d_73">
      <path clip-path="url(#p28d4a36a73)" d="
M315.491 119.7
L518.4 119.7" style="fill:none;stroke:#cccccc;stroke-linecap:round;"/>
     </g>
     <g id="line2d_74">
      <g>
       <use style="fill:#262626;stroke:#262626;" x="315.490909091" xlink:href="#m219da94a98" y="119.7"/>
      </g>
     </g>
     <g id="line2d_75">
      <g>
       <use style="fill:#262626;stroke:#262626;" x="518.4" xlink:href="#m219da94a98" y="119.7"/>
      </g>
     </g>
     <g id="text_28">
      <!-- 0.030 -->
      <g style="fill:#262626;" transform="translate(284.362784091 122.28515625)scale(0.1 -0.1)">
       <use xlink:href="#ArialMT-30"/>
       <use x="55.615234375" xlink:href="#ArialMT-2e"/>
       <use x="83.3984375" xlink:href="#ArialMT-30"/>
       <use x="139.013671875" xlink:href="#ArialMT-33"/>
       <use x="194.62890625" xlink:href="#ArialMT-30"/>
      </g>
     </g>
    </g>
    <g id="ytick_11">
     <g id="line2d_76">
      <path clip-path="url(#p28d4a36a73)" d="
M315.491 72.45
L518.4 72.45" style="fill:none;stroke:#cccccc;stroke-linecap:round;"/>
     </g>
     <g id="line2d_77">
      <g>
       <use style="fill:#262626;stroke:#262626;" x="315.490909091" xlink:href="#m219da94a98" y="72.45"/>
      </g>
     </g>
     <g id="line2d_78">
      <g>
       <use style="fill:#262626;stroke:#262626;" x="518.4" xlink:href="#m219da94a98" y="72.45"/>
      </g>
     </g>
     <g id="text_29">
      <!-- 0.035 -->
      <g style="fill:#262626;" transform="translate(284.284659091 75.03515625)scale(0.1 -0.1)">
       <use xlink:href="#ArialMT-30"/>
       <use x="55.615234375" xlink:href="#ArialMT-2e"/>
       <use x="83.3984375" xlink:href="#ArialMT-30"/>
       <use x="139.013671875" xlink:href="#ArialMT-33"/>
       <use x="194.62890625" xlink:href="#ArialMT-35"/>
      </g>
     </g>
    </g>
    <g id="ytick_12">
     <g id="line2d_79">
      <path clip-path="url(#p28d4a36a73)" d="
M315.491 25.2
L518.4 25.2" style="fill:none;stroke:#cccccc;stroke-linecap:round;"/>
     </g>
     <g id="line2d_80">
      <g>
       <use style="fill:#262626;stroke:#262626;" x="315.490909091" xlink:href="#m219da94a98" y="25.2"/>
      </g>
     </g>
     <g id="line2d_81">
      <g>
       <use style="fill:#262626;stroke:#262626;" x="518.4" xlink:href="#m219da94a98" y="25.2"/>
      </g>
     </g>
     <g id="text_30">
      <!-- 0.040 -->
      <g style="fill:#262626;" transform="translate(284.362784091 27.78515625)scale(0.1 -0.1)">
       <use xlink:href="#ArialMT-30"/>
       <use x="55.615234375" xlink:href="#ArialMT-2e"/>
       <use x="83.3984375" xlink:href="#ArialMT-30"/>
       <use x="139.013671875" xlink:href="#ArialMT-34"/>
       <use x="194.62890625" xlink:href="#ArialMT-30"/>
      </g>
     </g>
    </g>
   </g>
   <g id="line2d_82">
    <path clip-path="url(#p28d4a36a73)" d="
M317.18 183.93
L320.129 182.664
L322.533 181.619
L324.76 180.641
L326.883 179.699
L328.935 178.781
L330.935 177.876
L332.898 176.981
L334.83 176.091
L336.741 175.204
L338.633 174.318
L340.513 173.429
L342.382 172.538
L344.245 171.642
L346.104 170.741
L347.961 169.833
L349.817 168.917
L351.675 167.992
L353.537 167.057
L355.404 166.112
L357.277 165.155
L359.158 164.186
L361.049 163.203
L362.95 162.207
L364.863 161.195
L366.79 160.167
L368.732 159.121
L370.689 158.058
L372.665 156.975
L374.659 155.872
L376.675 154.747
L378.712 153.6
L380.773 152.428
L382.861 151.231
L384.975 150.006
L387.12 148.752
L389.296 147.468
L391.506 146.151
L393.753 144.8
L396.04 143.411
L398.369 141.982
L400.744 140.511
L403.168 138.994
L405.647 137.428
L408.184 135.809
L410.784 134.132
L413.455 132.393
L416.202 130.586
L419.033 128.704
L421.958 126.739
L424.988 124.684
L428.136 122.527
L431.418 120.255
L434.852 117.854
L438.465 115.303
L442.286 112.58
L446.357 109.652
L450.736 106.476
L455.501 102.994
L460.776 99.1152
L466.761 94.6955
L473.836 89.4662
L482.929 82.7834
L503.274 68.315" style="fill:none;stroke:#4878cf;stroke-linecap:round;stroke-width:3;"/>
   </g>
   <g id="line2d_83">
    <path clip-path="url(#p28d4a36a73)" d="
M317.18 185.424
L320.129 184.382
L322.533 183.522
L324.76 182.715
L326.883 181.938
L328.935 181.18
L330.935 180.433
L332.898 179.693
L334.83 178.957
L336.741 178.223
L338.633 177.488
L340.513 176.752
L342.382 176.012
L344.245 175.268
L346.104 174.518
L347.961 173.762
L349.817 172.999
L351.675 172.228
L353.537 171.447
L355.404 170.657
L357.277 169.857
L359.158 169.045
L361.049 168.22
L362.95 167.383
L364.863 166.532
L366.79 165.665
L368.732 164.783
L370.689 163.885
L372.665 162.968
L374.659 162.033
L376.675 161.077
L378.712 160.101
L380.773 159.101
L382.861 158.078
L384.975 157.029
L387.12 155.953
L389.296 154.848
L391.506 153.712
L393.753 152.543
L396.04 151.338
L398.369 150.095
L400.744 148.811
L403.168 147.483
L405.647 146.107
L408.184 144.678
L410.784 143.194
L413.455 141.647
L416.202 140.032
L419.033 138.343
L421.958 136.57
L424.988 134.705
L428.136 132.735
L431.418 130.647
L434.852 128.424
L438.465 126.044
L442.286 123.48
L446.357 120.697
L450.736 117.645
L455.501 114.257
L460.776 110.429
L466.761 105.992
L473.836 100.634
L482.929 93.6
L503.274 77.5607" style="fill:none;stroke:#d65f5f;stroke-linecap:round;stroke-width:3;"/>
   </g>
   <g id="line2d_84">
    <path clip-path="url(#p28d4a36a73)" d="
M317.18 182.648
L320.129 181.156
L322.533 179.927
L324.76 178.776
L326.883 177.669
L328.935 176.589
L330.935 175.527
L332.898 174.477
L334.83 173.434
L336.741 172.395
L338.633 171.357
L340.513 170.318
L342.382 169.276
L344.245 168.229
L346.104 167.177
L347.961 166.118
L349.817 165.051
L351.675 163.974
L353.537 162.888
L355.404 161.789
L357.277 160.679
L359.158 159.555
L361.049 158.418
L362.95 157.264
L364.863 156.095
L366.79 154.909
L368.732 153.704
L370.689 152.48
L372.665 151.236
L374.659 149.97
L376.675 148.681
L378.712 147.368
L380.773 146.029
L382.861 144.664
L384.975 143.27
L387.12 141.846
L389.296 140.39
L391.506 138.9
L393.753 137.374
L396.04 135.81
L398.369 134.205
L400.744 132.557
L403.168 130.862
L405.647 129.118
L408.184 127.32
L410.784 125.465
L413.455 123.547
L416.202 121.562
L419.033 119.504
L421.958 117.365
L424.988 115.138
L428.136 112.812
L431.418 110.378
L434.852 107.82
L438.465 105.123
L442.286 102.264
L446.357 99.2163
L450.736 95.9432
L455.501 92.393
L460.776 88.4893
L466.761 84.1085
L473.836 79.0224
L482.929 72.684
L503.274 59.6396" style="fill:none;stroke:#b47cc7;stroke-linecap:round;stroke-width:3;"/>
   </g>
   <g id="patch_8">
    <path d="
M315.491 25.2
L518.4 25.2" style="fill:none;stroke:#cccccc;"/>
   </g>
   <g id="patch_9">
    <path d="
M518.4 214.2
L518.4 25.2" style="fill:none;stroke:#cccccc;"/>
   </g>
   <g id="patch_10">
    <path d="
M315.491 214.2
L518.4 214.2" style="fill:none;stroke:#cccccc;"/>
   </g>
   <g id="patch_11">
    <path d="
M315.491 214.2
L315.491 25.2" style="fill:none;stroke:#cccccc;"/>
   </g>
   <g id="text_31">
    <!-- Internal Innovation Rates -->
    <g style="fill:#262626;" transform="translate(333.854829545 20.2)scale(0.15 -0.15)">
     <use xlink:href="#ArialMT-49"/>
     <use x="27.783203125" xlink:href="#ArialMT-6e"/>
     <use x="83.3984375" xlink:href="#ArialMT-74"/>
     <use x="111.181640625" xlink:href="#ArialMT-65"/>
     <use x="166.796875" xlink:href="#ArialMT-72"/>
     <use x="200.09765625" xlink:href="#ArialMT-6e"/>
     <use x="255.712890625" xlink:href="#ArialMT-61"/>
     <use x="311.328125" xlink:href="#ArialMT-6c"/>
     <use x="333.544921875" xlink:href="#ArialMT-20"/>
     <use x="361.328125" xlink:href="#ArialMT-49"/>
     <use x="389.111328125" xlink:href="#ArialMT-6e"/>
     <use x="444.7265625" xlink:href="#ArialMT-6e"/>
     <use x="500.341796875" xlink:href="#ArialMT-6f"/>
     <use x="555.95703125" xlink:href="#ArialMT-76"/>
     <use x="605.95703125" xlink:href="#ArialMT-61"/>
     <use x="661.572265625" xlink:href="#ArialMT-74"/>
     <use x="689.35546875" xlink:href="#ArialMT-69"/>
     <use x="711.572265625" xlink:href="#ArialMT-6f"/>
     <use x="767.1875" xlink:href="#ArialMT-6e"/>
     <use x="822.802734375" xlink:href="#ArialMT-20"/>
     <use x="850.5859375" xlink:href="#ArialMT-52"/>
     <use x="922.802734375" xlink:href="#ArialMT-61"/>
     <use x="978.41796875" xlink:href="#ArialMT-74"/>
     <use x="1006.20117188" xlink:href="#ArialMT-65"/>
     <use x="1061.81640625" xlink:href="#ArialMT-73"/>
    </g>
   </g>
  </g>
 </g>
 <defs>
  <clipPath id="p61377a7746">
   <rect height="189.0" width="202.909090909" x="72.0" y="25.2"/>
  </clipPath>
  <clipPath id="p28d4a36a73">
   <rect height="189.0" width="202.909090909" x="315.490909091" y="25.2"/>
  </clipPath>
 </defs>
</svg>
