<?xml version="1.0" encoding="utf-8" standalone="no"?>
<!DOCTYPE svg PUBLIC "-//W3C//DTD SVG 1.1//EN"
  "http://www.w3.org/Graphics/SVG/1.1/DTD/svg11.dtd">
<!-- Created with matplotlib (http://matplotlib.org/) -->
<svg height="504pt" version="1.1" viewBox="0 0 576 504" width="576pt" xmlns="http://www.w3.org/2000/svg" xmlns:xlink="http://www.w3.org/1999/xlink">
 <defs>
  <style type="text/css">
*{stroke-linecap:butt;stroke-linejoin:round;}
  </style>
 </defs>
 <g id="figure_1">
  <g id="patch_1">
   <path d="
M0 504
L576 504
L576 0
L0 0
z
" style="fill:#ffffff;"/>
  </g>
  <g id="axes_1">
   <g id="patch_2">
    <path d="
M72 201.6
L274.909 201.6
L274.909 50.4
L72 50.4
z
" style="fill:#eeeeee;"/>
   </g>
   <g id="matplotlib.axis_1">
    <g id="xtick_1">
     <g id="line2d_1">
      <path clip-path="url(#p4c0c3b2f69)" d="
M72 201.6
L72 50.4" style="fill:none;stroke:#000000;stroke-dasharray:1.000000,3.000000;stroke-dashoffset:0.0;stroke-width:0.5;"/>
     </g>
     <g id="line2d_2">
      <defs>
       <path d="
M0 0
L0 -4" id="m91191bb255" style="stroke:#555555;stroke-width:0.5;"/>
      </defs>
      <g>
       <use style="fill:#555555;stroke:#555555;stroke-width:0.5;" x="72.0" xlink:href="#m91191bb255" y="201.6"/>
      </g>
     </g>
     <g id="line2d_3">
      <defs>
       <path d="
M0 0
L0 4" id="m64c3aef5f4" style="stroke:#555555;stroke-width:0.5;"/>
      </defs>
      <g>
       <use style="fill:#555555;stroke:#555555;stroke-width:0.5;" x="72.0" xlink:href="#m64c3aef5f4" y="50.4"/>
      </g>
     </g>
     <g id="text_1">
      <!-- 0.0 -->
      <defs>
       <path d="
M4.15625 35.2969
Q4.15625 48 6.76562 55.7344
Q9.375 63.4844 14.5156 67.6719
Q19.6719 71.875 27.4844 71.875
Q33.25 71.875 37.5938 69.5469
Q41.9375 67.2344 44.7656 62.8594
Q47.6094 58.5 49.2188 52.2188
Q50.8281 45.9531 50.8281 35.2969
Q50.8281 22.7031 48.2344 14.9688
Q45.6562 7.23438 40.5 3
Q35.3594 -1.21875 27.4844 -1.21875
Q17.1406 -1.21875 11.2344 6.20312
Q4.15625 15.1406 4.15625 35.2969
M13.1875 35.2969
Q13.1875 17.6719 17.3125 11.8281
Q21.4375 6 27.4844 6
Q33.5469 6 37.6719 11.8594
Q41.7969 17.7188 41.7969 35.2969
Q41.7969 52.9844 37.6719 58.7812
Q33.5469 64.5938 27.3906 64.5938
Q21.3438 64.5938 17.7188 59.4688
Q13.1875 52.9375 13.1875 35.2969" id="ArialMT-30"/>
       <path d="
M9.07812 0
L9.07812 10.0156
L19.0938 10.0156
L19.0938 0
z
" id="ArialMT-2e"/>
      </defs>
      <g style="fill:#555555;" transform="translate(65.496875 214.7578125)scale(0.1 -0.1)">
       <use xlink:href="#ArialMT-30"/>
       <use x="55.615234375" xlink:href="#ArialMT-2e"/>
       <use x="83.3984375" xlink:href="#ArialMT-30"/>
      </g>
     </g>
    </g>
    <g id="xtick_2">
     <g id="line2d_4">
      <path clip-path="url(#p4c0c3b2f69)" d="
M112.582 201.6
L112.582 50.4" style="fill:none;stroke:#000000;stroke-dasharray:1.000000,3.000000;stroke-dashoffset:0.0;stroke-width:0.5;"/>
     </g>
     <g id="line2d_5">
      <g>
       <use style="fill:#555555;stroke:#555555;stroke-width:0.5;" x="112.581818182" xlink:href="#m91191bb255" y="201.6"/>
      </g>
     </g>
     <g id="line2d_6">
      <g>
       <use style="fill:#555555;stroke:#555555;stroke-width:0.5;" x="112.581818182" xlink:href="#m64c3aef5f4" y="50.4"/>
      </g>
     </g>
     <g id="text_2">
      <!-- 0.2 -->
      <defs>
       <path d="
M50.3438 8.45312
L50.3438 0
L3.03125 0
Q2.9375 3.17188 4.04688 6.10938
Q5.85938 10.9375 9.82812 15.625
Q13.8125 20.3125 21.3438 26.4688
Q33.0156 36.0312 37.1094 41.625
Q41.2188 47.2188 41.2188 52.2031
Q41.2188 57.4219 37.4688 61
Q33.7344 64.5938 27.7344 64.5938
Q21.3906 64.5938 17.5781 60.7812
Q13.7656 56.9844 13.7188 50.25
L4.6875 51.1719
Q5.60938 61.2812 11.6562 66.5781
Q17.7188 71.875 27.9375 71.875
Q38.2344 71.875 44.2344 66.1562
Q50.25 60.4531 50.25 52
Q50.25 47.7031 48.4844 43.5469
Q46.7344 39.4062 42.6562 34.8125
Q38.5781 30.2188 29.1094 22.2188
Q21.1875 15.5781 18.9375 13.2031
Q16.7031 10.8438 15.2344 8.45312
z
" id="ArialMT-32"/>
      </defs>
      <g style="fill:#555555;" transform="translate(106.102911932 214.7578125)scale(0.1 -0.1)">
       <use xlink:href="#ArialMT-30"/>
       <use x="55.615234375" xlink:href="#ArialMT-2e"/>
       <use x="83.3984375" xlink:href="#ArialMT-32"/>
      </g>
     </g>
    </g>
    <g id="xtick_3">
     <g id="line2d_7">
      <path clip-path="url(#p4c0c3b2f69)" d="
M153.164 201.6
L153.164 50.4" style="fill:none;stroke:#000000;stroke-dasharray:1.000000,3.000000;stroke-dashoffset:0.0;stroke-width:0.5;"/>
     </g>
     <g id="line2d_8">
      <g>
       <use style="fill:#555555;stroke:#555555;stroke-width:0.5;" x="153.163636364" xlink:href="#m91191bb255" y="201.6"/>
      </g>
     </g>
     <g id="line2d_9">
      <g>
       <use style="fill:#555555;stroke:#555555;stroke-width:0.5;" x="153.163636364" xlink:href="#m64c3aef5f4" y="50.4"/>
      </g>
     </g>
     <g id="text_3">
      <!-- 0.4 -->
      <defs>
       <path d="
M32.3281 0
L32.3281 17.1406
L1.26562 17.1406
L1.26562 25.2031
L33.9375 71.5781
L41.1094 71.5781
L41.1094 25.2031
L50.7812 25.2031
L50.7812 17.1406
L41.1094 17.1406
L41.1094 0
z

M32.3281 25.2031
L32.3281 57.4688
L9.90625 25.2031
z
" id="ArialMT-34"/>
      </defs>
      <g style="fill:#555555;" transform="translate(146.662855114 214.7578125)scale(0.1 -0.1)">
       <use xlink:href="#ArialMT-30"/>
       <use x="55.615234375" xlink:href="#ArialMT-2e"/>
       <use x="83.3984375" xlink:href="#ArialMT-34"/>
      </g>
     </g>
    </g>
    <g id="xtick_4">
     <g id="line2d_10">
      <path clip-path="url(#p4c0c3b2f69)" d="
M193.745 201.6
L193.745 50.4" style="fill:none;stroke:#000000;stroke-dasharray:1.000000,3.000000;stroke-dashoffset:0.0;stroke-width:0.5;"/>
     </g>
     <g id="line2d_11">
      <g>
       <use style="fill:#555555;stroke:#555555;stroke-width:0.5;" x="193.745454545" xlink:href="#m91191bb255" y="201.6"/>
      </g>
     </g>
     <g id="line2d_12">
      <g>
       <use style="fill:#555555;stroke:#555555;stroke-width:0.5;" x="193.745454545" xlink:href="#m64c3aef5f4" y="50.4"/>
      </g>
     </g>
     <g id="text_4">
      <!-- 0.6 -->
      <defs>
       <path d="
M49.75 54.0469
L41.0156 53.375
Q39.8438 58.5469 37.7031 60.8906
Q34.125 64.6562 28.9062 64.6562
Q24.7031 64.6562 21.5312 62.3125
Q17.3906 59.2812 14.9844 53.4688
Q12.5938 47.6562 12.5 36.9219
Q15.6719 41.75 20.2656 44.0938
Q24.8594 46.4375 29.8906 46.4375
Q38.6719 46.4375 44.8438 39.9688
Q51.0312 33.5 51.0312 23.25
Q51.0312 16.5 48.125 10.7188
Q45.2188 4.9375 40.1406 1.85938
Q35.0625 -1.21875 28.6094 -1.21875
Q17.625 -1.21875 10.6875 6.85938
Q3.76562 14.9375 3.76562 33.5
Q3.76562 54.25 11.4219 63.6719
Q18.1094 71.875 29.4375 71.875
Q37.8906 71.875 43.2812 67.1406
Q48.6875 62.4062 49.75 54.0469
M13.875 23.1875
Q13.875 18.6562 15.7969 14.5
Q17.7188 10.3594 21.1875 8.17188
Q24.6562 6 28.4688 6
Q34.0312 6 38.0312 10.4844
Q42.0469 14.9844 42.0469 22.7031
Q42.0469 30.125 38.0781 34.3906
Q34.125 38.6719 28.125 38.6719
Q22.1719 38.6719 18.0156 34.3906
Q13.875 30.125 13.875 23.1875" id="ArialMT-36"/>
      </defs>
      <g style="fill:#555555;" transform="translate(187.232173295 214.7578125)scale(0.1 -0.1)">
       <use xlink:href="#ArialMT-30"/>
       <use x="55.615234375" xlink:href="#ArialMT-2e"/>
       <use x="83.3984375" xlink:href="#ArialMT-36"/>
      </g>
     </g>
    </g>
    <g id="xtick_5">
     <g id="line2d_13">
      <path clip-path="url(#p4c0c3b2f69)" d="
M234.327 201.6
L234.327 50.4" style="fill:none;stroke:#000000;stroke-dasharray:1.000000,3.000000;stroke-dashoffset:0.0;stroke-width:0.5;"/>
     </g>
     <g id="line2d_14">
      <g>
       <use style="fill:#555555;stroke:#555555;stroke-width:0.5;" x="234.327272727" xlink:href="#m91191bb255" y="201.6"/>
      </g>
     </g>
     <g id="line2d_15">
      <g>
       <use style="fill:#555555;stroke:#555555;stroke-width:0.5;" x="234.327272727" xlink:href="#m64c3aef5f4" y="50.4"/>
      </g>
     </g>
     <g id="text_5">
      <!-- 0.8 -->
      <defs>
       <path d="
M17.6719 38.8125
Q12.2031 40.8281 9.5625 44.5312
Q6.9375 48.25 6.9375 53.4219
Q6.9375 61.2344 12.5469 66.5469
Q18.1719 71.875 27.4844 71.875
Q36.8594 71.875 42.5781 66.4219
Q48.2969 60.9844 48.2969 53.1719
Q48.2969 48.1875 45.6719 44.5
Q43.0625 40.8281 37.75 38.8125
Q44.3438 36.6719 47.7812 31.875
Q51.2188 27.0938 51.2188 20.4531
Q51.2188 11.2812 44.7188 5.03125
Q38.2344 -1.21875 27.6406 -1.21875
Q17.0469 -1.21875 10.5469 5.04688
Q4.04688 11.3281 4.04688 20.7031
Q4.04688 27.6875 7.59375 32.3906
Q11.1406 37.1094 17.6719 38.8125
M15.9219 53.7188
Q15.9219 48.6406 19.1875 45.4062
Q22.4688 42.1875 27.6875 42.1875
Q32.7656 42.1875 36.0156 45.375
Q39.2656 48.5781 39.2656 53.2188
Q39.2656 58.0625 35.9062 61.3594
Q32.5625 64.6562 27.5938 64.6562
Q22.5625 64.6562 19.2344 61.4219
Q15.9219 58.2031 15.9219 53.7188
M13.0938 20.6562
Q13.0938 16.8906 14.875 13.375
Q16.6562 9.85938 20.1719 7.92188
Q23.6875 6 27.7344 6
Q34.0312 6 38.125 10.0469
Q42.2344 14.1094 42.2344 20.3594
Q42.2344 26.7031 38.0156 30.8594
Q33.7969 35.0156 27.4375 35.0156
Q21.2344 35.0156 17.1562 30.9062
Q13.0938 26.8125 13.0938 20.6562" id="ArialMT-38"/>
      </defs>
      <g style="fill:#555555;" transform="translate(227.804616477 214.7578125)scale(0.1 -0.1)">
       <use xlink:href="#ArialMT-30"/>
       <use x="55.615234375" xlink:href="#ArialMT-2e"/>
       <use x="83.3984375" xlink:href="#ArialMT-38"/>
      </g>
     </g>
    </g>
    <g id="xtick_6">
     <g id="line2d_16">
      <path clip-path="url(#p4c0c3b2f69)" d="
M274.909 201.6
L274.909 50.4" style="fill:none;stroke:#000000;stroke-dasharray:1.000000,3.000000;stroke-dashoffset:0.0;stroke-width:0.5;"/>
     </g>
     <g id="line2d_17">
      <g>
       <use style="fill:#555555;stroke:#555555;stroke-width:0.5;" x="274.909090909" xlink:href="#m91191bb255" y="201.6"/>
      </g>
     </g>
     <g id="line2d_18">
      <g>
       <use style="fill:#555555;stroke:#555555;stroke-width:0.5;" x="274.909090909" xlink:href="#m64c3aef5f4" y="50.4"/>
      </g>
     </g>
     <g id="text_6">
      <!-- 1.0 -->
      <defs>
       <path d="
M37.25 0
L28.4688 0
L28.4688 56
Q25.2969 52.9844 20.1406 49.9531
Q14.9844 46.9219 10.8906 45.4062
L10.8906 53.9062
Q18.2656 57.375 23.7812 62.2969
Q29.2969 67.2344 31.5938 71.875
L37.25 71.875
z
" id="ArialMT-31"/>
      </defs>
      <g style="fill:#555555;" transform="translate(268.742684659 214.7578125)scale(0.1 -0.1)">
       <use xlink:href="#ArialMT-31"/>
       <use x="55.615234375" xlink:href="#ArialMT-2e"/>
       <use x="83.3984375" xlink:href="#ArialMT-30"/>
      </g>
     </g>
    </g>
    <g id="text_7">
     <!-- Industry Sequentiality -->
     <defs>
      <path d="
M9.32812 0
L9.32812 71.5781
L18.7969 71.5781
L18.7969 0
z
" id="ArialMT-49"/>
      <path d="
M40.4375 6.39062
Q35.5469 2.25 31.0312 0.53125
Q26.5156 -1.17188 21.3438 -1.17188
Q12.7969 -1.17188 8.20312 3
Q3.60938 7.17188 3.60938 13.6719
Q3.60938 17.4844 5.34375 20.625
Q7.07812 23.7812 9.89062 25.6875
Q12.7031 27.5938 16.2188 28.5625
Q18.7969 29.25 24.0312 29.8906
Q34.6719 31.1562 39.7031 32.9062
Q39.75 34.7188 39.75 35.2031
Q39.75 40.5781 37.25 42.7812
Q33.8906 45.75 27.25 45.75
Q21.0469 45.75 18.0938 43.5781
Q15.1406 41.4062 13.7188 35.8906
L5.125 37.0625
Q6.29688 42.5781 8.98438 45.9688
Q11.6719 49.3594 16.75 51.1875
Q21.8281 53.0312 28.5156 53.0312
Q35.1562 53.0312 39.2969 51.4688
Q43.4531 49.9062 45.4062 47.5312
Q47.3594 45.1719 48.1406 41.5469
Q48.5781 39.3125 48.5781 33.4531
L48.5781 21.7344
Q48.5781 9.46875 49.1406 6.21875
Q49.7031 2.98438 51.375 0
L42.1875 0
Q40.8281 2.73438 40.4375 6.39062
M39.7031 26.0312
Q34.9062 24.0781 25.3438 22.7031
Q19.9219 21.9219 17.6719 20.9375
Q15.4375 19.9688 14.2031 18.0938
Q12.9844 16.2188 12.9844 13.9219
Q12.9844 10.4062 15.6406 8.0625
Q18.3125 5.71875 23.4375 5.71875
Q28.5156 5.71875 32.4688 7.9375
Q36.4219 10.1562 38.2812 14.0156
Q39.7031 17 39.7031 22.7969
z
" id="ArialMT-61"/>
      <path d="
M6.20312 -19.9688
L5.21875 -11.7188
Q8.10938 -12.5 10.25 -12.5
Q13.1875 -12.5 14.9375 -11.5156
Q16.7031 -10.5469 17.8281 -8.79688
Q18.6562 -7.46875 20.5156 -2.25
Q20.75 -1.51562 21.2969 -0.09375
L1.60938 51.8594
L11.0781 51.8594
L21.875 21.8281
Q23.9688 16.1094 25.6406 9.8125
Q27.1562 15.875 29.25 21.625
L40.3281 51.8594
L49.125 51.8594
L29.3906 -0.875
Q26.2188 -9.42188 24.4688 -12.6406
Q22.125 -17 19.0938 -19.0156
Q16.0625 -21.0469 11.8594 -21.0469
Q9.32812 -21.0469 6.20312 -19.9688" id="ArialMT-79"/>
      <path d="
M42.0938 16.7031
L51.1719 15.5781
Q49.0312 7.625 43.2188 3.21875
Q37.4062 -1.17188 28.375 -1.17188
Q17 -1.17188 10.3281 5.82812
Q3.65625 12.8438 3.65625 25.4844
Q3.65625 38.5781 10.3906 45.7969
Q17.1406 53.0312 27.875 53.0312
Q38.2812 53.0312 44.875 45.9531
Q51.4688 38.875 51.4688 26.0312
Q51.4688 25.25 51.4219 23.6875
L12.75 23.6875
Q13.2344 15.1406 17.5781 10.5938
Q21.9219 6.0625 28.4219 6.0625
Q33.25 6.0625 36.6719 8.59375
Q40.0938 11.1406 42.0938 16.7031
M13.2344 30.9062
L42.1875 30.9062
Q41.6094 37.4531 38.875 40.7188
Q34.6719 45.7969 27.9844 45.7969
Q21.9219 45.7969 17.7969 41.75
Q13.6719 37.7031 13.2344 30.9062" id="ArialMT-65"/>
      <path d="
M40.2344 0
L40.2344 6.54688
Q35.2969 -1.17188 25.7344 -1.17188
Q19.5312 -1.17188 14.3281 2.25
Q9.125 5.67188 6.26562 11.7969
Q3.42188 17.9219 3.42188 25.875
Q3.42188 33.6406 6 39.9688
Q8.59375 46.2969 13.7656 49.6562
Q18.9531 53.0312 25.3438 53.0312
Q30.0312 53.0312 33.6875 51.0469
Q37.3594 49.0781 39.6562 45.9062
L39.6562 71.5781
L48.3906 71.5781
L48.3906 0
z

M12.4531 25.875
Q12.4531 15.9219 16.6406 10.9844
Q20.8438 6.0625 26.5625 6.0625
Q32.3281 6.0625 36.3438 10.7656
Q40.375 15.4844 40.375 25.1406
Q40.375 35.7969 36.2656 40.7656
Q32.1719 45.75 26.1719 45.75
Q20.3125 45.75 16.375 40.9688
Q12.4531 36.1875 12.4531 25.875" id="ArialMT-64"/>
      <path d="
M25.7812 7.85938
L27.0469 0.09375
Q23.3438 -0.6875 20.4062 -0.6875
Q15.625 -0.6875 12.9844 0.828125
Q10.3594 2.34375 9.28125 4.8125
Q8.20312 7.28125 8.20312 15.1875
L8.20312 45.0156
L1.76562 45.0156
L1.76562 51.8594
L8.20312 51.8594
L8.20312 64.7031
L16.9375 69.9688
L16.9375 51.8594
L25.7812 51.8594
L25.7812 45.0156
L16.9375 45.0156
L16.9375 14.7031
Q16.9375 10.9375 17.4062 9.85938
Q17.875 8.79688 18.9219 8.15625
Q19.9688 7.51562 21.9219 7.51562
Q23.3906 7.51562 25.7812 7.85938" id="ArialMT-74"/>
      <path d="
M40.5781 0
L40.5781 7.625
Q34.5156 -1.17188 24.125 -1.17188
Q19.5312 -1.17188 15.5469 0.578125
Q11.5781 2.34375 9.64062 5
Q7.71875 7.67188 6.9375 11.5312
Q6.39062 14.1094 6.39062 19.7344
L6.39062 51.8594
L15.1875 51.8594
L15.1875 23.0938
Q15.1875 16.2188 15.7188 13.8125
Q16.5469 10.3594 19.2344 8.375
Q21.9219 6.39062 25.875 6.39062
Q29.8281 6.39062 33.2969 8.42188
Q36.7656 10.4531 38.2031 13.9375
Q39.6562 17.4375 39.6562 24.0781
L39.6562 51.8594
L48.4375 51.8594
L48.4375 0
z
" id="ArialMT-75"/>
      <path d="
M6.64062 61.4688
L6.64062 71.5781
L15.4375 71.5781
L15.4375 61.4688
z

M6.64062 0
L6.64062 51.8594
L15.4375 51.8594
L15.4375 0
z
" id="ArialMT-69"/>
      <path d="
M39.6562 -19.875
L39.6562 5.51562
Q37.5938 2.64062 33.9062 0.734375
Q30.2188 -1.17188 26.0781 -1.17188
Q16.8438 -1.17188 10.1719 6.20312
Q3.51562 13.5781 3.51562 26.4219
Q3.51562 34.2344 6.21875 40.4219
Q8.9375 46.625 14.0781 49.8281
Q19.2344 53.0312 25.3906 53.0312
Q35.0156 53.0312 40.5312 44.9219
L40.5312 51.8594
L48.4375 51.8594
L48.4375 -19.875
z

M12.5469 26.0781
Q12.5469 16.0625 16.75 11.0625
Q20.9531 6.0625 26.8125 6.0625
Q32.4219 6.0625 36.4688 10.8125
Q40.5312 15.5781 40.5312 25.2969
Q40.5312 35.6406 36.25 40.8594
Q31.9844 46.0938 26.2188 46.0938
Q20.5156 46.0938 16.5312 41.2344
Q12.5469 36.375 12.5469 26.0781" id="ArialMT-71"/>
      <path d="
M6.5 0
L6.5 51.8594
L14.4062 51.8594
L14.4062 44
Q17.4375 49.5156 20 51.2656
Q22.5625 53.0312 25.6406 53.0312
Q30.0781 53.0312 34.6719 50.2031
L31.6406 42.0469
Q28.4219 43.9531 25.2031 43.9531
Q22.3125 43.9531 20.0156 42.2188
Q17.7188 40.4844 16.75 37.4062
Q15.2812 32.7188 15.2812 27.1562
L15.2812 0
z
" id="ArialMT-72"/>
      <path d="
M3.07812 15.4844
L11.7656 16.8438
Q12.5 11.625 15.8438 8.84375
Q19.1875 6.0625 25.2031 6.0625
Q31.25 6.0625 34.1719 8.51562
Q37.1094 10.9844 37.1094 14.3125
Q37.1094 17.2812 34.5156 19
Q32.7188 20.1719 25.5312 21.9688
Q15.875 24.4219 12.1406 26.2031
Q8.40625 27.9844 6.46875 31.125
Q4.54688 34.2812 4.54688 38.0938
Q4.54688 41.5469 6.125 44.5
Q7.71875 47.4688 10.4531 49.4219
Q12.5 50.9219 16.0312 51.9688
Q19.5781 53.0312 23.6406 53.0312
Q29.7344 53.0312 34.3438 51.2656
Q38.9688 49.5156 41.1562 46.5
Q43.3594 43.5 44.1875 38.4844
L35.5938 37.3125
Q35.0156 41.3125 32.2031 43.5469
Q29.3906 45.7969 24.2656 45.7969
Q18.2188 45.7969 15.625 43.7969
Q13.0312 41.7969 13.0312 39.1094
Q13.0312 37.4062 14.1094 36.0312
Q15.1875 34.625 17.4844 33.6875
Q18.7969 33.2031 25.25 31.4531
Q34.5781 28.9531 38.25 27.3594
Q41.9375 25.7812 44.0312 22.75
Q46.1406 19.7344 46.1406 15.2344
Q46.1406 10.8438 43.5781 6.95312
Q41.0156 3.07812 36.1719 0.953125
Q31.3438 -1.17188 25.25 -1.17188
Q15.1406 -1.17188 9.84375 3.03125
Q4.54688 7.23438 3.07812 15.4844" id="ArialMT-73"/>
      <path d="
M6.39062 0
L6.39062 71.5781
L15.1875 71.5781
L15.1875 0
z
" id="ArialMT-6c"/>
      <path d="
M6.59375 0
L6.59375 51.8594
L14.5 51.8594
L14.5 44.4844
Q20.2188 53.0312 31 53.0312
Q35.6875 53.0312 39.625 51.3438
Q43.5625 49.6562 45.5156 46.9219
Q47.4688 44.1875 48.25 40.4375
Q48.7344 37.9844 48.7344 31.8906
L48.7344 0
L39.9375 0
L39.9375 31.5469
Q39.9375 36.9219 38.9062 39.5781
Q37.8906 42.2344 35.2812 43.8125
Q32.6719 45.4062 29.1562 45.4062
Q23.5312 45.4062 19.4531 41.8438
Q15.375 38.2812 15.375 28.3281
L15.375 0
z
" id="ArialMT-6e"/>
      <path d="
M4.5 23
L13.4219 23.7812
Q14.0625 18.4062 16.375 14.9688
Q18.7031 11.5312 23.5781 9.40625
Q28.4688 7.28125 34.5781 7.28125
Q39.9844 7.28125 44.1406 8.89062
Q48.2969 10.5 50.3125 13.2969
Q52.3438 16.1094 52.3438 19.4375
Q52.3438 22.7969 50.3906 25.3125
Q48.4375 27.8281 43.9531 29.5469
Q41.0625 30.6719 31.2031 33.0312
Q21.3438 35.4062 17.3906 37.5
Q12.25 40.1875 9.73438 44.1562
Q7.23438 48.1406 7.23438 53.0781
Q7.23438 58.5 10.2969 63.2031
Q13.375 67.9219 19.2812 70.3594
Q25.2031 72.7969 32.4219 72.7969
Q40.375 72.7969 46.4531 70.2344
Q52.5469 67.6719 55.8125 62.6875
Q59.0781 57.7188 59.3281 51.4219
L50.25 50.7344
Q49.5156 57.5156 45.2812 60.9844
Q41.0625 64.4531 32.8125 64.4531
Q24.2188 64.4531 20.2812 61.2969
Q16.3594 58.1562 16.3594 53.7188
Q16.3594 49.8594 19.1406 47.3594
Q21.875 44.875 33.4219 42.2656
Q44.9688 39.6562 49.2656 37.7031
Q55.5156 34.8125 58.4844 30.3906
Q61.4688 25.9844 61.4688 20.2188
Q61.4688 14.5 58.2031 9.4375
Q54.9375 4.39062 48.7969 1.57812
Q42.6719 -1.21875 35.0156 -1.21875
Q25.2969 -1.21875 18.7188 1.60938
Q12.1562 4.4375 8.42188 10.125
Q4.6875 15.8281 4.5 23" id="ArialMT-53"/>
      <path id="ArialMT-20"/>
     </defs>
     <g style="fill:#555555;" transform="translate(116.144232955 230.4809375)scale(0.12 -0.12)">
      <use xlink:href="#ArialMT-49"/>
      <use x="27.783203125" xlink:href="#ArialMT-6e"/>
      <use x="83.3984375" xlink:href="#ArialMT-64"/>
      <use x="139.013671875" xlink:href="#ArialMT-75"/>
      <use x="194.62890625" xlink:href="#ArialMT-73"/>
      <use x="244.62890625" xlink:href="#ArialMT-74"/>
      <use x="272.412109375" xlink:href="#ArialMT-72"/>
      <use x="305.712890625" xlink:href="#ArialMT-79"/>
      <use x="355.712890625" xlink:href="#ArialMT-20"/>
      <use x="383.49609375" xlink:href="#ArialMT-53"/>
      <use x="450.1953125" xlink:href="#ArialMT-65"/>
      <use x="505.810546875" xlink:href="#ArialMT-71"/>
      <use x="561.42578125" xlink:href="#ArialMT-75"/>
      <use x="617.041015625" xlink:href="#ArialMT-65"/>
      <use x="672.65625" xlink:href="#ArialMT-6e"/>
      <use x="728.271484375" xlink:href="#ArialMT-74"/>
      <use x="756.0546875" xlink:href="#ArialMT-69"/>
      <use x="778.271484375" xlink:href="#ArialMT-61"/>
      <use x="833.88671875" xlink:href="#ArialMT-6c"/>
      <use x="856.103515625" xlink:href="#ArialMT-69"/>
      <use x="878.3203125" xlink:href="#ArialMT-74"/>
      <use x="906.103515625" xlink:href="#ArialMT-79"/>
     </g>
    </g>
   </g>
   <g id="matplotlib.axis_2">
    <g id="ytick_1">
     <g id="line2d_19">
      <path clip-path="url(#p4c0c3b2f69)" d="
M72 201.6
L274.909 201.6" style="fill:none;stroke:#000000;stroke-dasharray:1.000000,3.000000;stroke-dashoffset:0.0;stroke-width:0.5;"/>
     </g>
     <g id="line2d_20">
      <defs>
       <path d="
M0 0
L0 0" id="m8bc147ca23" style="stroke:#555555;stroke-width:0.5;"/>
      </defs>
      <g>
       <use style="fill:#555555;stroke:#555555;stroke-width:0.5;" x="72.0" xlink:href="#m8bc147ca23" y="201.6"/>
      </g>
     </g>
     <g id="line2d_21">
      <g>
       <use style="fill:#555555;stroke:#555555;stroke-width:0.5;" x="274.909090909" xlink:href="#m8bc147ca23" y="201.6"/>
      </g>
     </g>
     <g id="text_8">
      <!-- 0.02 -->
      <g style="fill:#555555;" transform="translate(47.48125 204.18515625)scale(0.1 -0.1)">
       <use xlink:href="#ArialMT-30"/>
       <use x="55.615234375" xlink:href="#ArialMT-2e"/>
       <use x="83.3984375" xlink:href="#ArialMT-30"/>
       <use x="139.013671875" xlink:href="#ArialMT-32"/>
      </g>
     </g>
    </g>
    <g id="ytick_2">
     <g id="line2d_22">
      <path clip-path="url(#p4c0c3b2f69)" d="
M72 176.4
L274.909 176.4" style="fill:none;stroke:#000000;stroke-dasharray:1.000000,3.000000;stroke-dashoffset:0.0;stroke-width:0.5;"/>
     </g>
     <g id="line2d_23">
      <g>
       <use style="fill:#555555;stroke:#555555;stroke-width:0.5;" x="72.0" xlink:href="#m8bc147ca23" y="176.4"/>
      </g>
     </g>
     <g id="line2d_24">
      <g>
       <use style="fill:#555555;stroke:#555555;stroke-width:0.5;" x="274.909090909" xlink:href="#m8bc147ca23" y="176.4"/>
      </g>
     </g>
     <g id="text_9">
      <!-- 0.04 -->
      <g style="fill:#555555;" transform="translate(47.4375 178.98515625)scale(0.1 -0.1)">
       <use xlink:href="#ArialMT-30"/>
       <use x="55.615234375" xlink:href="#ArialMT-2e"/>
       <use x="83.3984375" xlink:href="#ArialMT-30"/>
       <use x="139.013671875" xlink:href="#ArialMT-34"/>
      </g>
     </g>
    </g>
    <g id="ytick_3">
     <g id="line2d_25">
      <path clip-path="url(#p4c0c3b2f69)" d="
M72 151.2
L274.909 151.2" style="fill:none;stroke:#000000;stroke-dasharray:1.000000,3.000000;stroke-dashoffset:0.0;stroke-width:0.5;"/>
     </g>
     <g id="line2d_26">
      <g>
       <use style="fill:#555555;stroke:#555555;stroke-width:0.5;" x="72.0" xlink:href="#m8bc147ca23" y="151.2"/>
      </g>
     </g>
     <g id="line2d_27">
      <g>
       <use style="fill:#555555;stroke:#555555;stroke-width:0.5;" x="274.909090909" xlink:href="#m8bc147ca23" y="151.2"/>
      </g>
     </g>
     <g id="text_10">
      <!-- 0.06 -->
      <g style="fill:#555555;" transform="translate(47.4125 153.78515625)scale(0.1 -0.1)">
       <use xlink:href="#ArialMT-30"/>
       <use x="55.615234375" xlink:href="#ArialMT-2e"/>
       <use x="83.3984375" xlink:href="#ArialMT-30"/>
       <use x="139.013671875" xlink:href="#ArialMT-36"/>
      </g>
     </g>
    </g>
    <g id="ytick_4">
     <g id="line2d_28">
      <path clip-path="url(#p4c0c3b2f69)" d="
M72 126
L274.909 126" style="fill:none;stroke:#000000;stroke-dasharray:1.000000,3.000000;stroke-dashoffset:0.0;stroke-width:0.5;"/>
     </g>
     <g id="line2d_29">
      <g>
       <use style="fill:#555555;stroke:#555555;stroke-width:0.5;" x="72.0" xlink:href="#m8bc147ca23" y="126.0"/>
      </g>
     </g>
     <g id="line2d_30">
      <g>
       <use style="fill:#555555;stroke:#555555;stroke-width:0.5;" x="274.909090909" xlink:href="#m8bc147ca23" y="126.0"/>
      </g>
     </g>
     <g id="text_11">
      <!-- 0.08 -->
      <g style="fill:#555555;" transform="translate(47.39375 128.58515625)scale(0.1 -0.1)">
       <use xlink:href="#ArialMT-30"/>
       <use x="55.615234375" xlink:href="#ArialMT-2e"/>
       <use x="83.3984375" xlink:href="#ArialMT-30"/>
       <use x="139.013671875" xlink:href="#ArialMT-38"/>
      </g>
     </g>
    </g>
    <g id="ytick_5">
     <g id="line2d_31">
      <path clip-path="url(#p4c0c3b2f69)" d="
M72 100.8
L274.909 100.8" style="fill:none;stroke:#000000;stroke-dasharray:1.000000,3.000000;stroke-dashoffset:0.0;stroke-width:0.5;"/>
     </g>
     <g id="line2d_32">
      <g>
       <use style="fill:#555555;stroke:#555555;stroke-width:0.5;" x="72.0" xlink:href="#m8bc147ca23" y="100.8"/>
      </g>
     </g>
     <g id="line2d_33">
      <g>
       <use style="fill:#555555;stroke:#555555;stroke-width:0.5;" x="274.909090909" xlink:href="#m8bc147ca23" y="100.8"/>
      </g>
     </g>
     <g id="text_12">
      <!-- 0.10 -->
      <g style="fill:#555555;" transform="translate(47.4328125 103.38515625)scale(0.1 -0.1)">
       <use xlink:href="#ArialMT-30"/>
       <use x="55.615234375" xlink:href="#ArialMT-2e"/>
       <use x="83.3984375" xlink:href="#ArialMT-31"/>
       <use x="139.013671875" xlink:href="#ArialMT-30"/>
      </g>
     </g>
    </g>
    <g id="ytick_6">
     <g id="line2d_34">
      <path clip-path="url(#p4c0c3b2f69)" d="
M72 75.6
L274.909 75.6" style="fill:none;stroke:#000000;stroke-dasharray:1.000000,3.000000;stroke-dashoffset:0.0;stroke-width:0.5;"/>
     </g>
     <g id="line2d_35">
      <g>
       <use style="fill:#555555;stroke:#555555;stroke-width:0.5;" x="72.0" xlink:href="#m8bc147ca23" y="75.6"/>
      </g>
     </g>
     <g id="line2d_36">
      <g>
       <use style="fill:#555555;stroke:#555555;stroke-width:0.5;" x="274.909090909" xlink:href="#m8bc147ca23" y="75.6"/>
      </g>
     </g>
     <g id="text_13">
      <!-- 0.12 -->
      <g style="fill:#555555;" transform="translate(47.48125 78.18515625)scale(0.1 -0.1)">
       <use xlink:href="#ArialMT-30"/>
       <use x="55.615234375" xlink:href="#ArialMT-2e"/>
       <use x="83.3984375" xlink:href="#ArialMT-31"/>
       <use x="139.013671875" xlink:href="#ArialMT-32"/>
      </g>
     </g>
    </g>
    <g id="ytick_7">
     <g id="line2d_37">
      <path clip-path="url(#p4c0c3b2f69)" d="
M72 50.4
L274.909 50.4" style="fill:none;stroke:#000000;stroke-dasharray:1.000000,3.000000;stroke-dashoffset:0.0;stroke-width:0.5;"/>
     </g>
     <g id="line2d_38">
      <g>
       <use style="fill:#555555;stroke:#555555;stroke-width:0.5;" x="72.0" xlink:href="#m8bc147ca23" y="50.4"/>
      </g>
     </g>
     <g id="line2d_39">
      <g>
       <use style="fill:#555555;stroke:#555555;stroke-width:0.5;" x="274.909090909" xlink:href="#m8bc147ca23" y="50.4"/>
      </g>
     </g>
     <g id="text_14">
      <!-- 0.14 -->
      <g style="fill:#555555;" transform="translate(47.4375 52.98515625)scale(0.1 -0.1)">
       <use xlink:href="#ArialMT-30"/>
       <use x="55.615234375" xlink:href="#ArialMT-2e"/>
       <use x="83.3984375" xlink:href="#ArialMT-31"/>
       <use x="139.013671875" xlink:href="#ArialMT-34"/>
      </g>
     </g>
    </g>
   </g>
   <g id="line2d_40">
    <path clip-path="url(#p4c0c3b2f69)" d="
M73.6894 64.5609
L76.6376 64.7633
L79.0418 64.9351
L81.2693 65.0999
L83.3921 65.2619
L85.444 65.4233
L87.4446 65.5854
L89.4067 65.7489
L91.3395 65.9144
L93.2496 66.0825
L95.1423 66.2535
L97.0218 66.4278
L98.8915 66.6058
L100.754 66.7876
L102.613 66.9737
L104.47 67.1644
L106.326 67.3598
L108.184 67.5603
L110.046 67.7663
L111.913 67.9779
L113.786 68.1956
L115.667 68.4196
L117.558 68.6503
L119.459 68.8881
L121.372 69.1333
L123.299 69.3864
L125.241 69.6478
L127.199 69.918
L129.174 70.1974
L131.169 70.4867
L133.184 70.7863
L135.221 71.097
L137.283 71.4194
L139.37 71.7543
L141.484 72.1023
L143.629 72.4646
L145.805 72.8419
L148.015 73.2353
L150.262 73.6461
L152.549 74.0755
L154.878 74.525
L157.253 74.9961
L159.677 75.4907
L162.156 76.0108
L164.693 76.5587
L167.293 77.137
L169.964 77.7487
L172.711 78.3973
L175.542 79.0868
L178.467 79.8219
L181.497 80.6082
L184.645 81.4525
L187.927 82.363
L191.361 83.3496
L194.974 84.4252
L198.795 85.6059
L202.866 86.9132
L207.245 88.3765
L212.01 90.0374
L217.285 91.959
L223.27 94.2451
L230.345 97.0905
L239.438 100.966
L259.783 110.434" style="fill:none;stroke:#348abd;stroke-linecap:square;stroke-width:3;"/>
   </g>
   <g id="line2d_41">
    <path clip-path="url(#p4c0c3b2f69)" d="
M73.6894 164.944
L76.6376 164.952
L79.0418 164.962
L81.2693 164.972
L83.3921 164.984
L85.444 164.997
L87.4446 165.011
L89.4067 165.026
L91.3395 165.043
L93.2496 165.06
L95.1423 165.079
L97.0218 165.1
L98.8915 165.122
L100.754 165.145
L102.613 165.17
L104.47 165.197
L106.326 165.225
L108.184 165.255
L110.046 165.287
L111.913 165.321
L113.786 165.357
L115.667 165.394
L117.558 165.435
L119.459 165.477
L121.372 165.522
L123.299 165.569
L125.241 165.619
L127.199 165.672
L129.174 165.728
L131.169 165.787
L133.184 165.85
L135.221 165.916
L137.283 165.986
L139.37 166.06
L141.484 166.138
L143.629 166.222
L145.805 166.31
L148.015 166.403
L150.262 166.503
L152.549 166.608
L154.878 166.72
L157.253 166.84
L159.677 166.968
L162.156 167.104
L164.693 167.25
L167.293 167.406
L169.964 167.574
L172.711 167.755
L175.542 167.95
L178.467 168.161
L181.497 168.39
L184.645 168.639
L187.927 168.912
L191.361 169.213
L194.974 169.545
L198.795 169.915
L202.866 170.331
L207.245 170.804
L212.01 171.349
L217.285 171.99
L223.27 172.766
L230.345 173.75
L239.438 175.118
L259.783 178.57" style="fill:none;stroke:#a60628;stroke-linecap:square;stroke-width:3;"/>
   </g>
   <g id="patch_3">
    <path d="
M72 50.4
L274.909 50.4" style="fill:none;stroke:#bcbcbc;"/>
   </g>
   <g id="patch_4">
    <path d="
M274.909 201.6
L274.909 50.4" style="fill:none;stroke:#bcbcbc;"/>
   </g>
   <g id="patch_5">
    <path d="
M72 201.6
L274.909 201.6" style="fill:none;stroke:#bcbcbc;"/>
   </g>
   <g id="patch_6">
    <path d="
M72 201.6
L72 50.4" style="fill:none;stroke:#bcbcbc;"/>
   </g>
   <g id="text_15">
    <!-- External Innovation Rates -->
    <defs>
     <path d="
M7.85938 0
L7.85938 71.5781
L39.5938 71.5781
Q49.1719 71.5781 54.1406 69.6406
Q59.125 67.7188 62.1094 62.8281
Q65.0938 57.9531 65.0938 52.0469
Q65.0938 44.4375 60.1562 39.2031
Q55.2188 33.9844 44.9219 32.5625
Q48.6875 30.7656 50.6406 29
Q54.7812 25.2031 58.5 19.4844
L70.9531 0
L59.0312 0
L49.5625 14.8906
Q45.4062 21.3438 42.7188 24.75
Q40.0469 28.1719 37.9219 29.5312
Q35.7969 30.9062 33.5938 31.4531
Q31.9844 31.7812 28.3281 31.7812
L17.3281 31.7812
L17.3281 0
z

M17.3281 39.9844
L37.7031 39.9844
Q44.1875 39.9844 47.8438 41.3281
Q51.5156 42.6719 53.4219 45.625
Q55.3281 48.5781 55.3281 52.0469
Q55.3281 57.125 51.6406 60.3906
Q47.9531 63.6719 39.9844 63.6719
L17.3281 63.6719
z
" id="ArialMT-52"/>
     <path d="
M0.734375 0
L19.6719 26.9531
L2.15625 51.8594
L13.1406 51.8594
L21.0938 39.7031
Q23.3438 36.2344 24.7031 33.8906
Q26.8594 37.1094 28.6562 39.5938
L37.4062 51.8594
L47.9062 51.8594
L29.9844 27.4375
L49.2656 0
L38.4844 0
L27.8281 16.1094
L25 20.4531
L11.375 0
z
" id="ArialMT-78"/>
     <path d="
M21 0
L1.26562 51.8594
L10.5469 51.8594
L21.6875 20.7969
Q23.4844 15.7656 25 10.3594
Q26.1719 14.4531 28.2656 20.2188
L39.7969 51.8594
L48.8281 51.8594
L29.2031 0
z
" id="ArialMT-76"/>
     <path d="
M7.90625 0
L7.90625 71.5781
L59.6719 71.5781
L59.6719 63.1406
L17.3906 63.1406
L17.3906 41.2188
L56.9844 41.2188
L56.9844 32.8125
L17.3906 32.8125
L17.3906 8.45312
L61.3281 8.45312
L61.3281 0
z
" id="ArialMT-45"/>
     <path d="
M3.32812 25.9219
Q3.32812 40.3281 11.3281 47.2656
Q18.0156 53.0312 27.6406 53.0312
Q38.3281 53.0312 45.1094 46.0156
Q51.9062 39.0156 51.9062 26.6562
Q51.9062 16.6562 48.9062 10.9062
Q45.9062 5.17188 40.1562 2
Q34.4219 -1.17188 27.6406 -1.17188
Q16.75 -1.17188 10.0312 5.8125
Q3.32812 12.7969 3.32812 25.9219
M12.3594 25.9219
Q12.3594 15.9688 16.7031 11.0156
Q21.0469 6.0625 27.6406 6.0625
Q34.1875 6.0625 38.5312 11.0312
Q42.875 16.0156 42.875 26.2188
Q42.875 35.8438 38.5 40.7969
Q34.125 45.75 27.6406 45.75
Q21.0469 45.75 16.7031 40.8125
Q12.3594 35.8906 12.3594 25.9219" id="ArialMT-6f"/>
    </defs>
    <g transform="translate(91.2890454545 45.4)scale(0.144 -0.144)">
     <use xlink:href="#ArialMT-45"/>
     <use x="66.69921875" xlink:href="#ArialMT-78"/>
     <use x="116.69921875" xlink:href="#ArialMT-74"/>
     <use x="144.482421875" xlink:href="#ArialMT-65"/>
     <use x="200.09765625" xlink:href="#ArialMT-72"/>
     <use x="233.3984375" xlink:href="#ArialMT-6e"/>
     <use x="289.013671875" xlink:href="#ArialMT-61"/>
     <use x="344.62890625" xlink:href="#ArialMT-6c"/>
     <use x="366.845703125" xlink:href="#ArialMT-20"/>
     <use x="394.62890625" xlink:href="#ArialMT-49"/>
     <use x="422.412109375" xlink:href="#ArialMT-6e"/>
     <use x="478.02734375" xlink:href="#ArialMT-6e"/>
     <use x="533.642578125" xlink:href="#ArialMT-6f"/>
     <use x="589.2578125" xlink:href="#ArialMT-76"/>
     <use x="639.2578125" xlink:href="#ArialMT-61"/>
     <use x="694.873046875" xlink:href="#ArialMT-74"/>
     <use x="722.65625" xlink:href="#ArialMT-69"/>
     <use x="744.873046875" xlink:href="#ArialMT-6f"/>
     <use x="800.48828125" xlink:href="#ArialMT-6e"/>
     <use x="856.103515625" xlink:href="#ArialMT-20"/>
     <use x="883.88671875" xlink:href="#ArialMT-52"/>
     <use x="956.103515625" xlink:href="#ArialMT-61"/>
     <use x="1011.71875" xlink:href="#ArialMT-74"/>
     <use x="1039.50195312" xlink:href="#ArialMT-65"/>
     <use x="1095.1171875" xlink:href="#ArialMT-73"/>
    </g>
   </g>
   <g id="legend_1">
    <g id="patch_7">
     <path d="
M80.4 144.915
L172.121 144.915
Q174.521 144.915 174.521 142.515
L174.521 109.485
Q174.521 107.085 172.121 107.085
L80.4 107.085
Q78 107.085 78 109.485
L78 142.515
Q78 144.915 80.4 144.915
z
" style="fill:#eeeeee;stroke:#bcbcbc;stroke-width:0.5;"/>
    </g>
    <g id="line2d_42">
     <path d="
M86.4 116.274
L103.2 116.274" style="fill:none;stroke:#348abd;stroke-linecap:square;stroke-width:3;"/>
    </g>
    <g id="line2d_43"/>
    <g id="text_16">
     <!-- High Type -->
     <defs>
      <path d="
M6.59375 -19.875
L6.59375 51.8594
L14.5938 51.8594
L14.5938 45.125
Q17.4375 49.0781 21 51.0469
Q24.5625 53.0312 29.6406 53.0312
Q36.2812 53.0312 41.3594 49.6094
Q46.4375 46.1875 49.0156 39.9531
Q51.6094 33.7344 51.6094 26.3125
Q51.6094 18.3594 48.75 11.9844
Q45.9062 5.60938 40.4531 2.21875
Q35.0156 -1.17188 29 -1.17188
Q24.6094 -1.17188 21.1094 0.6875
Q17.625 2.54688 15.375 5.375
L15.375 -19.875
z

M14.5469 25.6406
Q14.5469 15.625 18.5938 10.8438
Q22.6562 6.0625 28.4219 6.0625
Q34.2812 6.0625 38.4531 11.0156
Q42.625 15.9688 42.625 26.375
Q42.625 36.2812 38.5469 41.2031
Q34.4688 46.1406 28.8125 46.1406
Q23.1875 46.1406 18.8594 40.8906
Q14.5469 35.6406 14.5469 25.6406" id="ArialMT-70"/>
      <path d="
M8.01562 0
L8.01562 71.5781
L17.4844 71.5781
L17.4844 42.1875
L54.6875 42.1875
L54.6875 71.5781
L64.1562 71.5781
L64.1562 0
L54.6875 0
L54.6875 33.7344
L17.4844 33.7344
L17.4844 0
z
" id="ArialMT-48"/>
      <path d="
M6.59375 0
L6.59375 71.5781
L15.375 71.5781
L15.375 45.9062
Q21.5312 53.0312 30.9062 53.0312
Q36.6719 53.0312 40.9219 50.75
Q45.1719 48.4844 47 44.4844
Q48.8281 40.4844 48.8281 32.8594
L48.8281 0
L40.0469 0
L40.0469 32.8594
Q40.0469 39.4531 37.1875 42.4531
Q34.3281 45.4531 29.1094 45.4531
Q25.2031 45.4531 21.75 43.4219
Q18.3125 41.4062 16.8438 37.9375
Q15.375 34.4688 15.375 28.375
L15.375 0
z
" id="ArialMT-68"/>
      <path d="
M4.98438 -4.29688
L13.5312 -5.5625
Q14.0625 -9.51562 16.5 -11.3281
Q19.7812 -13.7656 25.4375 -13.7656
Q31.5469 -13.7656 34.8594 -11.3281
Q38.1875 -8.89062 39.3594 -4.5
Q40.0469 -1.8125 39.9844 6.78125
Q34.2344 0 25.6406 0
Q14.9375 0 9.07812 7.71875
Q3.21875 15.4375 3.21875 26.2188
Q3.21875 33.6406 5.90625 39.9062
Q8.59375 46.1875 13.6875 49.6094
Q18.7969 53.0312 25.6875 53.0312
Q34.8594 53.0312 40.8281 45.6094
L40.8281 51.8594
L48.9219 51.8594
L48.9219 7.03125
Q48.9219 -5.07812 46.4531 -10.125
Q44 -15.1875 38.6406 -18.1094
Q33.2969 -21.0469 25.4844 -21.0469
Q16.2188 -21.0469 10.5 -16.875
Q4.78125 -12.7031 4.98438 -4.29688
M12.25 26.8594
Q12.25 16.6562 16.2969 11.9688
Q20.3594 7.28125 26.4688 7.28125
Q32.5156 7.28125 36.6094 11.9375
Q40.7188 16.6094 40.7188 26.5625
Q40.7188 36.0781 36.5 40.9062
Q32.2812 45.75 26.3125 45.75
Q20.4531 45.75 16.3438 40.9844
Q12.25 36.2344 12.25 26.8594" id="ArialMT-67"/>
      <path d="
M25.9219 0
L25.9219 63.1406
L2.34375 63.1406
L2.34375 71.5781
L59.0781 71.5781
L59.0781 63.1406
L35.4062 63.1406
L35.4062 0
z
" id="ArialMT-54"/>
     </defs>
     <g transform="translate(116.4 120.474375)scale(0.12 -0.12)">
      <use xlink:href="#ArialMT-48"/>
      <use x="72.216796875" xlink:href="#ArialMT-69"/>
      <use x="94.43359375" xlink:href="#ArialMT-67"/>
      <use x="150.048828125" xlink:href="#ArialMT-68"/>
      <use x="205.6640625" xlink:href="#ArialMT-20"/>
      <use x="231.697265625" xlink:href="#ArialMT-54"/>
      <use x="287.28125" xlink:href="#ArialMT-79"/>
      <use x="337.28125" xlink:href="#ArialMT-70"/>
      <use x="392.896484375" xlink:href="#ArialMT-65"/>
     </g>
    </g>
    <g id="line2d_44">
     <path d="
M86.4 133.389
L103.2 133.389" style="fill:none;stroke:#a60628;stroke-linecap:square;stroke-width:3;"/>
    </g>
    <g id="line2d_45"/>
    <g id="text_17">
     <!-- Low Type -->
     <defs>
      <path d="
M7.32812 0
L7.32812 71.5781
L16.7969 71.5781
L16.7969 8.45312
L52.0469 8.45312
L52.0469 0
z
" id="ArialMT-4c"/>
      <path d="
M16.1562 0
L0.296875 51.8594
L9.375 51.8594
L17.625 21.9219
L20.7031 10.7969
Q20.9062 11.625 23.3906 21.4844
L31.6406 51.8594
L40.6719 51.8594
L48.4375 21.7812
L51.0312 11.8594
L54 21.875
L62.8906 51.8594
L71.4375 51.8594
L55.2188 0
L46.0938 0
L37.8438 31.0625
L35.8438 39.8906
L25.3438 0
z
" id="ArialMT-77"/>
     </defs>
     <g transform="translate(116.4 137.589375)scale(0.12 -0.12)">
      <use xlink:href="#ArialMT-4c"/>
      <use x="55.615234375" xlink:href="#ArialMT-6f"/>
      <use x="111.23046875" xlink:href="#ArialMT-77"/>
      <use x="183.447265625" xlink:href="#ArialMT-20"/>
      <use x="209.48046875" xlink:href="#ArialMT-54"/>
      <use x="265.064453125" xlink:href="#ArialMT-79"/>
      <use x="315.064453125" xlink:href="#ArialMT-70"/>
      <use x="370.6796875" xlink:href="#ArialMT-65"/>
     </g>
    </g>
   </g>
  </g>
  <g id="axes_2">
   <g id="patch_8">
    <path d="
M315.491 201.6
L518.4 201.6
L518.4 50.4
L315.491 50.4
z
" style="fill:#eeeeee;"/>
   </g>
   <g id="matplotlib.axis_3">
    <g id="xtick_7">
     <g id="line2d_46">
      <path clip-path="url(#p02f879df47)" d="
M315.491 201.6
L315.491 50.4" style="fill:none;stroke:#000000;stroke-dasharray:1.000000,3.000000;stroke-dashoffset:0.0;stroke-width:0.5;"/>
     </g>
     <g id="line2d_47">
      <g>
       <use style="fill:#555555;stroke:#555555;stroke-width:0.5;" x="315.490909091" xlink:href="#m91191bb255" y="201.6"/>
      </g>
     </g>
     <g id="line2d_48">
      <g>
       <use style="fill:#555555;stroke:#555555;stroke-width:0.5;" x="315.490909091" xlink:href="#m64c3aef5f4" y="50.4"/>
      </g>
     </g>
     <g id="text_18">
      <!-- 0.0 -->
      <g style="fill:#555555;" transform="translate(308.987784091 214.7578125)scale(0.1 -0.1)">
       <use xlink:href="#ArialMT-30"/>
       <use x="55.615234375" xlink:href="#ArialMT-2e"/>
       <use x="83.3984375" xlink:href="#ArialMT-30"/>
      </g>
     </g>
    </g>
    <g id="xtick_8">
     <g id="line2d_49">
      <path clip-path="url(#p02f879df47)" d="
M356.073 201.6
L356.073 50.4" style="fill:none;stroke:#000000;stroke-dasharray:1.000000,3.000000;stroke-dashoffset:0.0;stroke-width:0.5;"/>
     </g>
     <g id="line2d_50">
      <g>
       <use style="fill:#555555;stroke:#555555;stroke-width:0.5;" x="356.072727273" xlink:href="#m91191bb255" y="201.6"/>
      </g>
     </g>
     <g id="line2d_51">
      <g>
       <use style="fill:#555555;stroke:#555555;stroke-width:0.5;" x="356.072727273" xlink:href="#m64c3aef5f4" y="50.4"/>
      </g>
     </g>
     <g id="text_19">
      <!-- 0.2 -->
      <g style="fill:#555555;" transform="translate(349.593821023 214.7578125)scale(0.1 -0.1)">
       <use xlink:href="#ArialMT-30"/>
       <use x="55.615234375" xlink:href="#ArialMT-2e"/>
       <use x="83.3984375" xlink:href="#ArialMT-32"/>
      </g>
     </g>
    </g>
    <g id="xtick_9">
     <g id="line2d_52">
      <path clip-path="url(#p02f879df47)" d="
M396.655 201.6
L396.655 50.4" style="fill:none;stroke:#000000;stroke-dasharray:1.000000,3.000000;stroke-dashoffset:0.0;stroke-width:0.5;"/>
     </g>
     <g id="line2d_53">
      <g>
       <use style="fill:#555555;stroke:#555555;stroke-width:0.5;" x="396.654545455" xlink:href="#m91191bb255" y="201.6"/>
      </g>
     </g>
     <g id="line2d_54">
      <g>
       <use style="fill:#555555;stroke:#555555;stroke-width:0.5;" x="396.654545455" xlink:href="#m64c3aef5f4" y="50.4"/>
      </g>
     </g>
     <g id="text_20">
      <!-- 0.4 -->
      <g style="fill:#555555;" transform="translate(390.153764205 214.7578125)scale(0.1 -0.1)">
       <use xlink:href="#ArialMT-30"/>
       <use x="55.615234375" xlink:href="#ArialMT-2e"/>
       <use x="83.3984375" xlink:href="#ArialMT-34"/>
      </g>
     </g>
    </g>
    <g id="xtick_10">
     <g id="line2d_55">
      <path clip-path="url(#p02f879df47)" d="
M437.236 201.6
L437.236 50.4" style="fill:none;stroke:#000000;stroke-dasharray:1.000000,3.000000;stroke-dashoffset:0.0;stroke-width:0.5;"/>
     </g>
     <g id="line2d_56">
      <g>
       <use style="fill:#555555;stroke:#555555;stroke-width:0.5;" x="437.236363636" xlink:href="#m91191bb255" y="201.6"/>
      </g>
     </g>
     <g id="line2d_57">
      <g>
       <use style="fill:#555555;stroke:#555555;stroke-width:0.5;" x="437.236363636" xlink:href="#m64c3aef5f4" y="50.4"/>
      </g>
     </g>
     <g id="text_21">
      <!-- 0.6 -->
      <g style="fill:#555555;" transform="translate(430.723082386 214.7578125)scale(0.1 -0.1)">
       <use xlink:href="#ArialMT-30"/>
       <use x="55.615234375" xlink:href="#ArialMT-2e"/>
       <use x="83.3984375" xlink:href="#ArialMT-36"/>
      </g>
     </g>
    </g>
    <g id="xtick_11">
     <g id="line2d_58">
      <path clip-path="url(#p02f879df47)" d="
M477.818 201.6
L477.818 50.4" style="fill:none;stroke:#000000;stroke-dasharray:1.000000,3.000000;stroke-dashoffset:0.0;stroke-width:0.5;"/>
     </g>
     <g id="line2d_59">
      <g>
       <use style="fill:#555555;stroke:#555555;stroke-width:0.5;" x="477.818181818" xlink:href="#m91191bb255" y="201.6"/>
      </g>
     </g>
     <g id="line2d_60">
      <g>
       <use style="fill:#555555;stroke:#555555;stroke-width:0.5;" x="477.818181818" xlink:href="#m64c3aef5f4" y="50.4"/>
      </g>
     </g>
     <g id="text_22">
      <!-- 0.8 -->
      <g style="fill:#555555;" transform="translate(471.295525568 214.7578125)scale(0.1 -0.1)">
       <use xlink:href="#ArialMT-30"/>
       <use x="55.615234375" xlink:href="#ArialMT-2e"/>
       <use x="83.3984375" xlink:href="#ArialMT-38"/>
      </g>
     </g>
    </g>
    <g id="xtick_12">
     <g id="line2d_61">
      <path clip-path="url(#p02f879df47)" d="
M518.4 201.6
L518.4 50.4" style="fill:none;stroke:#000000;stroke-dasharray:1.000000,3.000000;stroke-dashoffset:0.0;stroke-width:0.5;"/>
     </g>
     <g id="line2d_62">
      <g>
       <use style="fill:#555555;stroke:#555555;stroke-width:0.5;" x="518.4" xlink:href="#m91191bb255" y="201.6"/>
      </g>
     </g>
     <g id="line2d_63">
      <g>
       <use style="fill:#555555;stroke:#555555;stroke-width:0.5;" x="518.4" xlink:href="#m64c3aef5f4" y="50.4"/>
      </g>
     </g>
     <g id="text_23">
      <!-- 1.0 -->
      <g style="fill:#555555;" transform="translate(512.23359375 214.7578125)scale(0.1 -0.1)">
       <use xlink:href="#ArialMT-31"/>
       <use x="55.615234375" xlink:href="#ArialMT-2e"/>
       <use x="83.3984375" xlink:href="#ArialMT-30"/>
      </g>
     </g>
    </g>
    <g id="text_24">
     <!-- Industry Sequentiality -->
     <g style="fill:#555555;" transform="translate(359.635142045 230.4809375)scale(0.12 -0.12)">
      <use xlink:href="#ArialMT-49"/>
      <use x="27.783203125" xlink:href="#ArialMT-6e"/>
      <use x="83.3984375" xlink:href="#ArialMT-64"/>
      <use x="139.013671875" xlink:href="#ArialMT-75"/>
      <use x="194.62890625" xlink:href="#ArialMT-73"/>
      <use x="244.62890625" xlink:href="#ArialMT-74"/>
      <use x="272.412109375" xlink:href="#ArialMT-72"/>
      <use x="305.712890625" xlink:href="#ArialMT-79"/>
      <use x="355.712890625" xlink:href="#ArialMT-20"/>
      <use x="383.49609375" xlink:href="#ArialMT-53"/>
      <use x="450.1953125" xlink:href="#ArialMT-65"/>
      <use x="505.810546875" xlink:href="#ArialMT-71"/>
      <use x="561.42578125" xlink:href="#ArialMT-75"/>
      <use x="617.041015625" xlink:href="#ArialMT-65"/>
      <use x="672.65625" xlink:href="#ArialMT-6e"/>
      <use x="728.271484375" xlink:href="#ArialMT-74"/>
      <use x="756.0546875" xlink:href="#ArialMT-69"/>
      <use x="778.271484375" xlink:href="#ArialMT-61"/>
      <use x="833.88671875" xlink:href="#ArialMT-6c"/>
      <use x="856.103515625" xlink:href="#ArialMT-69"/>
      <use x="878.3203125" xlink:href="#ArialMT-74"/>
      <use x="906.103515625" xlink:href="#ArialMT-79"/>
     </g>
    </g>
   </g>
   <g id="matplotlib.axis_4">
    <g id="ytick_8">
     <g id="line2d_64">
      <path clip-path="url(#p02f879df47)" d="
M315.491 201.6
L518.4 201.6" style="fill:none;stroke:#000000;stroke-dasharray:1.000000,3.000000;stroke-dashoffset:0.0;stroke-width:0.5;"/>
     </g>
     <g id="line2d_65">
      <g>
       <use style="fill:#555555;stroke:#555555;stroke-width:0.5;" x="315.490909091" xlink:href="#m8bc147ca23" y="201.6"/>
      </g>
     </g>
     <g id="line2d_66">
      <g>
       <use style="fill:#555555;stroke:#555555;stroke-width:0.5;" x="518.4" xlink:href="#m8bc147ca23" y="201.6"/>
      </g>
     </g>
     <g id="text_25">
      <!-- 0.020 -->
      <g style="fill:#555555;" transform="translate(285.362784091 204.18515625)scale(0.1 -0.1)">
       <use xlink:href="#ArialMT-30"/>
       <use x="55.615234375" xlink:href="#ArialMT-2e"/>
       <use x="83.3984375" xlink:href="#ArialMT-30"/>
       <use x="139.013671875" xlink:href="#ArialMT-32"/>
       <use x="194.62890625" xlink:href="#ArialMT-30"/>
      </g>
     </g>
    </g>
    <g id="ytick_9">
     <g id="line2d_67">
      <path clip-path="url(#p02f879df47)" d="
M315.491 171.36
L518.4 171.36" style="fill:none;stroke:#000000;stroke-dasharray:1.000000,3.000000;stroke-dashoffset:0.0;stroke-width:0.5;"/>
     </g>
     <g id="line2d_68">
      <g>
       <use style="fill:#555555;stroke:#555555;stroke-width:0.5;" x="315.490909091" xlink:href="#m8bc147ca23" y="171.36"/>
      </g>
     </g>
     <g id="line2d_69">
      <g>
       <use style="fill:#555555;stroke:#555555;stroke-width:0.5;" x="518.4" xlink:href="#m8bc147ca23" y="171.36"/>
      </g>
     </g>
     <g id="text_26">
      <!-- 0.025 -->
      <defs>
       <path d="
M4.15625 18.75
L13.375 19.5312
Q14.4062 12.7969 18.1406 9.39062
Q21.875 6 27.1562 6
Q33.5 6 37.8906 10.7812
Q42.2812 15.5781 42.2812 23.4844
Q42.2812 31 38.0625 35.3438
Q33.8438 39.7031 27 39.7031
Q22.75 39.7031 19.3281 37.7656
Q15.9219 35.8438 13.9688 32.7656
L5.71875 33.8438
L12.6406 70.6094
L48.25 70.6094
L48.25 62.2031
L19.6719 62.2031
L15.8281 42.9688
Q22.2656 47.4688 29.3438 47.4688
Q38.7188 47.4688 45.1562 40.9688
Q51.6094 34.4688 51.6094 24.2656
Q51.6094 14.5469 45.9531 7.46875
Q39.0625 -1.21875 27.1562 -1.21875
Q17.3906 -1.21875 11.2031 4.25
Q5.03125 9.71875 4.15625 18.75" id="ArialMT-35"/>
      </defs>
      <g style="fill:#555555;" transform="translate(285.284659091 173.94515625)scale(0.1 -0.1)">
       <use xlink:href="#ArialMT-30"/>
       <use x="55.615234375" xlink:href="#ArialMT-2e"/>
       <use x="83.3984375" xlink:href="#ArialMT-30"/>
       <use x="139.013671875" xlink:href="#ArialMT-32"/>
       <use x="194.62890625" xlink:href="#ArialMT-35"/>
      </g>
     </g>
    </g>
    <g id="ytick_10">
     <g id="line2d_70">
      <path clip-path="url(#p02f879df47)" d="
M315.491 141.12
L518.4 141.12" style="fill:none;stroke:#000000;stroke-dasharray:1.000000,3.000000;stroke-dashoffset:0.0;stroke-width:0.5;"/>
     </g>
     <g id="line2d_71">
      <g>
       <use style="fill:#555555;stroke:#555555;stroke-width:0.5;" x="315.490909091" xlink:href="#m8bc147ca23" y="141.12"/>
      </g>
     </g>
     <g id="line2d_72">
      <g>
       <use style="fill:#555555;stroke:#555555;stroke-width:0.5;" x="518.4" xlink:href="#m8bc147ca23" y="141.12"/>
      </g>
     </g>
     <g id="text_27">
      <!-- 0.030 -->
      <defs>
       <path d="
M4.20312 18.8906
L12.9844 20.0625
Q14.5 12.5938 18.1406 9.29688
Q21.7812 6 27 6
Q33.2031 6 37.4688 10.2969
Q41.75 14.5938 41.75 20.9531
Q41.75 27 37.7969 30.9219
Q33.8438 34.8594 27.7344 34.8594
Q25.25 34.8594 21.5312 33.8906
L22.5156 41.6094
Q23.3906 41.5 23.9219 41.5
Q29.5469 41.5 34.0312 44.4219
Q38.5312 47.3594 38.5312 53.4688
Q38.5312 58.2969 35.25 61.4688
Q31.9844 64.6562 26.8125 64.6562
Q21.6875 64.6562 18.2656 61.4219
Q14.8438 58.2031 13.875 51.7656
L5.07812 53.3281
Q6.6875 62.1562 12.3906 67.0156
Q18.1094 71.875 26.6094 71.875
Q32.4688 71.875 37.3906 69.3594
Q42.3281 66.8438 44.9375 62.5
Q47.5625 58.1562 47.5625 53.2656
Q47.5625 48.6406 45.0625 44.8281
Q42.5781 41.0156 37.7031 38.7656
Q44.0469 37.3125 47.5625 32.6875
Q51.0781 28.0781 51.0781 21.1406
Q51.0781 11.7656 44.2344 5.25
Q37.4062 -1.26562 26.9531 -1.26562
Q17.5312 -1.26562 11.2969 4.34375
Q5.07812 9.96875 4.20312 18.8906" id="ArialMT-33"/>
      </defs>
      <g style="fill:#555555;" transform="translate(285.362784091 143.70515625)scale(0.1 -0.1)">
       <use xlink:href="#ArialMT-30"/>
       <use x="55.615234375" xlink:href="#ArialMT-2e"/>
       <use x="83.3984375" xlink:href="#ArialMT-30"/>
       <use x="139.013671875" xlink:href="#ArialMT-33"/>
       <use x="194.62890625" xlink:href="#ArialMT-30"/>
      </g>
     </g>
    </g>
    <g id="ytick_11">
     <g id="line2d_73">
      <path clip-path="url(#p02f879df47)" d="
M315.491 110.88
L518.4 110.88" style="fill:none;stroke:#000000;stroke-dasharray:1.000000,3.000000;stroke-dashoffset:0.0;stroke-width:0.5;"/>
     </g>
     <g id="line2d_74">
      <g>
       <use style="fill:#555555;stroke:#555555;stroke-width:0.5;" x="315.490909091" xlink:href="#m8bc147ca23" y="110.88"/>
      </g>
     </g>
     <g id="line2d_75">
      <g>
       <use style="fill:#555555;stroke:#555555;stroke-width:0.5;" x="518.4" xlink:href="#m8bc147ca23" y="110.88"/>
      </g>
     </g>
     <g id="text_28">
      <!-- 0.035 -->
      <g style="fill:#555555;" transform="translate(285.284659091 113.46515625)scale(0.1 -0.1)">
       <use xlink:href="#ArialMT-30"/>
       <use x="55.615234375" xlink:href="#ArialMT-2e"/>
       <use x="83.3984375" xlink:href="#ArialMT-30"/>
       <use x="139.013671875" xlink:href="#ArialMT-33"/>
       <use x="194.62890625" xlink:href="#ArialMT-35"/>
      </g>
     </g>
    </g>
    <g id="ytick_12">
     <g id="line2d_76">
      <path clip-path="url(#p02f879df47)" d="
M315.491 80.64
L518.4 80.64" style="fill:none;stroke:#000000;stroke-dasharray:1.000000,3.000000;stroke-dashoffset:0.0;stroke-width:0.5;"/>
     </g>
     <g id="line2d_77">
      <g>
       <use style="fill:#555555;stroke:#555555;stroke-width:0.5;" x="315.490909091" xlink:href="#m8bc147ca23" y="80.64"/>
      </g>
     </g>
     <g id="line2d_78">
      <g>
       <use style="fill:#555555;stroke:#555555;stroke-width:0.5;" x="518.4" xlink:href="#m8bc147ca23" y="80.64"/>
      </g>
     </g>
     <g id="text_29">
      <!-- 0.040 -->
      <g style="fill:#555555;" transform="translate(285.362784091 83.22515625)scale(0.1 -0.1)">
       <use xlink:href="#ArialMT-30"/>
       <use x="55.615234375" xlink:href="#ArialMT-2e"/>
       <use x="83.3984375" xlink:href="#ArialMT-30"/>
       <use x="139.013671875" xlink:href="#ArialMT-34"/>
       <use x="194.62890625" xlink:href="#ArialMT-30"/>
      </g>
     </g>
    </g>
    <g id="ytick_13">
     <g id="line2d_79">
      <path clip-path="url(#p02f879df47)" d="
M315.491 50.4
L518.4 50.4" style="fill:none;stroke:#000000;stroke-dasharray:1.000000,3.000000;stroke-dashoffset:0.0;stroke-width:0.5;"/>
     </g>
     <g id="line2d_80">
      <g>
       <use style="fill:#555555;stroke:#555555;stroke-width:0.5;" x="315.490909091" xlink:href="#m8bc147ca23" y="50.4"/>
      </g>
     </g>
     <g id="line2d_81">
      <g>
       <use style="fill:#555555;stroke:#555555;stroke-width:0.5;" x="518.4" xlink:href="#m8bc147ca23" y="50.4"/>
      </g>
     </g>
     <g id="text_30">
      <!-- 0.045 -->
      <g style="fill:#555555;" transform="translate(285.284659091 52.98515625)scale(0.1 -0.1)">
       <use xlink:href="#ArialMT-30"/>
       <use x="55.615234375" xlink:href="#ArialMT-2e"/>
       <use x="83.3984375" xlink:href="#ArialMT-30"/>
       <use x="139.013671875" xlink:href="#ArialMT-34"/>
       <use x="194.62890625" xlink:href="#ArialMT-35"/>
      </g>
     </g>
    </g>
   </g>
   <g id="line2d_82">
    <path clip-path="url(#p02f879df47)" d="
M317.18 180.866
L320.129 179.685
L322.533 178.708
L324.76 177.793
L326.883 176.912
L328.935 176.05
L330.935 175.202
L332.898 174.362
L334.83 173.527
L336.741 172.693
L338.633 171.859
L340.513 171.023
L342.382 170.183
L344.245 169.339
L346.104 168.49
L347.961 167.633
L349.817 166.768
L351.675 165.895
L353.537 165.012
L355.404 164.119
L357.277 163.215
L359.158 162.298
L361.049 161.369
L362.95 160.426
L364.863 159.468
L366.79 158.495
L368.732 157.505
L370.689 156.498
L372.665 155.473
L374.659 154.428
L376.675 153.363
L378.712 152.277
L380.773 151.167
L382.861 150.034
L384.975 148.875
L387.12 147.689
L389.296 146.474
L391.506 145.229
L393.753 143.952
L396.04 142.641
L398.369 141.293
L400.744 139.906
L403.168 138.478
L405.647 137.004
L408.184 135.483
L410.784 133.91
L413.455 132.28
L416.202 130.59
L419.033 128.833
L421.958 127.004
L424.988 125.094
L428.136 123.095
L431.418 120.997
L434.852 118.787
L438.465 116.45
L442.286 113.965
L446.357 111.308
L450.736 108.445
L455.501 105.328
L460.776 101.888
L466.761 98.0119
L473.836 93.4913
L482.929 87.8303
L503.274 76.1092" style="fill:none;stroke:#348abd;stroke-linecap:square;stroke-width:3;"/>
   </g>
   <g id="line2d_83">
    <path clip-path="url(#p02f879df47)" d="
M317.18 182.889
L320.129 182.255
L322.533 181.732
L324.76 181.242
L326.883 180.77
L328.935 180.31
L330.935 179.858
L332.898 179.41
L334.83 178.964
L336.741 178.521
L338.633 178.077
L340.513 177.632
L342.382 177.186
L344.245 176.738
L346.104 176.287
L347.961 175.833
L349.817 175.375
L351.675 174.912
L353.537 174.445
L355.404 173.972
L357.277 173.493
L359.158 173.009
L361.049 172.517
L362.95 172.019
L364.863 171.513
L366.79 170.998
L368.732 170.475
L370.689 169.943
L372.665 169.402
L374.659 168.85
L376.675 168.287
L378.712 167.713
L380.773 167.127
L382.861 166.527
L384.975 165.914
L387.12 165.287
L389.296 164.644
L391.506 163.984
L393.753 163.307
L396.04 162.611
L398.369 161.895
L400.744 161.158
L403.168 160.397
L405.647 159.611
L408.184 158.799
L410.784 157.957
L413.455 157.084
L416.202 156.176
L419.033 155.23
L421.958 154.242
L424.988 153.208
L428.136 152.121
L431.418 150.976
L434.852 149.765
L438.465 148.478
L442.286 147.101
L446.357 145.619
L450.736 144.01
L455.501 142.242
L460.776 140.269
L466.761 138.016
L473.836 135.341
L482.929 131.908
L503.274 124.403" style="fill:none;stroke:#a60628;stroke-linecap:square;stroke-width:3;"/>
   </g>
   <g id="patch_9">
    <path d="
M315.491 50.4
L518.4 50.4" style="fill:none;stroke:#bcbcbc;"/>
   </g>
   <g id="patch_10">
    <path d="
M518.4 201.6
L518.4 50.4" style="fill:none;stroke:#bcbcbc;"/>
   </g>
   <g id="patch_11">
    <path d="
M315.491 201.6
L518.4 201.6" style="fill:none;stroke:#bcbcbc;"/>
   </g>
   <g id="patch_12">
    <path d="
M315.491 201.6
L315.491 50.4" style="fill:none;stroke:#bcbcbc;"/>
   </g>
   <g id="text_31">
    <!-- Internal Innovation Rates -->
    <g transform="translate(337.178454545 45.4)scale(0.144 -0.144)">
     <use xlink:href="#ArialMT-49"/>
     <use x="27.783203125" xlink:href="#ArialMT-6e"/>
     <use x="83.3984375" xlink:href="#ArialMT-74"/>
     <use x="111.181640625" xlink:href="#ArialMT-65"/>
     <use x="166.796875" xlink:href="#ArialMT-72"/>
     <use x="200.09765625" xlink:href="#ArialMT-6e"/>
     <use x="255.712890625" xlink:href="#ArialMT-61"/>
     <use x="311.328125" xlink:href="#ArialMT-6c"/>
     <use x="333.544921875" xlink:href="#ArialMT-20"/>
     <use x="361.328125" xlink:href="#ArialMT-49"/>
     <use x="389.111328125" xlink:href="#ArialMT-6e"/>
     <use x="444.7265625" xlink:href="#ArialMT-6e"/>
     <use x="500.341796875" xlink:href="#ArialMT-6f"/>
     <use x="555.95703125" xlink:href="#ArialMT-76"/>
     <use x="605.95703125" xlink:href="#ArialMT-61"/>
     <use x="661.572265625" xlink:href="#ArialMT-74"/>
     <use x="689.35546875" xlink:href="#ArialMT-69"/>
     <use x="711.572265625" xlink:href="#ArialMT-6f"/>
     <use x="767.1875" xlink:href="#ArialMT-6e"/>
     <use x="822.802734375" xlink:href="#ArialMT-20"/>
     <use x="850.5859375" xlink:href="#ArialMT-52"/>
     <use x="922.802734375" xlink:href="#ArialMT-61"/>
     <use x="978.41796875" xlink:href="#ArialMT-74"/>
     <use x="1006.20117188" xlink:href="#ArialMT-65"/>
     <use x="1061.81640625" xlink:href="#ArialMT-73"/>
    </g>
   </g>
   <g id="legend_2">
    <g id="patch_13">
     <path d="
M323.891 93.9488
L415.175 93.9488
Q417.575 93.9488 417.575 91.5488
L417.575 58.8
Q417.575 56.4 415.175 56.4
L323.891 56.4
Q321.491 56.4 321.491 58.8
L321.491 91.5488
Q321.491 93.9488 323.891 93.9488
z
" style="fill:#eeeeee;stroke:#bcbcbc;stroke-width:0.5;"/>
    </g>
    <g id="line2d_84">
     <path d="
M329.891 65.5894
L346.691 65.5894" style="fill:none;stroke:#348abd;stroke-linecap:square;stroke-width:3;"/>
    </g>
    <g id="line2d_85"/>
    <g id="text_32">
     <!-- Expired -->
     <g transform="translate(359.890909091 69.789375)scale(0.12 -0.12)">
      <use xlink:href="#ArialMT-45"/>
      <use x="66.69921875" xlink:href="#ArialMT-78"/>
      <use x="116.69921875" xlink:href="#ArialMT-70"/>
      <use x="172.314453125" xlink:href="#ArialMT-69"/>
      <use x="194.53125" xlink:href="#ArialMT-72"/>
      <use x="227.83203125" xlink:href="#ArialMT-65"/>
      <use x="283.447265625" xlink:href="#ArialMT-64"/>
     </g>
    </g>
    <g id="line2d_86">
     <path d="
M329.891 82.5638
L346.691 82.5638" style="fill:none;stroke:#a60628;stroke-linecap:square;stroke-width:3;"/>
    </g>
    <g id="line2d_87"/>
    <g id="text_33">
     <!-- Unexpired -->
     <defs>
      <path d="
M54.6875 71.5781
L64.1562 71.5781
L64.1562 30.2188
Q64.1562 19.4375 61.7188 13.0781
Q59.2812 6.73438 52.9062 2.75
Q46.5312 -1.21875 36.1875 -1.21875
Q26.125 -1.21875 19.7188 2.25
Q13.3281 5.71875 10.5938 12.2812
Q7.85938 18.8438 7.85938 30.2188
L7.85938 71.5781
L17.3281 71.5781
L17.3281 30.2812
Q17.3281 20.9531 19.0625 16.5312
Q20.7969 12.1094 25.0156 9.71875
Q29.25 7.32812 35.3594 7.32812
Q45.7969 7.32812 50.2344 12.0625
Q54.6875 16.7969 54.6875 30.2812
z
" id="ArialMT-55"/>
     </defs>
     <g transform="translate(359.890909091 86.76375)scale(0.12 -0.12)">
      <use xlink:href="#ArialMT-55"/>
      <use x="72.216796875" xlink:href="#ArialMT-6e"/>
      <use x="127.83203125" xlink:href="#ArialMT-65"/>
      <use x="183.447265625" xlink:href="#ArialMT-78"/>
      <use x="233.447265625" xlink:href="#ArialMT-70"/>
      <use x="289.0625" xlink:href="#ArialMT-69"/>
      <use x="311.279296875" xlink:href="#ArialMT-72"/>
      <use x="344.580078125" xlink:href="#ArialMT-65"/>
      <use x="400.1953125" xlink:href="#ArialMT-64"/>
     </g>
    </g>
   </g>
  </g>
  <g id="axes_3">
   <g id="patch_14">
    <path d="
M72 428.4
L274.909 428.4
L274.909 277.2
L72 277.2
z
" style="fill:#eeeeee;"/>
   </g>
   <g id="matplotlib.axis_5">
    <g id="xtick_13">
     <g id="line2d_88">
      <path clip-path="url(#pe8cac2a829)" d="
M72 428.4
L72 277.2" style="fill:none;stroke:#000000;stroke-dasharray:1.000000,3.000000;stroke-dashoffset:0.0;stroke-width:0.5;"/>
     </g>
     <g id="line2d_89">
      <g>
       <use style="fill:#555555;stroke:#555555;stroke-width:0.5;" x="72.0" xlink:href="#m91191bb255" y="428.4"/>
      </g>
     </g>
     <g id="line2d_90">
      <g>
       <use style="fill:#555555;stroke:#555555;stroke-width:0.5;" x="72.0" xlink:href="#m64c3aef5f4" y="277.2"/>
      </g>
     </g>
     <g id="text_34">
      <!-- 0.0 -->
      <g style="fill:#555555;" transform="translate(65.496875 441.5578125)scale(0.1 -0.1)">
       <use xlink:href="#ArialMT-30"/>
       <use x="55.615234375" xlink:href="#ArialMT-2e"/>
       <use x="83.3984375" xlink:href="#ArialMT-30"/>
      </g>
     </g>
    </g>
    <g id="xtick_14">
     <g id="line2d_91">
      <path clip-path="url(#pe8cac2a829)" d="
M112.582 428.4
L112.582 277.2" style="fill:none;stroke:#000000;stroke-dasharray:1.000000,3.000000;stroke-dashoffset:0.0;stroke-width:0.5;"/>
     </g>
     <g id="line2d_92">
      <g>
       <use style="fill:#555555;stroke:#555555;stroke-width:0.5;" x="112.581818182" xlink:href="#m91191bb255" y="428.4"/>
      </g>
     </g>
     <g id="line2d_93">
      <g>
       <use style="fill:#555555;stroke:#555555;stroke-width:0.5;" x="112.581818182" xlink:href="#m64c3aef5f4" y="277.2"/>
      </g>
     </g>
     <g id="text_35">
      <!-- 0.2 -->
      <g style="fill:#555555;" transform="translate(106.102911932 441.5578125)scale(0.1 -0.1)">
       <use xlink:href="#ArialMT-30"/>
       <use x="55.615234375" xlink:href="#ArialMT-2e"/>
       <use x="83.3984375" xlink:href="#ArialMT-32"/>
      </g>
     </g>
    </g>
    <g id="xtick_15">
     <g id="line2d_94">
      <path clip-path="url(#pe8cac2a829)" d="
M153.164 428.4
L153.164 277.2" style="fill:none;stroke:#000000;stroke-dasharray:1.000000,3.000000;stroke-dashoffset:0.0;stroke-width:0.5;"/>
     </g>
     <g id="line2d_95">
      <g>
       <use style="fill:#555555;stroke:#555555;stroke-width:0.5;" x="153.163636364" xlink:href="#m91191bb255" y="428.4"/>
      </g>
     </g>
     <g id="line2d_96">
      <g>
       <use style="fill:#555555;stroke:#555555;stroke-width:0.5;" x="153.163636364" xlink:href="#m64c3aef5f4" y="277.2"/>
      </g>
     </g>
     <g id="text_36">
      <!-- 0.4 -->
      <g style="fill:#555555;" transform="translate(146.662855114 441.5578125)scale(0.1 -0.1)">
       <use xlink:href="#ArialMT-30"/>
       <use x="55.615234375" xlink:href="#ArialMT-2e"/>
       <use x="83.3984375" xlink:href="#ArialMT-34"/>
      </g>
     </g>
    </g>
    <g id="xtick_16">
     <g id="line2d_97">
      <path clip-path="url(#pe8cac2a829)" d="
M193.745 428.4
L193.745 277.2" style="fill:none;stroke:#000000;stroke-dasharray:1.000000,3.000000;stroke-dashoffset:0.0;stroke-width:0.5;"/>
     </g>
     <g id="line2d_98">
      <g>
       <use style="fill:#555555;stroke:#555555;stroke-width:0.5;" x="193.745454545" xlink:href="#m91191bb255" y="428.4"/>
      </g>
     </g>
     <g id="line2d_99">
      <g>
       <use style="fill:#555555;stroke:#555555;stroke-width:0.5;" x="193.745454545" xlink:href="#m64c3aef5f4" y="277.2"/>
      </g>
     </g>
     <g id="text_37">
      <!-- 0.6 -->
      <g style="fill:#555555;" transform="translate(187.232173295 441.5578125)scale(0.1 -0.1)">
       <use xlink:href="#ArialMT-30"/>
       <use x="55.615234375" xlink:href="#ArialMT-2e"/>
       <use x="83.3984375" xlink:href="#ArialMT-36"/>
      </g>
     </g>
    </g>
    <g id="xtick_17">
     <g id="line2d_100">
      <path clip-path="url(#pe8cac2a829)" d="
M234.327 428.4
L234.327 277.2" style="fill:none;stroke:#000000;stroke-dasharray:1.000000,3.000000;stroke-dashoffset:0.0;stroke-width:0.5;"/>
     </g>
     <g id="line2d_101">
      <g>
       <use style="fill:#555555;stroke:#555555;stroke-width:0.5;" x="234.327272727" xlink:href="#m91191bb255" y="428.4"/>
      </g>
     </g>
     <g id="line2d_102">
      <g>
       <use style="fill:#555555;stroke:#555555;stroke-width:0.5;" x="234.327272727" xlink:href="#m64c3aef5f4" y="277.2"/>
      </g>
     </g>
     <g id="text_38">
      <!-- 0.8 -->
      <g style="fill:#555555;" transform="translate(227.804616477 441.5578125)scale(0.1 -0.1)">
       <use xlink:href="#ArialMT-30"/>
       <use x="55.615234375" xlink:href="#ArialMT-2e"/>
       <use x="83.3984375" xlink:href="#ArialMT-38"/>
      </g>
     </g>
    </g>
    <g id="xtick_18">
     <g id="line2d_103">
      <path clip-path="url(#pe8cac2a829)" d="
M274.909 428.4
L274.909 277.2" style="fill:none;stroke:#000000;stroke-dasharray:1.000000,3.000000;stroke-dashoffset:0.0;stroke-width:0.5;"/>
     </g>
     <g id="line2d_104">
      <g>
       <use style="fill:#555555;stroke:#555555;stroke-width:0.5;" x="274.909090909" xlink:href="#m91191bb255" y="428.4"/>
      </g>
     </g>
     <g id="line2d_105">
      <g>
       <use style="fill:#555555;stroke:#555555;stroke-width:0.5;" x="274.909090909" xlink:href="#m64c3aef5f4" y="277.2"/>
      </g>
     </g>
     <g id="text_39">
      <!-- 1.0 -->
      <g style="fill:#555555;" transform="translate(268.742684659 441.5578125)scale(0.1 -0.1)">
       <use xlink:href="#ArialMT-31"/>
       <use x="55.615234375" xlink:href="#ArialMT-2e"/>
       <use x="83.3984375" xlink:href="#ArialMT-30"/>
      </g>
     </g>
    </g>
    <g id="text_40">
     <!-- Industry Sequentiality -->
     <g style="fill:#555555;" transform="translate(116.144232955 457.2809375)scale(0.12 -0.12)">
      <use xlink:href="#ArialMT-49"/>
      <use x="27.783203125" xlink:href="#ArialMT-6e"/>
      <use x="83.3984375" xlink:href="#ArialMT-64"/>
      <use x="139.013671875" xlink:href="#ArialMT-75"/>
      <use x="194.62890625" xlink:href="#ArialMT-73"/>
      <use x="244.62890625" xlink:href="#ArialMT-74"/>
      <use x="272.412109375" xlink:href="#ArialMT-72"/>
      <use x="305.712890625" xlink:href="#ArialMT-79"/>
      <use x="355.712890625" xlink:href="#ArialMT-20"/>
      <use x="383.49609375" xlink:href="#ArialMT-53"/>
      <use x="450.1953125" xlink:href="#ArialMT-65"/>
      <use x="505.810546875" xlink:href="#ArialMT-71"/>
      <use x="561.42578125" xlink:href="#ArialMT-75"/>
      <use x="617.041015625" xlink:href="#ArialMT-65"/>
      <use x="672.65625" xlink:href="#ArialMT-6e"/>
      <use x="728.271484375" xlink:href="#ArialMT-74"/>
      <use x="756.0546875" xlink:href="#ArialMT-69"/>
      <use x="778.271484375" xlink:href="#ArialMT-61"/>
      <use x="833.88671875" xlink:href="#ArialMT-6c"/>
      <use x="856.103515625" xlink:href="#ArialMT-69"/>
      <use x="878.3203125" xlink:href="#ArialMT-74"/>
      <use x="906.103515625" xlink:href="#ArialMT-79"/>
     </g>
    </g>
   </g>
   <g id="matplotlib.axis_6">
    <g id="ytick_14">
     <g id="line2d_106">
      <path clip-path="url(#pe8cac2a829)" d="
M72 428.4
L274.909 428.4" style="fill:none;stroke:#000000;stroke-dasharray:1.000000,3.000000;stroke-dashoffset:0.0;stroke-width:0.5;"/>
     </g>
     <g id="line2d_107">
      <g>
       <use style="fill:#555555;stroke:#555555;stroke-width:0.5;" x="72.0" xlink:href="#m8bc147ca23" y="428.4"/>
      </g>
     </g>
     <g id="line2d_108">
      <g>
       <use style="fill:#555555;stroke:#555555;stroke-width:0.5;" x="274.909090909" xlink:href="#m8bc147ca23" y="428.4"/>
      </g>
     </g>
     <g id="text_41">
      <!-- 0.13 -->
      <g style="fill:#555555;" transform="translate(47.4078125 430.98515625)scale(0.1 -0.1)">
       <use xlink:href="#ArialMT-30"/>
       <use x="55.615234375" xlink:href="#ArialMT-2e"/>
       <use x="83.3984375" xlink:href="#ArialMT-31"/>
       <use x="139.013671875" xlink:href="#ArialMT-33"/>
      </g>
     </g>
    </g>
    <g id="ytick_15">
     <g id="line2d_109">
      <path clip-path="url(#pe8cac2a829)" d="
M72 398.16
L274.909 398.16" style="fill:none;stroke:#000000;stroke-dasharray:1.000000,3.000000;stroke-dashoffset:0.0;stroke-width:0.5;"/>
     </g>
     <g id="line2d_110">
      <g>
       <use style="fill:#555555;stroke:#555555;stroke-width:0.5;" x="72.0" xlink:href="#m8bc147ca23" y="398.16"/>
      </g>
     </g>
     <g id="line2d_111">
      <g>
       <use style="fill:#555555;stroke:#555555;stroke-width:0.5;" x="274.909090909" xlink:href="#m8bc147ca23" y="398.16"/>
      </g>
     </g>
     <g id="text_42">
      <!-- 0.14 -->
      <g style="fill:#555555;" transform="translate(47.4375 400.74515625)scale(0.1 -0.1)">
       <use xlink:href="#ArialMT-30"/>
       <use x="55.615234375" xlink:href="#ArialMT-2e"/>
       <use x="83.3984375" xlink:href="#ArialMT-31"/>
       <use x="139.013671875" xlink:href="#ArialMT-34"/>
      </g>
     </g>
    </g>
    <g id="ytick_16">
     <g id="line2d_112">
      <path clip-path="url(#pe8cac2a829)" d="
M72 367.92
L274.909 367.92" style="fill:none;stroke:#000000;stroke-dasharray:1.000000,3.000000;stroke-dashoffset:0.0;stroke-width:0.5;"/>
     </g>
     <g id="line2d_113">
      <g>
       <use style="fill:#555555;stroke:#555555;stroke-width:0.5;" x="72.0" xlink:href="#m8bc147ca23" y="367.92"/>
      </g>
     </g>
     <g id="line2d_114">
      <g>
       <use style="fill:#555555;stroke:#555555;stroke-width:0.5;" x="274.909090909" xlink:href="#m8bc147ca23" y="367.92"/>
      </g>
     </g>
     <g id="text_43">
      <!-- 0.15 -->
      <g style="fill:#555555;" transform="translate(47.3546875 370.50515625)scale(0.1 -0.1)">
       <use xlink:href="#ArialMT-30"/>
       <use x="55.615234375" xlink:href="#ArialMT-2e"/>
       <use x="83.3984375" xlink:href="#ArialMT-31"/>
       <use x="139.013671875" xlink:href="#ArialMT-35"/>
      </g>
     </g>
    </g>
    <g id="ytick_17">
     <g id="line2d_115">
      <path clip-path="url(#pe8cac2a829)" d="
M72 337.68
L274.909 337.68" style="fill:none;stroke:#000000;stroke-dasharray:1.000000,3.000000;stroke-dashoffset:0.0;stroke-width:0.5;"/>
     </g>
     <g id="line2d_116">
      <g>
       <use style="fill:#555555;stroke:#555555;stroke-width:0.5;" x="72.0" xlink:href="#m8bc147ca23" y="337.68"/>
      </g>
     </g>
     <g id="line2d_117">
      <g>
       <use style="fill:#555555;stroke:#555555;stroke-width:0.5;" x="274.909090909" xlink:href="#m8bc147ca23" y="337.68"/>
      </g>
     </g>
     <g id="text_44">
      <!-- 0.16 -->
      <g style="fill:#555555;" transform="translate(47.4125 340.26515625)scale(0.1 -0.1)">
       <use xlink:href="#ArialMT-30"/>
       <use x="55.615234375" xlink:href="#ArialMT-2e"/>
       <use x="83.3984375" xlink:href="#ArialMT-31"/>
       <use x="139.013671875" xlink:href="#ArialMT-36"/>
      </g>
     </g>
    </g>
    <g id="ytick_18">
     <g id="line2d_118">
      <path clip-path="url(#pe8cac2a829)" d="
M72 307.44
L274.909 307.44" style="fill:none;stroke:#000000;stroke-dasharray:1.000000,3.000000;stroke-dashoffset:0.0;stroke-width:0.5;"/>
     </g>
     <g id="line2d_119">
      <g>
       <use style="fill:#555555;stroke:#555555;stroke-width:0.5;" x="72.0" xlink:href="#m8bc147ca23" y="307.44"/>
      </g>
     </g>
     <g id="line2d_120">
      <g>
       <use style="fill:#555555;stroke:#555555;stroke-width:0.5;" x="274.909090909" xlink:href="#m8bc147ca23" y="307.44"/>
      </g>
     </g>
     <g id="text_45">
      <!-- 0.17 -->
      <defs>
       <path d="
M4.73438 62.2031
L4.73438 70.6562
L51.0781 70.6562
L51.0781 63.8125
Q44.2344 56.5469 37.5156 44.4844
Q30.8125 32.4219 27.1562 19.6719
Q24.5156 10.6875 23.7812 0
L14.75 0
Q14.8906 8.45312 18.0625 20.4062
Q21.2344 32.375 27.1719 43.4844
Q33.1094 54.5938 39.7969 62.2031
z
" id="ArialMT-37"/>
      </defs>
      <g style="fill:#555555;" transform="translate(47.4078125 310.02515625)scale(0.1 -0.1)">
       <use xlink:href="#ArialMT-30"/>
       <use x="55.615234375" xlink:href="#ArialMT-2e"/>
       <use x="83.3984375" xlink:href="#ArialMT-31"/>
       <use x="139.013671875" xlink:href="#ArialMT-37"/>
      </g>
     </g>
    </g>
    <g id="ytick_19">
     <g id="line2d_121">
      <path clip-path="url(#pe8cac2a829)" d="
M72 277.2
L274.909 277.2" style="fill:none;stroke:#000000;stroke-dasharray:1.000000,3.000000;stroke-dashoffset:0.0;stroke-width:0.5;"/>
     </g>
     <g id="line2d_122">
      <g>
       <use style="fill:#555555;stroke:#555555;stroke-width:0.5;" x="72.0" xlink:href="#m8bc147ca23" y="277.2"/>
      </g>
     </g>
     <g id="line2d_123">
      <g>
       <use style="fill:#555555;stroke:#555555;stroke-width:0.5;" x="274.909090909" xlink:href="#m8bc147ca23" y="277.2"/>
      </g>
     </g>
     <g id="text_46">
      <!-- 0.18 -->
      <g style="fill:#555555;" transform="translate(47.39375 279.78515625)scale(0.1 -0.1)">
       <use xlink:href="#ArialMT-30"/>
       <use x="55.615234375" xlink:href="#ArialMT-2e"/>
       <use x="83.3984375" xlink:href="#ArialMT-31"/>
       <use x="139.013671875" xlink:href="#ArialMT-38"/>
      </g>
     </g>
    </g>
   </g>
   <g id="line2d_124">
    <path clip-path="url(#pe8cac2a829)" d="
M73.6894 334.184
L76.6376 332.375
L79.0418 330.922
L81.2693 329.594
L83.3921 328.347
L85.444 327.158
L87.4446 326.016
L89.4067 324.913
L91.3395 323.843
L93.2496 322.804
L95.1423 321.792
L97.0218 320.805
L98.8915 319.841
L100.754 318.901
L102.613 317.982
L104.47 317.085
L106.326 316.209
L108.184 315.354
L110.046 314.521
L111.913 313.709
L113.786 312.919
L115.667 312.151
L117.558 311.406
L119.459 310.685
L121.372 309.989
L123.299 309.319
L125.241 308.676
L127.199 308.062
L129.174 307.477
L131.169 306.925
L133.184 306.407
L135.221 305.925
L137.283 305.481
L139.37 305.078
L141.484 304.72
L143.629 304.409
L145.805 304.15
L148.015 303.946
L150.262 303.803
L152.549 303.725
L154.878 303.718
L157.253 303.789
L159.677 303.946
L162.156 304.197
L164.693 304.552
L167.293 305.022
L169.964 305.62
L172.711 306.362
L175.542 307.265
L178.467 308.351
L181.497 309.643
L184.645 311.173
L187.927 312.978
L191.361 315.102
L194.974 317.605
L198.795 320.56
L202.866 324.065
L207.245 328.256
L212.01 333.324
L217.285 339.559
L223.27 347.436
L230.345 357.847
L239.438 372.932
L259.783 412.921" style="fill:none;stroke:#348abd;stroke-linecap:square;stroke-width:3;"/>
   </g>
   <g id="patch_15">
    <path d="
M72 277.2
L274.909 277.2" style="fill:none;stroke:#bcbcbc;"/>
   </g>
   <g id="patch_16">
    <path d="
M274.909 428.4
L274.909 277.2" style="fill:none;stroke:#bcbcbc;"/>
   </g>
   <g id="patch_17">
    <path d="
M72 428.4
L274.909 428.4" style="fill:none;stroke:#bcbcbc;"/>
   </g>
   <g id="patch_18">
    <path d="
M72 428.4
L72 277.2" style="fill:none;stroke:#bcbcbc;"/>
   </g>
   <g id="text_47">
    <!-- Firm Type Fractions -->
    <defs>
     <path d="
M40.4375 19
L49.0781 17.875
Q47.6562 8.9375 41.8125 3.875
Q35.9844 -1.17188 27.4844 -1.17188
Q16.8438 -1.17188 10.375 5.78125
Q3.90625 12.75 3.90625 25.7344
Q3.90625 34.125 6.6875 40.4219
Q9.46875 46.7344 15.1562 49.875
Q20.8438 53.0312 27.5469 53.0312
Q35.9844 53.0312 41.3594 48.75
Q46.7344 44.4844 48.25 36.625
L39.7031 35.2969
Q38.4844 40.5312 35.375 43.1562
Q32.2812 45.7969 27.875 45.7969
Q21.2344 45.7969 17.0781 41.0312
Q12.9375 36.2812 12.9375 25.9844
Q12.9375 15.5312 16.9375 10.7969
Q20.9531 6.0625 27.3906 6.0625
Q32.5625 6.0625 36.0312 9.23438
Q39.5 12.4062 40.4375 19" id="ArialMT-63"/>
     <path d="
M6.59375 0
L6.59375 51.8594
L14.4531 51.8594
L14.4531 44.5781
Q16.8906 48.3906 20.9375 50.7031
Q25 53.0312 30.1719 53.0312
Q35.9375 53.0312 39.625 50.6406
Q43.3125 48.25 44.8281 43.9531
Q50.9844 53.0312 60.8438 53.0312
Q68.5625 53.0312 72.7031 48.75
Q76.8594 44.4844 76.8594 35.5938
L76.8594 0
L68.1094 0
L68.1094 32.6719
Q68.1094 37.9375 67.25 40.25
Q66.4062 42.5781 64.1562 43.9844
Q61.9219 45.4062 58.8906 45.4062
Q53.4219 45.4062 49.7969 41.7656
Q46.1875 38.1406 46.1875 30.125
L46.1875 0
L37.4062 0
L37.4062 33.6875
Q37.4062 39.5469 35.25 42.4688
Q33.1094 45.4062 28.2188 45.4062
Q24.5156 45.4062 21.3594 43.4531
Q18.2188 41.5 16.7969 37.7344
Q15.375 33.9844 15.375 26.9062
L15.375 0
z
" id="ArialMT-6d"/>
     <path d="
M8.20312 0
L8.20312 71.5781
L56.5 71.5781
L56.5 63.1406
L17.6719 63.1406
L17.6719 40.9688
L51.2656 40.9688
L51.2656 32.5156
L17.6719 32.5156
L17.6719 0
z
" id="ArialMT-46"/>
    </defs>
    <g transform="translate(110.249795455 272.2)scale(0.144 -0.144)">
     <use xlink:href="#ArialMT-46"/>
     <use x="61.083984375" xlink:href="#ArialMT-69"/>
     <use x="83.30078125" xlink:href="#ArialMT-72"/>
     <use x="116.6015625" xlink:href="#ArialMT-6d"/>
     <use x="199.90234375" xlink:href="#ArialMT-20"/>
     <use x="225.935546875" xlink:href="#ArialMT-54"/>
     <use x="281.51953125" xlink:href="#ArialMT-79"/>
     <use x="331.51953125" xlink:href="#ArialMT-70"/>
     <use x="387.134765625" xlink:href="#ArialMT-65"/>
     <use x="442.75" xlink:href="#ArialMT-20"/>
     <use x="470.533203125" xlink:href="#ArialMT-46"/>
     <use x="531.6171875" xlink:href="#ArialMT-72"/>
     <use x="564.91796875" xlink:href="#ArialMT-61"/>
     <use x="620.533203125" xlink:href="#ArialMT-63"/>
     <use x="670.533203125" xlink:href="#ArialMT-74"/>
     <use x="698.31640625" xlink:href="#ArialMT-69"/>
     <use x="720.533203125" xlink:href="#ArialMT-6f"/>
     <use x="776.1484375" xlink:href="#ArialMT-6e"/>
     <use x="831.763671875" xlink:href="#ArialMT-73"/>
    </g>
   </g>
  </g>
  <g id="axes_4">
   <g id="patch_19">
    <path d="
M315.491 428.4
L518.4 428.4
L518.4 277.2
L315.491 277.2
z
" style="fill:#eeeeee;"/>
   </g>
   <g id="matplotlib.axis_7">
    <g id="xtick_19">
     <g id="line2d_125">
      <path clip-path="url(#p12bb6863c9)" d="
M315.491 428.4
L315.491 277.2" style="fill:none;stroke:#000000;stroke-dasharray:1.000000,3.000000;stroke-dashoffset:0.0;stroke-width:0.5;"/>
     </g>
     <g id="line2d_126">
      <g>
       <use style="fill:#555555;stroke:#555555;stroke-width:0.5;" x="315.490909091" xlink:href="#m91191bb255" y="428.4"/>
      </g>
     </g>
     <g id="line2d_127">
      <g>
       <use style="fill:#555555;stroke:#555555;stroke-width:0.5;" x="315.490909091" xlink:href="#m64c3aef5f4" y="277.2"/>
      </g>
     </g>
     <g id="text_48">
      <!-- 0.0 -->
      <g style="fill:#555555;" transform="translate(308.987784091 441.5578125)scale(0.1 -0.1)">
       <use xlink:href="#ArialMT-30"/>
       <use x="55.615234375" xlink:href="#ArialMT-2e"/>
       <use x="83.3984375" xlink:href="#ArialMT-30"/>
      </g>
     </g>
    </g>
    <g id="xtick_20">
     <g id="line2d_128">
      <path clip-path="url(#p12bb6863c9)" d="
M356.073 428.4
L356.073 277.2" style="fill:none;stroke:#000000;stroke-dasharray:1.000000,3.000000;stroke-dashoffset:0.0;stroke-width:0.5;"/>
     </g>
     <g id="line2d_129">
      <g>
       <use style="fill:#555555;stroke:#555555;stroke-width:0.5;" x="356.072727273" xlink:href="#m91191bb255" y="428.4"/>
      </g>
     </g>
     <g id="line2d_130">
      <g>
       <use style="fill:#555555;stroke:#555555;stroke-width:0.5;" x="356.072727273" xlink:href="#m64c3aef5f4" y="277.2"/>
      </g>
     </g>
     <g id="text_49">
      <!-- 0.2 -->
      <g style="fill:#555555;" transform="translate(349.593821023 441.5578125)scale(0.1 -0.1)">
       <use xlink:href="#ArialMT-30"/>
       <use x="55.615234375" xlink:href="#ArialMT-2e"/>
       <use x="83.3984375" xlink:href="#ArialMT-32"/>
      </g>
     </g>
    </g>
    <g id="xtick_21">
     <g id="line2d_131">
      <path clip-path="url(#p12bb6863c9)" d="
M396.655 428.4
L396.655 277.2" style="fill:none;stroke:#000000;stroke-dasharray:1.000000,3.000000;stroke-dashoffset:0.0;stroke-width:0.5;"/>
     </g>
     <g id="line2d_132">
      <g>
       <use style="fill:#555555;stroke:#555555;stroke-width:0.5;" x="396.654545455" xlink:href="#m91191bb255" y="428.4"/>
      </g>
     </g>
     <g id="line2d_133">
      <g>
       <use style="fill:#555555;stroke:#555555;stroke-width:0.5;" x="396.654545455" xlink:href="#m64c3aef5f4" y="277.2"/>
      </g>
     </g>
     <g id="text_50">
      <!-- 0.4 -->
      <g style="fill:#555555;" transform="translate(390.153764205 441.5578125)scale(0.1 -0.1)">
       <use xlink:href="#ArialMT-30"/>
       <use x="55.615234375" xlink:href="#ArialMT-2e"/>
       <use x="83.3984375" xlink:href="#ArialMT-34"/>
      </g>
     </g>
    </g>
    <g id="xtick_22">
     <g id="line2d_134">
      <path clip-path="url(#p12bb6863c9)" d="
M437.236 428.4
L437.236 277.2" style="fill:none;stroke:#000000;stroke-dasharray:1.000000,3.000000;stroke-dashoffset:0.0;stroke-width:0.5;"/>
     </g>
     <g id="line2d_135">
      <g>
       <use style="fill:#555555;stroke:#555555;stroke-width:0.5;" x="437.236363636" xlink:href="#m91191bb255" y="428.4"/>
      </g>
     </g>
     <g id="line2d_136">
      <g>
       <use style="fill:#555555;stroke:#555555;stroke-width:0.5;" x="437.236363636" xlink:href="#m64c3aef5f4" y="277.2"/>
      </g>
     </g>
     <g id="text_51">
      <!-- 0.6 -->
      <g style="fill:#555555;" transform="translate(430.723082386 441.5578125)scale(0.1 -0.1)">
       <use xlink:href="#ArialMT-30"/>
       <use x="55.615234375" xlink:href="#ArialMT-2e"/>
       <use x="83.3984375" xlink:href="#ArialMT-36"/>
      </g>
     </g>
    </g>
    <g id="xtick_23">
     <g id="line2d_137">
      <path clip-path="url(#p12bb6863c9)" d="
M477.818 428.4
L477.818 277.2" style="fill:none;stroke:#000000;stroke-dasharray:1.000000,3.000000;stroke-dashoffset:0.0;stroke-width:0.5;"/>
     </g>
     <g id="line2d_138">
      <g>
       <use style="fill:#555555;stroke:#555555;stroke-width:0.5;" x="477.818181818" xlink:href="#m91191bb255" y="428.4"/>
      </g>
     </g>
     <g id="line2d_139">
      <g>
       <use style="fill:#555555;stroke:#555555;stroke-width:0.5;" x="477.818181818" xlink:href="#m64c3aef5f4" y="277.2"/>
      </g>
     </g>
     <g id="text_52">
      <!-- 0.8 -->
      <g style="fill:#555555;" transform="translate(471.295525568 441.5578125)scale(0.1 -0.1)">
       <use xlink:href="#ArialMT-30"/>
       <use x="55.615234375" xlink:href="#ArialMT-2e"/>
       <use x="83.3984375" xlink:href="#ArialMT-38"/>
      </g>
     </g>
    </g>
    <g id="xtick_24">
     <g id="line2d_140">
      <path clip-path="url(#p12bb6863c9)" d="
M518.4 428.4
L518.4 277.2" style="fill:none;stroke:#000000;stroke-dasharray:1.000000,3.000000;stroke-dashoffset:0.0;stroke-width:0.5;"/>
     </g>
     <g id="line2d_141">
      <g>
       <use style="fill:#555555;stroke:#555555;stroke-width:0.5;" x="518.4" xlink:href="#m91191bb255" y="428.4"/>
      </g>
     </g>
     <g id="line2d_142">
      <g>
       <use style="fill:#555555;stroke:#555555;stroke-width:0.5;" x="518.4" xlink:href="#m64c3aef5f4" y="277.2"/>
      </g>
     </g>
     <g id="text_53">
      <!-- 1.0 -->
      <g style="fill:#555555;" transform="translate(512.23359375 441.5578125)scale(0.1 -0.1)">
       <use xlink:href="#ArialMT-31"/>
       <use x="55.615234375" xlink:href="#ArialMT-2e"/>
       <use x="83.3984375" xlink:href="#ArialMT-30"/>
      </g>
     </g>
    </g>
    <g id="text_54">
     <!-- Industry Sequentiality -->
     <g style="fill:#555555;" transform="translate(359.635142045 457.2809375)scale(0.12 -0.12)">
      <use xlink:href="#ArialMT-49"/>
      <use x="27.783203125" xlink:href="#ArialMT-6e"/>
      <use x="83.3984375" xlink:href="#ArialMT-64"/>
      <use x="139.013671875" xlink:href="#ArialMT-75"/>
      <use x="194.62890625" xlink:href="#ArialMT-73"/>
      <use x="244.62890625" xlink:href="#ArialMT-74"/>
      <use x="272.412109375" xlink:href="#ArialMT-72"/>
      <use x="305.712890625" xlink:href="#ArialMT-79"/>
      <use x="355.712890625" xlink:href="#ArialMT-20"/>
      <use x="383.49609375" xlink:href="#ArialMT-53"/>
      <use x="450.1953125" xlink:href="#ArialMT-65"/>
      <use x="505.810546875" xlink:href="#ArialMT-71"/>
      <use x="561.42578125" xlink:href="#ArialMT-75"/>
      <use x="617.041015625" xlink:href="#ArialMT-65"/>
      <use x="672.65625" xlink:href="#ArialMT-6e"/>
      <use x="728.271484375" xlink:href="#ArialMT-74"/>
      <use x="756.0546875" xlink:href="#ArialMT-69"/>
      <use x="778.271484375" xlink:href="#ArialMT-61"/>
      <use x="833.88671875" xlink:href="#ArialMT-6c"/>
      <use x="856.103515625" xlink:href="#ArialMT-69"/>
      <use x="878.3203125" xlink:href="#ArialMT-74"/>
      <use x="906.103515625" xlink:href="#ArialMT-79"/>
     </g>
    </g>
   </g>
   <g id="matplotlib.axis_8">
    <g id="ytick_20">
     <g id="line2d_143">
      <path clip-path="url(#p12bb6863c9)" d="
M315.491 428.4
L518.4 428.4" style="fill:none;stroke:#000000;stroke-dasharray:1.000000,3.000000;stroke-dashoffset:0.0;stroke-width:0.5;"/>
     </g>
     <g id="line2d_144">
      <g>
       <use style="fill:#555555;stroke:#555555;stroke-width:0.5;" x="315.490909091" xlink:href="#m8bc147ca23" y="428.4"/>
      </g>
     </g>
     <g id="line2d_145">
      <g>
       <use style="fill:#555555;stroke:#555555;stroke-width:0.5;" x="518.4" xlink:href="#m8bc147ca23" y="428.4"/>
      </g>
     </g>
     <g id="text_55">
      <!-- 0.00 -->
      <g style="fill:#555555;" transform="translate(290.923721591 430.98515625)scale(0.1 -0.1)">
       <use xlink:href="#ArialMT-30"/>
       <use x="55.615234375" xlink:href="#ArialMT-2e"/>
       <use x="83.3984375" xlink:href="#ArialMT-30"/>
       <use x="139.013671875" xlink:href="#ArialMT-30"/>
      </g>
     </g>
    </g>
    <g id="ytick_21">
     <g id="line2d_146">
      <path clip-path="url(#p12bb6863c9)" d="
M315.491 398.16
L518.4 398.16" style="fill:none;stroke:#000000;stroke-dasharray:1.000000,3.000000;stroke-dashoffset:0.0;stroke-width:0.5;"/>
     </g>
     <g id="line2d_147">
      <g>
       <use style="fill:#555555;stroke:#555555;stroke-width:0.5;" x="315.490909091" xlink:href="#m8bc147ca23" y="398.16"/>
      </g>
     </g>
     <g id="line2d_148">
      <g>
       <use style="fill:#555555;stroke:#555555;stroke-width:0.5;" x="518.4" xlink:href="#m8bc147ca23" y="398.16"/>
      </g>
     </g>
     <g id="text_56">
      <!-- 0.05 -->
      <g style="fill:#555555;" transform="translate(290.845596591 400.74515625)scale(0.1 -0.1)">
       <use xlink:href="#ArialMT-30"/>
       <use x="55.615234375" xlink:href="#ArialMT-2e"/>
       <use x="83.3984375" xlink:href="#ArialMT-30"/>
       <use x="139.013671875" xlink:href="#ArialMT-35"/>
      </g>
     </g>
    </g>
    <g id="ytick_22">
     <g id="line2d_149">
      <path clip-path="url(#p12bb6863c9)" d="
M315.491 367.92
L518.4 367.92" style="fill:none;stroke:#000000;stroke-dasharray:1.000000,3.000000;stroke-dashoffset:0.0;stroke-width:0.5;"/>
     </g>
     <g id="line2d_150">
      <g>
       <use style="fill:#555555;stroke:#555555;stroke-width:0.5;" x="315.490909091" xlink:href="#m8bc147ca23" y="367.92"/>
      </g>
     </g>
     <g id="line2d_151">
      <g>
       <use style="fill:#555555;stroke:#555555;stroke-width:0.5;" x="518.4" xlink:href="#m8bc147ca23" y="367.92"/>
      </g>
     </g>
     <g id="text_57">
      <!-- 0.10 -->
      <g style="fill:#555555;" transform="translate(290.923721591 370.50515625)scale(0.1 -0.1)">
       <use xlink:href="#ArialMT-30"/>
       <use x="55.615234375" xlink:href="#ArialMT-2e"/>
       <use x="83.3984375" xlink:href="#ArialMT-31"/>
       <use x="139.013671875" xlink:href="#ArialMT-30"/>
      </g>
     </g>
    </g>
    <g id="ytick_23">
     <g id="line2d_152">
      <path clip-path="url(#p12bb6863c9)" d="
M315.491 337.68
L518.4 337.68" style="fill:none;stroke:#000000;stroke-dasharray:1.000000,3.000000;stroke-dashoffset:0.0;stroke-width:0.5;"/>
     </g>
     <g id="line2d_153">
      <g>
       <use style="fill:#555555;stroke:#555555;stroke-width:0.5;" x="315.490909091" xlink:href="#m8bc147ca23" y="337.68"/>
      </g>
     </g>
     <g id="line2d_154">
      <g>
       <use style="fill:#555555;stroke:#555555;stroke-width:0.5;" x="518.4" xlink:href="#m8bc147ca23" y="337.68"/>
      </g>
     </g>
     <g id="text_58">
      <!-- 0.15 -->
      <g style="fill:#555555;" transform="translate(290.845596591 340.26515625)scale(0.1 -0.1)">
       <use xlink:href="#ArialMT-30"/>
       <use x="55.615234375" xlink:href="#ArialMT-2e"/>
       <use x="83.3984375" xlink:href="#ArialMT-31"/>
       <use x="139.013671875" xlink:href="#ArialMT-35"/>
      </g>
     </g>
    </g>
    <g id="ytick_24">
     <g id="line2d_155">
      <path clip-path="url(#p12bb6863c9)" d="
M315.491 307.44
L518.4 307.44" style="fill:none;stroke:#000000;stroke-dasharray:1.000000,3.000000;stroke-dashoffset:0.0;stroke-width:0.5;"/>
     </g>
     <g id="line2d_156">
      <g>
       <use style="fill:#555555;stroke:#555555;stroke-width:0.5;" x="315.490909091" xlink:href="#m8bc147ca23" y="307.44"/>
      </g>
     </g>
     <g id="line2d_157">
      <g>
       <use style="fill:#555555;stroke:#555555;stroke-width:0.5;" x="518.4" xlink:href="#m8bc147ca23" y="307.44"/>
      </g>
     </g>
     <g id="text_59">
      <!-- 0.20 -->
      <g style="fill:#555555;" transform="translate(290.923721591 310.02515625)scale(0.1 -0.1)">
       <use xlink:href="#ArialMT-30"/>
       <use x="55.615234375" xlink:href="#ArialMT-2e"/>
       <use x="83.3984375" xlink:href="#ArialMT-32"/>
       <use x="139.013671875" xlink:href="#ArialMT-30"/>
      </g>
     </g>
    </g>
    <g id="ytick_25">
     <g id="line2d_158">
      <path clip-path="url(#p12bb6863c9)" d="
M315.491 277.2
L518.4 277.2" style="fill:none;stroke:#000000;stroke-dasharray:1.000000,3.000000;stroke-dashoffset:0.0;stroke-width:0.5;"/>
     </g>
     <g id="line2d_159">
      <g>
       <use style="fill:#555555;stroke:#555555;stroke-width:0.5;" x="315.490909091" xlink:href="#m8bc147ca23" y="277.2"/>
      </g>
     </g>
     <g id="line2d_160">
      <g>
       <use style="fill:#555555;stroke:#555555;stroke-width:0.5;" x="518.4" xlink:href="#m8bc147ca23" y="277.2"/>
      </g>
     </g>
     <g id="text_60">
      <!-- 0.25 -->
      <g style="fill:#555555;" transform="translate(290.845596591 279.78515625)scale(0.1 -0.1)">
       <use xlink:href="#ArialMT-30"/>
       <use x="55.615234375" xlink:href="#ArialMT-2e"/>
       <use x="83.3984375" xlink:href="#ArialMT-32"/>
       <use x="139.013671875" xlink:href="#ArialMT-35"/>
      </g>
     </g>
    </g>
   </g>
   <g id="line2d_161">
    <path clip-path="url(#p12bb6863c9)" d="
M317.18 394.468
L320.129 393.87
L322.533 393.371
L324.76 392.899
L326.883 392.44
L328.935 391.989
L330.935 391.54
L332.898 391.093
L334.83 390.644
L336.741 390.193
L338.633 389.738
L340.513 389.278
L342.382 388.813
L344.245 388.341
L346.104 387.863
L347.961 387.377
L349.817 386.882
L351.675 386.379
L353.537 385.865
L355.404 385.341
L357.277 384.807
L359.158 384.26
L361.049 383.701
L362.95 383.128
L364.863 382.542
L366.79 381.94
L368.732 381.323
L370.689 380.689
L372.665 380.037
L374.659 379.366
L376.675 378.676
L378.712 377.964
L380.773 377.23
L382.861 376.471
L384.975 375.687
L387.12 374.876
L389.296 374.035
L391.506 373.164
L393.753 372.259
L396.04 371.318
L398.369 370.338
L400.744 369.316
L403.168 368.25
L405.647 367.134
L408.184 365.965
L410.784 364.737
L413.455 363.446
L416.202 362.084
L419.033 360.644
L421.958 359.117
L424.988 357.493
L428.136 355.76
L431.418 353.902
L434.852 351.902
L438.465 349.736
L442.286 347.376
L446.357 344.783
L450.736 341.907
L455.501 338.675
L460.776 334.978
L466.761 330.643
L473.836 325.347
L482.929 318.324
L503.274 302.243" style="fill:none;stroke:#348abd;stroke-linecap:square;stroke-width:3;"/>
   </g>
   <g id="patch_20">
    <path d="
M315.491 277.2
L518.4 277.2" style="fill:none;stroke:#bcbcbc;"/>
   </g>
   <g id="patch_21">
    <path d="
M518.4 428.4
L518.4 277.2" style="fill:none;stroke:#bcbcbc;"/>
   </g>
   <g id="patch_22">
    <path d="
M315.491 428.4
L518.4 428.4" style="fill:none;stroke:#bcbcbc;"/>
   </g>
   <g id="patch_23">
    <path d="
M315.491 428.4
L315.491 277.2" style="fill:none;stroke:#bcbcbc;"/>
   </g>
   <g id="text_61">
    <!-- Monopoly Distortion -->
    <defs>
     <path d="
M7.42188 0
L7.42188 71.5781
L21.6875 71.5781
L38.625 20.9062
Q40.9688 13.8125 42.0469 10.2969
Q43.2656 14.2031 45.8438 21.7812
L62.9844 71.5781
L75.7344 71.5781
L75.7344 0
L66.6094 0
L66.6094 59.9062
L45.7969 0
L37.25 0
L16.5469 60.9375
L16.5469 0
z
" id="ArialMT-4d"/>
     <path d="
M7.71875 0
L7.71875 71.5781
L32.375 71.5781
Q40.7188 71.5781 45.125 70.5625
Q51.2656 69.1406 55.6094 65.4375
Q61.2812 60.6406 64.0781 53.1875
Q66.8906 45.75 66.8906 36.1875
Q66.8906 28.0312 64.9844 21.7344
Q63.0938 15.4375 60.1094 11.2969
Q57.125 7.17188 53.5781 4.79688
Q50.0469 2.4375 45.0469 1.21875
Q40.0469 0 33.5469 0
z

M17.1875 8.45312
L32.4688 8.45312
Q39.5469 8.45312 43.5781 9.76562
Q47.6094 11.0781 50 13.4844
Q53.375 16.8438 55.25 22.5312
Q57.125 28.2188 57.125 36.3281
Q57.125 47.5625 53.4375 53.5938
Q49.75 59.625 44.4844 61.6719
Q40.6719 63.1406 32.2344 63.1406
L17.1875 63.1406
z
" id="ArialMT-44"/>
    </defs>
    <g transform="translate(353.814954545 272.2)scale(0.144 -0.144)">
     <use xlink:href="#ArialMT-4d"/>
     <use x="83.30078125" xlink:href="#ArialMT-6f"/>
     <use x="138.916015625" xlink:href="#ArialMT-6e"/>
     <use x="194.53125" xlink:href="#ArialMT-6f"/>
     <use x="250.146484375" xlink:href="#ArialMT-70"/>
     <use x="305.76171875" xlink:href="#ArialMT-6f"/>
     <use x="361.376953125" xlink:href="#ArialMT-6c"/>
     <use x="383.59375" xlink:href="#ArialMT-79"/>
     <use x="433.59375" xlink:href="#ArialMT-20"/>
     <use x="461.376953125" xlink:href="#ArialMT-44"/>
     <use x="533.59375" xlink:href="#ArialMT-69"/>
     <use x="555.810546875" xlink:href="#ArialMT-73"/>
     <use x="605.810546875" xlink:href="#ArialMT-74"/>
     <use x="633.59375" xlink:href="#ArialMT-6f"/>
     <use x="689.208984375" xlink:href="#ArialMT-72"/>
     <use x="722.509765625" xlink:href="#ArialMT-74"/>
     <use x="750.29296875" xlink:href="#ArialMT-69"/>
     <use x="772.509765625" xlink:href="#ArialMT-6f"/>
     <use x="828.125" xlink:href="#ArialMT-6e"/>
    </g>
   </g>
  </g>
 </g>
 <defs>
  <clipPath id="p12bb6863c9">
   <rect height="151.2" width="202.909090909" x="315.490909091" y="277.2"/>
  </clipPath>
  <clipPath id="p4c0c3b2f69">
   <rect height="151.2" width="202.909090909" x="72.0" y="50.4"/>
  </clipPath>
  <clipPath id="p02f879df47">
   <rect height="151.2" width="202.909090909" x="315.490909091" y="50.4"/>
  </clipPath>
  <clipPath id="pe8cac2a829">
   <rect height="151.2" width="202.909090909" x="72.0" y="277.2"/>
  </clipPath>
 </defs>
</svg>
